<svg xmlns="http://www.w3.org/2000/svg" width="102" height="102" viewBox="0 0 102 102">
  <g id="activeADS" transform="translate(-3.849 -3.849)">
    <g id="Group_1440" data-name="Group 1440" transform="translate(4 4)">
      <rect id="Rectangle_1958" data-name="Rectangle 1958" width="102" height="102" transform="translate(-0.151 -0.151)" fill="none"/>
      <g id="Group_1435" data-name="Group 1435" transform="translate(15.302 12.966)">
        <path id="Path_1389" data-name="Path 1389" d="M69.075,7.593a9.416,9.416,0,0,0-8.91-.8L25.508,21.65H10.432A9.444,9.444,0,0,0,1,31.082V43.658A9.432,9.432,0,0,0,6.688,52.3L1.924,73.734a6.293,6.293,0,0,0,6.143,7.653h2.99a6.251,6.251,0,0,0,6.137-4.924l5.194-23.373H25.5l34.65,14.947h.009a9.434,9.434,0,0,0,13.148-8.668v-43.9A9.4,9.4,0,0,0,69.075,7.593ZM10.432,46.8a3.147,3.147,0,0,1-3.144-3.144V31.082a3.147,3.147,0,0,1,3.144-3.144H23.008V46.8Zm.619,28.3H8.065l4.889-22.008h2.99ZM67.025,59.372a3.141,3.141,0,0,1-4.373,2.889L29.3,47.875V26.863l33.342-14.29a3.142,3.142,0,0,1,4.383,2.889V59.369Z" transform="translate(-1 -6.033)" fill="#2f2f2f"/>
        <path id="Path_1397" data-name="Path 1397" d="M167.826,169.277,152.793,184.31a2.311,2.311,0,0,1-3.27,0l-7.516-7.516a2.312,2.312,0,1,1,3.27-3.27l5.881,5.881,13.4-13.4a2.312,2.312,0,0,1,3.27,3.27Zm0,0" transform="translate(-107.755 -145.252)" fill="#2f2f2f"/>
      </g>
    </g>
  </g>
</svg>
