<svg xmlns="http://www.w3.org/2000/svg" width="48" height="63.145" viewBox="0 0 48 63.145">
  <g id="Group_2396" data-name="Group 2396" transform="translate(-6354 -9791)">
    <line id="Line_68" data-name="Line 68" y2="29" transform="translate(6378.5 9823.145)" fill="none" stroke="#2f2f2f" stroke-linecap="round" stroke-width="4"/>
    <g id="Ellipse_67" data-name="Ellipse 67" transform="translate(6354 9791)" fill="#ffd600" stroke="#2f2f2f" stroke-width="4">
      <circle cx="24" cy="24" r="24" stroke="none"/>
      <circle cx="24" cy="24" r="22" fill="none"/>
    </g>
    <g id="svgexport-17_7_" data-name="svgexport-17 (7)" transform="translate(6346.479 9803.34)">
      <path id="Path_5067" data-name="Path 5067" d="M42.224,22.349H40.767V.486A.486.486,0,0,0,40.281,0H23.762a.486.486,0,0,0-.486.486V22.349H21.819a.486.486,0,1,0,0,.972H42.224a.486.486,0,1,0,0-.972Zm-8.259,0H30.078V18.462h3.887Zm5.83,0H34.937V17.976a.486.486,0,0,0-.486-.486H29.592a.486.486,0,0,0-.486.486v4.373H24.248V.972H39.8V22.349Z" transform="translate(0 0)" fill="#2f2f2f" stroke="#2f2f2f" stroke-width="0.5"/>
      <path id="Path_5068" data-name="Path 5068" d="M107.152,67.886h2.915a.486.486,0,0,0,.486-.486V64.485a.486.486,0,0,0-.486-.486h-2.915a.486.486,0,0,0-.486.486V67.4A.486.486,0,0,0,107.152,67.886Zm.486-2.915h1.943v1.943h-1.943Zm9.231,2.915h2.915a.486.486,0,0,0,.486-.486V64.485a.486.486,0,0,0-.486-.486h-2.915a.486.486,0,0,0-.486.486V67.4A.486.486,0,0,0,116.869,67.886Zm.486-2.915H119.3v1.943h-1.943Zm-5.344,2.915h2.915a.486.486,0,0,0,.486-.486V64.485a.486.486,0,0,0-.486-.486H112.01a.486.486,0,0,0-.486.486V67.4A.486.486,0,0,0,112.01,67.886Zm.486-2.915h1.943v1.943H112.5Zm-5.344,7.774h2.915a.486.486,0,0,0,.486-.486V69.343a.486.486,0,0,0-.486-.486h-2.915a.486.486,0,0,0-.486.486v2.915A.486.486,0,0,0,107.152,72.744Zm.486-2.915h1.943v1.943h-1.943Zm9.231,2.915h2.915a.486.486,0,0,0,.486-.486V69.343a.486.486,0,0,0-.486-.486h-2.915a.486.486,0,0,0-.486.486v2.915A.486.486,0,0,0,116.869,72.744Zm.486-2.915H119.3v1.943h-1.943Zm-5.344,2.915h2.915a.486.486,0,0,0,.486-.486V69.343a.486.486,0,0,0-.486-.486H112.01a.486.486,0,0,0-.486.486v2.915A.486.486,0,0,0,112.01,72.744Zm.486-2.915h1.943v1.943H112.5ZM107.152,77.6h2.915a.486.486,0,0,0,.486-.486V74.2a.486.486,0,0,0-.486-.486h-2.915a.486.486,0,0,0-.486.486v2.915A.486.486,0,0,0,107.152,77.6Zm.486-2.915h1.943v1.943h-1.943Zm9.231,2.915h2.915a.486.486,0,0,0,.486-.486V74.2a.486.486,0,0,0-.486-.486h-2.915a.486.486,0,0,0-.486.486v2.915A.486.486,0,0,0,116.869,77.6Zm.486-2.915H119.3v1.943h-1.943ZM112.01,77.6h2.915a.486.486,0,0,0,.486-.486V74.2a.486.486,0,0,0-.486-.486H112.01a.486.486,0,0,0-.486.486v2.915A.486.486,0,0,0,112.01,77.6Zm.486-2.915h1.943v1.943H112.5Z" transform="translate(-81.446 -61.084)" fill="#2f2f2f" stroke="#2f2f2f" stroke-width="0.5"/>
    </g>
  </g>
</svg>
