<svg xmlns="http://www.w3.org/2000/svg" version="1.1" xmlns:xlink="http://www.w3.org/1999/xlink" xmlns:svgjs="http://svgjs.com/svgjs" width="512" height="512" x="0" y="0" viewBox="0 0 473.68 473.68" style="enable-background:new 0 0 512 512" xml:space="preserve"><g><circle cx="236.85" cy="236.85" r="236.83" style="" fill="#FFFFFF" data-original="#ffffff"></circle><path d="M460.147 157.875H314.22c6.339 50.593 6.376 106.339.123 156.996h146.114a236.31 236.31 0 0 0 13.219-78.027c.004-27.703-4.794-54.269-13.529-78.969z" style="" fill="#EFECEC" data-original="#efecec"></path><path d="M314.22 157.875h145.923a1.618 1.618 0 0 0-.075-.206C429.762 72.2 351.792 9.319 258.115.972c36.248 19.873 46.838 82.832 56.105 156.903z" style="" fill="#C42B27" data-original="#c42b27"></path><path d="M258.115 472.701c93.849-8.362 171.928-71.46 202.122-157.157.079-.228.146-.452.228-.673H314.347c-9.196 74.47-19.831 137.875-56.232 157.83z" style="" fill="#0B0B0B" data-original="#0b0b0b"></path><path d="M0 236.844c0 27.348 4.697 53.589 13.219 78.027h313.315c6.26-50.66 6.215-106.403-.116-156.996H13.534C4.798 182.575 0 209.141 0 236.844z" style="" fill="#EFEFEF" data-original="#efefef"></path><path d="M13.608 157.669a3.348 3.348 0 0 1-.075.206h312.885C317.144 83.805 294.362 20.845 258.11.973 251.099.352 244.009 0 236.836 0 133.807 0 46.192 65.802 13.608 157.669z" style="" fill="#CC3434" data-original="#cc3434"></path><path d="M326.535 314.871H13.219c.079.221.153.445.228.673C45.9 407.646 133.642 473.68 236.836 473.68c7.173 0 14.263-.352 21.275-.98 36.405-19.954 59.228-83.359 68.424-157.829z" style="" fill="#151515" data-original="#151515"></path><path d="M283.062 291.932c-2.865-.767-7.113-.138-10.538-.344-.651.381-.568 1.503-.86 2.251.337.696 1.036.314 1.731.86 1.081 1.036 1.817 2.438 3.455 2.936-1.41 1.477-1.372 4.39-3.455 5.187.352 3.396-1.855 3.994-5.187 4.66-15.946 3.179-40.743 3.5-57.695 1.204-2.105-.277-8.283-1.197-9.854-2.584-.621-.561-.995-1.395-.86-2.943-2.001-.995-2.023-3.968-3.624-5.355 2.236-.759 2.666-3.317 5.187-3.799.075-1.058-.381-1.586-.527-2.416-3.556.191-7.879-.4-10.882.344.277-3.863.366-8.253.696-12.782.438-6.054.374-13.148.86-19.173.254-3.074.153-6.253.352-9.327.359-5.838.101-11.634.52-17.105.445-5.901.239-12.206.688-17.786.46-5.785 2.053-10.407 8.807-9.854 8.006.666 13.036 7.371 21.764 7.427 4.054-2.506 7.004-12.24 5.871-19.517-.52-3.366-4.084-8.231-7.595-6.391-.52-5.677 4.888-4.914 8.459-3.111 1.088-.681 1.41-1.638 2.592-1.9 2.928-.651 6.69.681 8.122 1.556 2.719 1.664 3.979 5.355 3.975 10.022-.007 2.416-.546 4.82-.352 7.251.43 5.157 2.184 9.349 4.323 11.922 8.107.744 14.068-6.477 21.933-7.259 3.347-.329 6.137.927 7.603 3.111 2.236 8.298 1.526 17.464 2.244 26.776.43 5.579.176 11.41.52 17.105.781 12.875 1.166 25.803 1.727 39.034zm-38.87-90.345c-.352-4.689.95-9.715-.688-13.994-.767-.729-1.212-1.784-2.251-2.244h-2.584c-1.294.696-1.769 2.132-3.111 2.416-3.194.681-3.448-2.352-5.871-3.28-.628-.247-1.481-.108-2.251-.352-2.315-.707-3.687-1.533-4.835 1.731 4.229-.247 8.006 1.118 8.983 4.667-2.416-.673-1.739 1.496-1.556 2.928.89 7.12-.696 12.857-3.111 16.761-1.148 1.862-2.621 3.317-3.455 5.011 2.513-.467 4.783-.322 6.047-1.907 1.694-2.109 1.328-6.623 2.416-9.151-.101 5.363-1.623 9.319-4.14 12.262 6.155-.868 7.225-6.002 7.771-12.262.452 3.104-.374 6.428-1.387 8.635.797.995 1.249 2.33 2.423 2.943.972-.811 1.694-1.877 2.244-3.111-.897-2.038-1.963-5.74-1.036-8.466-.079 6.645 1.739 11.395 7.434 12.262-2.292-2.898-4.506-7.7-3.807-12.438.198 3.717 1.096 6.735 2.244 9.502 1.586 1.01 3.586 1.601 6.054 1.731-2.758-3.36-5.088-7.829-5.533-13.644zm-10.875-15.718v.688c.415-.067.374.322.856.176.153-.198.236-.46.176-.86-.224-.235-.815-.235-1.032-.004zm-33.342 20.553c-3.818.299-5.879 3.493-5.871 7.259 1.672-.576 3.265-2.139 5.011-2.075-.935 25.994-2.075 49.643-3.111 75.319-1.503 1.417-3.425 2.438-4.491 4.316h9.327c.49-4.121 5.12-4.966 8.983-3.807 1.832-6.339 3.695-12.651 5.363-19.173-1.716 1.051-2.592 2.936-4.323 3.975.621-16.623 1.462-32.8 2.075-49.748 2.666 2.075 6.997 2.199 11.226 1.556 5.063-.774 9.443-3.579 12.606-5.531 3.317 2.943 9.394 5.404 15.549 5.871 3.833.292 5.602-.957 7.947-1.556.359 16.937 1.571 33.503 1.9 49.58-1.41-1.301-2.573-2.842-4.14-3.979 1.526 6.537 3.512 12.614 5.179 19.005 4.024-1.271 8.466-.168 9.158 3.807 3.044-.116 6.559.228 9.319-.176-1.088-1.93-3.77-2.483-4.484-4.491-.811-2.262-.221-5.71-.344-8.642-.95-20.889-2.277-45.563-2.767-66.494 1.956.46 3.197 1.638 5.011 2.244-.389-4.162-2.117-6.997-6.047-7.259-8.941-.598-14.098 7.625-23.144 7.427 0 1.096 1.761 1.343 1.556 2.075-1.731-.123-4.293-.254-6.047-.86-.168.957 1.571 1.395 1.724 2.584-3.433-.583-6.01-2.031-8.115-3.968-.804 1.148-1.526 2.39-2.592 3.28-.912-1.036-1.477-2.446-2.592-3.28-1.817 2.098-4.345 3.485-7.939 3.799.505-.875 1.548-1.212 1.724-2.416-1.593.553-4.244.92-6.047.696.535-.628 1.447-.86 1.556-1.907-8.59.239-14.57-8.093-23.16-7.431zm16.754 18.665c.344 18.937 7.565 32.508 20.033 39.902 11.884-7.816 19.427-20.882 19.524-39.902-6.092-.079-10.385-.965-14.162-2.592-2.124-.912-4.17-2.592-5.871-3.111-4.697 3.706-11.125 5.695-19.524 5.703zm.344 12.606c-.161 8.392-1.503 18.638-.86 27.295 1.761-4.667 1.271-10.583 1.556-16.753.191-4.132 1.036-8.313-.52-11.058.007.235-.083.374-.176.516zm38.353 15.549c0 4.645.228 9.173 1.724 11.914.176-9.188-.98-18.743-1.028-27.815-.228-.007-.239-.213-.52-.168-1.201 4.559-.176 10.437-.176 16.069zm-35.586 9.846c1.488-1.679 3.149-3.186 4.491-5.019-.228-3.74-1.133-6.806-3.111-8.803-.539 4.436-4.806 10.161-1.38 13.822zm29.019-4.842c1.623 1.496 3.01 4.129 4.835 4.843 2.577-4.2-1.141-8.706-1.548-13.478-.228-.007-.247-.228-.527-.168-1.716 2.127-2.722 4.981-2.76 8.803zm-23.148 7.778c1.593-1.694 2.973-3.601 4.315-5.531-2.147-1.709-3.71-4.001-5.695-5.879.445 3.819.696 7.824 1.38 11.41zm17.449-5.363c1.511 1.769 2.577 3.986 4.491 5.363.352-3.74.636-7.539 1.204-11.058-.015-.213-.052-.408-.344-.352-1.596 2.207-3.5 4.107-5.351 6.047zm-23.84 3.456c-.213-1.111-.797-1.847-1.036-2.928-1.488 1.986-1.664 4.959-2.416 7.595-.277.965-.942 1.754-.86 2.767 1.978-.849 2.79-2.857 4.835-3.631.366 1.709 1.219 2.921 1.724 4.491 1.601-.767 1.526-3.197 2.943-4.147.782 2.782 1.601 5.535 2.584 8.122 1.84-1.556 3.938-2.865 4.491-5.703-1.036-2.36-1.986-4.805-2.936-7.251-1.402.957-2.292 3.351-3.455 3.975-.314-2.857-.123-6.208-1.212-8.291-1.423 1.796-2.886 3.546-4.662 5.001zm28.675 3.455c-1.257-1.279-2.124-2.936-3.455-4.14-.497 1.133-1.081 2.251-1.556 3.455-.475 1.204-1.328 2.689-1.38 3.799-.131 2.711 2.857 3.979 4.491 5.703.759-2.696 1.096-5.815 2.244-8.122 1.073 1.35 1.556 3.287 3.111 4.147.797-1.447 1.35-3.141 2.075-4.667 1.477 1.294 2.842 2.696 4.491 3.807-.752-3.119-1.694-7.517-3.111-10.538a13.594 13.594 0 0 1-1.38 3.104c-1.608-1.556-2.827-3.508-4.667-4.835-.519 2.532-.728 5.374-.863 8.287zm-17.621-6.559c-2.797 1.993.307 6.039 1.387 8.298.49-1.993.942-4.016 1.38-6.054a64.334 64.334 0 0 1-2.767-2.244zm9.675 2.416c.52 1.956.546 4.405 1.556 5.879.965-2.038 1.679-4.315 2.584-6.398-.49-.714-.804-1.616-1.724-1.9-.412 1.192-1.934 1.289-2.416 2.419zm-20.901 5.179c-1.357 1.41-2.666 2.865-4.491 3.807-1.204 3.485 1.286 6.443 2.416 9.151 1.571-1.141 2.244-3.179 3.807-4.315.628 2.023 1.058 4.237 2.075 5.871 1.694-1.189 2.666-4.001 4.308-4.66.381 1.87.359 4.132 1.387 5.355.613-3.302 1.402-6.428 2.068-9.678-1.395.284-2.412 2.416-3.799 3.287-.957-2.498-1.578-5.325-2.584-7.778-1.357.95-1.548 3.066-2.767 4.147-.703-1.833-1.201-3.863-2.42-5.187zm32.127 5.187c-.987-1.432-1.571-3.257-3.111-4.147-.621 2.599-1.328 5.12-1.892 7.778-1.44-.826-2.405-3.01-3.807-3.287.696 3.388 1.088 7.087 2.416 9.846.284-2.016.628-3.979 1.212-5.695 1.556 1.496 2.367 3.732 4.315 4.835.542-2.053 1.279-3.9 1.9-5.871 1.462 1.249 2.154 3.257 3.807 4.315.957-2.775 3.388-5.363 2.412-8.975-1.795-1.141-3.134-2.737-4.835-3.979-1.007 1.519-1.37 3.684-2.417 5.18zm-18.821 13.642c-.89.497-1.518 1.257-2.423 1.731-.366-.43-1.432-1.84-1.724-1.212-.239.688-.269 1.578-.52 2.251 1.649.153 4.91-.482 5.695 1.036 2.337-.322 4.222.438 6.047 0 .681-.168 1.212-.905 1.9-1.036 1.286-.254 2.535.228 3.807 0-.236-.752-.052-1.907-.527-2.416-1.133-.045-.935 1.242-2.068 1.204-.591-.789-1.657-1.111-2.251-1.9-.658-4.805-1.073-9.869-2.068-14.338-.393 4.775.703 9.54.512 14.682-.927.797-1.372 2.083-2.416 2.767-.393-1.156-1.963-1.746-2.251-3.28-.752-4.222 1.571-10.766.527-14.169-.969 4.669-1.182 10.103-2.24 14.68zm-22.116.176c.737.467 1.593.826 2.936.688 1.133-1.335 1.907-3.04 3.28-4.14.613 1.862 1.257 3.702 2.083 5.355h1.204c.935-1.133 1.455-2.689 2.416-3.799.606 1.35.897 3.018 1.548 4.315.789.314 2.068.123 3.111.176 1.746-2.958 1.066-7.655-.168-10.706-1.586 1.41-2.521 3.463-4.147 4.835-.703-2.001-.957-4.454-2.251-5.871-1.204 1.372-2.285 2.883-3.448 4.315-1.227-2.169-1.571-5.228-3.287-6.911-.925 4.073-2.099 7.91-3.277 11.743zm45.78-4.836c-1.197-1.455-2.061-3.25-3.631-4.315-1.013 1.687-1.171 4.244-2.251 5.871-1.328-1.496-2.528-4.024-4.14-4.667-.797 3.526-1.84 7.595.176 10.538.987-.045 2.199.131 2.936-.176.797-1.212.927-3.096 1.724-4.315.729 1.286 1.511 2.513 2.244 3.799h1.38c.774-1.817 1.309-3.878 2.251-5.531.935 1.657 2.053 3.126 3.28 4.491.965-.247 2.184-.236 2.592-1.036-1.171-3.725-2.147-7.64-3.28-11.395h-.52c-.817 2.346-1.781 4.552-2.761 6.736zm-42.325 5.875c1.455.168 2.558.666 4.147.688-.546-1.47-.811-3.22-1.9-4.14-.583 1.31-1.802 1.998-2.247 3.452zm41.457.685c.987.086 2.651-.546 3.975-.688-.131-1.043-1.477-2.307-2.244-3.28-1.088.811-1.316 2.494-1.731 3.968zm-34.722.351c.568.352 1.754.093 2.592.176-.329-1.002-.269-2.382-1.204-2.767-.513.815-1.119 1.525-1.388 2.591zm29.543.176h2.416c-.228-1.279-.658-2.345-1.731-2.767-.042 1.028-.932 2-.685 2.767zm16.757-2.427c-4.039.883-9.289 2.412-14.338 2.943-3.885.4-7.363.52-11.058.344-1.013 1.096-.49 2.352.176 3.455 3.511.527 7.457.284 10.882-.176-.191-3.665 4.162-4.574 4.66-.688 3.732-.819 7.909-1.197 10.882-2.767.03-1.458.023-2.898-1.204-3.111zm-49.404 2.595c-2.965-.423-6.959-1.825-9.678-2.416-1.541-.337-2.001-.06-2.584.688v2.423c3.179 1.309 7.087 1.892 10.882 2.592.322-3.9 4.704-3.171 4.484.688 3.755.453 7.042.703 10.89.176.767-1.212 1.271-2.105.344-3.455-4.619.101-8.751.112-14.338-.696zm-15.717 2.072c1.197-.307 2.124-.868 2.936-1.556-.079-.841.176-2.023-.176-2.592-1.938.27-3.318 1.972-2.76 4.148zm66.845-1.38c.868.568 1.746 1.141 2.936 1.38.408-2.038-.826-3.878-2.76-4.147-.359.621-.097 1.87-.176 2.767zm-50.268 4.66c.374-.43.905-.703 1.38-1.036.123-1.387-.052-2.476-.688-3.104-3.036-.423-2.921 3.803-.692 4.14zm35.067-1.205c.247.598 1.043.729 1.724 1.204.707-.389 1.043-1.148 1.556-1.724-.087-3.788-4.432-2.239-3.28.52zm-37.658-.344c-4.6-.153-9.233-3.381-13.302-1.38-.131.841-.752 1.197-.52 2.412-1.948-.206-4.192 2.39-4.316 3.287-.269 1.963 1.687 3.388 2.76 4.667-.123 1.212.108 2.075.52 2.752 14.622 4.843 38.783 4.944 56.831 2.943 5.303-.591 13.754-1.133 15.205-4.147v-2.075c1.915-.505 2.221-2.607 2.76-4.491-1.533-1.002-2.053-3.01-4.491-3.104.482-.696-.337-1.328-.344-2.075-2.154-1.832-4.727-.49-7.771.168-4.185.912-6.926.92-7.954 3.979-.43-1.066-1.462-1.533-2.244-2.251-3.302.482-7.647.834-11.051.176-.898 1.402-2.872 1.731-3.111 3.799-.49-1.294-1.309-2.262-1.212-4.147h-1.724c-.247 1.608-.598 3.089-1.387 4.147-.138-2.105-2.191-2.292-2.928-3.799-3.339.774-8.122.075-11.065 0-1.182.366-1.687 1.41-2.584 2.076-.131-1.534-1.38-1.957-2.072-2.937zm18.829-2.079c.213.89.804 1.387 1.212 2.083 2.105.43 2.292-1.043 2.936-2.083-1.015-.28-3.135-.28-4.148 0zm-2.42 2.943c.737.752 1.47 1.526 2.592 1.9.673-1.791.206-4.446-1.731-4.667.156 1.365-1.007 1.406-.861 2.767zm7.431-2.767c-1.073.774-2.423 3.646-.696 4.667.658-.849 1.832-1.163 2.251-2.251-.725-.599-.564-2.091-1.555-2.416z" style="" fill="#EEBC31" data-original="#eebc31"></path><path d="M202.911 279.842c-1.862 1.642-4.039 3.9-5.871 5.004.819-23.578 2.322-47.803 3.111-72.2 1.784.811 3.74 2.928 5.355 4.491-.748 21.094-1.728 40.428-2.595 62.705zM276.155 284.677c-.987.191-1.948-1.425-2.936-2.251-1.118-.927-2.431-1.702-3.111-2.76-1.088-17.793-.826-36.57-2.251-53.544-.213-2.636-.744-7.225-.344-8.814.542-2.105 4.114-2.906 5.187-4.828 1.319 21.668 2.221 48.855 3.455 72.197zM207.058 218.352c1.657.927 2.857 2.315 4.315 3.455-.415 13.885-1.286 30.508-1.9 44.385-.086 2.031.497 5.228-.176 7.087-.729 2.008-3.549 3.089-4.835 4.835.756-20.119 1.93-40.051 2.596-59.762zM268.552 277.766c-.228.239-.707-.366-1.036-.696-1.021-1.01-2.446-2.565-3.455-3.624-.875-16.896-1.541-34.524-2.244-51.304.972-1.563 2.629-2.438 3.975-3.631 1.006 18.18 1.889 39.765 2.76 59.255zM254.73 225.947c-.262 17.696-7.188 30.238-18.137 37.826-11.189-7.692-17.733-20.033-18.829-37.826 7.894-.052 14.607-2.206 18.829-5.355 4.26 3.571 10.595 5.063 18.137 5.355zm-24.356-1.212c-.307 7.072-.168 16.596-.168 24.36 0 2.835-.583 6.163 0 8.291.307 1.111 2.023 2.139 2.936 2.936 1.182 1.036 2.147 1.971 3.28 2.592 1.687-1.324 5.8-3.347 6.398-5.531.561-2.09 0-5.303 0-8.115v-24.536c-2.244-1.103-4.353-2.33-6.567-3.455-1.586 1.536-4.177 2.048-5.879 3.458zM206.542 288.477c1.081.359 2.79.086 2.936 1.387-.912.337-1.649-.849-2.936-.696v-.691zM266.652 288.824c-.752.628-1.956.797-2.936 1.204-.029-1.204 2.315-1.787 2.936-1.204zM211.725 290.208c1.455.161 2.842.381 3.624 1.204-1.133.045-3.396-.235-3.624-1.204zM261.473 290.38c-.505.613-2.614 1.189-3.807 1.028.804-.684 2.55-1.361 3.807-1.028zM251.971 292.624c-.905.284-2.898.284-3.807 0 .299-1.167 3.418-1.066 3.807 0zM225.371 292.104c-.337 1.279-2.767.46-4.147.688.108-1.548 2.991-.688 4.147-.688zM230.546 292.456c-.841.445-2.659.752-3.631.512.348-.935 2.633-.827 3.631-.512zM246.099 293.144c-1.324-.067-2.423-.344-3.631-.52.651-.614 3.631-.666 3.631.52zM269.939 299.71c.782-.022.359-1.257 1.204-1.212-.123.527.176.628.168 1.036-1.002.535-1.862.797-3.104.344-1.357.722-3.04 3.212-4.835 1.38-1.242.206-1.058 1.817-2.076 2.251-1.38-1.088-2.565-.553-4.667-.352-.621.707-.673 1.971-1.9 2.075.075-.789 1.021-.703 1.036-1.548-.191-.561-1.174-.322-1.556-.696-.322-1.417.782-1.41 1.212-2.076.789.191.856 1.096 1.036 1.907.643.007 1.088-.176 1.556-.352.146-1.002.658-1.642 1.204-2.244-.03-.957-.621-2.259-.52-2.767.987.228.512 1.915 1.036 2.592 1.328-.123 2.117.307 2.416 1.204 1.343-.512 1.746-2.075 3.455-2.068.752 0 1.156.658 1.9.52.206-2.292-.393-7.004-3.28-5.187.131-.905 1.41-.673 2.416-.688 1.815 1.248.076 6.042 3.299 5.881zm-6.05 1.38c.797.714 2.797.329 2.592-1.036-.487-.871-2.933-.497-2.592 1.036zm-3.452.86c.393-.123.875-.153 1.204-.344 0-1.97-2.76-.991-1.204.344zm-1.556.52c.43.03.535-.269.86-.352-.007-.561.075-1.212-.52-1.204-.313.307-.807.999-.34 1.556zm-4.151.352c.535.239.782.075 1.212-.176 0-.408-.299-.512-.176-1.036-.714.034-1.166.318-1.036 1.212zm5.875 0c.546.46 1.264-.022 1.212-.703-.535.108-1.219.045-1.212.703zM207.226 294.699v.86c-.247.269-.883.153-1.38.176-.146-.613-.022-.43-.168-1.036.475-.419 1.01-.314 1.548 0zM206.882 296.771c.022.307-.213.366-.176.688-.703.015-1.35-.022-1.38-.688.285-.262 1.279-.262 1.556 0zM243.16 298.155h.688c.254.247.254 1.133 0 1.38h-.688c-.254-.251-.254-1.134 0-1.38zM224.155 298.495c.535 2.251.92 7.105-1.036 7.427-1.948.314-1.387-2.629-3.28-2.767-1.156.423-2.584.912-3.799.352-.86.06-.722 1.118-1.556 1.212 1.111-1.148.643-2.607.52-3.979.927.108 1.058 1.013 1.036 2.083.497 1.043 2.577.344 3.28 0-.374-.729-.841-1.357-1.212-2.083 1.058-.277 1.058-1.257 2.075-1.204 1.687.079 2.098 2.689.344 3.455 1.133.423 1.271 1.84 2.251 2.416 2.279-.491.611-4.908 1.377-6.912zm-5.175 2.764c-.03.658.568 1.036 1.204 1.387 2.913-1.309-1.096-4.159-1.204-1.387zM226.407 298.495c.561 1.189-.198 3.915-.352 5.531-.497-1.133.105-4.009.352-5.531zM245.58 298.495c1.156 1.148-.206 4.813 1.204 5.695 1.182-.352 1.978-.191 2.251-1.204.239-.897-1.002-1.432-.344-2.075 1.541.075.52 2.244.344 3.111-1.803.482-3.646.651-5.187.344.094-.883 1.021-.935 1.731-1.212.651-1.488-.373-3.451.001-4.659zM244.544 300.57c.108 1.01-2.09.43-1.38-.176.247-.231 1.365-.351 1.38.176zM250.935 306.273c.236-.927.804-1.496 1.212-2.251-.482-.965-2.382-1.87-1.043-3.111 2.654.396 1.405 4.73-.169 5.362zm.168-4.498c.086.666.359 1.148 1.043 1.212.415-.509-.366-1.788-1.043-1.212zM270.108 301.606c-.007 1.01-1.234.673-1.724.344.269-.964 1.151-.677 1.724-.344zM231.242 301.434c1.578 1.103 4.476 1.702 6.559.86.505.482.452 1.511.868 2.075.206-.198.606-.198 1.036-.176-.359-2.053 2.498-2.558 2.416-.344-.527.98-2.075.92-3.631.868-.707.389-.707 1.477-1.38 1.892-.767-.269-1.402-.673-1.556-1.548-2.397-.497-2.711-.198-5.531-.344-.696.819-1.365 2.513-2.416 2.416.505-.883 1.488-1.271 1.731-2.416-.322-.658-1.526-1.174-.868-2.251 1.657-.269.849 1.922 2.244 1.9 1.47-.594.345-1.971.528-2.932zm.52 2.936c.935.007 2.521.03 3.799.176.542.438.606 1.35 1.38 1.556.568-.752 1.548-2.169.696-3.28-1.904 1.574-6.058-2.046-5.875 1.548zm8.631-.176c.897.153 1.227-.269 1.212-1.036-.655-.879-1.826.139-1.212 1.036zM206.022 302.294c.546-.146.535.269.86.352.022.527-.213.826-.344 1.204-.998-.138-.998-1.01-.516-1.556zM208.958 302.99c.729 1.197-1.028 1.84-1.556.86.067-.737.613-1.002 1.556-.86zM211.549 304.37c-.168.007-.138.213-.176.352h-1.212c-.814-1.425 1.456-1.93 1.388-.352zM245.404 305.406c.92.022.812 1.496.176 1.731-.703-.093-.651-1.425-.176-1.731zM247.823 307.137c-.505-.191-1.021-.366-1.204-.86.524-1.653 2.64-.176 1.204.86zM208.098 294.699h.52c.052 2.382-3.556 6.451.52 6.735.666-.423.299-1.885 1.204-2.075.101.912-.352 1.264-.52 1.9.789 2.214 4.768.957 3.111-1.548 1.937.03.415 2.098.168 2.936-1.118.527-2.726-.03-3.624-.696-1.922-.153-3.616-.535-3.799-2.416 1.724-.696 2.105-2.734 2.42-4.836z" style="" fill="#EEBC31" data-original="#eebc31"></path></g></svg>