<svg id="Group_1859" data-name="Group 1859" xmlns="http://www.w3.org/2000/svg" width="50" height="50" viewBox="0 0 50 50">
  <rect id="Rectangle_1958" data-name="Rectangle 1958" width="50" height="50" transform="translate(0 0)" fill="none"/>
  <g id="svgexport-17_4_" data-name="svgexport-17 (4)" transform="translate(4.896 4.544)">
    <path id="Path_1574" data-name="Path 1574" d="M38.817,16.162l-2.872-.487a16.214,16.214,0,0,0-1.154-2.786l1.692-2.367a2.52,2.52,0,0,0-.273-3.256L33.664,4.718a2.509,2.509,0,0,0-1.786-.744,2.483,2.483,0,0,0-1.461.47L28.04,6.137a16.046,16.046,0,0,0-2.889-1.188l-.479-2.837A2.525,2.525,0,0,0,22.177,0h-3.6a2.525,2.525,0,0,0-2.5,2.111l-.5,2.906a15.815,15.815,0,0,0-2.778,1.171L10.461,4.5A2.524,2.524,0,0,0,7.2,4.77L4.649,7.316a2.53,2.53,0,0,0-.273,3.256l1.709,2.4a15.837,15.837,0,0,0-1.137,2.795l-2.837.479A2.525,2.525,0,0,0,0,18.743v3.6a2.525,2.525,0,0,0,2.111,2.5l2.906.5a15.815,15.815,0,0,0,1.171,2.778L4.5,30.451a2.52,2.52,0,0,0,.273,3.256l2.547,2.547A2.509,2.509,0,0,0,9.11,37a2.483,2.483,0,0,0,1.461-.47l2.4-1.709a16.167,16.167,0,0,0,2.7,1.111l.479,2.872a2.525,2.525,0,0,0,2.5,2.111h3.607a2.525,2.525,0,0,0,2.5-2.111l.487-2.872a16.214,16.214,0,0,0,2.786-1.154l2.367,1.692a2.524,2.524,0,0,0,3.256-.273l2.547-2.547a2.53,2.53,0,0,0,.273-3.256l-1.692-2.376a16.1,16.1,0,0,0,1.154-2.786l2.872-.479a2.525,2.525,0,0,0,2.111-2.5v-3.6a2.494,2.494,0,0,0-2.094-2.5Zm-.2,6.093a.221.221,0,0,1-.188.222l-3.589.6a1.147,1.147,0,0,0-.923.846A13.681,13.681,0,0,1,32.433,27.5a1.155,1.155,0,0,0,.051,1.256L34.6,31.733a.233.233,0,0,1-.026.291L32.023,34.57a.217.217,0,0,1-.162.068.21.21,0,0,1-.128-.043l-2.966-2.111a1.155,1.155,0,0,0-1.256-.051,13.681,13.681,0,0,1-3.581,1.487,1.134,1.134,0,0,0-.846.923l-.607,3.589a.221.221,0,0,1-.222.188h-3.6a.221.221,0,0,1-.222-.188l-.6-3.589a1.147,1.147,0,0,0-.846-.923,14.206,14.206,0,0,1-3.5-1.436,1.183,1.183,0,0,0-.581-.154,1.125,1.125,0,0,0-.667.214L9.247,34.673a.254.254,0,0,1-.128.043.229.229,0,0,1-.162-.068L6.41,32.1a.232.232,0,0,1-.026-.291l2.1-2.948A1.17,1.17,0,0,0,8.538,27.6a13.552,13.552,0,0,1-1.5-3.572,1.17,1.17,0,0,0-.923-.846L2.5,22.563a.221.221,0,0,1-.188-.222v-3.6a.221.221,0,0,1,.188-.222l3.564-.6a1.156,1.156,0,0,0,.932-.855,13.667,13.667,0,0,1,1.461-3.589,1.141,1.141,0,0,0-.06-1.248L6.264,9.239a.233.233,0,0,1,.026-.291L8.837,6.4A.217.217,0,0,1,9,6.334a.21.21,0,0,1,.128.043l2.948,2.1a1.17,1.17,0,0,0,1.265.051,13.552,13.552,0,0,1,3.572-1.5,1.17,1.17,0,0,0,.846-.923l.615-3.615A.221.221,0,0,1,18.6,2.3h3.6a.221.221,0,0,1,.222.188l.6,3.564a1.156,1.156,0,0,0,.855.932,13.872,13.872,0,0,1,3.666,1.5,1.156,1.156,0,0,0,1.256-.051l2.948-2.119a.254.254,0,0,1,.128-.043.229.229,0,0,1,.162.068l2.547,2.547a.232.232,0,0,1,.026.291l-2.111,2.966a1.155,1.155,0,0,0-.051,1.256,13.681,13.681,0,0,1,1.487,3.581,1.134,1.134,0,0,0,.923.846l3.589.607a.221.221,0,0,1,.188.222v3.6H38.62Z" transform="translate(0 0)"/>
    <path id="Path_1575" data-name="Path 1575" d="M144.928,136a8.828,8.828,0,1,0,8.828,8.828A8.834,8.834,0,0,0,144.928,136Zm0,15.349a6.521,6.521,0,1,1,6.521-6.521A6.525,6.525,0,0,1,144.928,151.35Z" transform="translate(-124.469 -124.377)"/>
  </g>
</svg>
