<svg xmlns="http://www.w3.org/2000/svg" width="50" height="50" viewBox="0 0 50 50">
  <g id="automatic_tran" transform="translate(-3967 -1837)">
    <g id="Group_2557" data-name="Group 2557">
      <rect id="Rectangle_2154" data-name="Rectangle 2154" width="50" height="50" transform="translate(3967 1837)" fill="none"/>
      <g id="svgexport-10" transform="translate(3976 1845.995)">
        <path id="Path_5146" data-name="Path 5146" d="M27.463,7.634A1.017,1.017,0,0,0,28.48,6.617V5.6h1.526a2.543,2.543,0,1,0,0-5.086H27.463a1.017,1.017,0,0,0-1.017,1.017V6.617A1.017,1.017,0,0,0,27.463,7.634ZM28.48,2.548h1.526a.509.509,0,1,1,0,1.017H28.48Zm1.526,6.1H27.463a1.017,1.017,0,0,0-1.017,1.017v5.086a1.017,1.017,0,0,0,2.034,0V13.737h1.526a.509.509,0,0,1,.509.509v.509a1.017,1.017,0,0,0,2.034,0v-.509a2.525,2.525,0,0,0-.51-1.526A2.546,2.546,0,0,0,30.006,8.651Zm0,3.051H28.48V10.685h1.526a.509.509,0,1,1,0,1.017Zm0,5.086H27.463a1.017,1.017,0,0,0-1.017,1.017v5.086a1.017,1.017,0,0,0,1.017,1.017h2.543a2.545,2.545,0,0,0,2.543-2.543V19.331A2.545,2.545,0,0,0,30.006,16.788Zm.509,4.577a.509.509,0,0,1-.509.509H28.48V18.822h1.526a.509.509,0,0,1,.509.509Zm1.017,3.56a1.017,1.017,0,0,0-1.017,1.017v2.186l-2.257-2.822a1.018,1.018,0,0,0-1.811.635v5.086a1.017,1.017,0,1,0,2.034,0V28.842l2.257,2.822a1.018,1.018,0,0,0,1.811-.635V25.943A1.017,1.017,0,0,0,31.532,24.925ZM7.629,5.6a3.56,3.56,0,1,1,7.12,0v7.629h2.034V5.6a5.594,5.594,0,0,0-11.189,0v7.629H7.629Zm3.56,24.92a3.564,3.564,0,0,1-3.56-3.56H5.594a5.594,5.594,0,1,0,11.189,0H14.749A3.564,3.564,0,0,1,11.189,30.52ZM3.1,17.3H2.479A2.483,2.483,0,0,0,0,19.776v.636a2.483,2.483,0,0,0,2.479,2.479H3.1a4.687,4.687,0,0,1-.053-.7A43.1,43.1,0,0,1,3.1,17.3ZM16.783,15.27c0-.015-9.154-.009-9.154,0A2.741,2.741,0,0,0,5.086,18v4.186a2.741,2.741,0,0,0,2.543,2.731c0,.015,9.154.009,9.154,0a2.741,2.741,0,0,0,2.543-2.731V18A2.741,2.741,0,0,0,16.783,15.27Zm6.1-12.214H21.36a1.017,1.017,0,1,0,0,2.034h1.526a1.017,1.017,0,0,0,0-2.034Zm0,8.137H21.36a1.017,1.017,0,1,0,0,2.034h1.526a1.017,1.017,0,0,0,0-2.034Zm0,16.275H21.36a1.017,1.017,0,0,0,0,2.034h1.526a1.017,1.017,0,0,0,0-2.034Z" fill="#fff"/>
        <path id="Path_5147" data-name="Path 5147" d="M144,58.039v7.629h4.069V58.039a2.034,2.034,0,1,0-4.069,0Zm4.069,21.869V79.4H144v.509a2.034,2.034,0,0,0,4.069,0Z" transform="translate(-134.846 -52.44)" fill="#fff"/>
      </g>
    </g>
  </g>
</svg>
