<svg id="Group_2506" data-name="Group 2506" xmlns="http://www.w3.org/2000/svg" width="40" height="40" viewBox="0 0 40 40">
  <rect id="Rectangle_2016" data-name="Rectangle 2016" width="40" height="40" fill="none"/>
  <g id="svgexport-15_3_" data-name="svgexport-15 (3)" transform="translate(3.618 3.618)">
    <path id="Path_1431" data-name="Path 1431" d="M16.366,0A16.365,16.365,0,1,0,32.731,16.366,16.384,16.384,0,0,0,16.366,0Zm0,30.048A13.683,13.683,0,1,1,30.048,16.366,13.7,13.7,0,0,1,16.366,30.049Z" transform="translate(0 -0.001)" fill="#6c6"/>
    <path id="Path_1432" data-name="Path 1432" d="M81.64,90.7l-9.717,9.717L67.48,95.977a1.341,1.341,0,0,0-1.9,1.9l5.391,5.391a1.342,1.342,0,0,0,1.9,0L83.537,92.6a1.341,1.341,0,0,0-1.9-1.9Z" transform="translate(-58.194 -80.618)" fill="#6c6"/>
  </g>
</svg>
