<svg xmlns="http://www.w3.org/2000/svg" width="41.684" height="41.721" viewBox="0 0 41.684 41.721">
  <g id="icon" transform="translate(-0.001)">
    <path id="Path_1222" data-name="Path 1222" d="M-357.018,941.806c0,.384.011.768,0,1.151a10.954,10.954,0,0,1-.207,2.081c-.135.591-.207,1.2-.35,1.785a16.422,16.422,0,0,1-1.01,3.118c-.342.729-.682,1.46-1.065,2.167a15.307,15.307,0,0,1-1.762,2.622c-.605.714-1.2,1.442-1.869,2.1a20.708,20.708,0,0,1-2.949,2.387,22.356,22.356,0,0,1-2.794,1.575,15.165,15.165,0,0,1-2.469.95c-.66.186-1.317.394-1.987.533-.721.149-1.455.248-2.187.332a16.424,16.424,0,0,1-1.891.128c-.776,0-1.552-.086-2.329-.1a11.832,11.832,0,0,1-1.837-.264c-.49-.087-.969-.235-1.452-.358-.331-.084-.664-.164-.992-.259a18.406,18.406,0,0,1-3.179-1.308,23.214,23.214,0,0,1-3.279-2.061,18.618,18.618,0,0,1-2.41-2.234,18.982,18.982,0,0,1-1.543-1.8,21.044,21.044,0,0,1-1.706-2.713,18.461,18.461,0,0,1-1.356-3.161c-.261-.858-.483-1.727-.7-2.6a6.69,6.69,0,0,1-.108-.862.51.51,0,0,0,0-.118,8.334,8.334,0,0,1-.21-1.562,2.174,2.174,0,0,1-.022-.4c0-.728-.019-1.456.005-2.183a14.416,14.416,0,0,1,.149-1.532c.089-.626.192-1.251.323-1.869a13.014,13.014,0,0,1,.6-2.17c.265-.66.489-1.338.779-1.986a20.51,20.51,0,0,1,2.514-4.155,21.315,21.315,0,0,1,2.5-2.7,20.176,20.176,0,0,1,3.077-2.291,19.37,19.37,0,0,1,3.4-1.681,18.431,18.431,0,0,1,3.072-.9c.646-.118,1.3-.214,1.943-.333a9.281,9.281,0,0,1,1.378-.114c.555-.018,1.111,0,1.667-.006a16.935,16.935,0,0,1,2.872.263c.546.087,1.091.187,1.628.314.408.1.8.242,1.2.374.451.149.9.3,1.348.461A16.186,16.186,0,0,1-367.033,924a26.452,26.452,0,0,1,2.307,1.6c.627.5,1.18,1.089,1.762,1.643a14.794,14.794,0,0,1,1.775,2.022c.4.554.8,1.115,1.161,1.7a17.739,17.739,0,0,1,1.382,2.673,18.3,18.3,0,0,1,1.078,3.269c.151.75.31,1.5.438,2.251a9.44,9.44,0,0,1,.108,1.22c.018.476,0,.952,0,1.429Zm-1.174.151a19.7,19.7,0,0,0-5.713-13.882,19.6,19.6,0,0,0-13.737-5.87,19.6,19.6,0,0,0-14.862,6.646,19.728,19.728,0,0,0-5,13.1,19.687,19.687,0,0,0,5.7,13.687,18.981,18.981,0,0,0,13.651,5.837,19.019,19.019,0,0,0,14.157-5.756A19.493,19.493,0,0,0-358.192,941.957Z" transform="translate(398.699 -921.009)" fill="#fff"/>
    <path id="Path_1223" data-name="Path 1223" d="M-173.275,1019.957h-12.281a3.45,3.45,0,0,1-.048-.4q0-5.752,0-11.505c0-.1.02-.2.036-.351.249,0,.485-.028.716-.009a13.244,13.244,0,0,1,3.287.66,12.018,12.018,0,0,1,3.465,1.884,12.6,12.6,0,0,1,3.772,4.81,12.266,12.266,0,0,1,.83,2.638,17.453,17.453,0,0,1,.19,1.806C-173.295,1019.633-173.288,1019.777-173.275,1019.957Z" transform="translate(206.494 -999.188)" fill="#fff"/>
    <path id="Path_1224" data-name="Path 1224" d="M-299.671,1134.813v12.23a11.994,11.994,0,0,1-9.028-3.973,12.043,12.043,0,0,1-3.243-8.229c.217-.011.384-.027.552-.027q5.476,0,10.951,0Z" transform="translate(320.447 -1113.855)" fill="#fff"/>
    <path id="Path_1225" data-name="Path 1225" d="M-333.96,989.655a2.708,2.708,0,0,0,.283-.028,1.192,1.192,0,0,1,1.258.478,1.075,1.075,0,0,1,.1,1.265,7.427,7.427,0,0,1-.729,1.029c-.226.274-.507.5-.749.764-.384.417-.751.849-1.132,1.268-.175.192-.364.371-.553.561a2.074,2.074,0,0,1-.193-.14c-.631-.6-1.258-1.205-1.89-1.805-.392-.373-.791-.737-1.184-1.11-.093-.088-.171-.193-.28-.317.142-.17.272-.313.389-.467a21.709,21.709,0,0,1,2.326-2.535,1.585,1.585,0,0,1,1.138-.47A1.2,1.2,0,0,1-334,989.263C-333.979,989.377-333.974,989.494-333.96,989.655Zm-1.462,3.836c.121-.111.222-.193.311-.286q.681-.718,1.356-1.441a4.436,4.436,0,0,0,.353-.427,1.551,1.551,0,0,0,.161-.313.426.426,0,0,0-.123-.5.4.4,0,0,0-.51-.071,4.88,4.88,0,0,0-.613.488c-.172.161-.309.36-.473.53-.322.332-.656.652-.975.987a2.24,2.24,0,0,0-.227.348Zm.687-3.921c-.221-.459-.46-.574-.789-.358a3.221,3.221,0,0,0-.579.475c-.45.48-.88.979-1.321,1.468a.323.323,0,0,0-.088.4l.668.569a2.162,2.162,0,0,0,.184-.155c.543-.592,1.08-1.189,1.628-1.777A1.126,1.126,0,0,0-334.735,989.57Z" transform="translate(344.874 -981.567)" fill="#fff"/>
    <path id="Path_1226" data-name="Path 1226" d="M-214.752,946.123c.212.5.414.975.609,1.45a10.2,10.2,0,0,0,.606,1.432,10.017,10.017,0,0,0,.609-1.449c.205-.455.386-.922.581-1.39a4.42,4.42,0,0,1,1.64.076,1.443,1.443,0,0,1,.044.232c.03,1.188.055,2.376.087,3.564,0,.17.044.34.051.51.009.22,0,.441,0,.7l-1.065-.167a7.068,7.068,0,0,1-.1-.742c-.015-.555,0-1.111-.008-1.666,0-.35-.023-.7-.037-1.1a.919.919,0,0,0-.353.471c-.3.69-.609,1.377-.916,2.064a.286.286,0,0,1-.056.062h-.977c-.2-.436-.39-.871-.611-1.288a7.748,7.748,0,0,0-.636-1.321.969.969,0,0,0-.06.19c-.03.963-.056,1.926-.084,2.889,0,.13-.016.259-.027.424l-1.094.183c.009-1.677.021-3.333.19-5,.286-.042.543-.094.8-.114S-215.05,946.123-214.752,946.123Z" transform="translate(234.4 -943.656)" fill="#fff"/>
    <path id="Path_1227" data-name="Path 1227" d="M-103.013,978.4l.927.752-1.77,2.68.053.07a7.147,7.147,0,0,0,1.156-.532c.388-.2.779-.389,1.2-.6l.795.73a2.7,2.7,0,0,1-.351.827c-.119.264-.259.519-.389.779l-.422.844c.332-.027.5-.252.723-.365a6.835,6.835,0,0,0,.669-.423c.22-.147.432-.3.652-.451s.441-.283.651-.417c.389.165.539.5.8.805a1.785,1.785,0,0,1-.249.235c-.659.416-1.324.821-1.983,1.236-.525.33-1.044.67-1.566,1-.1.063-.2.119-.321.191l-.868-1.034,1.3-2.518-.055-.066c-.882.323-1.666.857-2.557,1.263l-1.023-.852Z" transform="translate(134.369 -972.776)" fill="#fff"/>
  </g>
</svg>
