<svg xmlns="http://www.w3.org/2000/svg" width="130" height="100" viewBox="0 0 130 100">
  <g id="Group_1168" data-name="Group 1168" transform="translate(-1931 1770)">
    <rect id="Rectangle_1891" data-name="Rectangle 1891" width="130" height="100" transform="translate(1931 -1770)" fill="none"/>
    <g id="Bus_icon" data-name="Bus icon" transform="translate(1948.827 -1751.532)">
      <g id="Group_234" data-name="Group 234" transform="translate(3.157 4.56)">
        <path id="Path_667" data-name="Path 667" d="M1027.637,456.884c-.92.095-1.862.059-2.658.131l-4.212.428-1.762.212-1.34.187.049-.01-.92.188-.978.089-.968.112a2.767,2.767,0,0,0-2.57,2.664,13.284,13.284,0,0,0-.08,1.853l-.02,4.228-.131,10.755c-.014,1.85-.118,3.7,0,5.548a3.532,3.532,0,0,0,.36,1.479,1.036,1.036,0,0,0,.585.513,1.922,1.922,0,0,0,.509.043l18.836.242h1.514v1.373l-1.545-.012-18.761-.448h.045l-.5-.008-.453-.1-.394-.181a2.161,2.161,0,0,1-.608-.545,2.279,2.279,0,0,1-.37-.663,6.132,6.132,0,0,1-.318-1.628c-.113-1.871.033-3.75.073-5.625l.141-5.491.145-5.265.088-4.2v.016l.016-1.084.108-.929.194-.788a3.334,3.334,0,0,1,1.507-1.95,5.019,5.019,0,0,1,1.528-.483c.657-.116,1.323-.088,1.981-.166.288-.034.568-.12.855-.155l3.138-.331c3.388-.2,6.879-.67,10.24-.788q1.445-.109,2.89-.23v.717c-1.36.106-2.177.15-2.3,1.4C1031.132,457.066,1031,456.536,1027.637,456.884Zm6.208-1.026a190.086,190.086,0,0,1,20.365-1.025,1.887,1.887,0,0,1,.821.319,2.639,2.639,0,0,1,.673.5,4.326,4.326,0,0,1,.92,1.29,8.527,8.527,0,0,1,.608,2.788l.144,10.764q0,5.439-.409,10.867a5.588,5.588,0,0,1-.418,1.621,7.7,7.7,0,0,1-1.666,2.628,5.464,5.464,0,0,1-1.38,1,2.777,2.777,0,0,1-1.142.369l-.628.063-17.886-.131v-1.373l18.243-.079a1.724,1.724,0,0,0,.732-.246,3.774,3.774,0,0,0,.951-.7,6.012,6.012,0,0,0,.964-1.361,4.654,4.654,0,0,0,.539-1.41,44.421,44.421,0,0,0,.428-6.1l-.175-10.272a55.1,55.1,0,0,0-.181-6.639,3.794,3.794,0,0,0-.591-1.436,1.859,1.859,0,0,0-.442-.462l-.16-.1-.168-.078-.087-.026c-2.528.018-13.472-.85-19.031-.152-.368.046-.708.074-1.02.1Z" transform="translate(-1010.895 -454.832)" fill="#fff" fill-rule="evenodd"/>
        <path id="Path_668" data-name="Path 668" d="M1031.542,457.973c-.415-.908-.537-1.437-3.909-1.089-.92.095-1.862.059-2.658.131l-4.212.428-1.762.212-1.34.187.049-.01-.92.188-.978.089-.968.112a2.768,2.768,0,0,0-2.57,2.665,13.265,13.265,0,0,0-.08,1.853l-.02,4.228-.131,10.755c-.015,1.85-.118,3.7,0,5.548a3.527,3.527,0,0,0,.36,1.479,1.035,1.035,0,0,0,.585.513,1.917,1.917,0,0,0,.509.043l18.836.242,19.757-.085a1.727,1.727,0,0,0,.732-.246,3.778,3.778,0,0,0,.952-.7,6.018,6.018,0,0,0,.964-1.361,4.659,4.659,0,0,0,.539-1.41,44.421,44.421,0,0,0,.428-6.1l-.175-10.272a55.078,55.078,0,0,0-.181-6.639,3.8,3.8,0,0,0-.591-1.436,1.861,1.861,0,0,0-.442-.462l-.16-.1-.168-.078-.087-.026c-2.528.018-13.472-.85-19.031-.152-1.971.247-3.169-.038-3.319,1.5Zm-.6-1.885a230.508,230.508,0,0,1,23.255-1.255,1.886,1.886,0,0,1,.821.319,2.646,2.646,0,0,1,.673.5,4.321,4.321,0,0,1,.92,1.29,8.517,8.517,0,0,1,.609,2.788l.144,10.764q0,5.441-.409,10.867a5.584,5.584,0,0,1-.418,1.621,7.7,7.7,0,0,1-1.666,2.628,5.462,5.462,0,0,1-1.38,1,2.777,2.777,0,0,1-1.142.369l-.628.063L1032.3,486.9l-18.761-.448h.045l-.5-.008-.453-.1-.394-.181a2.169,2.169,0,0,1-.608-.545,2.279,2.279,0,0,1-.37-.663,6.127,6.127,0,0,1-.318-1.628c-.113-1.871.033-3.75.074-5.625l.141-5.491.145-5.265.088-4.2v.016l.016-1.084.108-.929.194-.788a3.334,3.334,0,0,1,1.507-1.95,5.021,5.021,0,0,1,1.528-.484c.657-.116,1.323-.088,1.981-.166.288-.034.568-.12.855-.155l3.138-.331c3.391-.189,6.873-.661,10.236-.784Z" transform="translate(-1010.898 -454.832)" fill="none" stroke="#fff" stroke-miterlimit="22.926" stroke-width="0.216" fill-rule="evenodd"/>
      </g>
      <g id="Group_235" data-name="Group 235" transform="translate(47.255 0.107)">
        <path id="Path_669" data-name="Path 669" d="M1313.366,426.5l21.666,10.675,9.9,4.928,8.778,4.286,5.279,2.352.008-.017-9.512-5.4-7.67-4.136-11.107-5.935-16.461-8.524a.987.987,0,1,0-.868,1.771Z" transform="translate(-1312.798 -424.613)" fill="#fff" stroke="#fff" stroke-miterlimit="22.926" stroke-width="0.216" fill-rule="evenodd"/>
      </g>
      <path id="Path_670" data-name="Path 670" d="M1311.47,460.764c.365-2.508,2.14-1.645,3.08-1.261l28.918,11.8,10.587,4.609c.087.035.185-.022.279-.034v-.043a.93.93,0,0,1-.278-.034h.025l-21.221-9.88c-1.54-.67-24.115-10.676-24.191-10.511a23.321,23.321,0,0,0,2.8,5.357Z" transform="translate(-1261.99 -450.793)" fill="#fff" stroke="#fff" stroke-miterlimit="22.926" stroke-width="0.216" fill-rule="evenodd"/>
      <path id="Path_671" data-name="Path 671" d="M1619.29,595.294h.279" transform="translate(-1527.222 -570.232)" fill="none" stroke="#fff" stroke-miterlimit="22.926" stroke-width="0.216" fill-rule="evenodd"/>
      <g id="Group_236" data-name="Group 236" transform="translate(3.949 -0.001)">
        <path id="Path_672" data-name="Path 672" d="M1060.111,423.8c-7.191.788-14.35,1.688-21.493,2.831l-20.771,2.971a.286.286,0,0,0-.172.053,3.912,3.912,0,0,0-.62.851,6.684,6.684,0,0,0-.642,2l-.091,1.115.2.02.247-1.06.328-.967.432-.833.473-.578,10.169-.551,10.707-1.592,10.759-1.616,10.479-.674a.987.987,0,1,0,0-1.971Z" transform="translate(-1016.321 -423.8)" fill="#fff" stroke="#fff" stroke-miterlimit="22.926" stroke-width="0.216" fill-rule="evenodd"/>
      </g>
      <path id="Path_673" data-name="Path 673" d="M1060.427,791.094a63.039,63.039,0,0,1-13.27,1.156c-3.525-.072-7.031-.539-10.537-.907l-18.276-1.879c-2.04-.131-4.091-.045-6.133-.156a1.059,1.059,0,0,1-.776-.373,1.043,1.043,0,0,1-.2-.394,10.366,10.366,0,0,1-.167-1.667l-.093-1.687h-.2c-.131,1.06-.288,2.119-.315,3.187a2.063,2.063,0,0,0,.532,1.3,1.877,1.877,0,0,0,.657.42,3.5,3.5,0,0,0,.893.176l11.7,1.314,17.737,2.549a46.015,46.015,0,0,0,9.321.342,30.507,30.507,0,0,0,6.622-1.439l12.433-3.555c1.723-.427,1.062-.586,1.167-1.36.022-.166-1.456.966-2.148,1.051C1066.865,789.494,1061.031,791.094,1060.427,791.094Z" transform="translate(-1007.361 -732.371)" fill="#fff" stroke="#fff" stroke-miterlimit="22.926" stroke-width="0.216" fill-rule="evenodd"/>
      <g id="Group_237" data-name="Group 237" transform="translate(50.756 10.133)">
        <path id="Path_674" data-name="Path 674" d="M1336.61,493.792a.676.676,0,0,1,.695-.657,2.315,2.315,0,0,1,1.115.7v.385c-.666-.06-.773.552-.765,1.219.032.724.055,1.391.012,2.289,0,.131-.412.385-.833.293-.141-.03-.206-3.875-.225-4.232Zm.748,47.562-.463-31.51c.091-.325,1.3.176,1.314.709l-.059,29.431a1.2,1.2,0,0,1,.263.2v.213c-.215.078-.225.122,0,.117v.263a2.52,2.52,0,0,1-1.053.578Zm1.062-47.127v-.385a.728.728,0,0,1,.237.428,1.389,1.389,0,0,0-.237-.043Zm0,45.954a.394.394,0,0,1,0,.59v-.263a49.8,49.8,0,0,0,6.356-1.209,37.9,37.9,0,0,0-6.356,1.092v-.213Zm7.67-1.091h0l-1.314.2a8.749,8.749,0,0,1,1.307-.21Z" transform="translate(-1336.61 -493.135)" fill="#fff" fill-rule="evenodd"/>
        <path id="Path_675" data-name="Path 675" d="M1336.61,493.792a.676.676,0,0,1,.695-.657c.373.01,1.363.758,1.352,1.13-.879-.236-1.01.435-1,1.176.032.724.055,1.391.012,2.289,0,.131-.413.385-.833.293-.141-.03-.206-3.875-.225-4.232Zm.285,16.048c.091-.325,1.3.176,1.314.709l-.059,29.43c1.247.7-.788,1.407-.788,1.369l-.463-31.51Zm7.883,29.457,1.314-.212h0l-1.314.205a8.748,8.748,0,0,1,1.3-.205Z" transform="translate(-1336.61 -493.135)" fill="none" stroke="#fff" stroke-miterlimit="22.926" stroke-width="0.216" fill-rule="evenodd"/>
      </g>
      <g id="Group_238" data-name="Group 238" transform="translate(50.828 9.854)">
        <path id="Path_676" data-name="Path 676" d="M1337.761,492.581a26.411,26.411,0,0,1,4.694,1.1c1.429.533,2.789,1.234,4.2,1.814l.041-.084a33.038,33.038,0,0,0-3.827-2.562,24.451,24.451,0,0,0-5.11-1.624.675.675,0,0,0,0,1.351Z" transform="translate(-1337.088 -491.23)" fill="#fff" stroke="#fff" stroke-miterlimit="22.926" stroke-width="0.216" fill-rule="evenodd"/>
      </g>
      <g id="Group_239" data-name="Group 239" transform="translate(56.255 11.874)">
        <path id="Path_677" data-name="Path 677" d="M1374.26,505.725l.951,42.281h.008l.394-42.281a.675.675,0,1,0-1.351,0Z" transform="translate(-1374.26 -505.05)" fill="#fff" stroke="#fff" stroke-miterlimit="22.926" stroke-width="0.216" fill-rule="evenodd"/>
      </g>
      <path id="Path_678" data-name="Path 678" d="M1458.776,781.344c5.27-1.069,10.454-2.563,15.615-4.062l-.009-.062c-3.22.657-5.744,1.2-8.791,1.947-2.487.611-5.149,1-6.749,1.322-.824.164-1.427-.146-1.576-1.263C1456.569,779.908,1457.567,781.485,1458.776,781.344Z" transform="translate(-1388.682 -725.572)" fill="#fff" stroke="#fff" stroke-miterlimit="22.926" stroke-width="0.216" fill-rule="evenodd"/>
      <path id="Path_679" data-name="Path 679" d="M1415.407,731.781c.1-3.784-.021-8.091,1.079-11.754.218-.727.976-.857,1.33-.263.92,1.537,1.077,4.173,1.289,5.9.185,1.5.1,3.038.328,4.536.139.92,1.259,1.209,2.276.8l-.331-.131a1.76,1.76,0,0,1-.731-.51l-.788-.2-.068-4.557c-.263-2.061-.342-4.44-1.408-6.295-.92-1.6-2.172-.862-2.647.47-.863,2.422-.331,12.123-2.574,12.375a.643.643,0,0,0,.525.386C1414.08,732.5,1415.328,732.223,1415.407,731.781Z" transform="translate(-1351.224 -675.339)" fill="#fff" stroke="#fff" stroke-miterlimit="22.926" stroke-width="0.216" fill-rule="evenodd"/>
      <g id="Group_240" data-name="Group 240" transform="translate(85.676 44.066)">
        <path id="Path_680" data-name="Path 680" d="M1576.356,732.628c.019-.418.013-.838.053-1.255a33.63,33.63,0,0,1,.6-4.315,3.475,3.475,0,0,1,.458-1,.571.571,0,0,1,.279-.235.211.211,0,0,1,.167.021.525.525,0,0,1,.146.116,1.992,1.992,0,0,1,.344.564,11.908,11.908,0,0,1,.583,2.414l.263,2.519h.034a32.366,32.366,0,0,0-.262-4.421,3.91,3.91,0,0,0-.465-1.2,1.164,1.164,0,0,0-.406-.415.7.7,0,0,0-.636-.047.931.931,0,0,0-.287.184,2.215,2.215,0,0,0-.476.657,10.944,10.944,0,0,0-.738,2.51,35.823,35.823,0,0,0-.394,3.852.365.365,0,1,0,.729.041Z" transform="translate(-1575.62 -725.326)" fill="#fff" stroke="#fff" stroke-miterlimit="22.926" stroke-width="0.216" fill-rule="evenodd"/>
      </g>
      <g id="Group_241" data-name="Group 241" transform="translate(89.176 24.704)">
        <path id="Path_681" data-name="Path 681" d="M1599.685,619.213q1.273-.532,2.573-.992a13.369,13.369,0,0,0,1.3-.476,6.23,6.23,0,0,0,1.019-.657.132.132,0,0,0,.042-.1l-.008-2.647v-.418l-.582-21.07h-.008l.323,21.07v1.95h0v1.051l-.371.286-.525.273-.61.238c-.673.244-1.376.4-2.046.657l-1.265.566a.158.158,0,1,0,.163.271Z" transform="translate(-1599.455 -592.852)" fill="#fff" stroke="#fff" stroke-miterlimit="22.926" stroke-width="0.216" fill-rule="evenodd"/>
      </g>
      <path id="Path_682" data-name="Path 682" d="M1414.117,507.073l-.022,13.8c-.011,1.962-.189,3.931-.011,5.885a2.6,2.6,0,0,0,.736,1.694,1.661,1.661,0,0,0,.774.38,5.369,5.369,0,0,0,.634.025h-.079l21.768,2.119v-.031l-21.7-3.036c-.091-.012-.184.009-.276,0a.754.754,0,0,1-.473-.184.617.617,0,0,1-.152-.2,2.594,2.594,0,0,1-.235-.883c-.1-1.917.091-3.836.131-5.755.083-4.064.15-8.154.224-12.219,0-1,.059-1.051,1.76-.621,0-.373-2.034-1.659-2.407-1.659-.233,0-.544-.3-.665-.121a2.894,2.894,0,0,0-.008.8Z" transform="translate(-1351.941 -494.175)" fill="#fff" stroke="#fff" stroke-miterlimit="22.926" stroke-width="0.216" fill-rule="evenodd"/>
      <path id="Path_683" data-name="Path 683" d="M1417.731,639.516c-.04,1.349.159,2.82,1.632,2.688,6.983.54,14.593,1.464,21.734,2.578" transform="translate(-1355.119 -607.992)" fill="none" stroke="#fff" stroke-miterlimit="22.926" stroke-width="0.216" fill-rule="evenodd"/>
      <path id="Path_684" data-name="Path 684" d="M1465.54,529.143l.043,9.732.311,8.862h.015l.624-8.84.318-8.022c0-.7.187-1,1.365-.508C1468.233,529.53,1465.54,528.77,1465.54,529.143Z" transform="translate(-1395.939 -513.664)" fill="#fff" stroke="#fff" stroke-miterlimit="22.926" stroke-width="0.216" fill-rule="evenodd"/>
      <path id="Path_685" data-name="Path 685" d="M1468.335,534.952c0,4.53-.313,13.467-.313,17.828" transform="translate(-1398.059 -518.708)" fill="none" stroke="#fff" stroke-miterlimit="22.926" stroke-width="0.216" fill-rule="evenodd"/>
      <path id="Path_686" data-name="Path 686" d="M1507.672,546.773l.468,15.531.453-15.019c.092-.536.536-.263,1.058-.254a5.082,5.082,0,0,0-1.93-1.044C1507.63,546.071,1507.672,546.643,1507.672,546.773Z" transform="translate(-1431.912 -528.126)" fill="#fff" stroke="#fff" stroke-miterlimit="22.926" stroke-width="0.216" fill-rule="evenodd"/>
      <path id="Path_687" data-name="Path 687" d="M1510.92,551.39v15.531" transform="translate(-1434.688 -532.745)" fill="none" stroke="#fff" stroke-miterlimit="22.926" stroke-width="0.216" fill-rule="evenodd"/>
      <path id="Path_688" data-name="Path 688" d="M1538.92,560.539v.736l.119,6.761.275,7.016h0l.24-7.017.077-6.06c0-.332-.088-1.286.666-.876C1540.1,561.1,1538.92,560.338,1538.92,560.539Z" transform="translate(-1458.606 -540.527)" fill="#fff" stroke="#fff" stroke-miterlimit="22.926" stroke-width="0.216" fill-rule="evenodd"/>
      <g id="Group_242" data-name="Group 242" transform="translate(83.939 21.414)">
        <path id="Path_689" data-name="Path 689" d="M1563.71,570.71l.107,6.634.263,6.7.319-10.239.045-3.1a.365.365,0,1,0-.73,0Z" transform="translate(-1563.71 -570.342)" fill="#fff" stroke="#fff" stroke-miterlimit="22.926" stroke-width="0.216" fill-rule="evenodd"/>
      </g>
      <g id="Group_243" data-name="Group 243" transform="translate(87.073 22.843)">
        <path id="Path_690" data-name="Path 690" d="M1585.15,580.36l.022,6.238.164,6.555h.01l.2-6.557.131-6.209a.263.263,0,1,0-.526-.026Z" transform="translate(-1585.15 -580.11)" fill="#fff" stroke="#fff" stroke-miterlimit="22.926" stroke-width="0.216" fill-rule="evenodd"/>
      </g>
      <path id="Path_691" data-name="Path 691" d="M992.844,540.808a7.567,7.567,0,0,0-1.577.561,3.619,3.619,0,0,0-1.08.962,4.439,4.439,0,0,0-.805,2.595c.047,1.516-.608,5.912,1.293,6.4a4.38,4.38,0,0,0,1.5.176l.677-.066-.018-2.365c-.15,1.09-.28,2.213-1.327,1.971l-.657-.225c-1.051-.687-1.224-7.92,1.037-8.334.406-.075,1.009-.526,1.131.943.368-.062.669-1.7.607-2.068a.676.676,0,0,0-.781-.552Z" transform="translate(-989.307 -523.702)" fill="#fff" stroke="#fff" stroke-miterlimit="22.926" stroke-width="0.216" fill-rule="evenodd"/>
      <path id="Path_692" data-name="Path 692" d="M1325.605,525.831c-.047-1.987.95-1.772,1.094-1.778a3.8,3.8,0,0,1,1.171.105,1.051,1.051,0,0,1,.525.338,1.748,1.748,0,0,1,.414.687,28.7,28.7,0,0,1,1,4.533c.54,4.336-.5,4.993-1.947,4.953s-2.012-.895-2.261-2.751l-.367,3.337a24.549,24.549,0,0,0,4,.526,1.531,1.531,0,0,0,1.2-.447.658.658,0,0,0,.164-.284,13.269,13.269,0,0,0,.3-2.584,33.147,33.147,0,0,0-.463-5.672,10.121,10.121,0,0,0-.8-2.781,2.376,2.376,0,0,0-.823-.943,3.647,3.647,0,0,0-1.684-.539l-1.34.029a.754.754,0,0,0-.609.846C1325.2,523.836,1325.237,525.871,1325.605,525.831Z" transform="translate(-1276.085 -508.104)" fill="#fff" stroke="#fff" stroke-miterlimit="22.926" stroke-width="0.216" fill-rule="evenodd"/>
      <path id="Path_693" data-name="Path 693" d="M1329.79,527c1.847-.173,2.947.033,3.521,1.377a19.647,19.647,0,0,1,.93,8.6" transform="translate(-1280.032 -511.875)" fill="none" stroke="#fff" stroke-miterlimit="22.926" stroke-width="0.216" fill-rule="evenodd"/>
      <g id="Group_245" data-name="Group 245" transform="translate(39.447 44.705)">
        <g id="Group_244" data-name="Group 244" transform="translate(0 0)">
          <path id="Path_694" data-name="Path 694" d="M1260.468,733.905a2.365,2.365,0,0,1-.566-.526,3.069,3.069,0,0,1-.526-1.1,2.735,2.735,0,0,1-.055-.92l.056-.309.1-.3.122-.243v-.02l.058-.106.066-.084a1.266,1.266,0,0,1,.643-.335l.089-.021v1.035h0v.072l-.028.067-.043.168a1.559,1.559,0,0,0,.071.8Zm.078-1.632v1.683l-.078-.051v-1.821a1.941,1.941,0,0,0,.078.191Zm-.078-1.3h0v-1.043l.078-.017v.928l-.017.046.012-.021v.062l-.038.016h0l-.039.092Zm4.336,2.414a2.008,2.008,0,0,0,.063-.506v-.413l-.121-.9-.255-.763h-.013l-.051-.022-.077-.028a3.019,3.019,0,0,0-.508-.092,12.1,12.1,0,0,0-1.508-.019,11.238,11.238,0,0,0-1.445.187l-.244.068-.105.042v-.079l.017-.054-.017.046v-.928a6.324,6.324,0,0,1,.92-.114,9.466,9.466,0,0,1,2.821.214,1.645,1.645,0,0,1,.547.234.6.6,0,0,1,.207.222,4.5,4.5,0,0,1,.235,2.005,2.78,2.78,0,0,1-.188.826,1.074,1.074,0,0,1-.163.284.369.369,0,0,1-.076.076.675.675,0,0,1-.674.64l-2.647-.064a1.985,1.985,0,0,1-.937-.263l-.049-.03v-1.687c.013.028.028.055.042.083a1.127,1.127,0,0,0,.943.666l2.647-.064a.676.676,0,0,1,.65.435Z" transform="translate(-1259.305 -729.778)" fill="#fff" fill-rule="evenodd"/>
          <path id="Path_695" data-name="Path 695" d="M1264.185,732.959a.677.677,0,0,1,.631.434,2.008,2.008,0,0,0,.063-.506v-.413l-.121-.9-.255-.763h-.013l-.051-.022-.078-.028a3.015,3.015,0,0,0-.508-.092,12.1,12.1,0,0,0-1.508-.018,11.2,11.2,0,0,0-1.445.187l-.245.068-.143.058h0l-.067.159-.043.168a1.648,1.648,0,0,0,.192,1.071,1.127,1.127,0,0,0,.943.666l2.647-.065Zm-3.65-2.061.012-.021.022-.071Zm-.055.075-.01.007h0Zm3.705,3.337-2.647-.064a1.986,1.986,0,0,1-.937-.263,2.443,2.443,0,0,1-.694-.608,3.068,3.068,0,0,1-.526-1.1,2.725,2.725,0,0,1-.055-.92l.056-.309.1-.3.122-.243v-.02l.058-.106.066-.084a1.266,1.266,0,0,1,.643-.335,6.088,6.088,0,0,1,1.09-.151,9.468,9.468,0,0,1,2.821.214,1.642,1.642,0,0,1,.547.234.6.6,0,0,1,.207.222,4.5,4.5,0,0,1,.235,2,2.791,2.791,0,0,1-.188.826,1.085,1.085,0,0,1-.163.284.372.372,0,0,1-.076.076.675.675,0,0,1-.659.644Z" transform="translate(-1259.303 -729.781)" fill="none" stroke="#fff" stroke-miterlimit="22.926" stroke-width="0.216" fill-rule="evenodd"/>
        </g>
      </g>
      <g id="Group_246" data-name="Group 246" transform="translate(4.072 44.269)">
        <path id="Path_696" data-name="Path 696" d="M1019.774,730.562c-.685-.062-1.331-.162-1.659-.168a.823.823,0,0,1-.472-.184,1.533,1.533,0,0,1-.436-1.142,3.346,3.346,0,0,1,.172-1.15,2.264,2.264,0,0,1,.431-.749c.415-.481,1.282-.451,1.971-.42v.586c-.4.037-.809.1-1.135.12a.788.788,0,0,0-.607.572,3.891,3.891,0,0,0-.051,1.016c.18.788.945.526,1.7.5h.093Zm0-3.227v-.586c.193.009.37.017.526.014.837-.016,2-.171,2.329.748a1.712,1.712,0,0,1,.1.565,4.231,4.231,0,0,1-.116,1.117,3.668,3.668,0,0,1-.451.967c-.3.5-1.387.491-2.386.4v-1.017c.832,0,1.5.3,1.716-.5a3.713,3.713,0,0,0,.087-.775C1021.534,727.307,1020.654,727.254,1019.774,727.336Z" transform="translate(-1017.205 -726.733)" fill="#fff" fill-rule="evenodd"/>
        <path id="Path_697" data-name="Path 697" d="M1021.584,728.272c-.068-1.41-1.9-.872-2.938-.817a.788.788,0,0,0-.607.572,3.9,3.9,0,0,0-.051,1.016c.18.788.945.526,1.7.5.875-.029,1.577.334,1.809-.5a3.713,3.713,0,0,0,.087-.775Zm1.051-.761a1.712,1.712,0,0,1,.1.565,4.236,4.236,0,0,1-.115,1.117,3.669,3.669,0,0,1-.451.967c-.514.837-3.239.249-4.047.235a.823.823,0,0,1-.472-.184,1.533,1.533,0,0,1-.436-1.142,3.349,3.349,0,0,1,.172-1.15,2.266,2.266,0,0,1,.431-.75c.533-.616,1.807-.394,2.487-.406.83-.016,1.987-.171,2.315.748Z" transform="translate(-1017.202 -726.735)" fill="none" stroke="#fff" stroke-miterlimit="22.926" stroke-width="0.216" fill-rule="evenodd"/>
      </g>
      <path id="Path_698" data-name="Path 698" d="M1101.819,737.29c-1.227.526-4.148.335-5.815.607,1.65.114,1.352.131,5.642.293C1102.332,738.189,1102.752,737.29,1101.819,737.29Z" transform="translate(-1080.407 -691.477)" fill="#fff" stroke="#fff" stroke-miterlimit="22.926" stroke-width="0.216" fill-rule="evenodd"/>
      <path id="Path_699" data-name="Path 699" d="M1156.9,738.215c2.265.021,1.183-.013,6.421-.114l-.095-.286a58.37,58.37,0,0,1-6.117-.636.675.675,0,0,0-.675.675C1156.429,738.225,1156.534,738.215,1156.9,738.215Z" transform="translate(-1132.011 -691.38)" fill="#fff" stroke="#fff" stroke-miterlimit="22.926" stroke-width="0.216" fill-rule="evenodd"/>
      <path id="Path_700" data-name="Path 700" d="M1089.652,753.55c-.041.1-.382.727-.939.754a82.551,82.551,0,0,1-16.641.042l-5.993-.637c-.331-.035-.347.079,0,.131a85.383,85.383,0,0,0,11.718,1.517c3.818.1,7.64-.022,11.454-.213a1.785,1.785,0,0,0,1.687-1.182.859.859,0,0,0-.273-.968c-.231-.173-.808-.381-.849-.076C1089.81,752.987,1089.665,753.5,1089.652,753.55Z" transform="translate(-1054.641 -704.693)" fill="#fff" stroke="#fff" stroke-miterlimit="22.926" stroke-width="0.216" fill-rule="evenodd"/>
      <path id="Path_701" data-name="Path 701" d="M1031.981,773.584a.462.462,0,1,1,.7.594c-.443.273-.717-.213-1.072-.36-.176.728.544.978,1,.92a1.04,1.04,0,0,0,.872-.892,1.071,1.071,0,0,0-.648-1.068c-.36-.144-1.222-.1-1.276.309a.461.461,0,0,0,.422.5Z" transform="translate(-1025.379 -721.716)" fill="#fff" stroke="#fff" stroke-miterlimit="22.926" stroke-width="0.216" fill-rule="evenodd"/>
      <path id="Path_702" data-name="Path 702" d="M1470.908,755.6l8.166-.763.235-.277-7.62.23C1470.829,754.785,1470.251,755.6,1470.908,755.6Z" transform="translate(-1400.289 -706.219)" fill="#fff" stroke="#fff" stroke-miterlimit="22.926" stroke-width="0.216" fill-rule="evenodd"/>
      <path id="Path_703" data-name="Path 703" d="M1531.3,754.483l5.488-.307v-.007l-5.418.092C1531.276,754.272,1531.1,754.5,1531.3,754.483Z" transform="translate(-1452.018 -705.89)" fill="#fff" stroke="#fff" stroke-miterlimit="22.926" stroke-width="0.216" fill-rule="evenodd"/>
      <g id="Group_247" data-name="Group 247" transform="translate(88.86 26.083)">
        <path id="Path_704" data-name="Path 704" d="M1597.914,603.267a8.009,8.009,0,0,1,1.224.081c.425.085.83.235,1.25.342l.021-.038a4.88,4.88,0,0,0-1.024-.92,5.936,5.936,0,0,0-1.377-.4.469.469,0,1,0-.094.933Z" transform="translate(-1597.479 -602.326)" fill="#fff" stroke="#fff" stroke-miterlimit="22.926" stroke-width="0.216" fill-rule="evenodd"/>
      </g>
      <g id="Group_248" data-name="Group 248" transform="translate(88.884 26.161)">
        <path id="Path_705" data-name="Path 705" d="M1597.5,603.279l.741,17.582h.013l.184-17.582a.469.469,0,0,0-.937,0Z" transform="translate(-1597.5 -602.811)" fill="#fff" stroke="#fff" stroke-miterlimit="22.926" stroke-width="0.216" fill-rule="evenodd"/>
      </g>
      <g id="Group_249" data-name="Group 249" transform="translate(91.415 27.551)">
        <path id="Path_706" data-name="Path 706" d="M1614.871,612.479l.435,20.751h0l-.122-20.751a.158.158,0,1,0-.315,0Z" transform="translate(-1614.868 -612.321)" fill="#fff" stroke="#fff" stroke-miterlimit="22.926" stroke-width="0.216" fill-rule="evenodd"/>
      </g>
      <g id="Group_250" data-name="Group 250" transform="translate(53.073 27.829)">
        <path id="Path_707" data-name="Path 707" d="M1354.658,614.385l.363,16.016.01,1.253a1.04,1.04,0,0,1-.07.384.94.94,0,0,1-.688.5,6.428,6.428,0,0,1-1.063.091h-.763v.009c.547.024,1.093.055,1.64.03a1.369,1.369,0,0,0,.4-.095.963.963,0,0,0,.575-.484,1.163,1.163,0,0,0,.089-.432c.02-.418.016-.836.012-1.253l-.195-16.016a.157.157,0,1,0-.315,0Z" transform="translate(-1352.447 -614.227)" fill="#fff" stroke="#fff" stroke-miterlimit="22.926" stroke-width="0.216" fill-rule="evenodd"/>
      </g>
      <g id="Group_251" data-name="Group 251" transform="translate(58.088 17.722)">
        <path id="Path_708" data-name="Path 708" d="M1388.338,545.293l.061,4.257.116,6.8.106,16.371a.524.524,0,0,1-.087.263.5.5,0,0,1-.376.225,4.86,4.86,0,0,1-.744-.026l-.657-.039v.008c.424.049.848.112,1.274.131a.644.644,0,0,0,.572-.263.92.92,0,0,0,.121-.484V552.7l-.064-5.688-.009-1.728a.158.158,0,0,0-.315,0Z" transform="translate(-1386.757 -545.126)" fill="#fff" stroke="#fff" stroke-miterlimit="22.926" stroke-width="0.216" fill-rule="evenodd"/>
      </g>
      <g id="Group_252" data-name="Group 252" transform="translate(60.61 15.075)">
        <path id="Path_709" data-name="Path 709" d="M1404.041,527.251l.084,9.131.307,21.782.25,9.129h0l.194-9.13.068-21.785.03-9.127a.469.469,0,0,0-.937,0Z" transform="translate(-1404.038 -526.807)" fill="#fff" stroke="#fff" stroke-miterlimit="22.926" stroke-width="0.216" fill-rule="evenodd"/>
      </g>
      <g id="Group_253" data-name="Group 253" transform="translate(23.368 6.413)">
        <path id="Path_710" data-name="Path 710" d="M1149.271,468.334,1149.48,487l.11,5.5.066,1.88.014.279a.283.283,0,1,0,.131,0l.091-2.507.145-8.22.166-15.6a.469.469,0,1,0-.937,0Z" transform="translate(-1149.266 -467.839)" fill="#fff" stroke="#fff" stroke-miterlimit="22.926" stroke-width="0.216" fill-rule="evenodd"/>
      </g>
      <path id="Path_711" data-name="Path 711" d="M1189.223,599.877c-.187-.215-.671-.376-.858-.591s.206-.733.036-.941c-1.289-1.565-2.749-3.107-3.973-4.757l-5.014-6.755-.962-.331c3.354,4.261,6.569,8.482,9.274,11.881a2.333,2.333,0,0,1,.321,1.457,1.174,1.174,0,0,0,.229.883.715.715,0,0,0,.947.022.614.614,0,0,0,0-.868Z" transform="translate(-1150.808 -562.723)" fill="#fff" stroke="#fff" stroke-miterlimit="22.926" stroke-width="0.216" fill-rule="evenodd"/>
      <path id="Path_712" data-name="Path 712" d="M1048.95,603.933c-.188-.217-.673-.376-.861-.594s.206-.736.035-.943c-1.293-1.569-2.759-3.116-3.984-4.771l-5.028-6.773-.964-.332c3.364,4.273,6.585,8.506,9.3,11.914a2.338,2.338,0,0,1,.322,1.461,1.182,1.182,0,0,0,.228.886.717.717,0,0,0,.951.022.616.616,0,0,0,0-.87Z" transform="translate(-1031.01 -566.156)" fill="#fff" stroke="#fff" stroke-miterlimit="22.926" stroke-width="0.216" fill-rule="evenodd"/>
      <path id="Path_713" data-name="Path 713" d="M1266.856,779.591a.92.92,0,1,1-1.808.252c.183-1.014,1.261-.777,1.947-1.105-.841-1.222-2.159-.49-2.675.254a2.061,2.061,0,0,0,.16,2.465,2.118,2.118,0,0,0,2.432.457c.689-.339,1.761-1.67,1.232-2.289a.912.912,0,0,0-1.289-.034Z" transform="translate(-1223.846 -726.309)" fill="#fff" stroke="#fff" stroke-miterlimit="22.926" stroke-width="0.216" fill-rule="evenodd"/>
      <g id="Group_254" data-name="Group 254" transform="translate(64.553 45.558)">
        <path id="Path_714" data-name="Path 714" d="M1432.868,735.615V738.8c-.357.222-.714,2.207-.755,5.162-.055,3.833.351,5.732.755,5.724v2.586a.732.732,0,0,1-.321-.038,1.1,1.1,0,0,1-.577-.633,5.466,5.466,0,0,1-.324-1.087,28.235,28.235,0,0,1-.443-3.492,61.1,61.1,0,0,1-.085-6.12,28.069,28.069,0,0,1,.347-3.524,5.406,5.406,0,0,1,.31-1.135c.173-.434.384-.637.737-.686A.909.909,0,0,1,1432.868,735.615Zm0,14.067c.4-.009.811-1.925.755-5.724-.057-3.909-.406-5.387-.755-5.162v-3.181c.627.263.541,1.264.679,1.872a24.523,24.523,0,0,1,.518,3.432,56.711,56.711,0,0,1,.15,6.087,27.44,27.44,0,0,1-.32,3.492,3.963,3.963,0,0,1-.431,1.366.843.843,0,0,1-.419.363.763.763,0,0,1-.175.041Z" transform="translate(-1431.066 -735.553)" fill="#fff" fill-rule="evenodd"/>
        <path id="Path_715" data-name="Path 715" d="M1432.5,735.553c1.015,0,.876,1.232,1.034,1.937a24.482,24.482,0,0,1,.518,3.432,56.645,56.645,0,0,1,.15,6.087,27.442,27.442,0,0,1-.32,3.492,3.963,3.963,0,0,1-.431,1.366.84.84,0,0,1-.419.363.726.726,0,0,1-.5,0,1.1,1.1,0,0,1-.577-.633,5.459,5.459,0,0,1-.324-1.087,28.186,28.186,0,0,1-.443-3.492,61.068,61.068,0,0,1-.085-6.12,28.045,28.045,0,0,1,.347-3.524,5.383,5.383,0,0,1,.31-1.135c.173-.434.384-.637.737-.686Zm-.394,8.409c-.109,7.665,1.621,7.6,1.511,0C1433.5,736.059,1432.187,738.111,1432.108,743.962Z" transform="translate(-1431.069 -735.553)" fill="none" stroke="#fff" stroke-miterlimit="22.926" stroke-width="0.216" fill-rule="evenodd"/>
      </g>
      <path id="Path_716" data-name="Path 716" d="M1403.54,819.248c-.334,1.754-2.827,1.253-3.441,1.051-1.289-.74-1.628-3.069-1.829-4.361l-.088-.009c-.263,1.416-.372,3.8.861,4.861a3.474,3.474,0,0,0,1.617.746,5.694,5.694,0,0,0,2.234,0,12.371,12.371,0,0,0,1.774-.624c.359-.239.02-.6-.219-.959S1403.9,819.009,1403.54,819.248Z" transform="translate(-1338.291 -758.619)" fill="#fff" stroke="#fff" stroke-miterlimit="22.926" stroke-width="0.216" fill-rule="evenodd"/>
      <g id="Group_255" data-name="Group 255" transform="translate(55.71 58.806)">
        <path id="Path_717" data-name="Path 717" d="M1375.589,828.9a19.13,19.13,0,0,1-2.339.145,4.082,4.082,0,0,1-1.332-.294,1.109,1.109,0,0,1-.394-.314,1.642,1.642,0,0,1-.315-.5c-.217-.568-.357-1.16-.526-1.744h-.092a8.054,8.054,0,0,0-.132,1.985,1.973,1.973,0,0,0,.312.788,1.863,1.863,0,0,0,.567.636,5.2,5.2,0,0,0,1.775.7,17.317,17.317,0,0,0,2.594.145.779.779,0,0,0-.109-1.554Z" transform="translate(-1370.446 -826.198)" fill="#fff" stroke="#fff" stroke-miterlimit="22.926" stroke-width="0.216" fill-rule="evenodd"/>
      </g>
      <g id="Group_257" data-name="Group 257" transform="translate(15.269 57.741)">
        <g id="Group_256" data-name="Group 256" transform="translate(0 0)">
          <path id="Path_718" data-name="Path 718" d="M1098.43,821.4h0v1.376h-.025l-2.234-.21a4.318,4.318,0,0,1-.745-.142,2.023,2.023,0,0,1-.611-.282,1.68,1.68,0,0,1-.438-.486,2.218,2.218,0,0,1-.263-.637,16.565,16.565,0,0,1-.292-2.007l.058-.018.594,1.012c.175.323.3.671.494.985a.816.816,0,0,0,.493.4,2.133,2.133,0,0,0,.447.057h.336l.92-.022,1.068-.025.011-.131v-.227a4.209,4.209,0,0,1,0-.5.9.9,0,0,1,.189-.466Zm1.348-1.083v.46h0v.05l-.009.024-.013.235a3.6,3.6,0,0,1-.114.724,1.529,1.529,0,0,1-.36.645,1.138,1.138,0,0,1-.248.189,1.126,1.126,0,0,1-.6.139v-1.376h0V820.1a.741.741,0,0,1,.263-.2,1.351,1.351,0,0,1,.3-.083.78.78,0,0,1,.788.508Zm0,.439v-.442a.789.789,0,0,1,0,.507Z" transform="translate(-1093.824 -818.983)" fill="#fff" fill-rule="evenodd"/>
          <path id="Path_719" data-name="Path 719" d="M1098.994,819.793a.779.779,0,0,1,.779,1.051l-.013.235a3.6,3.6,0,0,1-.114.724,1.531,1.531,0,0,1-.36.645,1.138,1.138,0,0,1-.248.189,1.124,1.124,0,0,1-.628.131l-2.234-.21a4.317,4.317,0,0,1-.745-.142,2.021,2.021,0,0,1-.61-.282,1.68,1.68,0,0,1-.438-.486,2.222,2.222,0,0,1-.263-.637,16.565,16.565,0,0,1-.292-2.008l.058-.018.594,1.012c.175.323.3.671.494.985a.816.816,0,0,0,.493.4,2.135,2.135,0,0,0,.447.056h.336l.92-.022,1.068-.025.011-.131v-.227a4.211,4.211,0,0,1,0-.5.833.833,0,0,1,.445-.671,1.353,1.353,0,0,1,.3-.083Zm-.591,1.611h0Zm1.377-.629v0Z" transform="translate(-1093.823 -818.985)" fill="none" stroke="#fff" stroke-miterlimit="22.926" stroke-width="0.216" fill-rule="evenodd"/>
        </g>
      </g>
      <g id="Group_259" data-name="Group 259" transform="translate(20.366 58.179)">
        <g id="Group_258" data-name="Group 258" transform="translate(0)">
          <path id="Path_720" data-name="Path 720" d="M1134.715,822.722v.8h0v.081l-.03.042-.088.394a3.451,3.451,0,0,1-.336.8,2.124,2.124,0,0,1-.8.748,2.779,2.779,0,0,1-1.287.306,5.885,5.885,0,0,1-1.347-.155,3.284,3.284,0,0,1-1.284-.558,1.634,1.634,0,0,1-.446-.461,3.153,3.153,0,0,1-.431-1.222,6.023,6.023,0,0,1,.175-1.586h.086l.213.809a5.182,5.182,0,0,0,.375,1.122,1.389,1.389,0,0,0,.742.646,3.168,3.168,0,0,0,.754.164,4.1,4.1,0,0,0,1.385-.062.969.969,0,0,0,.569-.365c.243-.351.163-.811.286-1.2a.905.905,0,0,1,.41-.526,1.471,1.471,0,0,1,.357-.109A.778.778,0,0,1,1134.715,822.722Zm0,.8v-.8a.779.779,0,0,1,0,.888Z" transform="translate(-1128.664 -821.91)" fill="#fff" fill-rule="evenodd"/>
          <path id="Path_721" data-name="Path 721" d="M1134.019,822.387a.779.779,0,0,1,.663,1.263l-.088.394a3.445,3.445,0,0,1-.336.8,2.126,2.126,0,0,1-.8.748,2.778,2.778,0,0,1-1.287.306,5.877,5.877,0,0,1-1.347-.155,3.285,3.285,0,0,1-1.284-.558,1.633,1.633,0,0,1-.445-.461,3.154,3.154,0,0,1-.431-1.222,6.035,6.035,0,0,1,.175-1.586h.087l.213.809a5.194,5.194,0,0,0,.375,1.122,1.386,1.386,0,0,0,.742.646,3.159,3.159,0,0,0,.754.164,4.1,4.1,0,0,0,1.385-.062.968.968,0,0,0,.568-.365c.243-.351.163-.811.287-1.2a.9.9,0,0,1,.41-.526,1.465,1.465,0,0,1,.357-.109Zm.7,1.123-.008.017v.012Z" transform="translate(-1128.665 -821.909)" fill="none" stroke="#fff" stroke-miterlimit="22.926" stroke-width="0.216" fill-rule="evenodd"/>
        </g>
      </g>
      <path id="Path_722" data-name="Path 722" d="M1585.021,733.248v1.817a6.5,6.5,0,0,0-.442,3.015c-.031,2.234.205,3.348.442,3.342v1.508a.424.424,0,0,1-.188-.022.637.637,0,0,1-.336-.371,3.194,3.194,0,0,1-.191-.634,16.626,16.626,0,0,1-.263-2.04c-.076-1.189-.092-2.383-.05-3.575a16.425,16.425,0,0,1,.2-2.057,3.159,3.159,0,0,1,.181-.657c.1-.254.225-.372.431-.4A.329.329,0,0,1,1585.021,733.248Zm0,8.175c.237,0,.473-1.125.441-3.342-.033-2.283-.238-3.143-.441-3.015v-1.817c.55.438.657,2.587.7,3.057a33.1,33.1,0,0,1,.088,3.555,15.942,15.942,0,0,1-.187,2.039,2.312,2.312,0,0,1-.252.8.492.492,0,0,1-.246.211.445.445,0,0,1-.1.024Z" transform="translate(-1497.071 -687.959)" fill="#fff" fill-rule="evenodd"/>
      <g id="Group_260" data-name="Group 260" transform="translate(80.892 53.695)">
        <path id="Path_723" data-name="Path 723" d="M1549.625,791.7l-.292.051-.212.03-2.883.083-2.839.125-.155-.117-.187-.131-.047-.131-.046-.118-.035-.114-.055-.166h-.014a1.37,1.37,0,0,0-.038.313,2.469,2.469,0,0,0,.049.306.107.107,0,0,0,.033.054l.359.359a.12.12,0,0,0,.067.031l5.79.212a4.334,4.334,0,0,0,.577-.058.365.365,0,1,0-.073-.727Z" transform="translate(-1542.822 -791.215)" fill="#fff" stroke="#fff" stroke-miterlimit="22.926" stroke-width="0.216" fill-rule="evenodd"/>
      </g>
    </g>
  </g>
</svg>
