<svg xmlns="http://www.w3.org/2000/svg" width="50" height="50" viewBox="0 0 50 50">
  <g id="Group_1714" data-name="Group 1714" transform="translate(-900 -322)">
    <g id="Group_1518" data-name="Group 1518" transform="translate(900 322)">
      <rect id="Rectangle_1958" data-name="Rectangle 1958" width="50" height="50" transform="translate(0 0)" fill="none"/>
      <g id="svgexport-10_2_" data-name="svgexport-10 (2)" transform="translate(5 5)">
        <path id="Path_1402" data-name="Path 1402" d="M31.751,3.135H30.283V1.65a1.536,1.536,0,1,0-3.073,0V3.135H12.137V1.65a1.536,1.536,0,1,0-3.073,0V3.135H7.6a7.605,7.605,0,0,0-7.6,7.6V31.847a7.605,7.605,0,0,0,7.6,7.6H31.751a7.605,7.605,0,0,0,7.6-7.6V10.732a7.605,7.605,0,0,0-7.6-7.6ZM7.6,6.208H9.064v3a1.536,1.536,0,0,0,3.073,0v-3H27.21v3a1.536,1.536,0,0,0,3.073,0v-3h1.468a4.529,4.529,0,0,1,4.524,4.524V12.2H3.073V10.732A4.529,4.529,0,0,1,7.6,6.208ZM31.751,36.371H7.6a4.529,4.529,0,0,1-4.524-4.524V15.272h33.2V31.847A4.529,4.529,0,0,1,31.751,36.371Zm-18.1-15.056a1.536,1.536,0,0,1-1.536,1.536H9.09a1.536,1.536,0,1,1,0-3.073h3.021A1.536,1.536,0,0,1,13.648,21.315Zm18.146,0a1.536,1.536,0,0,1-1.536,1.536H27.236a1.536,1.536,0,0,1,0-3.073h3.021A1.536,1.536,0,0,1,31.794,21.315Zm-9.082,0a1.536,1.536,0,0,1-1.536,1.536H18.154a1.536,1.536,0,0,1,0-3.073h3.021A1.536,1.536,0,0,1,22.712,21.315ZM13.648,30.38a1.536,1.536,0,0,1-1.536,1.536H9.09a1.536,1.536,0,0,1,0-3.073h3.021A1.536,1.536,0,0,1,13.648,30.38Zm18.146,0a1.536,1.536,0,0,1-1.536,1.536H27.236a1.536,1.536,0,0,1,0-3.073h3.021A1.536,1.536,0,0,1,31.794,30.38Zm-9.082,0a1.536,1.536,0,0,1-1.536,1.536H18.154a1.536,1.536,0,0,1,0-3.073h3.021A1.536,1.536,0,0,1,22.712,30.38Z" transform="translate(0 -0.114)" fill="#2f2f2f"/>
      </g>
    </g>
  </g>
</svg>
