<svg xmlns="http://www.w3.org/2000/svg" width="50" height="50" viewBox="0 0 50 50">
  <g id="Group_1714" data-name="Group 1714" transform="translate(-900 -322)">
    <g id="Group_1518" data-name="Group 1518" transform="translate(900 322)">
      <rect id="Rectangle_1958" data-name="Rectangle 1958" width="50" height="50" transform="translate(0 0)" fill="none"/>
      <g id="svgexport-10_2_" data-name="svgexport-10 (2)" transform="translate(7.843 7.843)">
        <path id="Path_1402" data-name="Path 1402" d="M28.457,2.822H27.142V1.491a1.377,1.377,0,0,0-2.754,0V2.822H10.878V1.491a1.377,1.377,0,1,0-2.754,0V2.822H6.809A6.816,6.816,0,0,0,0,9.631V28.556a6.816,6.816,0,0,0,6.809,6.809H28.457a6.816,6.816,0,0,0,6.809-6.809V9.631a6.816,6.816,0,0,0-6.809-6.809ZM6.809,5.576H8.124V8.261a1.377,1.377,0,0,0,2.754,0V5.576h13.51V8.261a1.377,1.377,0,0,0,2.754,0V5.576h1.315a4.059,4.059,0,0,1,4.055,4.055v1.315H2.754V9.631A4.059,4.059,0,0,1,6.809,5.576ZM28.457,32.61H6.809a4.059,4.059,0,0,1-4.055-4.055V13.7H32.512V28.556A4.059,4.059,0,0,1,28.457,32.61ZM12.232,19.116a1.377,1.377,0,0,1-1.377,1.377H8.147a1.377,1.377,0,0,1,0-2.754h2.708A1.377,1.377,0,0,1,12.232,19.116Zm16.264,0a1.377,1.377,0,0,1-1.377,1.377H24.411a1.377,1.377,0,0,1,0-2.754h2.708A1.377,1.377,0,0,1,28.5,19.116Zm-8.14,0a1.377,1.377,0,0,1-1.377,1.377H16.271a1.377,1.377,0,0,1,0-2.754h2.708A1.377,1.377,0,0,1,20.356,19.116ZM12.232,27.24a1.377,1.377,0,0,1-1.377,1.377H8.147a1.377,1.377,0,0,1,0-2.754h2.708A1.377,1.377,0,0,1,12.232,27.24Zm16.264,0a1.377,1.377,0,0,1-1.377,1.377H24.411a1.377,1.377,0,0,1,0-2.754h2.708A1.377,1.377,0,0,1,28.5,27.24Zm-8.14,0a1.377,1.377,0,0,1-1.377,1.377H16.271a1.377,1.377,0,0,1,0-2.754h2.708A1.377,1.377,0,0,1,20.356,27.24Z" transform="translate(0 -0.114)" fill="#ffd600"/>
      </g>
    </g>
  </g>
</svg>
