<svg xmlns="http://www.w3.org/2000/svg" width="130.098" height="100" viewBox="0 0 130.098 100">
  <g id="Group_1165" data-name="Group 1165" transform="translate(-1930.924 1770)">
    <rect id="Rectangle_1891" data-name="Rectangle 1891" width="130" height="100" transform="translate(1931 -1770)" fill="none"/>
    <g id="Group_1169" data-name="Group 1169" transform="translate(1603.159 -2640.667)">
      <g id="car_icon" data-name="car icon" transform="translate(327.841 889.251)">
        <path id="Path_92" data-name="Path 92" d="M-1028.3,636.3h8.543a56.519,56.519,0,0,1-1.08-12.384,30.148,30.148,0,0,1,2.18-10.369,37.523,37.523,0,0,0,2.031-5.239,24.017,24.017,0,0,1,1.581-5.395,17.11,17.11,0,0,0-2.127,5.238,29.291,29.291,0,0,1-1.992,4.207,25.985,25.985,0,0,0-2.666,8.259,49.062,49.062,0,0,0,.063,13.593Z" transform="translate(1028.298 -575.231)" fill="#fff" stroke="#fff" stroke-width="0.5"/>
        <path id="Path_93" data-name="Path 93" d="M-877.918,609.858s3.218,7.084,5.129,6.857l9.924-.538s3.731-.061,2.483-5.276a29.029,29.029,0,0,0-2.765-6.645,2.663,2.663,0,0,0-2.99-1.173c-1.636.293-6.6,1.417-7.335,1.558-.619.123-2.6.586-3.386.684s-25.412.148-28.967.148a8.47,8.47,0,0,1-3.15-1.091,33.185,33.185,0,0,0-3.65-1.384c-.979-.506-2.037.09-2.656,1.5a35.3,35.3,0,0,0-1.8,7.974c-.084,1.124-.335,3.394,1.693,3.615,1.176.129,2.557.321,3.646.416,1.3.112,3.823-7.041,3.823-7.041s-2.932,6.452-3.969,6.283a17.1,17.1,0,0,1-2.767-.636c-.567-.2-1.4-.684-1-3.615a31.072,31.072,0,0,1,.939-4.979c.418-1.358,1.31-2.061,2.176-1.714,1.791.235,3.57,1.136,4.769,1.258.649.065,1.975.2,2.6.2s28.212.234,28.212.234,2.6-.1,3.442-.195c.939-.109,7.335-.586,7.335-.586.889.005,1.725.734,2.257,1.967a21.143,21.143,0,0,1,1.566,4.287,2.43,2.43,0,0,1-1.115,2.679,62.12,62.12,0,0,1-8.934.851C-874.269,615.567-877.918,609.858-877.918,609.858Z" transform="translate(928.757 -575.234)" fill="#fff" stroke="#fff" stroke-width="0.5"/>
        <path id="Path_94" data-name="Path 94" d="M-864.413,648.053A38.328,38.328,0,0,0-860.8,642.1a8.68,8.68,0,0,0-.731-6.685,46.069,46.069,0,0,0-3.181-5.729c-.652-.969-1.98-2.42-5.821-2.475s-16.6.268-20.213.405a6.155,6.155,0,0,0-4.319,2.244,32.591,32.591,0,0,0-2.76,6.214c-.48,1.791-1.029,4.355-.059,6.6a24.507,24.507,0,0,0,3.813,5.816,45.507,45.507,0,0,1-2.592-5.984,10.43,10.43,0,0,1,.432-5.238,28.549,28.549,0,0,1,1.3-3.291s1.209-2.842,5.629-2.937c1.254-.026,17.918-.377,19.409-.22a6.261,6.261,0,0,1,4.749,2.391,20.759,20.759,0,0,1,2.726,4.658,7.1,7.1,0,0,1,.242,4.2,55.868,55.868,0,0,1-2.234,5.989Z" transform="translate(914.884 -588.619)" fill="#fff" stroke="#fff" stroke-width="0.5"/>
        <path id="Path_95" data-name="Path 95" d="M-756.923,576.021s8.689-2.418,10.044-2.615a2.445,2.445,0,0,1,2.561,1.072,23.8,23.8,0,0,1,10.3-7.469,21.318,21.318,0,0,1,8.068-.879c1.806.048,11.789.975,12.638,1.172a5.6,5.6,0,0,0,3.992-.9,30.97,30.97,0,0,0,5.183-4.987,3.754,3.754,0,0,0-.374-3.689,24.224,24.224,0,0,0-4.176-4.592,5.7,5.7,0,0,0-3.893-1.559,22.471,22.471,0,0,0-5.361.1c-1.011.239-1.871,1.393-2.257,3.029-.623,2.566-1.146,5.2-1.566,7.89a72.638,72.638,0,0,1,2.186-7.5,3.141,3.141,0,0,1,2.07-2.026,15.551,15.551,0,0,1,4.909-.073,5.371,5.371,0,0,1,3.24,1.9,20.777,20.777,0,0,1,2.482,3.517,3.212,3.212,0,0,1,.057,3.519,22.309,22.309,0,0,1-3.1,3.322,4.5,4.5,0,0,1-3.385,1.27c-1.693-.2-11.454-2.638-17.435-2.247a27.221,27.221,0,0,0-10.212,2.247C-742.594,567.2-755.035,574.054-756.923,576.021Z" transform="translate(810.063 -546.874)" fill="#fff" stroke="#fff" stroke-width="0.5"/>
        <path id="Path_96" data-name="Path 96" d="M-729.494,543.974s18-4.885,35.546-1.613a14.568,14.568,0,0,1,9.1,5.032c1.467,1.42,6,6.156,6,6.156s-4.754-4.519-6.46-6.057a14.836,14.836,0,0,0-8.717-4.4C-699.353,542.107-716.884,540.759-729.494,543.974Z" transform="translate(789.743 -541.233)" fill="#fff" stroke="#fff" stroke-width="0.5"/>
        <path id="Path_97" data-name="Path 97" d="M-749.012,559.215l1.693-7.182s.93-4.25-1.693-4.831-9.772-2.849-23.7-.146c-4.909.954-5.883,1.686-8.125,3.077a61.8,61.8,0,0,0-9.395,9.233,96.174,96.174,0,0,1,9.945-8.538,22.248,22.248,0,0,1,8.252-2.749c1.523-.146,12.167-2.27,22.683.587.867.366,1.56,1.091,1.143,3.774Q-748.722,555.785-749.012,559.215Z" transform="translate(834.738 -543.724)" fill="#fff" stroke="#fff" stroke-width="0.5"/>
        <path id="Path_98" data-name="Path 98" d="M-564.922,580.589s4.105-5.641,7.7-7.62a5.063,5.063,0,0,1,4.444,0,28.3,28.3,0,0,1,6.306,3.151,22.14,22.14,0,0,0-7.842-.779,14.523,14.523,0,0,0-4.26,1.295A30.3,30.3,0,0,0-564.922,580.589Z" transform="translate(667.828 -558.428)" fill="#fff" stroke="#fff" stroke-width="0.5"/>
        <path id="Path_99" data-name="Path 99" d="M-617.493,653.13l23.528-.879a54.163,54.163,0,0,1-5.5-3.665,5.264,5.264,0,0,0-5.759-.732C-608.31,649.466-616.478,652.837-617.493,653.13Z" transform="translate(706.773 -599.677)" fill="#fff" stroke="#fff" stroke-width="0.5"/>
        <path id="Path_100" data-name="Path 100" d="M-679.861,605.2c1.328-3.758,3.614-6.191,6.15-6.545,3.15-.193,6.09,2.722,7.589,7.524a36.261,36.261,0,0,1,1.495,14.411c-.254,4.1-1.607,11.139-4.485,15.1A39.138,39.138,0,0,0-665.3,620.3c.169-8.4-1.1-11.871-1.862-13.924-1.432-3.564-3.757-5.74-6.263-5.862C-675.874,600.3-678.24,602.024-679.861,605.2Z" transform="translate(752.975 -572.853)" fill="#fff" stroke="#fff" stroke-width="0.5"/>
        <path id="Path_101" data-name="Path 101" d="M-513.331,632.8s-.738-20.482,1.069-32.753c.492-3.912,2.752-6.04,3.353,5.2a221.531,221.531,0,0,1-.327,26.258c0-.288,9.075-.818,9.075-.818l-8.575-.756s.765-16.241-.028-27.141c-.287-4.179-1.047-8.248-2.378-8.067-.916.168-1.75,1.985-2.2,5.881a177.193,177.193,0,0,0-.673,21A100.388,100.388,0,0,0-513.331,632.8Z" transform="translate(630.161 -570.712)" fill="#fff" stroke="#fff" stroke-width="0.5"/>
        <path id="Path_102" data-name="Path 102" d="M-901.763,591.577s-3.736-1.683-5.076-2.207a2.364,2.364,0,0,0-2.781.636c.508-1.1,6.708-9.194,29.857-9.867a76.9,76.9,0,0,0-14.128,4.451C-896.753,585.967-900.282,588.794-901.763,591.577Z" transform="translate(923.184 -562.676)" fill="#fff" stroke="#fff" stroke-width="0.5"/>
        <path id="Path_103" data-name="Path 103" d="M-746.859,576.553s-22.851-1.172-37.493.732C-784.352,577.293-762.643,576.7-746.859,576.553Z" transform="translate(830.383 -560.503)" fill="#fff" stroke="#fff" stroke-width="0.5"/>
        <path id="Path_104" data-name="Path 104" d="M-746.558,643.19l10.54-.9s2.7,0,2.268,3.4l-.842,5.161a4.586,4.586,0,0,1-4.492,4l-8.549.523s6.179-1.256,8.51-1.87c1.251.011,2.415-1.112,3.067-2.961a41.992,41.992,0,0,0,.756-4.862c.151-1.346-.624-2.225-1.339-2.244Z" transform="translate(803.185 -596.934)" fill="#fff" stroke="#fff" stroke-width="0.5"/>
        <path id="Path_105" data-name="Path 105" d="M-916.437,642.423a18.039,18.039,0,0,0-3.419-.6c-.8.047-1.474,1.037-1.632,2.394a37.135,37.135,0,0,0,.415,7.966,2.672,2.672,0,0,0,1.4,2.207,42.343,42.343,0,0,0,4.419.576,11.34,11.34,0,0,1-3.841-1.773,3.864,3.864,0,0,1-.85-1.683,39.881,39.881,0,0,1-.36-6.978c.04-1.01.475-1.84,1.052-2Z" transform="translate(932.03 -596.675)" fill="#fff" stroke="#fff" stroke-width="0.5"/>
      </g>
    </g>
  </g>
</svg>
