<svg xmlns="http://www.w3.org/2000/svg" width="47" height="47" viewBox="0 0 47 47">
  <g id="Group_2473" data-name="Group 2473" transform="translate(-11215 -10624)">
    <rect id="Rectangle_2127" data-name="Rectangle 2127" width="47" height="47" transform="translate(11215 10624)" fill="none"/>
    <g id="svgexport-21" transform="translate(11219.372 10631.651)">
      <path id="Path_5129" data-name="Path 5129" d="M15.731,33.385a4.508,4.508,0,0,1-3.195-1.32L2.321,21.848a4.52,4.52,0,0,1,0-6.386L16.369,1.415a.9.9,0,0,1,1.277,0L32.97,16.739a.9.9,0,0,1,0,1.279L18.922,32.065A4.5,4.5,0,0,1,15.731,33.385Zm-1.916-2.6a2.716,2.716,0,0,0,3.832,0L31.057,17.38,17.008,3.331,3.6,16.739a2.713,2.713,0,0,0,0,3.832Zm20.6,2.6A4.52,4.52,0,0,1,29.9,28.872c0-2.167,3.142-6.825,3.773-7.737a.934.934,0,0,1,1.485,0c.63.912,3.773,5.57,3.773,7.737A4.52,4.52,0,0,1,34.411,33.387Zm0-10.107c-1.3,2.032-2.709,4.605-2.709,5.591a2.709,2.709,0,1,0,5.418,0C37.12,27.884,35.711,25.31,34.411,23.281Z" transform="translate(-1.001 -1.151)" fill="#2f2f2f" stroke="#2f2f2f" stroke-width="0.5"/>
      <path id="Path_5130" data-name="Path 5130" d="M31.652,11.806H1.943a.9.9,0,1,1,0-1.806H31.652a.9.9,0,0,1,0,1.806Z" transform="translate(-0.969 5.982)" fill="#2f2f2f" stroke="#2f2f2f" stroke-width="0.5"/>
    </g>
  </g>
</svg>
