<svg xmlns="http://www.w3.org/2000/svg" width="42.635" height="36.78" viewBox="0 0 42.635 36.78">
  <g id="Group_1177" data-name="Group 1177" transform="translate(-509.758 -1183.083)">
    <g id="svgexport-7_10_" data-name="svgexport-7 (10)" transform="translate(535.047 1183.333)">
      <path id="Path_1368" data-name="Path 1368" d="M8.548,0A8.548,8.548,0,1,0,17.1,8.548,8.543,8.543,0,0,0,8.548,0Zm0,15.76A7.212,7.212,0,1,1,15.76,8.548,7.208,7.208,0,0,1,8.548,15.76Z" fill="#ffd600" stroke="#ffd600" stroke-width="0.5"/>
      <path id="Path_1369" data-name="Path 1369" d="M236.668,214.33A.668.668,0,0,0,236,215v4.3a.668.668,0,1,0,1.336,0V215A.668.668,0,0,0,236.668,214.33Z" transform="translate(-228.12 -207.174)" fill="#ffd600" stroke="#ffd600" stroke-width="0.5"/>
      <circle id="Ellipse_13" data-name="Ellipse 13" cx="0.902" cy="0.902" r="0.902" transform="translate(7.646 4.536)" fill="#ffd600" stroke="#ffd600" stroke-width="0.5"/>
    </g>
    <g id="svgexport-7_12_" data-name="svgexport-7 (12)" transform="translate(509.858 1143.096)">
      <path id="Path_1372" data-name="Path 1372" d="M18.469,270.531,15.5,267.566a3.053,3.053,0,0,0-2.171-.9H11.28a.614.614,0,1,0,0,1.228h2.053a1.855,1.855,0,0,1,1.3.539l1.917,1.917H11.28a.614.614,0,0,0,0,1.228h6.755a.615.615,0,0,0,.435-1.049Zm-.435,2.891a.614.614,0,0,0-.614.614v1.842a.615.615,0,0,1-.614.614H13.122a.615.615,0,0,1-.614-.614v-2.456a.614.614,0,0,0-1.228,0v2.456a1.844,1.844,0,0,0,1.842,1.842h3.684a1.844,1.844,0,0,0,1.842-1.842v-1.842A.614.614,0,0,0,18.035,273.421Z" transform="translate(-10.052 -201.053)" fill="#ffd600" stroke="#ffd600" stroke-width="0.2"/>
      <path id="Path_1373" data-name="Path 1373" d="M26.688,182.632c-1.692-.885-5.491-1.3-11.951-1.3s-10.258.413-11.951,1.3C.858,183.639,0,185.322,0,188.089a21.874,21.874,0,0,0,.635,5.071.613.613,0,0,0,.593.456H6.61l2.326,1.163a.616.616,0,0,0,.275.065H20.264a.607.607,0,0,0,.274-.065l2.327-1.163h5.382a.613.613,0,0,0,.593-.456,21.874,21.874,0,0,0,.635-5.071c0-2.767-.858-4.449-2.787-5.456Zm1.073,9.755h-5.04a.608.608,0,0,0-.275.065l-2.327,1.163H9.356L7.03,192.452a.616.616,0,0,0-.275-.065H1.714a21.116,21.116,0,0,1-.486-4.3c0-2.313.616-3.579,2.126-4.368,1.471-.769,5.3-1.158,11.383-1.158s9.912.389,11.383,1.158c1.509.79,2.126,2.056,2.126,4.368A21.223,21.223,0,0,1,27.761,192.387Z" transform="translate(0 -120.632)" fill="#ffd600" stroke="#ffd600" stroke-width="0.2"/>
      <path id="Path_1374" data-name="Path 1374" d="M68.458,69.3H63.186L65.1,67.381a1.858,1.858,0,0,1,1.3-.539h2.053a.614.614,0,1,0,0-1.228H66.405a3.053,3.053,0,0,0-2.171.9l-2.965,2.965a.615.615,0,0,0,.435,1.049h6.755a.614.614,0,1,0,0-1.228Zm-6.2-3.331a.615.615,0,0,0-.556-.354H48.195a.614.614,0,0,0-.472,1.007l3.07,3.684a.615.615,0,0,0,.472.221h7.369a.615.615,0,0,0,.472-.221l3.07-3.684a.613.613,0,0,0,.085-.653ZM58.345,69.3H51.552l-2.047-2.456H60.392Zm8.835-7c-.7-1.606-3.037-6.9-3.85-7.592-1.013-.861-3.915-1.374-7.767-1.374H54.335c-3.851,0-6.753.513-7.767,1.373-.813.691-3.153,5.986-3.85,7.592a.615.615,0,0,0,1.127.49,51.827,51.827,0,0,1,3.519-7.145c.473-.4,2.473-1.082,6.971-1.082h1.228c4.5,0,6.5.68,6.968,1.079a51.6,51.6,0,0,1,3.521,7.148A.614.614,0,0,0,67.18,62.3Zm.664,9.455a.614.614,0,0,0-.614.614v2.456a.615.615,0,0,1-.614.614H62.932a.615.615,0,0,1-.614-.614V72.983a.614.614,0,0,0-1.228,0v1.842a1.844,1.844,0,0,0,1.842,1.842h3.684a1.844,1.844,0,0,0,1.842-1.842V72.369A.614.614,0,0,0,67.844,71.754Z" transform="translate(-40.212 0)" fill="#ffd600" stroke="#ffd600" stroke-width="0.2"/>
    </g>
  </g>
</svg>
