<svg xmlns="http://www.w3.org/2000/svg" width="130" height="100" viewBox="0 0 130 100">
  <g id="carSliderIcon" transform="translate(-1931 1770)">
    <rect id="Rectangle_1891" data-name="Rectangle 1891" width="130" height="100" transform="translate(1931 -1770)" fill="none"/>
    <g id="Group_1169" data-name="Group 1169" transform="translate(1608.834 -2631.952)">
      <g id="car_icon" data-name="car icon" transform="translate(327.839 889.251)">
        <path id="Path_92" data-name="Path 92" d="M-1028.3,627.039h7.8a32.611,32.611,0,0,1-.986-8.949,17.975,17.975,0,0,1,1.99-7.493,24.019,24.019,0,0,0,1.854-3.786,14.737,14.737,0,0,1,1.443-3.9,11.075,11.075,0,0,0-1.941,3.785,19.6,19.6,0,0,1-1.818,3.04,16.183,16.183,0,0,0-2.433,5.968,28.15,28.15,0,0,0,.057,9.823Z" transform="translate(1028.3 -582.909)" fill="#ffd600" stroke="#ffd600" stroke-width="0.5"/>
        <path id="Path_93" data-name="Path 93" d="M-881.342,607.906s2.937,5.119,4.681,4.955l9.058-.389s3.405-.044,2.266-3.813a18.866,18.866,0,0,0-2.524-4.8,2.751,2.751,0,0,0-2.729-.848c-1.493.212-6.024,1.024-6.695,1.126-.565.089-2.373.423-3.09.494s-23.193.107-26.438.107a9.156,9.156,0,0,1-2.875-.788q-1.627-.577-3.331-1a1.936,1.936,0,0,0-2.424,1.084,21.113,21.113,0,0,0-1.643,5.762c-.077.812-.306,2.453,1.545,2.612,1.073.093,2.334.232,3.328.3,1.187.081,3.489-5.088,3.489-5.088s-2.676,4.662-3.622,4.54a19.142,19.142,0,0,1-2.525-.46c-.518-.145-1.278-.494-.913-2.612a18.34,18.34,0,0,1,.857-3.6,1.674,1.674,0,0,1,1.986-1.239c1.635.17,3.258.821,4.353.909.592.047,1.8.145,2.373.145s25.749.169,25.749.169,2.373-.072,3.142-.141c.857-.079,6.695-.423,6.695-.423a2.443,2.443,0,0,1,2.06,1.421,13.407,13.407,0,0,1,1.429,3.1,1.627,1.627,0,0,1-1.018,1.936,71.22,71.22,0,0,1-8.154.615C-878.012,612.031-881.342,607.906-881.342,607.906Z" transform="translate(927.744 -582.885)" fill="#ffd600" stroke="#ffd600" stroke-width="0.5"/>
        <path id="Path_94" data-name="Path 94" d="M-867.382,642.27a27.413,27.413,0,0,0,3.3-4.3,5.13,5.13,0,0,0-.667-4.831,32.1,32.1,0,0,0-2.9-4.14c-.6-.7-1.807-1.749-5.313-1.789s-15.151.194-18.448.293a6.2,6.2,0,0,0-3.942,1.622,21.476,21.476,0,0,0-2.519,4.49c-.438,1.294-.939,3.147-.054,4.769a17.958,17.958,0,0,0,3.48,4.2,29.8,29.8,0,0,1-2.366-4.324,6.059,6.059,0,0,1,.394-3.785,18.351,18.351,0,0,1,1.187-2.378s1.1-2.054,5.138-2.122c1.145-.019,16.354-.272,17.714-.159a6.327,6.327,0,0,1,4.334,1.728,14.69,14.69,0,0,1,2.488,3.366,4.128,4.128,0,0,1,.221,3.035,35.529,35.529,0,0,1-2.039,4.328Z" transform="translate(913.449 -599.321)" fill="#ffd600" stroke="#ffd600" stroke-width="0.5"/>
        <path id="Path_95" data-name="Path 95" d="M-756.923,569.209s7.93-1.747,9.167-1.89a2.514,2.514,0,0,1,2.337.775,22.232,22.232,0,0,1,9.4-5.4,24.332,24.332,0,0,1,7.364-.635c1.648.035,10.76.7,11.535.847a6.2,6.2,0,0,0,3.644-.65,26.522,26.522,0,0,0,4.73-3.6,2.248,2.248,0,0,0-.341-2.666,19.818,19.818,0,0,0-3.812-3.318,6,6,0,0,0-3.553-1.127,25.863,25.863,0,0,0-4.893.072,2.911,2.911,0,0,0-2.06,2.189,57.179,57.179,0,0,0-1.429,5.7,44.505,44.505,0,0,1,2-5.42,2.66,2.66,0,0,1,1.889-1.464,17.881,17.881,0,0,1,4.48-.053,5.281,5.281,0,0,1,2.957,1.373,15.578,15.578,0,0,1,2.265,2.541,1.927,1.927,0,0,1,.052,2.543,18.422,18.422,0,0,1-2.829,2.4,4.767,4.767,0,0,1-3.089.918c-1.545-.145-10.454-1.906-15.913-1.624a30.47,30.47,0,0,0-9.32,1.624C-743.845,562.834-755.2,567.787-756.923,569.209Z" transform="translate(805.425 -548.146)" fill="#ffd600" stroke="#ffd600" stroke-width="0.5"/>
        <path id="Path_96" data-name="Path 96" d="M-729.494,543.214s16.428-3.53,32.443-1.166a14.508,14.508,0,0,1,8.306,3.636c1.339,1.026,5.476,4.448,5.476,4.448s-4.339-3.266-5.9-4.377a15.072,15.072,0,0,0-7.956-3.18C-701.984,541.865-717.985,540.89-729.494,543.214Z" transform="translate(784.485 -541.233)" fill="#ffd600" stroke="#ffd600" stroke-width="0.5"/>
        <path id="Path_97" data-name="Path 97" d="M-752.611,555.483l1.545-5.19s.849-3.071-1.545-3.491-8.919-2.059-21.631-.106c-4.48.689-5.369,1.218-7.416,2.224a52.555,52.555,0,0,0-8.575,6.672,85.593,85.593,0,0,1,9.077-6.17,24.148,24.148,0,0,1,7.532-1.986c1.39-.105,11.1-1.64,20.7.424.791.265,1.424.788,1.043,2.727Q-752.346,553-752.611,555.483Z" transform="translate(830.854 -544.288)" fill="#ffd600" stroke="#ffd600" stroke-width="0.5"/>
        <path id="Path_98" data-name="Path 98" d="M-564.922,578.333s3.747-4.076,7.028-5.506a5.726,5.726,0,0,1,4.056,0,29.013,29.013,0,0,1,5.755,2.277,25.306,25.306,0,0,0-7.157-.563,15.921,15.921,0,0,0-3.888.936,29.58,29.58,0,0,0-5.794,2.856Z" transform="translate(658.846 -562.319)" fill="#ffd600" stroke="#ffd600" stroke-width="0.5"/>
        <path id="Path_99" data-name="Path 99" d="M-617.493,651.516l21.474-.635a52,52,0,0,1-5.02-2.648,5.831,5.831,0,0,0-5.256-.529C-609.112,648.869-616.567,651.3-617.493,651.516Z" transform="translate(698.98 -612.89)" fill="#ffd600" stroke="#ffd600" stroke-width="0.5"/>
        <path id="Path_100" data-name="Path 100" d="M-679.861,603.382c1.212-2.716,3.3-4.474,5.613-4.73,2.875-.139,5.558,1.967,6.926,5.437a21.065,21.065,0,0,1,1.364,10.414c-.232,2.963-1.467,8.049-4.093,10.912a23.675,23.675,0,0,0,3.479-11.121c.154-6.07-1-8.578-1.7-10.062-1.307-2.576-3.429-4.148-5.716-4.236A6.578,6.578,0,0,0-679.861,603.382Z" transform="translate(746.594 -580.007)" fill="#ffd600" stroke="#ffd600" stroke-width="0.5"/>
        <path id="Path_101" data-name="Path 101" d="M-513.4,622.237s-.674-14.8.976-23.668c.449-2.827,2.512-4.365,3.06,3.758a126.834,126.834,0,0,1-.3,18.975c0-.208,8.283-.591,8.283-.591l-7.826-.546a163.55,163.55,0,0,0-.026-19.613c-.262-3.02-.956-5.96-2.17-5.829-.836.121-1.6,1.434-2.008,4.25a101.524,101.524,0,0,0-.614,15.175,57.649,57.649,0,0,0,.624,8.091Z" transform="translate(620.028 -577.37)" fill="#ffd600" stroke="#ffd600" stroke-width="0.5"/>
        <path id="Path_102" data-name="Path 102" d="M-902.449,588.4s-3.41-1.216-4.633-1.595a2.555,2.555,0,0,0-2.538.46c.464-.795,6.122-6.644,27.25-7.13a84.13,84.13,0,0,0-12.894,3.216C-897.876,584.35-901.1,586.393-902.449,588.4Z" transform="translate(922.002 -567.52)" fill="#ffd600" stroke="#ffd600" stroke-width="0.5"/>
        <path id="Path_103" data-name="Path 103" d="M-750.132,576.454s-20.856-.847-34.22.529C-784.352,576.989-764.538,576.56-750.132,576.454Z" transform="translate(826.366 -564.856)" fill="#ffd600" stroke="#ffd600" stroke-width="0.5"/>
        <path id="Path_104" data-name="Path 104" d="M-746.652,642.94l9.62-.65a2.011,2.011,0,0,1,2.07,2.457l-.768,3.729c-.266,1.638-2.015,2.87-4.1,2.89l-7.8.378s5.64-.908,7.767-1.351a3.2,3.2,0,0,0,2.8-2.14,24.537,24.537,0,0,0,.69-3.513,1.355,1.355,0,0,0-1.222-1.622Z" transform="translate(798.337 -609.514)" fill="#ffd600" stroke="#ffd600" stroke-width="0.5"/>
        <path id="Path_105" data-name="Path 105" d="M-916.883,642.257a20.434,20.434,0,0,0-3.12-.434,1.82,1.82,0,0,0-1.49,1.73,21.332,21.332,0,0,0,.379,5.756,1.951,1.951,0,0,0,1.278,1.595q2,.292,4.033.416a11.775,11.775,0,0,1-3.506-1.281,2.633,2.633,0,0,1-.776-1.216,22.9,22.9,0,0,1-.329-5.042,1.47,1.47,0,0,1,.96-1.445Z" transform="translate(931.117 -609.198)" fill="#ffd600" stroke="#ffd600" stroke-width="0.5"/>
      </g>
    </g>
  </g>
</svg>
