<svg xmlns="http://www.w3.org/2000/svg" width="30" height="30" viewBox="0 0 30 30">
  <g id="Group_2505" data-name="Group 2505" transform="translate(-2305 -4215)">
    <rect id="Rectangle_2142" data-name="Rectangle 2142" width="30" height="30" transform="translate(2305 4215)" fill="none"/>
    <g id="svgexport-10_2_" data-name="svgexport-10 (2)" transform="translate(2290.323 4200.323)">
      <path id="Path_5071" data-name="Path 5071" d="M32.793,24.756l3.28,3.28m0-3.28-3.28,3.28m0,3.28,3.28,3.28m0-3.28-3.28,3.28m.164-12.957h4.756a1.64,1.64,0,0,1,1.64,1.64V36.073a1.64,1.64,0,0,1-1.64,1.64H21.64A1.64,1.64,0,0,1,20,36.073V23.28a1.64,1.64,0,0,1,1.64-1.64h8.037m-6.4,3.116,3.28,3.28m0-3.28-3.28,3.28M29.677,20V39.354" fill="none" stroke="#2f2f2f" stroke-linecap="round" stroke-linejoin="round" stroke-miterlimit="10" stroke-width="1.5"/>
      <path id="Path_5072" data-name="Path 5072" d="M100,297.64l.82,1.64,2.46-3.28" transform="translate(-76.72 -264.683)" fill="none" stroke="#2f2f2f" stroke-linecap="round" stroke-linejoin="round" stroke-miterlimit="10" stroke-width="1.5"/>
    </g>
  </g>
</svg>
