<svg xmlns="http://www.w3.org/2000/svg" width="113.717" height="38.402" viewBox="0 0 113.717 38.402">
  <g id="coupe_car" transform="translate(-1447 -1551)">
    <g id="Car_icon_" data-name="Car icon " transform="translate(1447 1551)">
      <path id="Path_328" data-name="Path 328" d="M95.064,297.975c31.259,0,56.6.489,56.6,1.093s-25.339,1.094-56.6,1.094-56.6-.49-56.6-1.094,25.34-1.093,56.6-1.093Z" transform="translate(-38.205 -261.76)" fill="#b3b3b3" fill-rule="evenodd"/>
      <path id="Path_329" data-name="Path 329" d="M143.478,286.079c1.591-.133,3.313-.263,4.7-.469a5.486,5.486,0,0,0,2.575-.849c1.26-1.171,1.116-4.822,1.094-6.692,0-.455-1.159-.457-1.186-.932-.168-2.884-.37-5.372-.685-8.335-.13-1.226-1.148-2.23-2.756-2.731-4.876-1.521-12.059-2.494-14.37-3.169a11.213,11.213,0,0,1-3.321-1.618,97.282,97.282,0,0,0-9.676-5.3c-2.136-.949-3.819-2.167-6.716-2.167-7.684,0-16.514-.527-23.668,1.746-6.85,2.177-13.093,6.112-19.591,9.18a188.045,188.045,0,0,0-24.563,4.407,6.139,6.139,0,0,0-4.491,3.365,39.519,39.519,0,0,0-1.667,4.187c-.632.052-.655.242-.855.611a8.046,8.046,0,0,0-.147,2.24c.019.79.076,1.977.144,2.746.143,1.608.413,2.508,1.23,3.118a3.586,3.586,0,0,0,1.873.637l2.183.071c2.432-.316,2.215.121,2.049-2.575-.025-.395-.035-.786-.035-1.169a11.149,11.149,0,0,1,22.3,0,16.108,16.108,0,0,1-.249,3.01c-.46,2.414-.708,1.917,1.768,2.09l47.608-.052c2.39-.293,2.164.1,1.87-2.692a22.744,22.744,0,0,1-.1-2.355,11.149,11.149,0,0,1,22.3,0c0,.575.016,1.139.012,1.69-.016,2.38.357,2.176,2.376,2.009Zm-36.046-20.732c.6-4.9.868-6.728,1.105-8.1.1-.6.215-.916.953-.933l1.693-.039c1.227-.029,7.136,3.888,9.5,6.341,1.365,1.417,1.92,3.411-1.094,3.551L109,266.663c-1.7.079-1.759.222-1.57-1.316ZM81.9,267.657c-.228.01.351-1.058.4-1.937.089-1.488-2.63-1.6-4.316-1.489A50.292,50.292,0,0,1,90.456,257.7,40.668,40.668,0,0,1,99,256.474l6.033-.195c.668-.009.643.272.56.827-.3,2.005-.865,5.633-1.317,8.136-.222,1.23-.485,1.485-1.746,1.539l-20.633.876Zm48.04,6.147a8.576,8.576,0,1,1-8.576,8.576,8.575,8.575,0,0,1,8.576-8.576Zm-73.191,0a8.576,8.576,0,1,1-8.576,8.576A8.575,8.575,0,0,1,56.75,273.8Z" transform="translate(-38.148 -253.764)" fill="#fff" fill-rule="evenodd"/>
    </g>
  </g>
</svg>
