<svg xmlns="http://www.w3.org/2000/svg" width="113.946" height="39.125" viewBox="0 0 113.946 39.125">
  <g id="Cuv_car" transform="translate(-1221 -1290)">
    <g id="Car_icon_" data-name="Car icon " transform="translate(1221 1290)">
      <path id="Path_312" data-name="Path 312" d="M441.973,96.185c31.466,0,56.973.493,56.973,1.1s-25.508,1.1-56.973,1.1S385,97.893,385,97.285s25.508-1.1,56.973-1.1Z" transform="translate(-385 -59.261)" fill="#b3b3b3" fill-rule="evenodd"/>
      <path id="Path_314" data-name="Path 314" d="M494.347,79.24a29.051,29.051,0,0,0,.545-6.9c-.006-.848-.177-1.405-1.013-1.58-.508-.106-1.023-.213-1.036-.43-.152-2.611-.334-4.539-.619-7.221-.171-1.66-3.081-3.126-4.83-4.705-1.552-1.4-4.768-3.788-6.126-4.9-1.143-.937.564-1.992-.5-2.438-1.7-.775-4.893-1.09-8.326-1.2-8.424-.263-19.845-.364-28.075.239a37.22,37.22,0,0,0-8.084,1.323c-6.2,1.97-11.51,6.832-17.39,9.608-7.117.755-14.282,1.408-21.491,3.2a4.494,4.494,0,0,0-3.555,2.876c-.781,1.512-.473,2.93-.83,3.788-.571.047-.593-.1-.774.236a3.89,3.89,0,0,0-.125,1.391c-.19,2.629-.779,6.546,1.413,8.182a3.2,3.2,0,0,0,.343.182h3.305c1.653,0,1.543-.315,1.722-2.052a10.09,10.09,0,0,1,10.035-9.043,10.255,10.255,0,0,1,9.973,8.6c.337,2.153-.183,2.539,2.02,2.539h43.2c1.542,0,1.442-.151,1.539-1.7a10.089,10.089,0,0,1,20.126-.154c.172,1.842-.029,1.851,1.7,1.851h4.191c1.309,0,2.228-.294,2.663-1.687Zm-18.613-7.108a7.76,7.76,0,1,1-7.76,7.76,7.76,7.76,0,0,1,7.76-7.76Zm-66.8,0a7.76,7.76,0,1,1-7.76,7.76,7.76,7.76,0,0,1,7.76-7.76Zm20.837-9.424a8.053,8.053,0,0,0,.365-1.754c.081-1.346-2.38-1.446-3.906-1.347a43.931,43.931,0,0,1,10.943-6.245,41.61,41.61,0,0,1,8.075-.775l3.343-.071c.6-.007.683.273.506.748-.6,1.6-.834,5.046-1.192,7.363-.172,1.117-.437,1.382-1.58,1.392-4.512.038-16.61.9-16.555.688Zm36.113-1.369a26.711,26.711,0,0,0-1.286-7.294c-4.229-1.851-7.394-1.474-11.845-1.528a.985.985,0,0,0-.828.39c-.478,1.237-.59,2.921-1.211,8.01-.171,1.392-.079,1.015,1.465,1,3.806-.046,9.391-.337,13.7-.575Zm.71-6.828A34.248,34.248,0,0,1,468,61.278c1.52-.081,1.065-.151,2.428-.2,1.979-.066,1.917-.857.667-2.568a13.554,13.554,0,0,0-4.5-4Zm9.878-.931,2.586.17c2.547,2.093,5.095,3.943,7.642,5.96,1.353,1.073.04.967-1.036.77-3.99-.733-6.737-3.837-9.192-6.9Z" transform="translate(-386.425 -49.656)" fill="#fff" fill-rule="evenodd"/>
    </g>
  </g>
</svg>
