<svg xmlns="http://www.w3.org/2000/svg" width="50" height="50" viewBox="0 0 50 50">
  <g id="CVT" transform="translate(-4035 -1837)">
    <rect id="Rectangle_2153" data-name="Rectangle 2153" width="50" height="50" transform="translate(4035 1837)" fill="none"/>
    <g id="download" transform="translate(3833.604 1586.414)">
      <path id="Path_5137" data-name="Path 5137" d="M221.944,409.182c0,.716.011,1.356-.011,2.006,0,.119-.152.271-.26.347a4.436,4.436,0,0,0-2.2,4.023v5.422a4.443,4.443,0,0,0,4.6,4.62,5.243,5.243,0,0,0,2.635-.477,4.341,4.341,0,0,0,2.473-4.078c.022-1.822,0-3.655,0-5.477a4.485,4.485,0,0,0-2.18-4.045.6.6,0,0,1-.271-.4c-.033-.629-.011-1.258-.011-1.93.2-.011.358-.033.51-.033,1.713,0,3.427-.011,5.14,0a2.794,2.794,0,0,1,3.026,3.047v11.767a2.783,2.783,0,0,1-3,3.015H220.371a2.776,2.776,0,0,1-2.971-2.982V412.132a2.781,2.781,0,0,1,2.939-2.971C220.859,409.182,221.38,409.182,221.944,409.182Zm10.227,7.32a6.4,6.4,0,0,0,1.019-.022c.141-.022.26-.228.39-.347-.13-.119-.249-.347-.39-.347q-1.025-.049-2.05,0c-.141.011-.26.228-.4.347.13.119.249.325.4.358A6.549,6.549,0,0,0,232.17,416.5Zm-.38,8.784a4.25,4.25,0,0,0,.911-.022c.184-.043.336-.239.5-.369-.152-.119-.3-.336-.455-.336a14.327,14.327,0,0,0-1.93,0c-.152.011-.293.228-.434.358.152.119.282.314.455.347A4.664,4.664,0,0,0,231.791,425.287Zm.011-13.437h0a6.347,6.347,0,0,0-1.019.022c-.141.022-.271.217-.4.325.13.119.249.336.39.347a17.494,17.494,0,0,0,2,0c.152-.011.293-.239.434-.369-.163-.108-.3-.282-.477-.315A5.237,5.237,0,0,0,231.8,411.85Zm.358,9.12a8,8,0,0,0,1.019-.011c.141-.022.26-.217.39-.336-.13-.119-.26-.325-.4-.325q-1.025-.049-2.05,0c-.13.011-.249.2-.369.3.13.119.239.336.38.358A6.552,6.552,0,0,0,232.16,420.97Z" transform="translate(0 -134.317)" fill="#fff"/>
      <path id="Path_5138" data-name="Path 5138" d="M244.3,260.8v4.978c0,1.648.716,2.375,2.375,2.375.521,0,1.052.011,1.572,0a1.941,1.941,0,0,0,2.061-2.082c.022-1.518,0-3.036,0-4.555v-.683a1.941,1.941,0,0,1,1.106,1.735c.033,3.1.033,6.214,0,9.316a2.1,2.1,0,0,1-2.115,2.05q-2,.033-4,0a2.085,2.085,0,0,1-2.1-2.1c-.022-3.069-.011-6.138,0-9.207A2.129,2.129,0,0,1,244.3,260.8Z" transform="translate(-22.988 -2.051)" fill="#fff"/>
      <path id="Path_5139" data-name="Path 5139" d="M260.36,258.5h4.533v1.844c0,1.225.011,2.451,0,3.676a1.254,1.254,0,0,1-1.356,1.356c-.607.011-1.225.011-1.833,0a1.227,1.227,0,0,1-1.345-1.345C260.35,262.2,260.36,260.365,260.36,258.5Z" transform="translate(-38.297)" fill="#fff"/>
      <path id="Path_5140" data-name="Path 5140" d="M266.106,466.754c1.377.748,1.779.737,3.275-.054.011.152.033.293.033.423,0,2.776-.011,5.552.011,8.329,0,.412-.13.629-.521.629-.824.011-1.648.011-2.473-.033a.578.578,0,0,1-.369-.39c-.011-2.939,0-5.878.011-8.817C266.074,466.819,266.085,466.808,266.106,466.754Z" transform="translate(-43.382 -185.621)" fill="#fff"/>
      <path id="Path_5141" data-name="Path 5141" d="M265.969,389.1h3.188a.779.779,0,0,1,.043.206c0,2.147.011,4.295,0,6.442a1.646,1.646,0,0,1-1.616,1.638,1.6,1.6,0,0,1-1.67-1.507c-.043-2.223-.011-4.435-.011-6.659A.694.694,0,0,1,265.969,389.1Z" transform="translate(-43.233 -116.437)" fill="#fff"/>
      <path id="Path_5142" data-name="Path 5142" d="M244.836,449.827a3.436,3.436,0,0,1-1.67-2.765q-.081-3.237,0-6.5a3.38,3.38,0,0,1,1.67-2.765Z" transform="translate(-22.935 -159.855)" fill="#fff"/>
      <path id="Path_5143" data-name="Path 5143" d="M303.811,438.1a3.446,3.446,0,0,1,1.648,2.906q.065,3.058,0,6.116a3.545,3.545,0,0,1-1.659,2.939C303.811,446.038,303.811,442.1,303.811,438.1Z" transform="translate(-77.03 -160.123)" fill="#fff"/>
      <path id="Path_5144" data-name="Path 5144" d="M326.3,295.315V289a9.92,9.92,0,0,1,1.139.011,1.162,1.162,0,0,1,1.019,1.215c.022,1.28.022,2.559,0,3.85a1.2,1.2,0,0,1-1.269,1.247C326.907,295.326,326.636,295.315,326.3,295.315Z" transform="translate(-97.09 -27.185)" fill="#fff"/>
    </g>
  </g>
</svg>
