<svg id="Group_1359" data-name="Group 1359" xmlns="http://www.w3.org/2000/svg" width="32" height="32" viewBox="0 0 32 32">
  <rect id="Rectangle_1926" data-name="Rectangle 1926" width="32" height="32" fill="none"/>
  <g id="svgexport-16_1_" data-name="svgexport-16 (1)" transform="translate(6.133 4.212)">
    <path id="Path_1374" data-name="Path 1374" d="M5.166,7.5A1.083,1.083,0,0,1,6.248,8.579V20.7a2.079,2.079,0,0,0,2.176,1.959h8.64A2.079,2.079,0,0,0,19.241,20.7V8.579a1.083,1.083,0,0,1,2.166,0V20.7a4.242,4.242,0,0,1-4.342,4.124H8.425A4.242,4.242,0,0,1,4.083,20.7V8.579A1.083,1.083,0,0,1,5.166,7.5ZM4.083,4.248H8.414V2.083A1.083,1.083,0,0,1,9.5,1h6.5a1.083,1.083,0,0,1,1.083,1.083V4.248h4.331a1.083,1.083,0,0,1,0,2.166H4.083a1.083,1.083,0,1,1,0-2.166Zm10.828,0V3.166H10.579V4.248Z" transform="translate(-3 -1)" fill="#fff"/>
    <path id="Path_1375" data-name="Path 1375" d="M13.331,17.662V10.083a1.083,1.083,0,0,1,2.166,0v7.579a1.083,1.083,0,1,1-2.166,0ZM9,17.662V10.083a1.083,1.083,0,0,1,2.166,0v7.579a1.083,1.083,0,1,1-2.166,0Z" transform="translate(-2.503 -0.338)" fill="#fff"/>
  </g>
</svg>
