<svg xmlns="http://www.w3.org/2000/svg" width="47" height="47" viewBox="0 0 47 47">
  <g id="Group_2475" data-name="Group 2475" transform="translate(-11215 -10427)">
    <rect id="Rectangle_2125" data-name="Rectangle 2125" width="47" height="47" transform="translate(11215 10427)" fill="none"/>
    <g id="svgexport-17_13_" data-name="svgexport-17 (13)" transform="translate(11224.764 10436.767)">
      <path id="Path_5124" data-name="Path 5124" d="M3.025,27.469H23.99a2.289,2.289,0,0,0,2.286-2.17L27.459,2.408A2.289,2.289,0,0,0,25.173,0H16.323A4.144,4.144,0,0,0,13.85.824L1.642,9.98a4.14,4.14,0,0,0-1.648,3.3v6.409A19.658,19.658,0,0,0,.852,25.9a2.293,2.293,0,0,0,2.174,1.57ZM1.117,22.891H25.483l-.046.916H1.264q-.085-.456-.147-.916ZM23.99,26.553H3.025a1.378,1.378,0,0,1-1.305-.944c-.084-.251-.172-.549-.257-.887H25.388l-.027.529a1.373,1.373,0,0,1-1.371,1.3ZM.909,13.277a3.222,3.222,0,0,1,1.282-2.564L14.4,1.557A3.226,3.226,0,0,1,16.323.916h8.851A1.373,1.373,0,0,1,26.547,2.36L25.53,21.975H1.013q-.1-1.142-.1-2.289Z" transform="translate(0.011)" fill="#2f2f2f" stroke="#2f2f2f" stroke-width="0.5"/>
      <path id="Path_5125" data-name="Path 5125" d="M6.165,15.9H26.4a1.378,1.378,0,0,0,1.373-1.3l.472-9.156A1.373,1.373,0,0,0,26.868,4H18.984a2.265,2.265,0,0,0-1.373.458L8.243,11.483a2.285,2.285,0,0,0-.978.732L5.4,13.614A1.273,1.273,0,0,0,6.165,15.9ZM18.16,5.19a1.359,1.359,0,0,1,.824-.275h7.884a.455.455,0,0,1,.334.143.449.449,0,0,1,.124.336l-.471,9.154a.461.461,0,0,1-.458.438h-15.5V12.241a.916.916,0,0,0-.916-.916Zm-9.1,7.05h.916v2.747H9.063a1.373,1.373,0,1,1,0-2.747ZM5.95,14.347l.835-.627a2.264,2.264,0,0,0,.458,1.268H6.165a.358.358,0,0,1-.215-.641Zm18.221,2.472H22.34a1.373,1.373,0,0,0,0,2.747h1.831a1.373,1.373,0,0,0,0-2.747Zm0,1.831H22.34a.458.458,0,0,1,0-.916h1.831a.458.458,0,0,1,0,.916Z" transform="translate(-2.649 -2.169)" fill="#2f2f2f" stroke="#2f2f2f" stroke-width="0.5"/>
    </g>
  </g>
</svg>
