<svg xmlns="http://www.w3.org/2000/svg" width="46" height="46" viewBox="0 0 46 46">
  <g id="Group_1414" data-name="Group 1414" transform="translate(-0.466 -0.466)">
    <rect id="Rectangle_1925" data-name="Rectangle 1925" width="46" height="46" transform="translate(0.466 0.466)" fill="none"/>
    <g id="svgexport-16_3_" data-name="svgexport-16 (3)" transform="translate(7.259 7.259)">
      <path id="Path_1377" data-name="Path 1377" d="M10.353,30.333A1.248,1.248,0,0,1,9.471,28.2L28.965,8.709a1.247,1.247,0,1,1,1.764,1.764L11.235,29.967A1.244,1.244,0,0,1,10.353,30.333Z" transform="translate(-7.178 -6.901)" fill="#ffd600" stroke="#ffd600" stroke-width="1"/>
      <path id="Path_1378" data-name="Path 1378" d="M7.264,43.573a1.248,1.248,0,0,1-1.221-1.509L7.971,33.08a1.247,1.247,0,1,1,2.439.523L8.483,42.587A1.248,1.248,0,0,1,7.264,43.573Zm8.983-1.927a1.247,1.247,0,0,1-.882-2.129L34.859,20.023a1.247,1.247,0,1,1,1.764,1.764L17.129,41.281A1.244,1.244,0,0,1,16.247,41.646Z" transform="translate(-6.015 -11.158)" fill="#ffd600" stroke="#ffd600" stroke-width="1"/>
      <path id="Path_1379" data-name="Path 1379" d="M7.263,38.447A1.248,1.248,0,0,1,7,35.979l8.984-1.927a1.248,1.248,0,1,1,.523,2.439L7.526,38.419A1.22,1.22,0,0,1,7.263,38.447ZM32.215,20.553a1.241,1.241,0,0,1-.882-.366l-7.056-7.056a1.247,1.247,0,1,1,1.764-1.764L33.1,18.424a1.248,1.248,0,0,1-.882,2.129Zm3.529-3.528a1.248,1.248,0,0,1-.883-2.13A3.742,3.742,0,0,0,29.568,9.6,1.248,1.248,0,0,1,27.8,7.839a6.238,6.238,0,0,1,8.821,8.821A1.241,1.241,0,0,1,35.743,17.025Z" transform="translate(-6.017 -6.031)" fill="#ffd600" stroke="#ffd600" stroke-width="1"/>
    </g>
  </g>
</svg>
