<svg id="svgexport-15_2_" data-name="svgexport-15 (2)" xmlns="http://www.w3.org/2000/svg" width="147.905" height="118.324" viewBox="0 0 147.905 118.324">
  <g id="Group_1649" data-name="Group 1649">
    <path id="Path_1424" data-name="Path 1424" d="M28.465,8.93H43.256a2.465,2.465,0,0,0,0-4.93H28.465a2.465,2.465,0,0,0,0,4.93Zm41.906,0H97.488a2.465,2.465,0,0,0,0-4.93H70.372a2.465,2.465,0,0,0,0,4.93Z" transform="translate(38.092 5.86)" fill="#ffd600"/>
    <path id="Path_1425" data-name="Path 1425" d="M135.58,0H12.325A12.34,12.34,0,0,0,0,12.325V106a12.34,12.34,0,0,0,12.325,12.325H135.58A12.34,12.34,0,0,0,147.905,106V12.325A12.34,12.34,0,0,0,135.58,0ZM12.325,4.93H135.58a7.4,7.4,0,0,1,7.4,7.4v7.4H4.93v-7.4a7.4,7.4,0,0,1,7.4-7.4ZM135.58,113.394H12.325a7.4,7.4,0,0,1-7.4-7.4V24.651H142.975V106A7.4,7.4,0,0,1,135.58,113.394Z" fill="#ffd600"/>
    <circle id="Ellipse_36" data-name="Ellipse 36" cx="2.5" cy="2.5" r="2.5" transform="translate(9.953 10.162)" fill="#ffd600"/>
    <circle id="Ellipse_37" data-name="Ellipse 37" cx="2.5" cy="2.5" r="2.5" transform="translate(19.953 10.162)" fill="#ffd600"/>
    <circle id="Ellipse_38" data-name="Ellipse 38" cx="2.5" cy="2.5" r="2.5" transform="translate(29.953 10.162)" fill="#ffd600"/>
    <path id="Path_1426" data-name="Path 1426" d="M78.627,76.085H19.465a2.465,2.465,0,0,0,0,4.93H78.627a2.465,2.465,0,0,0,0-4.93Zm-22.186,9.86H41.651a2.465,2.465,0,0,0,0,4.93H56.441a2.465,2.465,0,0,0,0-4.93Zm-7.4-14.805A29.566,29.566,0,1,0,28.13,62.49a29.566,29.566,0,0,0,20.916,8.65Zm-17.431-47A24.565,24.565,0,1,1,24.36,41.574,24.651,24.651,0,0,1,31.616,24.143Z" transform="translate(24.906 17.588)" fill="#ffd600"/>
    <path id="Path_1427" data-name="Path 1427" d="M26.2,46.379a2.443,2.443,0,0,0,2.1-.7L51.691,22.293a2.465,2.465,0,0,0-.569-3.912A19.721,19.721,0,0,0,24.381,45.117,2.465,2.465,0,0,0,26.2,46.379Zm5.078-21.106a14.914,14.914,0,0,1,14.3-3.826L27.462,39.558a14.906,14.906,0,0,1,3.809-14.285Zm-.2,25.989a2.465,2.465,0,0,0,1.265,1.812A19.726,19.726,0,0,0,59.079,26.333a2.465,2.465,0,0,0-3.91-.567L31.776,49.157a2.465,2.465,0,0,0-.7,2.105ZM56.028,31.907A14.791,14.791,0,0,1,37.9,50.03Z" transform="translate(32.223 23.43)" fill="#ffd600"/>
  </g>
</svg>
