<svg xmlns="http://www.w3.org/2000/svg" width="47" height="47" viewBox="0 0 47 47">
  <g id="Group_2477" data-name="Group 2477" transform="translate(-1234 -715)">
    <rect id="Rectangle_2133" data-name="Rectangle 2133" width="47" height="47" transform="translate(1234 715)" fill="#fff"/>
    <g id="svgexport-17_16_" data-name="svgexport-17 (16)" transform="translate(1239.494 720.516)">
      <path id="Path_5132" data-name="Path 5132" d="M39.7,8.272,37.876,5.6a1.091,1.091,0,0,0-1.516-.285l-.756.517a1.091,1.091,0,0,0-.285,1.516l.061.09L34.3,8.171l-.814-1.19a1.435,1.435,0,0,0-1.992-.374l-2,1.367L28.9,7.093a.528.528,0,0,0-.437-.233H27.238v-1.2a1.3,1.3,0,0,0,.727-2.034A1.286,1.286,0,0,0,28.2,2.6h.411a1.3,1.3,0,0,0,0-2.6h-12.8a1.3,1.3,0,0,0,0,2.6h.411a1.286,1.286,0,0,0,.233,1.019,1.3,1.3,0,0,0,.727,2.034V6.848H16.013a.527.527,0,0,0-.437.232l-.62.916L12.928,6.607a1.435,1.435,0,0,0-1.992.374l-.814,1.19L9.041,7.442l.061-.09a1.091,1.091,0,0,0-.285-1.516l-.756-.517A1.091,1.091,0,0,0,6.546,5.6L4.721,8.272a1.092,1.092,0,0,0,.285,1.516l.756.517a1.092,1.092,0,0,0,1.516-.285l.039-.058,1.073.742L7.337,12.244a1.435,1.435,0,0,0,.374,1.992l2.064,1.412L8.84,17.029a.527.527,0,0,0-.025.551l7.142,12.935a.527.527,0,0,0,.461.272h.625V33.2a1.324,1.324,0,0,0,1.323,1.323h1.9a1.933,1.933,0,0,0,3.757,0h1.9A1.324,1.324,0,0,0,27.238,33.2V30.8h.6a.527.527,0,0,0,.461-.272L29.758,27.9,36,27.842h0a2.355,2.355,0,0,0,.883-4.535l-2.517-3.736,1.164-2.1a.527.527,0,0,0-.024-.549l-.856-1.273,2.061-1.409a1.435,1.435,0,0,0,.374-1.992l-1.053-1.539L37.1,9.963l.039.058a1.092,1.092,0,0,0,1.516.285l.756-.517A1.093,1.093,0,0,0,39.7,8.272ZM15.813,1.547a.246.246,0,0,1,0-.492h12.8a.246.246,0,0,1,0,.492ZM17.5,4.64a.246.246,0,0,1,0-.492h9.421a.246.246,0,1,1,0,.492Zm8.683,1.055V6.82H18.238V5.695Zm.738-2.6H17.5a.246.246,0,0,1,0-.492h9.421a.246.246,0,1,1,0,.492ZM6.747,8.928h0l-.34.5a.037.037,0,0,1-.051.009L5.6,8.918a.037.037,0,0,1-.01-.051L7.416,6.2a.034.034,0,0,1,.023-.015.034.034,0,0,1,.027.006l.756.517a.036.036,0,0,1,.01.051Zm1.165.165.534-.78,1.081.729-.542.793Zm.394,4.273a.379.379,0,0,1-.1-.526l3.6-5.263a.379.379,0,0,1,.526-.1l1.951,1.334L10.257,14.7ZM22.14,34.943a.878.878,0,0,1-.749-.422h1.5A.878.878,0,0,1,22.14,34.943ZM26.183,33.2a.269.269,0,0,1-.268.268H18.366A.269.269,0,0,1,18.1,33.2v-.886h4.535a.527.527,0,0,0,0-1.055H18.1v-.462h8.085Zm2.95-6.35-5.945.053a4.954,4.954,0,0,0-4.847-8.507l2.743-4.808a3.972,3.972,0,0,0,7.793-.275l4.254,6.315Zm-9.029.08h0a3.9,3.9,0,1,1,3.9-3.9,3.906,3.906,0,0,1-3.9,3.9ZM22.035,12.69a2.918,2.918,0,1,1,2.918,2.918A2.921,2.921,0,0,1,22.035,12.69Zm15.257,12.8a1.3,1.3,0,1,1-1.3-1.3A1.3,1.3,0,0,1,37.292,25.486Zm-1.768-2.309A2.354,2.354,0,0,0,34.04,26.8l-3.7.033,3.448-6.23Zm.69-10.338a.379.379,0,0,1-.1.526L34.164,14.7l-1.152-1.685a.574.574,0,0,0-.873-.088l-.011.01a.574.574,0,0,0-.077.732l2.4,3.57-.747,1.35-5.323-7.9h0a3.969,3.969,0,0,0-6.855,0l-.022.034-5.217,9.145A4.954,4.954,0,0,0,20.1,27.982h0l8.44-.075-1.015,1.834h-.007L16.73,29.732,9.894,17.352l6.4-9.45,11.891.012,2.077,3.091a.568.568,0,1,0,.94-.637L30.137,8.812l1.951-1.334a.379.379,0,0,1,.526.1L33.722,9.2Zm-.778-3-.542-.793,1.081-.729.534.78Zm3.384-.917-.756.517a.037.037,0,0,1-.051-.009l-.34-.5h0L36.189,6.757a.036.036,0,0,1,.01-.051l.756-.517a.032.032,0,0,1,.027-.006.034.034,0,0,1,.023.015L38.83,8.867a.037.037,0,0,1-.009.051Z" transform="translate(-4.531)" fill="#2f2f2f"/>
      <path id="Path_5133" data-name="Path 5133" d="M199.707,153a1.933,1.933,0,1,0,1.933,1.933A1.936,1.936,0,0,0,199.707,153Zm0,2.812a.879.879,0,1,1,.879-.879A.88.88,0,0,1,199.707,155.812Zm-4.851,7.1a2.355,2.355,0,1,0,2.355,2.355A2.358,2.358,0,0,0,194.855,162.913Zm0,3.656a1.3,1.3,0,1,1,1.3-1.3A1.3,1.3,0,0,1,194.855,166.569Z" transform="translate(-179.284 -142.243)" fill="#2f2f2f"/>
      <circle id="Ellipse_70" data-name="Ellipse 70" cx="0.598" cy="0.598" r="0.598" transform="translate(30.863 24.889)" fill="#2f2f2f"/>
    </g>
  </g>
</svg>
