<svg xmlns="http://www.w3.org/2000/svg" width="130.266" height="100" viewBox="0 0 130.266 100">
  <g id="Group_1166" data-name="Group 1166" transform="translate(-1930.75 1770)">
    <rect id="Rectangle_1891" data-name="Rectangle 1891" width="130" height="100" transform="translate(1931 -1770)" fill="none"/>
    <g id="Group_1168" data-name="Group 1168" transform="translate(619.147 -2639.013)">
      <g id="icon" transform="translate(1311.853 888.999)">
        <path id="Path_224" data-name="Path 224" d="M-999.639,572.115s-3.417-.154-6.041-.092a3.364,3.364,0,0,0-1.9.579c-.459.283-.808.548-1.154.77a4.54,4.54,0,0,1-2.255.668c-2.982.074-8.771.106-11.621.081a1.789,1.789,0,0,1-1.246-.443q-.213-.249-.408-.528a1.6,1.6,0,0,0-1.335-.923c-.922.029-2.484.123-2.484.123s1.638.211,2.328.282a1.625,1.625,0,0,1,1.111.877,4.248,4.248,0,0,0,.382.606,1.956,1.956,0,0,0,1.444.787c2.047.04,8.85.054,11.825-.039a4.621,4.621,0,0,0,2.567-.85c.5-.308.73-.511,1.038-.731a3.688,3.688,0,0,1,1.9-.8C-1003.918,572.384-1002.6,572.354-999.639,572.115Z" transform="translate(1031.6 -525.494)" fill="#fff" stroke="#fff" stroke-width="0.5"/>
        <path id="Path_225" data-name="Path 225" d="M-909.074,533.129a13.533,13.533,0,0,1,3.173-6.17c2.176-1.879,4.121-3.334,10.828-3.923a122.879,122.879,0,0,1,14.052-.368c-1.946-.368-10.942-.442-14.091-.294a24.288,24.288,0,0,0-6.911,1.271,12.563,12.563,0,0,0-4.3,2.872,11.06,11.06,0,0,0-2.751,6.612Z" transform="translate(932.809 -487.939)" fill="#fff" stroke="#fff" stroke-width="0.5"/>
        <path id="Path_226" data-name="Path 226" d="M-903.65,552.637l6.374-.222a1.309,1.309,0,0,0,1.126-.811c.281-.774.563-1.621.563-1.621a.97.97,0,0,0-.025-.729.449.449,0,0,0-.461-.3c-.768-.037-4.735.368-6.4.626,1.69-.111,5.427-.154,5.784-.111s.307.259.2.589-.307.847-.307.847a1.19,1.19,0,0,1-1.1.848c-.947.111-2,.154-2,.154A15.916,15.916,0,0,0-903.65,552.637Z" transform="translate(928.307 -508.073)" fill="#fff" stroke="#fff" stroke-width="0.5"/>
        <path id="Path_227" data-name="Path 227" d="M-912.087,590.828s3.583-.077,6.041-.169a.554.554,0,0,0,.521-.265,1.2,1.2,0,0,0,.2-.744q.034-.551.029-1.105c-.011-.374.022-1.045-.8-1.017-1.517.051-3.561.231-5.455.442,1.872.064,3.83.064,4.886.134a.323.323,0,0,1,.214.342,9.211,9.211,0,0,1,.007,1.231.4.4,0,0,1-.249.4C-907.959,590.271-911.162,590.668-912.087,590.828Z" transform="translate(935.311 -537.217)" fill="#fff" stroke="#fff" stroke-width="0.5"/>
        <path id="Path_228" data-name="Path 228" d="M-1025.9,564.6l-3.821.111.135-.6s.892.017,1.19.017A7.875,7.875,0,0,1-1025.9,564.6Z" transform="translate(1032.958 -519.525)" fill="#fff" stroke="#fff" stroke-width="0.5"/>
        <path id="Path_229" data-name="Path 229" d="M-1022.192,553.237s-2.764-.037-3.046-.037c.077-.185.179-.383.179-.383A23.019,23.019,0,0,1-1022.192,553.237Z" transform="translate(1029.237 -510.994)" fill="#fff" stroke="#fff" stroke-width="0.5"/>
        <path id="Path_230" data-name="Path 230" d="M-1027.218,601.537l-2.946.008-.007-.417S-1028.223,601.327-1027.218,601.537Z" transform="translate(1033.334 -547.494)" fill="#fff" stroke="#fff" stroke-width="0.5"/>
        <path id="Path_231" data-name="Path 231" d="M-1028.646,590.466l-2.8.2-.029-.5Z" transform="translate(1034.412 -539.212)" fill="#fff" stroke="#fff" stroke-width="0.5"/>
        <path id="Path_232" data-name="Path 232" d="M-902.6,414.6a32.351,32.351,0,0,1,8.786-3.86c1.506-.414,3.019-.77,4.537-1.087q1.138-.237,2.281-.436l1.143-.189c.379-.066.769-.1,1.126-.2a2.169,2.169,0,0,0,.992-.589,2.468,2.468,0,0,0,.591-1.221c.2-1.045.375-2.13.566-3.194q.52-3.232,1.3-6.361a16.5,16.5,0,0,1,2.541-5.512,11.588,11.588,0,0,1,3.935-3.374,12.254,12.254,0,0,0-3.839,3.518,16.666,16.666,0,0,0-2.43,5.482q-.392,1.545-.669,3.143c-.2,1.062-.383,2.132-.567,3.2s-.355,2.135-.553,3.22a2.949,2.949,0,0,1-.693,1.447,2.37,2.37,0,0,1-1.112.671c-.4.1-.773.134-1.154.2l-1.14.179q-1.14.188-2.276.414c-1.516.3-3.026.657-4.535,1.02a32.756,32.756,0,0,0-4.472,1.448A32.821,32.821,0,0,0-902.6,414.6Z" transform="translate(927.431 -386.905)" fill="#fff" stroke="#fff" stroke-width="0.5"/>
        <path id="Path_233" data-name="Path 233" d="M-972.848,391.936l-.572,38.016-24.044-1c-1.469-.162-2.89.79-3.75,2.512-1.55,3.054-1.942,6.31-2.1,10.885-.15,1.289-.919,2.239-1.827,2.258-.233,0-23.362.222-26.069.232h-.007c-.807.109-1.534-.706-1.658-1.859a19.987,19.987,0,0,1-.172-2.616,36.74,36.74,0,0,1,.4-6.289,11.788,11.788,0,0,1,.884-2.984,10.49,10.49,0,0,1,3.027-4.1,7.668,7.668,0,0,0-3.488,3.932,13.958,13.958,0,0,0-.934,3,34.694,34.694,0,0,0-.415,6.455,18.574,18.574,0,0,0,.181,2.726c.163,1.515,1.108,2.594,2.17,2.478h.01c2.708-.011,25.838-.229,26.075-.232,1.183-.023,2.178-1.285,2.341-2.972.151-4.439.525-7.575,2-10.478a3.435,3.435,0,0,1,3.316-2.2l24.624,1.023Z" transform="translate(1036.16 -389.442)" fill="#fff" stroke="#fff" stroke-width="0.5"/>
        <path id="Path_234" data-name="Path 234" d="M-948.131,382.656c-1.92-.268-3.8-.489-6.489-.7a63,63,0,0,0-7.182-.192c-5.215.114-16.783.731-16.912.739-3.8.492-7.164,3.7-8.964,8.53q-1.755,5.395-3.122,11.025a1.593,1.593,0,0,1-.874,1.154,29.882,29.882,0,0,0-9.48,5.281,6.118,6.118,0,0,0-1.675,3.481,59.029,59.029,0,0,0-.777,7.785,70.279,70.279,0,0,0,.422,8.484q-.162-4.119-.03-8.247a62.206,62.206,0,0,1,.839-7.726,6.129,6.129,0,0,1,1.506-3.149,30.086,30.086,0,0,1,9.328-5.182,2.246,2.246,0,0,0,1.232-1.628q1.357-5.581,3.1-10.942c1.714-4.6,4.919-7.649,8.53-8.117.117,0,11.679-.616,16.888-.736,3.479-.075,5.619-.04,7.406.038C-951.026,382.7-950.07,382.693-948.131,382.656Z" transform="translate(1011.286 -381.74)" fill="#fff" stroke="#fff" stroke-width="0.5"/>
        <path id="Path_235" data-name="Path 235" d="M-901.217,467.777l-5.319-.034c-1.772,0-5.169-.025-6.941,0-1.772-.017-2.369-.012-4.141.009l-4.685.051c1.768-.217,2.906-.3,4.679-.391s2.372-.094,4.147-.111c1.773.015,5.173.028,6.945.106S-902.986,467.589-901.217,467.777Z" transform="translate(943.791 -446.381)" fill="#fff" stroke="#fff" stroke-width="0.5"/>
        <path id="Path_236" data-name="Path 236" d="M-900.734,427.144c-.107,0-10.661-.462-18.488.066a2.36,2.36,0,0,0-1.618,1.867c-.632,1.927-1.89,7.643-1.89,7.643s1.481-5.224,2.223-7.388a1.67,1.67,0,0,1,1.31-1.375c7.808-.525,18.347-.071,18.448-.066a1.055,1.055,0,0,1,.928,1.385s-.243,1.679-.321,2.2-.48,4.043-.564,5.282c.173-1.16.807-4.973,1.284-7.375S-900.734,427.144-900.734,427.144Z" transform="translate(944.146 -415.903)" fill="#fff" stroke="#fff" stroke-width="0.5"/>
        <path id="Path_237" data-name="Path 237" d="M-776.553,436.164c0,.154,0,.308-.006.451,0,.252,0,.462-.006.716h-.642c0-.26,0-.473.006-.7,0-.168,0-.323.006-.462.01-.942-.071-1.53-.609-1.622-.587-.1-1.536-.2-2.168-.257-.292-.026-.749-.2-.974.923-.321,1.618-.856,5.087-1.4,7.9.036-.331.663-5.667,1.019-8.234.086-.6.19-1.481,1.284-1.362,1.165.128,1.754.2,2.6.331C-776.98,433.911-776.528,434.159-776.553,436.164Z" transform="translate(827.611 -420.846)" fill="#fff" stroke="#fff" stroke-width="0.5"/>
        <path id="Path_238" data-name="Path 238" d="M-997.536,514.231a69.037,69.037,0,0,1,.891-15.448c.384-1.436.546-2.278,1.328-2.443a29.936,29.936,0,0,1,4.7-.375,33.888,33.888,0,0,1,6.212.365c1.111.246,1.114,1.385,1.114,2.266a51.82,51.82,0,0,1-.614,6.74c-.5,3.149-1.536,8.619-1.536,8.619a64.1,64.1,0,0,0,2.016-8.288,62.513,62.513,0,0,0,.9-7.072,3.951,3.951,0,0,0-.39-2.215,2.036,2.036,0,0,0-1.375-1.142,34.27,34.27,0,0,0-6.16-.377,33.281,33.281,0,0,0-4.753.409c-1.374.246-1.569,1.393-2.032,3.109a43.263,43.263,0,0,0-.672,7.648A58.072,58.072,0,0,0-997.536,514.231Z" transform="translate(1006.554 -467.2)" fill="#fff" stroke="#fff" stroke-width="0.5"/>
        <path id="Path_239" data-name="Path 239" d="M-781.06,567.081c-.114,1.838-1.034,1.693-1.425,1.724l-17.95.109a36.8,36.8,0,0,0,.262-5.733,16.217,16.217,0,0,0-1.855-7.591,17.732,17.732,0,0,1,1.4,7.57,46.324,46.324,0,0,1-.48,6.507s17.643-.1,18.623-.109a1.415,1.415,0,0,0,1.295-.634,3.021,3.021,0,0,0,.547-1.8V556.732S-780.94,565.167-781.06,567.081Z" transform="translate(843.948 -513.087)" fill="#fff" stroke="#fff" stroke-width="0.5"/>
        <g id="Group_107" data-name="Group 107" transform="translate(34.442 42.092)">
          <path id="Path_240" data-name="Path 240" d="M-842.1,571.85c-2.177,0-3.947-4.022-3.947-8.967s1.771-8.967,3.947-8.967,3.947,4.023,3.947,8.967S-839.928,571.85-842.1,571.85Zm0-17.183c-1.888,0-3.423,3.686-3.423,8.216s1.537,8.216,3.423,8.216,3.423-3.686,3.423-8.216-1.539-8.222-3.423-8.222Z" transform="translate(846.051 -553.916)" fill="#fff" stroke="#fff" stroke-width="0.5"/>
        </g>
        <path id="Path_241" data-name="Path 241" d="M-824.293,586.207c0,.848-.3,1.539-.658,1.539s-.66-.685-.66-1.539a2.151,2.151,0,0,1,.409-1.419,2.163,2.163,0,0,0-.277,1.176c0,.742.236,1.339.528,1.339s.525-.6.525-1.339a2.162,2.162,0,0,0-.277-1.176,2.15,2.15,0,0,1,.409,1.419Z" transform="translate(863.526 -535.149)" fill="#fff" stroke="#fff" stroke-width="0.5"/>
        <g id="Group_108" data-name="Group 108" transform="translate(31.428 55.264)">
          <path id="Path_242" data-name="Path 242" d="M-860.365,612.559c-1.417,0-2.732-1.727-3.429-4.506l.491-.256c.621,2.473,1.747,4.011,2.938,4.011Z" transform="translate(863.794 -607.797)" fill="#fff" stroke="#fff" stroke-width="0.5"/>
        </g>
        <g id="Group_109" data-name="Group 109" transform="translate(10.036 55.461)">
          <path id="Path_243" data-name="Path 243" d="M-986.429,613.186c-1.355,0-2.612-1.648-3.279-4.31l.491-.255c.59,2.349,1.658,3.808,2.787,3.808s2.184-1.441,2.781-3.762l.49.259C-983.841,611.6-985.063,613.186-986.429,613.186Z" transform="translate(989.708 -608.621)" fill="#fff" stroke="#fff" stroke-width="0.5"/>
        </g>
        <g id="Group_110" data-name="Group 110" transform="translate(6.67 55.461)">
          <path id="Path_244" data-name="Path 244" d="M-1006.247,613.177c-1.356,0-2.613-1.65-3.279-4.31l.491-.255c.59,2.35,1.659,3.811,2.788,3.811Z" transform="translate(1009.526 -608.612)" fill="#fff" stroke="#fff" stroke-width="0.5"/>
        </g>
        <path id="Path_245" data-name="Path 245" d="M-833.057,571.375a8.643,8.643,0,0,1-1.68,5.8,9.524,9.524,0,0,0,1.3-5.387c0-3.28-1.008-5.941-2.246-5.941s-2.246,2.661-2.246,5.941a9.456,9.456,0,0,0,1.3,5.387,8.63,8.63,0,0,1-1.686-5.807c0-3.434,1.177-6.22,2.635-6.22S-833.057,567.94-833.057,571.375Z" transform="translate(874.077 -520.316)" fill="#fff" stroke="#fff" stroke-width="0.5"/>
        <g id="Group_111" data-name="Group 111" transform="translate(69.445 43.485)">
          <path id="Path_246" data-name="Path 246" d="M-637.1,576.04c-1.64,0-2.924-3.606-2.924-8.21s1.284-8.21,2.924-8.21,2.924,3.606,2.924,8.21S-635.463,576.04-637.1,576.04Zm0-15.756c-1.335,0-2.46,3.455-2.46,7.542s1.128,7.542,2.46,7.542,2.46-3.455,2.46-7.542-1.124-7.54-2.46-7.54Z" transform="translate(640.027 -559.621)" fill="#fff" stroke="#fff" stroke-width="0.5"/>
        </g>
        <g id="Group_112" data-name="Group 112" transform="translate(64.646 54.399)">
          <path id="Path_247" data-name="Path 247" d="M-665.514,609.753c-1.253,0-2.332-2.116-2.751-5.387l.453-.12c.371,2.9,1.294,4.847,2.3,4.847Z" transform="translate(668.265 -604.246)" fill="#fff" stroke="#fff" stroke-width="0.5"/>
        </g>
        <path id="Path_248" data-name="Path 248" d="M-649.412,614.276a4.7,4.7,0,0,0,1.146,2.924h.762C-648.271,616.943-649.008,615.521-649.412,614.276Z" transform="translate(717.262 -557.428)" fill="#fff" stroke="#fff" stroke-width="0.5"/>
        <path id="Path_249" data-name="Path 249" d="M-628.4,589.177c0,.779-.2,1.407-.446,1.407s-.448-.628-.448-1.407a2.471,2.471,0,0,1,.277-1.3,2.545,2.545,0,0,0-.188,1.078c0,.68.16,1.231.358,1.231s.357-.546.357-1.231a2.54,2.54,0,0,0-.188-1.077,2.47,2.47,0,0,1,.278,1.3Z" transform="translate(700.562 -537.482)" fill="#fff" stroke="#fff" stroke-width="0.5"/>
        <path id="Path_250" data-name="Path 250" d="M-630,575.572a9.9,9.9,0,0,1-1.141,5.321,11.159,11.159,0,0,0,.881-4.936c0-3.007-.685-5.447-1.527-5.447s-1.53,2.44-1.53,5.447a11.077,11.077,0,0,0,.885,4.941,9.887,9.887,0,0,1-1.146-5.325c0-3.149.8-5.695,1.791-5.695S-630,572.423-630,575.572Z" transform="translate(704.117 -523.877)" fill="#fff" stroke="#fff" stroke-width="0.5"/>
        <g id="Group_113" data-name="Group 113" transform="translate(63 43.221)">
          <path id="Path_251" data-name="Path 251" d="M-670.9,558.531a29.638,29.638,0,0,0-1.523,10.329,1.778,1.778,0,0,1-.282,1,.853.853,0,0,1-.691.411h-4.555v-.751h4.555a.393.393,0,0,0,.321-.189.828.828,0,0,0,.133-.462,32.391,32.391,0,0,1,1.254-9.71c.064-.2.129-.4.2-.6Z" transform="translate(677.953 -558.531)" fill="#fff" stroke="#fff" stroke-width="0.5"/>
        </g>
        <g id="Group_114" data-name="Group 114" transform="translate(0 59.275)">
          <rect id="Rectangle_92" data-name="Rectangle 92" width="119.052" height="0.751" fill="#fff" stroke="#fff" stroke-width="0.5"/>
        </g>
        <g id="Group_115" data-name="Group 115" transform="translate(68.801 0.232)">
          <path id="Path_252" data-name="Path 252" d="M-586.364,426.892l-.271-.014-57.153-3v-41.2l57.423,6.963Zm-56.9-3.735,56.379,2.957V390.339l-56.379-6.835Z" transform="translate(643.787 -382.686)" fill="#fff" stroke="#fff" stroke-width="0.5"/>
        </g>
        <path id="Path_253" data-name="Path 253" d="M-638.364,559.614l-3.154.125,2.948.248Z" transform="translate(710.709 -516.129)" fill="#fff" stroke="#fff" stroke-width="0.5"/>
        <g id="Group_116" data-name="Group 116" transform="translate(108.097 45.069)">
          <path id="Path_254" data-name="Path 254" d="M-410.2,580.832c-1.3,0-2.311-3.232-2.311-7.372s1.015-7.372,2.311-7.372,2.311,3.232,2.311,7.372S-408.9,580.832-410.2,580.832Zm0-14.171c-1.036,0-1.911,3.114-1.911,6.8s.876,6.8,1.911,6.8,1.912-3.114,1.912-6.8S-409.164,566.661-410.2,566.661Z" transform="translate(412.512 -566.087)" fill="#fff" stroke="#fff" stroke-width="0.5"/>
        </g>
        <g id="Group_117" data-name="Group 117" transform="translate(103.121 52.492)">
          <path id="Path_255" data-name="Path 255" d="M-439.489,603.831c-1.3,0-2.311-3.232-2.311-7.372h.4c0,3.685.876,6.8,1.912,6.8Z" transform="translate(441.8 -596.459)" fill="#fff" stroke="#fff" stroke-width="0.5"/>
        </g>
        <path id="Path_256" data-name="Path 256" d="M-423.345,615.053a4.231,4.231,0,0,0,1.03,2.635h.685C-422.318,617.453-422.981,616.174-423.345,615.053Z" transform="translate(529.602 -558.015)" fill="#fff" stroke="#fff" stroke-width="0.5"/>
        <path id="Path_257" data-name="Path 257" d="M-391.855,618.407a3.029,3.029,0,0,0,.831,1.625h.671a3.308,3.308,0,0,1-1.379-1.785C-391.847,617.976-391.925,618.113-391.855,618.407Z" transform="translate(503.483 -560.316)" fill="#fff" stroke="#fff" stroke-width="0.5"/>
        <path id="Path_258" data-name="Path 258" d="M-403.886,592.624c0,.7-.157,1.265-.35,1.265s-.352-.565-.352-1.265a2.49,2.49,0,0,1,.214-1.17,2.582,2.582,0,0,0-.148.97c0,.616.126,1.105.281,1.105s.279-.493.279-1.105a2.583,2.583,0,0,0-.148-.97,2.48,2.48,0,0,1,.223,1.17Z" transform="translate(514.031 -540.186)" fill="#fff" stroke="#fff" stroke-width="0.5"/>
        <path id="Path_259" data-name="Path 259" d="M-404.536,580.389a9.976,9.976,0,0,1-.894,4.787,11.324,11.324,0,0,0,.69-4.44c0-2.7-.535-4.9-1.2-4.9s-1.2,2.195-1.2,4.9a11.232,11.232,0,0,0,.694,4.443,9.953,9.953,0,0,1-.9-4.79c0-2.832.628-5.128,1.4-5.128S-404.536,577.557-404.536,580.389Z" transform="translate(516.317 -527.951)" fill="#fff" stroke="#fff" stroke-width="0.5"/>
        <path id="Path_260" data-name="Path 260" d="M-412.38,566.094l-2.737.154,2.552.188Z" transform="translate(522.771 -521.025)" fill="#fff" stroke="#fff" stroke-width="0.5"/>
        <path id="Path_261" data-name="Path 261" d="M-520.228,566.455l-2.153.086,2.012.169Z" transform="translate(611.811 -521.298)" fill="#fff" stroke="#fff" stroke-width="0.5"/>
        <g id="Group_118" data-name="Group 118" transform="translate(113.255 45.345)">
          <path id="Path_262" data-name="Path 262" d="M-379.852,581.7c-1.273,0-2.27-3.177-2.27-7.234s1-7.234,2.27-7.234,2.27,3.177,2.27,7.234S-378.575,581.7-379.852,581.7Zm0-13.889c-1.014,0-1.87,3.049-1.87,6.657s.856,6.657,1.87,6.657,1.87-3.049,1.87-6.657-.85-6.657-1.87-6.657Z" transform="translate(382.122 -567.237)" fill="#fff" stroke="#fff" stroke-width="0.5"/>
        </g>
        <path id="Path_263" data-name="Path 263" d="M-373.707,593.273c0,.686-.154,1.239-.343,1.239s-.344-.554-.344-1.239a2.443,2.443,0,0,1,.214-1.147,2.542,2.542,0,0,0-.144.951c0,.6.124,1.077.276,1.077s.274-.482.274-1.077a2.542,2.542,0,0,0-.144-.951,2.444,2.444,0,0,1,.213,1.147Z" transform="translate(488.967 -540.693)" fill="#fff" stroke="#fff" stroke-width="0.5"/>
        <path id="Path_264" data-name="Path 264" d="M-374.277,581.281a9.779,9.779,0,0,1-.877,4.691,11.1,11.1,0,0,0,.676-4.351c0-2.65-.526-4.8-1.177-4.8s-1.177,2.155-1.177,4.8a11.008,11.008,0,0,0,.68,4.356,9.759,9.759,0,0,1-.88-4.694c0-2.77.616-5.027,1.375-5.027S-374.277,578.5-374.277,581.281Z" transform="translate(491.152 -528.701)" fill="#fff" stroke="#fff" stroke-width="0.5"/>
        <path id="Path_265" data-name="Path 265" d="M-382.506,567.24l-2.781.111,2.6.219Z" transform="translate(498.009 -521.891)" fill="#fff" stroke="#fff" stroke-width="0.5"/>
        <g id="Group_119" data-name="Group 119" transform="translate(76.1 43.807)">
          <path id="Path_266" data-name="Path 266" d="M-597.992,577.01c-1.6,0-2.859-3.532-2.859-8.04s1.256-8.04,2.859-8.04,2.859,3.532,2.859,8.04S-596.39,577.01-597.992,577.01Zm0-15.462c-1.317,0-2.429,3.4-2.429,7.422s1.112,7.422,2.429,7.422,2.428-3.4,2.428-7.422S-596.675,561.548-597.992,561.548Z" transform="translate(600.851 -560.929)" fill="#fff" stroke="#fff" stroke-width="0.5"/>
        </g>
        <path id="Path_267" data-name="Path 267" d="M-609.5,617.132a3.846,3.846,0,0,0,1.017,2.232h.749a3.914,3.914,0,0,1-1.766-2.232Z" transform="translate(684.13 -559.586)" fill="#fff" stroke="#fff" stroke-width="0.5"/>
        <path id="Path_268" data-name="Path 268" d="M-607.279,561.707h-.749a3.366,3.366,0,0,0-.924,1.8,3.226,3.226,0,0,1,1.673-1.8Z" transform="translate(683.674 -517.711)" fill="#fff" stroke="#fff" stroke-width="0.5"/>
        <g id="Group_120" data-name="Group 120" transform="translate(46.264 55.972)">
          <path id="Path_269" data-name="Path 269" d="M-774.011,614.588c-1,0-1.918-1.385-2.453-3.694l.437-.209c.47,2.033,1.223,3.246,2.015,3.246s1.549-1.219,2.018-3.26l.437.208C-772.09,613.2-773.009,614.588-774.011,614.588Z" transform="translate(776.464 -610.671)" fill="#fff" stroke="#fff" stroke-width="0.5"/>
        </g>
        <g id="Group_121" data-name="Group 121" transform="translate(41.236 55.735)">
          <path id="Path_270" data-name="Path 270" d="M-803.554,613.875c-1.045,0-1.983-1.481-2.51-3.96l.441-.194c.458,2.155,1.25,3.491,2.07,3.491Z" transform="translate(806.064 -609.721)" fill="#fff" stroke="#fff" stroke-width="0.5"/>
        </g>
        <path id="Path_271" data-name="Path 271" d="M-788.627,614.209a4.7,4.7,0,0,0,1.146,2.924h.762C-787.486,616.876-788.223,615.454-788.627,614.209Z" transform="translate(832.825 -557.377)" fill="#fff" stroke="#fff" stroke-width="0.5"/>
        <g id="Group_122" data-name="Group 122" transform="translate(52.876 55.904)">
          <path id="Path_272" data-name="Path 272" d="M-735.124,614.38c-1,0-1.914-1.413-2.432-3.78l.41-.186c.452,2.066,1.228,3.348,2.023,3.348s1.556-1.262,2.01-3.292l.41.189C-733.225,612.989-734.129,614.38-735.124,614.38Z" transform="translate(737.556 -610.414)" fill="#fff" stroke="#fff" stroke-width="0.5"/>
        </g>
        <path id="Path_273" data-name="Path 273" d="M-749.342,614.433a4.616,4.616,0,0,0,1.124,2.875h.749C-748.222,617.051-748.945,615.655-749.342,614.433Z" transform="translate(800.214 -557.547)" fill="#fff" stroke="#fff" stroke-width="0.5"/>
        <path id="Path_274" data-name="Path 274" d="M-589.575,589.869c0,.77-.2,1.385-.438,1.385s-.441-.616-.441-1.385a2.429,2.429,0,0,1,.273-1.277,2.51,2.51,0,0,0-.184,1.057c0,.668.157,1.205.352,1.205s.35-.537.35-1.205a2.494,2.494,0,0,0-.184-1.057A2.426,2.426,0,0,1-589.575,589.869Z" transform="translate(668.319 -538.021)" fill="#fff" stroke="#fff" stroke-width="0.5"/>
        <path id="Path_275" data-name="Path 275" d="M-591.071,576.521a9.722,9.722,0,0,1-1.12,5.222,10.953,10.953,0,0,0,.864-4.844c0-2.951-.672-5.345-1.5-5.345s-1.5,2.395-1.5,5.345a10.87,10.87,0,0,0,.869,4.848,9.7,9.7,0,0,1-1.124-5.233c0-3.091.786-5.6,1.757-5.6S-591.071,573.431-591.071,576.521Z" transform="translate(671.751 -524.676)" fill="#fff" stroke="#fff" stroke-width="0.5"/>
        <path id="Path_276" data-name="Path 276" d="M-609.191,560.945l-5.106.139,5.068.34Z" transform="translate(688.113 -517.135)" fill="#fff" stroke="#fff" stroke-width="0.5"/>
        <path id="Path_277" data-name="Path 277" d="M-665.595,549.133l-4.524-.433,4.524-.231Z" transform="translate(734.451 -507.711)" fill="#fff" stroke="#fff" stroke-width="0.5"/>
        <path id="Path_278" data-name="Path 278" d="M-354.649,561.467l-10,.009,10-.673Z" transform="translate(480.881 -517.028)" fill="#fff" stroke="#fff" stroke-width="0.5"/>
        <path id="Path_279" data-name="Path 279" d="M-667.916,382.625l-4.915.553,4.94.294Z" transform="translate(736.702 -382.409)" fill="#fff" stroke="#fff" stroke-width="0.5"/>
        <path id="Path_280" data-name="Path 280" d="M-570.83,562.513a28.212,28.212,0,0,1,1.21,9.252h.214a33.554,33.554,0,0,0-.627-9.235A7.177,7.177,0,0,0-570.83,562.513Z" transform="translate(652.03 -518.316)" fill="#fff" stroke="#fff" stroke-width="0.5"/>
        <path id="Path_281" data-name="Path 281" d="M-441.023,563.412l-5.076.325,4.473.139a24.513,24.513,0,0,0-.976,7.363h-4.1a55.538,55.538,0,0,1,.335-7.08,30.5,30.5,0,0,0-.7,7.649l4.89.011a25.931,25.931,0,0,1,.963-7.8Z" transform="translate(549.319 -518.999)" fill="#fff" stroke="#fff" stroke-width="0.5"/>
        <path id="Path_282" data-name="Path 282" d="M-548.853,564.629l-5.2.308,4.617.142a23.642,23.642,0,0,0-.941,7.1h-3.9a64.915,64.915,0,0,1,.042-6.837,47.529,47.529,0,0,0-.428,7.388l4.687.011a25.016,25.016,0,0,1,.932-7.522Z" transform="translate(638.627 -519.919)" fill="#fff" stroke="#fff" stroke-width="0.5"/>
        <g id="Group_123" data-name="Group 123" transform="translate(89.685 45.155)">
          <path id="Path_283" data-name="Path 283" d="M-516.8,576.075c-.021.2-.046.389-.074.579-.321,2.255-.983,3.848-1.726,3.848-1.044,0-1.925-3.124-1.925-6.824,0-3.2.663-5.984,1.521-6.661.015-.014.031-.023.046-.035l-.021-.557-.025.014c-1.088.6-1.889,3.563-1.889,7.234,0,4.123,1.008,7.355,2.294,7.355.955,0,1.757-1.776,2.107-4.376.028-.186.049-.38.067-.579Z" transform="translate(520.892 -566.423)" fill="#fff" stroke="#fff" stroke-width="0.5"/>
        </g>
        <g id="Group_124" data-name="Group 124" transform="translate(84.706 52.492)">
          <path id="Path_284" data-name="Path 284" d="M-547.892,603.81c-1.284,0-2.3-3.232-2.3-7.351h.368c0,3.694.882,6.821,1.925,6.821Z" transform="translate(550.188 -596.459)" fill="#fff" stroke="#fff" stroke-width="0.5"/>
        </g>
        <path id="Path_285" data-name="Path 285" d="M-531.824,615.053a4.233,4.233,0,0,0,1.03,2.635h.685C-530.8,617.453-531.46,616.174-531.824,615.053Z" transform="translate(619.651 -558.015)" fill="#fff" stroke="#fff" stroke-width="0.5"/>
        <path id="Path_286" data-name="Path 286" d="M-499.173,616.3a3.149,3.149,0,0,0,.767,1.962h.51C-498.408,618.084-498.9,617.131-499.173,616.3Z" transform="translate(592.547 -558.955)" fill="#fff" stroke="#fff" stroke-width="0.5"/>
        <g id="Group_125" data-name="Group 125" transform="translate(94.973 55.081)">
          <path id="Path_287" data-name="Path 287" d="M-487.632,611.816c-.963,0-1.8-1.835-2.127-4.673l.394-.1c.286,2.463,1,4.193,1.733,4.193s1.432-1.661,1.726-4.132l.394.1C-485.845,610.006-486.677,611.816-487.632,611.816Z" transform="translate(489.759 -607.048)" fill="#fff" stroke="#fff" stroke-width="0.5"/>
        </g>
        <path id="Path_288" data-name="Path 288" d="M-353.631,569.176c.573,2.073.784,9.949.784,9.949q.237-4.937.125-9.889C-353.128,569.2-353.256,569.2-353.631,569.176Z" transform="translate(471.732 -523.353)" fill="#fff" stroke="#fff" stroke-width="0.5"/>
        <g id="Group_126" data-name="Group 126" transform="translate(119.288 47.222)">
          <path id="Path_289" data-name="Path 289" d="M-341.876,581.371h-.4V575.5l-4.368.026v-.574l4.769-.029Z" transform="translate(346.644 -574.925)" fill="#fff" stroke="#fff" stroke-width="0.5"/>
        </g>
        <path id="Path_290" data-name="Path 290" d="M-346.82,602.262l6,.32v-2.4l-5.99.249,5.449.222v1.491Z" transform="translate(466.078 -546.778)" fill="#fff" stroke="#fff" stroke-width="0.5"/>
        <g id="Group_127" data-name="Group 127" transform="translate(91.573 44.526)">
          <path id="Path_291" data-name="Path 291" d="M-497.955,574.045v.574l-9.305.106h-.381l-2.132.026V563.87l.025.616.021.557.353,9.122,1.807-.022h.374Z" transform="translate(509.773 -563.87)" fill="#fff" stroke="#fff" stroke-width="0.5"/>
        </g>
        <g id="Group_128" data-name="Group 128" transform="translate(47.882 15.775)">
          <path id="Path_292" data-name="Path 292" d="M-763.447,447.8c0,.154-.028,4.464-.1,5.923-.069,1.074-.7,1.891-1.449,1.878a14.611,14.611,0,0,1-1.539-.057s.535-.154,1.523-.528a1.63,1.63,0,0,0,.947-1.474c.036-1.445.092-5.733.092-5.776a1.418,1.418,0,0,0-.113-.668.207.207,0,0,0-.187-.106h-.663c-.512.009-1.02.035-1.026.035-.117,0-.416.059-.482.725-.206,2.1-.245,2.8-.452,6.361-.042-3.214-.061-5.065-.009-6.4a1.668,1.668,0,0,1,.256-.993.79.79,0,0,1,.684-.392c.018,0,.479-.035,1.035-.062.205-.009.428-.014.642-.018h.028a.668.668,0,0,1,.563.359A2.328,2.328,0,0,1-763.447,447.8Z" transform="translate(766.934 -446.246)" fill="#fff" stroke="#fff" stroke-width="0.5"/>
        </g>
        <g id="Group_129" data-name="Group 129" transform="translate(19.052 15.767)">
          <path id="Path_293" data-name="Path 293" d="M-936.23,452.359l-.428-.015c0-.037.063-3.7.092-4.784,0-.685.37-1.251.845-1.291.267-.017.351-.023.778-.029a.75.75,0,0,1,.623.342,1.626,1.626,0,0,1,.258.877c0,.428-.031.833-.032.85l-.428-.066s.029-.391.029-.785a.844.844,0,0,0-.131-.435.332.332,0,0,0-.321-.162c-.418,0-.5.011-.763.028s-.445.334-.434.7C-936.168,448.66-936.23,452.322-936.23,452.359Z" transform="translate(936.658 -446.239)" fill="#fff" stroke="#fff" stroke-width="0.5"/>
        </g>
        <path id="Path_294" data-name="Path 294" d="M-665.392,558.531l-.651.628-.141-.009-5.134-.376s3.787-.154,5.332-.221Z" transform="translate(735.446 -515.31)" fill="#fff" stroke="#fff" stroke-width="0.5"/>
        <path id="Path_295" data-name="Path 295" d="M-575.583,562.527l-.972.037,1.356.349Z" transform="translate(656.783 -518.331)" fill="#fff" stroke="#fff" stroke-width="0.5"/>
        <path id="Path_296" data-name="Path 296" d="M-358.373,569.18l-.972.037,1.356.349Z" transform="translate(476.474 -523.355)" fill="#fff" stroke="#fff" stroke-width="0.5"/>
        <path id="Path_297" data-name="Path 297" d="M-639.013,555.68c-2.163-.019-4.324-.085-6.486-.154l-6.483-.277-6.481-.379-3.239-.226c-1.079-.091-2.158-.168-3.238-.272,1.081,0,2.162.039,3.243.055l3.242.1,6.483.277,6.48.38C-643.334,555.328-641.175,555.48-639.013,555.68Z" transform="translate(730.153 -512.164)" fill="#fff" stroke="#fff" stroke-width="0.5"/>
        <g id="Group_130" data-name="Group 130" transform="translate(81.597 52.698)">
          <rect id="Rectangle_93" data-name="Rectangle 93" width="0.845" height="0.751" fill="#fff" stroke="#fff" stroke-width="0.5"/>
        </g>
        <path id="Path_299" data-name="Path 299" d="M-349.645,624.2v.751c5.447,0,11.222-.375,11.222-.375S-344.159,624.2-349.645,624.2Z" transform="translate(468.423 -564.928)" fill="#fff" stroke="#fff" stroke-width="0.5"/>
      </g>
    </g>
  </g>
</svg>
