<svg xmlns="http://www.w3.org/2000/svg" width="130" height="100" viewBox="0 0 130 100">
  <g id="farmSliderIcon" transform="translate(-1931 1770)">
    <rect id="Rectangle_1891" data-name="Rectangle 1891" width="130" height="100" transform="translate(1931 -1770)" fill="none"/>
    <g id="Group_1168" data-name="Group 1168" transform="translate(623.783 -2632.088)">
      <g id="icon" transform="translate(1311.853 888.994)">
        <path id="Path_224" data-name="Path 224" d="M-1001.668,572.09s-3.173-.118-5.61-.071a3.6,3.6,0,0,0-1.764.445c-.426.218-.75.422-1.072.592a4.875,4.875,0,0,1-2.094.514c-2.769.057-8.145.082-10.792.062a1.884,1.884,0,0,1-1.157-.341,5.5,5.5,0,0,1-.379-.406,1.51,1.51,0,0,0-1.24-.71c-.856.022-2.307.095-2.307.095s1.521.162,2.162.217a1.491,1.491,0,0,1,1.032.675,3.251,3.251,0,0,0,.355.466,1.94,1.94,0,0,0,1.341.605c1.9.031,8.219.042,10.982-.03a4.911,4.911,0,0,0,2.384-.654c.464-.237.678-.393.964-.562a3.826,3.826,0,0,1,1.765-.615C-1005.643,572.3-1004.417,572.274-1001.668,572.09Z" transform="translate(1031.349 -536.221)" fill="#ffd600" stroke="#ffd600" stroke-width="0.5"/>
        <path id="Path_225" data-name="Path 225" d="M-909.074,530.631a9.922,9.922,0,0,1,2.947-4.747c2.021-1.445,3.827-2.565,10.056-3.018q6.51-.451,13.05-.283c-1.807-.283-10.162-.34-13.086-.226a26.771,26.771,0,0,0-6.418.978,12.064,12.064,0,0,0-3.993,2.21,7.827,7.827,0,0,0-2.555,5.087Z" transform="translate(931.116 -495.863)" fill="#ffd600" stroke="#ffd600" stroke-width="0.5"/>
        <path id="Path_226" data-name="Path 226" d="M-903.65,551.787l5.919-.171a1.223,1.223,0,0,0,1.046-.624c.261-.6.523-1.247.523-1.247a.629.629,0,0,0-.023-.561.426.426,0,0,0-.428-.231c-.713-.028-4.4.283-5.944.482,1.569-.085,5.04-.118,5.371-.085s.285.2.186.453-.285.652-.285.652a1.092,1.092,0,0,1-1.022.652c-.879.085-1.857.118-1.857.118a17.52,17.52,0,0,0-3.486.562Z" transform="translate(926.548 -517.5)" fill="#ffd600" stroke="#ffd600" stroke-width="0.5"/>
        <path id="Path_227" data-name="Path 227" d="M-912.087,590.066s3.328-.059,5.61-.13a.552.552,0,0,0,.484-.2.807.807,0,0,0,.186-.572q.032-.424.027-.85c-.01-.288.02-.8-.743-.782-1.409.039-3.307.178-5.066.34,1.739.049,3.557.049,4.538.1a.25.25,0,0,1,.2.263,5.874,5.874,0,0,1,.007.947.309.309,0,0,1-.231.308C-908.253,589.638-911.228,589.943-912.087,590.066Z" transform="translate(933.655 -548.819)" fill="#ffd600" stroke="#ffd600" stroke-width="0.5"/>
        <path id="Path_228" data-name="Path 228" d="M-1026.172,564.487l-3.549.085.125-.462s.828.013,1.1.013A8.671,8.671,0,0,1-1026.172,564.487Z" transform="translate(1032.727 -529.807)" fill="#ffd600" stroke="#ffd600" stroke-width="0.5"/>
        <path id="Path_229" data-name="Path 229" d="M-1022.407,553.14s-2.567-.028-2.829-.028c.072-.142.166-.295.166-.295A25.54,25.54,0,0,1-1022.407,553.14Z" transform="translate(1028.952 -520.639)" fill="#ffd600" stroke="#ffd600" stroke-width="0.5"/>
        <path id="Path_230" data-name="Path 230" d="M-1027.431,601.443l-2.736.006-.006-.321S-1028.359,601.281-1027.431,601.443Z" transform="translate(1033.109 -559.863)" fill="#ffd600" stroke="#ffd600" stroke-width="0.5"/>
        <path id="Path_231" data-name="Path 231" d="M-1028.852,590.4l-2.6.154-.027-.385Z" transform="translate(1034.203 -550.963)" fill="#ffd600" stroke="#ffd600" stroke-width="0.5"/>
        <path id="Path_232" data-name="Path 232" d="M-902.6,408.6a33.494,33.494,0,0,1,8.159-2.969c1.4-.319,2.8-.592,4.213-.836q1.057-.182,2.118-.335l1.061-.145c.352-.051.714-.077,1.046-.154a2.13,2.13,0,0,0,.921-.453,1.789,1.789,0,0,0,.549-.939c.186-.8.348-1.639.526-2.457a50.2,50.2,0,0,1,1.207-4.894,11.826,11.826,0,0,1,2.36-4.24,10.472,10.472,0,0,1,3.654-2.6,10.882,10.882,0,0,0-3.565,2.706,11.863,11.863,0,0,0-2.257,4.217q-.364,1.189-.621,2.418c-.186.817-.356,1.64-.527,2.462s-.33,1.642-.514,2.477a2.133,2.133,0,0,1-.644,1.113,2.321,2.321,0,0,1-1.033.516c-.371.077-.718.1-1.072.154l-1.059.138q-1.059.145-2.114.318c-1.408.231-2.81.505-4.212.785A35.081,35.081,0,0,0-898.553,407,33.612,33.612,0,0,0-902.6,408.6Z" transform="translate(925.66 -387.287)" fill="#ffd600" stroke="#ffd600" stroke-width="0.5"/>
        <path id="Path_233" data-name="Path 233" d="M-977.18,391.936l-.531,29.246-22.329-.769a3.714,3.714,0,0,0-3.483,1.932c-1.439,2.349-1.8,4.854-1.95,8.374a1.874,1.874,0,0,1-1.7,1.737c-.216,0-21.7.171-24.21.178h-.007a1.5,1.5,0,0,1-1.54-1.43,12.768,12.768,0,0,1-.16-2.013,23.494,23.494,0,0,1,.371-4.838,7.943,7.943,0,0,1,.821-2.3,8.371,8.371,0,0,1,2.811-3.154,6.43,6.43,0,0,0-3.239,3.025,9.449,9.449,0,0,0-.867,2.308,22.183,22.183,0,0,0-.385,4.966,11.87,11.87,0,0,0,.168,2.1,2,2,0,0,0,2.015,1.906h.009c2.515-.008,24-.176,24.215-.178a2.4,2.4,0,0,0,2.174-2.286c.14-3.415.488-5.828,1.857-8.061a3.254,3.254,0,0,1,3.079-1.692l22.868.787Z" transform="translate(1035.977 -390.013)" fill="#ffd600" stroke="#ffd600" stroke-width="0.5"/>
        <path id="Path_234" data-name="Path 234" d="M-952.088,382.444c-1.783-.206-3.529-.376-6.026-.539q-3.327-.231-6.67-.148c-4.843.088-15.586.562-15.706.569a10.624,10.624,0,0,0-8.325,6.562q-1.63,4.15-2.9,8.482a1.282,1.282,0,0,1-.812.888,29.781,29.781,0,0,0-8.8,4.063,4.435,4.435,0,0,0-1.556,2.678,37.877,37.877,0,0,0-.722,5.989,44.888,44.888,0,0,0,.392,6.527q-.15-3.169-.028-6.344a39.987,39.987,0,0,1,.779-5.944,4.435,4.435,0,0,1,1.4-2.422,30,30,0,0,1,8.663-3.987,1.807,1.807,0,0,0,1.144-1.252q1.26-4.294,2.879-8.418a10.112,10.112,0,0,1,7.922-6.244c.109,0,10.846-.474,15.684-.566,3.231-.058,5.218-.031,6.878.029C-954.776,382.477-953.889,382.472-952.088,382.444Z" transform="translate(1010.739 -381.735)" fill="#ffd600" stroke="#ffd600" stroke-width="0.5"/>
        <path id="Path_235" data-name="Path 235" d="M-902.721,467.667l-4.94-.026c-1.646,0-4.8-.019-6.446,0-1.646-.013-2.2-.009-3.846.007l-4.351.039c1.642-.167,2.7-.231,4.345-.3s2.2-.072,3.851-.085c1.647.012,4.8.022,6.45.082S-904.364,467.523-902.721,467.667Z" transform="translate(942.258 -451.203)" fill="#ffd600" stroke="#ffd600" stroke-width="0.5"/>
        <path id="Path_236" data-name="Path 236" d="M-902.3,427.1c-.1,0-9.9-.355-17.169.051a1.965,1.965,0,0,0-1.5,1.436c-.587,1.482-1.755,5.88-1.755,5.88s1.375-4.019,2.065-5.684a1.424,1.424,0,0,1,1.217-1.058c7.251-.4,17.038-.055,17.132-.051a1.034,1.034,0,0,1,.746.358.7.7,0,0,1,.116.708s-.226,1.292-.3,1.692-.446,3.11-.524,4.063c.161-.892.749-3.826,1.192-5.674S-902.3,427.1-902.3,427.1Z" transform="translate(942.619 -418.449)" fill="#ffd600" stroke="#ffd600" stroke-width="0.5"/>
        <path id="Path_237" data-name="Path 237" d="M-776.966,435.551c0,.118,0,.237-.006.347,0,.194,0,.355-.006.551h-.6c0-.2,0-.364.006-.539,0-.129,0-.249.005-.355.009-.725-.066-1.177-.566-1.248-.545-.077-1.426-.154-2.013-.2-.271-.02-.7-.154-.9.71-.3,1.245-.795,3.913-1.3,6.077.034-.255.616-4.36.946-6.334.08-.462.176-1.139,1.192-1.048,1.082.1,1.629.154,2.415.255C-777.363,433.818-776.943,434.008-776.966,435.551Z" transform="translate(824.383 -423.763)" fill="#ffd600" stroke="#ffd600" stroke-width="0.5"/>
        <path id="Path_238" data-name="Path 238" d="M-997.564,509.759a44.159,44.159,0,0,1,.827-11.884c.357-1.1.507-1.753,1.233-1.879a33.444,33.444,0,0,1,4.365-.289,37.9,37.9,0,0,1,5.769.281c1.032.189,1.035,1.065,1.035,1.743a33.235,33.235,0,0,1-.57,5.185c-.464,2.423-1.426,6.631-1.426,6.631a42.453,42.453,0,0,0,1.872-6.376,40.3,40.3,0,0,0,.836-5.441,2.592,2.592,0,0,0-.362-1.7,1.847,1.847,0,0,0-1.277-.878,38.318,38.318,0,0,0-5.72-.29,37.182,37.182,0,0,0-4.414.315c-1.276.189-1.457,1.072-1.887,2.392a27.741,27.741,0,0,0-.624,5.884A37.085,37.085,0,0,0-997.564,509.759Z" transform="translate(1005.939 -473.574)" fill="#ffd600" stroke="#ffd600" stroke-width="0.5"/>
        <path id="Path_239" data-name="Path 239" d="M-782.555,564.43c-.106,1.414-.96,1.3-1.323,1.326l-16.67.084a23.514,23.514,0,0,0,.243-4.41,10.8,10.8,0,0,0-1.723-5.84,11.615,11.615,0,0,1,1.3,5.824,29.643,29.643,0,0,1-.446,5.006s16.385-.077,17.295-.084a1.42,1.42,0,0,0,1.2-.488,2.055,2.055,0,0,0,.508-1.385v-7.995S-782.444,562.958-782.555,564.43Z" transform="translate(840.958 -522.888)" fill="#ffd600" stroke="#ffd600" stroke-width="0.5"/>
        <g id="Group_107" data-name="Group 107" transform="translate(31.989 32.385)">
          <path id="Path_240" data-name="Path 240" d="M-842.382,567.713c-2.022,0-3.665-3.094-3.665-6.9s1.645-6.9,3.665-6.9,3.666,3.095,3.666,6.9S-840.364,567.713-842.382,567.713Zm0-13.219c-1.753,0-3.179,2.836-3.179,6.321s1.427,6.321,3.179,6.321,3.179-2.836,3.179-6.321-1.429-6.325-3.179-6.325Z" transform="translate(846.047 -553.916)" fill="#ffd600" stroke="#ffd600" stroke-width="0.5"/>
        </g>
        <path id="Path_241" data-name="Path 241" d="M-824.387,585.88c0,.652-.279,1.184-.611,1.184s-.613-.527-.613-1.184a1.459,1.459,0,0,1,.38-1.092,1.439,1.439,0,0,0-.257.9c0,.571.219,1.03.49,1.03s.488-.462.488-1.03a1.439,1.439,0,0,0-.257-.9,1.458,1.458,0,0,1,.38,1.092Z" transform="translate(860.822 -546.597)" fill="#ffd600" stroke="#ffd600" stroke-width="0.5"/>
        <g id="Group_108" data-name="Group 108" transform="translate(29.186 42.519)">
          <path id="Path_242" data-name="Path 242" d="M-860.61,611.46c-1.316,0-2.537-1.329-3.184-3.466l.456-.2c.577,1.9,1.622,3.086,2.728,3.086Z" transform="translate(863.794 -607.797)" fill="#ffd600" stroke="#ffd600" stroke-width="0.5"/>
        </g>
        <g id="Group_109" data-name="Group 109" transform="translate(9.32 42.67)">
          <path id="Path_243" data-name="Path 243" d="M-986.663,612.133c-1.258,0-2.426-1.268-3.045-3.316l.456-.2c.548,1.807,1.54,2.93,2.588,2.93s2.028-1.109,2.583-2.894l.455.2C-984.259,610.913-985.394,612.133-986.663,612.133Z" transform="translate(989.708 -608.621)" fill="#ffd600" stroke="#ffd600" stroke-width="0.5"/>
        </g>
        <g id="Group_110" data-name="Group 110" transform="translate(6.192 42.67)">
          <path id="Path_244" data-name="Path 244" d="M-1006.484,612.124c-1.259,0-2.427-1.269-3.045-3.316l.456-.2c.548,1.808,1.541,2.932,2.589,2.932Z" transform="translate(1009.529 -608.612)" fill="#ffd600" stroke="#ffd600" stroke-width="0.5"/>
        </g>
        <path id="Path_245" data-name="Path 245" d="M-833.434,569.938a5.866,5.866,0,0,1-1.56,4.462,6.351,6.351,0,0,0,1.207-4.144c0-2.523-.936-4.57-2.086-4.57s-2.086,2.047-2.086,4.57a6.307,6.307,0,0,0,1.207,4.144,5.859,5.859,0,0,1-1.566-4.467c0-2.642,1.093-4.785,2.447-4.785S-833.434,567.3-833.434,569.938Z" transform="translate(871.528 -530.655)" fill="#ffd600" stroke="#ffd600" stroke-width="0.5"/>
        <g id="Group_111" data-name="Group 111" transform="translate(64.495 33.456)">
          <path id="Path_246" data-name="Path 246" d="M-637.309,572.252c-1.523,0-2.715-2.774-2.715-6.316s1.192-6.316,2.715-6.316,2.715,2.774,2.715,6.316S-635.788,572.252-637.309,572.252Zm0-12.121c-1.24,0-2.285,2.658-2.285,5.8s1.048,5.8,2.285,5.8,2.285-2.658,2.285-5.8-1.044-5.8-2.285-5.8Z" transform="translate(640.024 -559.62)" fill="#ffd600" stroke="#ffd600" stroke-width="0.5"/>
        </g>
        <g id="Group_112" data-name="Group 112" transform="translate(60.035 41.853)">
          <path id="Path_247" data-name="Path 247" d="M-665.71,608.483c-1.164,0-2.166-1.628-2.555-4.144l.421-.092c.345,2.231,1.2,3.729,2.136,3.729Z" transform="translate(668.265 -604.246)" fill="#ffd600" stroke="#ffd600" stroke-width="0.5"/>
        </g>
        <path id="Path_248" data-name="Path 248" d="M-649.412,614.276a3.3,3.3,0,0,0,1.064,2.249h.708C-648.352,616.328-649.037,615.234-649.412,614.276Z" transform="translate(712.423 -570.539)" fill="#ffd600" stroke="#ffd600" stroke-width="0.5"/>
        <path id="Path_249" data-name="Path 249" d="M-628.464,588.877c0,.6-.186,1.082-.414,1.082s-.416-.483-.416-1.082a1.633,1.633,0,0,1,.257-1,1.663,1.663,0,0,0-.175.829c0,.523.149.947.332.947s.331-.42.331-.947a1.661,1.661,0,0,0-.174-.829,1.633,1.633,0,0,1,.258,1Z" transform="translate(695.479 -549.104)" fill="#ffd600" stroke="#ffd600" stroke-width="0.5"/>
        <path id="Path_250" data-name="Path 250" d="M-630.257,574.258a6.55,6.55,0,0,1-1.06,4.093,7.3,7.3,0,0,0,.818-3.8c0-2.313-.636-4.19-1.418-4.19s-1.421,1.877-1.421,4.19a7.248,7.248,0,0,0,.822,3.8,6.542,6.542,0,0,1-1.064-4.1c0-2.422.743-4.381,1.663-4.381S-630.257,571.836-630.257,574.258Z" transform="translate(699.088 -534.485)" fill="#ffd600" stroke="#ffd600" stroke-width="0.5"/>
        <g id="Group_113" data-name="Group 113" transform="translate(58.509 33.254)">
          <path id="Path_251" data-name="Path 251" d="M-671.4,558.531a19.227,19.227,0,0,0-1.414,7.946,1.2,1.2,0,0,1-.262.769.831.831,0,0,1-.642.316h-4.23v-.578h4.23a.384.384,0,0,0,.3-.145.56.56,0,0,0,.124-.355,20.925,20.925,0,0,1,1.164-7.47c.06-.154.12-.308.186-.462Z" transform="translate(677.951 -558.531)" fill="#ffd600" stroke="#ffd600" stroke-width="0.5"/>
        </g>
        <g id="Group_114" data-name="Group 114" transform="translate(0 45.604)">
          <rect id="Rectangle_92" data-name="Rectangle 92" width="110.561" height="0.578" fill="#ffd600" stroke="#ffd600" stroke-width="0.5"/>
        </g>
        <g id="Group_115" data-name="Group 115" transform="translate(63.893 0.176)">
          <path id="Path_252" data-name="Path 252" d="M-590.46,416.692l-.252-.011-53.077-2.308v-31.7l53.327,5.357Zm-52.842-2.873,52.358,2.275V388.572l-52.358-5.258Z" transform="translate(643.788 -382.678)" fill="#ffd600" stroke="#ffd600" stroke-width="0.5"/>
        </g>
        <path id="Path_253" data-name="Path 253" d="M-638.589,559.614l-2.929.1,2.738.191Z" transform="translate(705.774 -526.157)" fill="#ffd600" stroke="#ffd600" stroke-width="0.5"/>
        <g id="Group_116" data-name="Group 116" transform="translate(100.388 34.676)">
          <path id="Path_254" data-name="Path 254" d="M-410.365,577.431c-1.207,0-2.146-2.486-2.146-5.671s.943-5.671,2.146-5.671,2.146,2.486,2.146,5.671S-409.158,577.431-410.365,577.431Zm0-10.9c-.962,0-1.775,2.4-1.775,5.231s.814,5.231,1.775,5.231,1.776-2.4,1.776-5.231-.814-5.231-1.776-5.231Z" transform="translate(412.511 -566.088)" fill="#ffd600" stroke="#ffd600" stroke-width="0.5"/>
        </g>
        <g id="Group_117" data-name="Group 117" transform="translate(95.766 40.386)">
          <path id="Path_255" data-name="Path 255" d="M-439.654,602.13c-1.207,0-2.146-2.486-2.146-5.671h.372c0,2.835.814,5.231,1.776,5.231Z" transform="translate(441.8 -596.459)" fill="#ffd600" stroke="#ffd600" stroke-width="0.5"/>
        </g>
        <path id="Path_256" data-name="Path 256" d="M-423.345,615.053a2.969,2.969,0,0,0,.957,2.027h.636C-422.391,616.9-423.007,615.915-423.345,615.053Z" transform="translate(522.023 -571.17)" fill="#ffd600" stroke="#ffd600" stroke-width="0.5"/>
        <path id="Path_257" data-name="Path 257" d="M-391.857,618.336a2.221,2.221,0,0,0,.772,1.25h.623a2.673,2.673,0,0,1-1.281-1.373C-391.849,618-391.922,618.11-391.857,618.336Z" transform="translate(495.523 -573.643)" fill="#ffd600" stroke="#ffd600" stroke-width="0.5"/>
        <path id="Path_258" data-name="Path 258" d="M-403.936,592.354c0,.538-.146.973-.325.973s-.327-.435-.327-.973a1.632,1.632,0,0,1,.2-.9,1.677,1.677,0,0,0-.138.746c0,.474.117.85.261.85s.259-.379.259-.85a1.68,1.68,0,0,0-.137-.746,1.628,1.628,0,0,1,.207.9Z" transform="translate(506.226 -552.009)" fill="#ffd600" stroke="#ffd600" stroke-width="0.5"/>
        <path id="Path_259" data-name="Path 259" d="M-404.738,579.206a6.545,6.545,0,0,1-.83,3.683,7.365,7.365,0,0,0,.641-3.416c0-2.077-.5-3.77-1.114-3.77s-1.114,1.689-1.114,3.77a7.307,7.307,0,0,0,.644,3.418,6.532,6.532,0,0,1-.836-3.685c0-2.179.583-3.945,1.3-3.945S-404.738,577.027-404.738,579.206Z" transform="translate(508.546 -538.861)" fill="#ffd600" stroke="#ffd600" stroke-width="0.5"/>
        <path id="Path_260" data-name="Path 260" d="M-412.575,566.094l-2.542.118,2.37.145Z" transform="translate(515.093 -531.418)" fill="#ffd600" stroke="#ffd600" stroke-width="0.5"/>
        <path id="Path_261" data-name="Path 261" d="M-520.382,566.455l-2,.066,1.868.13Z" transform="translate(605.433 -531.712)" fill="#ffd600" stroke="#ffd600" stroke-width="0.5"/>
        <g id="Group_118" data-name="Group 118" transform="translate(105.177 34.884)">
          <path id="Path_262" data-name="Path 262" d="M-380.014,578.362c-1.182,0-2.108-2.444-2.108-5.565s.929-5.565,2.108-5.565,2.108,2.444,2.108,5.565S-378.828,578.362-380.014,578.362Zm0-10.685c-.942,0-1.737,2.346-1.737,5.121s.795,5.121,1.737,5.121,1.737-2.346,1.737-5.121S-379.067,567.677-380.014,567.677Z" transform="translate(382.122 -567.232)" fill="#ffd600" stroke="#ffd600" stroke-width="0.5"/>
        </g>
        <path id="Path_263" data-name="Path 263" d="M-373.756,593.008c0,.528-.143.953-.319.953s-.319-.426-.319-.953a1.6,1.6,0,0,1,.2-.882,1.652,1.652,0,0,0-.134.732c0,.462.115.829.256.829s.254-.371.254-.829a1.65,1.65,0,0,0-.134-.732,1.6,1.6,0,0,1,.2.882Z" transform="translate(480.796 -552.555)" fill="#ffd600" stroke="#ffd600" stroke-width="0.5"/>
        <path id="Path_264" data-name="Path 264" d="M-374.475,580.122a6.416,6.416,0,0,1-.814,3.609,7.219,7.219,0,0,0,.628-3.347c0-2.039-.488-3.693-1.093-3.693s-1.093,1.658-1.093,3.693a7.16,7.16,0,0,0,.631,3.351,6.4,6.4,0,0,1-.817-3.611c0-2.131.572-3.867,1.277-3.867S-374.475,577.982-374.475,580.122Z" transform="translate(483.014 -539.668)" fill="#ffd600" stroke="#ffd600" stroke-width="0.5"/>
        <path id="Path_265" data-name="Path 265" d="M-382.7,567.24l-2.583.085,2.415.169Z" transform="translate(489.969 -532.349)" fill="#ffd600" stroke="#ffd600" stroke-width="0.5"/>
        <g id="Group_119" data-name="Group 119" transform="translate(70.672 33.706)">
          <path id="Path_266" data-name="Path 266" d="M-598.2,573.3c-1.486,0-2.655-2.717-2.655-6.185s1.167-6.185,2.655-6.185,2.655,2.717,2.655,6.185S-596.708,573.3-598.2,573.3Zm0-11.895c-1.223,0-2.256,2.616-2.256,5.71s1.033,5.71,2.256,5.71,2.255-2.616,2.255-5.71-1.032-5.71-2.255-5.71Z" transform="translate(600.851 -560.93)" fill="#ffd600" stroke="#ffd600" stroke-width="0.5"/>
        </g>
        <path id="Path_267" data-name="Path 267" d="M-609.5,617.132a2.762,2.762,0,0,0,.944,1.717h.7A3.183,3.183,0,0,1-609.5,617.132Z" transform="translate(678.807 -572.858)" fill="#ffd600" stroke="#ffd600" stroke-width="0.5"/>
        <path id="Path_268" data-name="Path 268" d="M-607.4,561.707h-.7a2.469,2.469,0,0,0-.858,1.385,2.738,2.738,0,0,1,1.554-1.385Z" transform="translate(678.345 -527.857)" fill="#ffd600" stroke="#ffd600" stroke-width="0.5"/>
        <g id="Group_120" data-name="Group 120" transform="translate(42.964 43.063)">
          <path id="Path_269" data-name="Path 269" d="M-774.186,613.684c-.929,0-1.781-1.065-2.278-2.842l.406-.161c.436,1.564,1.136,2.5,1.871,2.5s1.439-.938,1.874-2.508l.406.16C-772.4,612.617-773.255,613.684-774.186,613.684Z" transform="translate(776.464 -610.671)" fill="#ffd600" stroke="#ffd600" stroke-width="0.5"/>
        </g>
        <g id="Group_121" data-name="Group 121" transform="translate(38.295 42.881)">
          <path id="Path_270" data-name="Path 270" d="M-803.733,612.917c-.971,0-1.842-1.139-2.331-3.046l.41-.149c.425,1.658,1.161,2.686,1.922,2.686Z" transform="translate(806.064 -609.721)" fill="#ffd600" stroke="#ffd600" stroke-width="0.5"/>
        </g>
        <path id="Path_271" data-name="Path 271" d="M-788.627,614.209a3.3,3.3,0,0,0,1.064,2.249h.708C-787.567,616.261-788.252,615.167-788.627,614.209Z" transform="translate(829.673 -570.484)" fill="#ffd600" stroke="#ffd600" stroke-width="0.5"/>
        <g id="Group_122" data-name="Group 122" transform="translate(49.105 43.011)">
          <path id="Path_272" data-name="Path 272" d="M-735.3,613.465c-.929,0-1.778-1.087-2.259-2.908l.381-.143c.42,1.589,1.14,2.576,1.879,2.576s1.445-.971,1.867-2.533l.381.145C-733.534,612.395-734.373,613.465-735.3,613.465Z" transform="translate(737.556 -610.414)" fill="#ffd600" stroke="#ffd600" stroke-width="0.5"/>
        </g>
        <path id="Path_273" data-name="Path 273" d="M-749.342,614.433a3.239,3.239,0,0,0,1.044,2.212h.7C-748.3,616.447-748.973,615.373-749.342,614.433Z" transform="translate(796.586 -570.667)" fill="#ffd600" stroke="#ffd600" stroke-width="0.5"/>
        <path id="Path_274" data-name="Path 274" d="M-589.638,589.574c0,.592-.186,1.065-.407,1.065s-.41-.474-.41-1.065a1.606,1.606,0,0,1,.254-.982,1.64,1.64,0,0,0-.171.813c0,.514.146.927.327.927s.325-.413.325-.927a1.63,1.63,0,0,0-.171-.813A1.6,1.6,0,0,1-589.638,589.574Z" transform="translate(662.766 -549.684)" fill="#ffd600" stroke="#ffd600" stroke-width="0.5"/>
        <path id="Path_275" data-name="Path 275" d="M-591.323,575.227a6.431,6.431,0,0,1-1.04,4.017,7.165,7.165,0,0,0,.8-3.726c0-2.27-.624-4.112-1.393-4.112s-1.393,1.843-1.393,4.112a7.114,7.114,0,0,0,.807,3.73,6.419,6.419,0,0,1-1.044-4.026c0-2.378.73-4.308,1.632-4.308S-591.323,572.85-591.323,575.227Z" transform="translate(666.249 -535.339)" fill="#ffd600" stroke="#ffd600" stroke-width="0.5"/>
        <path id="Path_276" data-name="Path 276" d="M-609.555,560.945l-4.742.107,4.707.262Z" transform="translate(682.848 -527.238)" fill="#ffd600" stroke="#ffd600" stroke-width="0.5"/>
        <path id="Path_277" data-name="Path 277" d="M-665.918,548.98l-4.2-.333,4.2-.178Z" transform="translate(729.863 -517.11)" fill="#ffd600" stroke="#ffd600" stroke-width="0.5"/>
        <path id="Path_278" data-name="Path 278" d="M-355.362,561.314l-9.287.007,9.287-.518Z" transform="translate(472.591 -527.123)" fill="#ffd600" stroke="#ffd600" stroke-width="0.5"/>
        <path id="Path_279" data-name="Path 279" d="M-668.267,382.625l-4.564.425,4.588.226Z" transform="translate(732.147 -382.455)" fill="#ffd600" stroke="#ffd600" stroke-width="0.5"/>
        <path id="Path_280" data-name="Path 280" d="M-570.83,562.512a18.24,18.24,0,0,1,1.124,7.118h.2a21.5,21.5,0,0,0-.582-7.1Q-570.459,562.5-570.83,562.512Z" transform="translate(646.239 -528.507)" fill="#ffd600" stroke="#ffd600" stroke-width="0.5"/>
        <path id="Path_281" data-name="Path 281" d="M-441.455,563.412l-4.714.25,4.154.107a15.848,15.848,0,0,0-.906,5.664h-3.808a35.472,35.472,0,0,1,.311-5.447,19.582,19.582,0,0,0-.65,5.884l4.541.008a16.738,16.738,0,0,1,.894-6Z" transform="translate(542.028 -529.241)" fill="#ffd600" stroke="#ffd600" stroke-width="0.5"/>
        <path id="Path_282" data-name="Path 282" d="M-549.268,564.629l-4.829.237,4.288.109a15.282,15.282,0,0,0-.874,5.462h-3.622a41.368,41.368,0,0,1,.039-5.26,30.379,30.379,0,0,0-.4,5.683l4.353.009a16.15,16.15,0,0,1,.866-5.787Z" transform="translate(632.639 -530.23)" fill="#ffd600" stroke="#ffd600" stroke-width="0.5"/>
        <g id="Group_123" data-name="Group 123" transform="translate(83.288 34.743)">
          <path id="Path_283" data-name="Path 283" d="M-517.092,573.849c-.02.154-.043.3-.069.445-.3,1.735-.913,2.96-1.6,2.96-.969,0-1.788-2.4-1.788-5.25,0-2.462.616-4.6,1.413-5.124.014-.011.029-.018.043-.027l-.02-.428-.023.011c-1.01.462-1.754,2.741-1.754,5.565,0,3.172.936,5.658,2.13,5.658.887,0,1.632-1.366,1.957-3.366.026-.143.045-.292.062-.445Z" transform="translate(520.893 -566.425)" fill="#ffd600" stroke="#ffd600" stroke-width="0.5"/>
        </g>
        <g id="Group_124" data-name="Group 124" transform="translate(78.661 40.386)">
          <path id="Path_284" data-name="Path 284" d="M-548.056,602.114c-1.192,0-2.136-2.486-2.136-5.655h.342c0,2.842.819,5.247,1.788,5.247Z" transform="translate(550.192 -596.459)" fill="#ffd600" stroke="#ffd600" stroke-width="0.5"/>
        </g>
        <path id="Path_285" data-name="Path 285" d="M-531.824,615.053a2.97,2.97,0,0,0,.957,2.027h.636C-530.873,616.9-531.486,615.915-531.824,615.053Z" transform="translate(613.387 -571.17)" fill="#ffd600" stroke="#ffd600" stroke-width="0.5"/>
        <path id="Path_286" data-name="Path 286" d="M-499.173,616.3a2.209,2.209,0,0,0,.712,1.509h.474C-498.463,617.672-498.919,616.939-499.173,616.3Z" transform="translate(585.887 -572.18)" fill="#ffd600" stroke="#ffd600" stroke-width="0.5"/>
        <g id="Group_125" data-name="Group 125" transform="translate(88.199 42.374)">
          <path id="Path_287" data-name="Path 287" d="M-487.784,610.715c-.894,0-1.672-1.412-1.975-3.595l.366-.077c.266,1.895.929,3.226,1.609,3.226s1.33-1.278,1.6-3.179l.366.077C-486.124,609.322-486.9,610.715-487.784,610.715Z" transform="translate(489.759 -607.043)" fill="#ffd600" stroke="#ffd600" stroke-width="0.5"/>
        </g>
        <path id="Path_288" data-name="Path 288" d="M-353.631,569.176c.532,1.595.728,7.654.728,7.654q.22-3.8.116-7.608C-353.164,569.194-353.283,569.194-353.631,569.176Z" transform="translate(463.309 -533.92)" fill="#ffd600" stroke="#ffd600" stroke-width="0.5"/>
        <g id="Group_126" data-name="Group 126" transform="translate(110.78 36.33)">
          <path id="Path_289" data-name="Path 289" d="M-342.216,579.883h-.371v-4.517l-4.056.02v-.442l4.429-.022Z" transform="translate(346.644 -574.923)" fill="#ffd600" stroke="#ffd600" stroke-width="0.5"/>
        </g>
        <path id="Path_290" data-name="Path 290" d="M-346.82,601.782l5.572.246v-1.846l-5.563.192,5.06.171v1.147Z" transform="translate(457.572 -559.094)" fill="#ffd600" stroke="#ffd600" stroke-width="0.5"/>
        <g id="Group_127" data-name="Group 127" transform="translate(85.042 34.258)">
          <path id="Path_291" data-name="Path 291" d="M-498.8,571.7v.442l-8.641.082h-.354l-1.98.02V563.87l.023.474.019.429.328,7.018,1.678-.017h.347Z" transform="translate(509.773 -563.87)" fill="#ffd600" stroke="#ffd600" stroke-width="0.5"/>
        </g>
        <g id="Group_128" data-name="Group 128" transform="translate(44.465 12.141)">
          <path id="Path_292" data-name="Path 292" d="M-763.7,447.442c0,.118-.026,3.434-.093,4.557a1.448,1.448,0,0,1-1.346,1.445q-.715.009-1.429-.044s.5-.118,1.414-.406a1.264,1.264,0,0,0,.879-1.134c.033-1.112.085-4.41.085-4.443a.926.926,0,0,0-.1-.514.2.2,0,0,0-.174-.081h-.616c-.475.007-.947.027-.953.027-.109,0-.386.045-.448.558-.191,1.616-.227,2.154-.42,4.894-.039-2.473-.057-3.9-.008-4.924a1.119,1.119,0,0,1,.238-.764.774.774,0,0,1,.635-.3c.017,0,.445-.027.961-.048.19-.007.4-.011.6-.014h.026a.641.641,0,0,1,.523.276,1.536,1.536,0,0,1,.232.918Z" transform="translate(766.937 -446.248)" fill="#ffd600" stroke="#ffd600" stroke-width="0.5"/>
        </g>
        <g id="Group_129" data-name="Group 129" transform="translate(17.693 12.134)">
          <path id="Path_293" data-name="Path 293" d="M-936.26,450.947l-.4-.012c0-.028.058-2.846.085-3.68a.937.937,0,0,1,.785-.993c.248-.013.326-.018.722-.022a.741.741,0,0,1,.579.263,1.1,1.1,0,0,1,.24.675c0,.329-.029.641-.03.654l-.4-.051s.027-.3.027-.6a.571.571,0,0,0-.122-.335.331.331,0,0,0-.3-.125c-.388,0-.464.008-.709.022a.481.481,0,0,0-.4.539C-936.2,448.1-936.26,450.919-936.26,450.947Z" transform="translate(936.658 -446.24)" fill="#ffd600" stroke="#ffd600" stroke-width="0.5"/>
        </g>
        <path id="Path_294" data-name="Path 294" d="M-665.815,558.531l-.6.483-.131-.007-4.768-.289s3.517-.118,4.952-.17Z" transform="translate(730.872 -525.277)" fill="#ffd600" stroke="#ffd600" stroke-width="0.5"/>
        <path id="Path_295" data-name="Path 295" d="M-575.652,562.527l-.9.028,1.259.268Z" transform="translate(651.061 -528.523)" fill="#ffd600" stroke="#ffd600" stroke-width="0.5"/>
        <path id="Path_296" data-name="Path 296" d="M-358.442,569.18l-.9.028,1.259.268Z" transform="translate(468.12 -533.923)" fill="#ffd600" stroke="#ffd600" stroke-width="0.5"/>
        <path id="Path_297" data-name="Path 297" d="M-640.862,555.378c-2.009-.015-4.016-.065-6.023-.118l-6.021-.213-6.019-.292-3.008-.174c-1-.07-2-.129-3.007-.209,1,0,2.008.03,3.012.042l3.011.077,6.021.213,6.018.292C-644.875,555.107-642.87,555.224-640.862,555.378Z" transform="translate(725.502 -521.897)" fill="#ffd600" stroke="#ffd600" stroke-width="0.5"/>
        <g id="Group_130" data-name="Group 130" transform="translate(75.777 40.545)">
          <rect id="Rectangle_93" data-name="Rectangle 93" width="0.785" height="0.578" fill="#ffd600" stroke="#ffd600" stroke-width="0.5"/>
        </g>
        <path id="Path_299" data-name="Path 299" d="M-349.645,624.2v.578c5.058,0,10.422-.288,10.422-.288S-344.55,624.2-349.645,624.2Z" transform="translate(459.952 -578.598)" fill="#ffd600" stroke="#ffd600" stroke-width="0.5"/>
      </g>
    </g>
  </g>
</svg>
