<svg xmlns="http://www.w3.org/2000/svg" width="119.925" height="45.377" viewBox="0 0 119.925 45.377">
  <g id="Ford_icon" transform="translate(-659.977 -3131.064)">
    <path id="Path_1241" data-name="Path 1241" d="M718.23,3131.064c14.234.391,26.519,1.405,38.485,4.836a52.429,52.429,0,0,1,16.115,7.214,24.181,24.181,0,0,1,4.225,3.642c3.889,4.42,3.793,10.074-.285,14.32a28.018,28.018,0,0,1-5.285,4.3c-7.789,4.877-16.53,7.073-25.437,8.786a134.246,134.246,0,0,1-27.265,2.262c-13.5-.192-26.942-1.489-39.818-6.062-5.5-1.952-10.826-4.241-15.1-8.417-5.253-5.13-5.19-11.625.225-16.628,4.284-3.958,9.5-6.249,14.9-8.186a97.074,97.074,0,0,1,21.847-4.752C707.219,3131.651,713.659,3131.4,718.23,3131.064Zm1.939,2.624c-7.33.612-14.692.968-21.98,1.9-9.085,1.165-18,3.248-26.032,7.9a27.507,27.507,0,0,0-6.5,5.2c-3.154,3.478-3.068,7.188.18,10.563a29.411,29.411,0,0,0,6.358,4.906c7,4.075,14.768,5.993,22.655,7.376a150.663,150.663,0,0,0,42.484,1.128,93.278,93.278,0,0,0,25.63-6.131,31.932,31.932,0,0,0,10.483-6.555c3.6-3.54,3.8-7.786.584-11.666a15.24,15.24,0,0,0-2.235-2.15c-5.311-4.229-11.563-6.445-18-8.151A141.037,141.037,0,0,0,720.169,3133.687Z" transform="translate(0 0)" fill="#fff"/>
    <path id="Path_1242" data-name="Path 1242" d="M904.525,3209.811c1.109-.935,2.165-1.942,3.336-2.789,3.036-2.2,5.558-2.207,8.8.022l5.312-7.991H926.7c-3.16,6.209-7.46,11.274-10.158,17.315,2.852-.55,4.224-3.068,6.541-4.615l1.745,1.518c-2.249,2.976-4.672,5.488-7.943,6.944-1.918.854-3.9.659-5.193-1.35-5.868,2.622-7.383,2.1-9.388-3.246h-4.146c-.625-.488-1.343-1.05-2.059-1.612-.094.041-.227.055-.278.128-1.309,1.857-2.609,3.72-4.01,5.724h-4.452c1.64-3.812,4.389-6.7,5.922-10.906a10.083,10.083,0,0,0-2.125,1.241c-1.534,1.683-2.961,3.463-4.468,5.172a28.136,28.136,0,0,1-3.2,3.366c-3.127,2.538-6.741,2.1-9.707-1.129l-2.757,1.142-.968-1.441c1.622-2.6,3.16-5.036,4.666-7.491,1.567-2.555,4.017-3.8,6.771-4.631a4.949,4.949,0,0,0-7.724.6c-1.824,2.645-3.526,5.386-5.5,7.91a27.787,27.787,0,0,1-4.442,4.323c-2.721,2.2-5.975,2.36-9.184,1.594-4.385-1.047-6.136-6.859-3.478-11.019,1.815-2.839,3.93-3.71,7.209-2.838-.117,2.883-5.159,3.541-3.362,7.269,2.265,2.043,3.1,2.238,5.7.834,3.662-1.978,5.972-5.319,8.855-8.95l-3.82,1.4c-1.3-1.109-.729-1.925.047-2.727l.111-.072-.079.1a12.343,12.343,0,0,1-1.2.31c-2.325.364-4.627.539-6.1-1.84-1.184-1.918-.817-5.379.841-7.328a12.3,12.3,0,0,1,9.63-4.366c4.652-.009,9.316.355,13.954.783,4.023.371,8,1.315,12.028,1.514,3.179.157,6.394-.437,9.594-.689.8-.063,1.6-.094,2.339-.137a2.2,2.2,0,0,1-.841,3.548,16.116,16.116,0,0,1-5.149,1.964,25.643,25.643,0,0,1-11.083-.948c-1.988-.572-4-1.062-6.358-1.683l-6.741,6.1.249.572,2.085.091c2.153-4.322,2.575-4.565,5.649-3.353,1.3,2.025-.058,3.478-1.061,4.813v3.065l3.094-.63,1.884,2.5c1.976-1.334,3.556-3.7,6.369-3.124a9.734,9.734,0,0,1,2.505,1.314l4.927-.962c2.585,1.3,1.872,3.186,2.133,4.738l-.16.016Zm-37.135-7.088a7.568,7.568,0,0,0,6.592-3.407,30.2,30.2,0,0,1,3.9-3.952c.457-.456.894-.932,1.885-1.97-3.887-.125-7.069-.389-10.238-.278a7.87,7.87,0,0,0-6.143,3.168c-1,1.314-.994,2.45,1.158,3.4l5.9-3.987C870.948,3199.066,868.779,3200.647,867.39,3202.723Zm12.431,13.4c3.886-1.492,5.416-4.7,3.945-8.1-3.018,1-5.315,3.2-5.706,5.441C877.831,3214.773,878.317,3215.645,879.821,3216.12Zm28.391.163c4.121-1.306,6.183-4.872,4.451-7.387C908.961,3210.544,907.347,3213.114,908.212,3216.283Zm-5.857-4.879-3.52-1.182C899.542,3212.669,900.682,3212.463,902.355,3211.4Z" transform="translate(-168.28 -52.554)" fill="#fff"/>
  </g>
</svg>
