<svg xmlns="http://www.w3.org/2000/svg" width="47" height="47" viewBox="0 0 47 47">
  <g id="Group_2474" data-name="Group 2474" transform="translate(-11215 -10569)">
    <rect id="Rectangle_2126" data-name="Rectangle 2126" width="47" height="47" transform="translate(11215 10569)" fill="none"/>
    <g id="svgexport-10_3_" data-name="svgexport-10 (3)" transform="translate(11221.624 10575.669)">
      <path id="Path_5073" data-name="Path 5073" d="M282.707,279.113a1.274,1.274,0,0,0,1.777.976l5.379-2.376a.562.562,0,0,0,.306-.695l-2.7-8.02a2.718,2.718,0,0,0-3.037-1.8l-.844.151a2.688,2.688,0,0,0-2.193,3.065Zm1.323-.053a.144.144,0,0,1-.133-.006.147.147,0,0,1-.078-.112L282.5,270.25a1.587,1.587,0,0,1,.019-.562l.951.751a2.939,2.939,0,0,1,.984,1.4l2.061,6.125Zm-.245-10.6.843-.151a1.565,1.565,0,0,1,.275-.024,1.589,1.589,0,0,1,1.5,1.074l2.537,7.536-1.387.612-2.028-6.025a4.049,4.049,0,0,0-1.355-1.924l-1.031-.816A1.573,1.573,0,0,1,283.784,268.461Zm0,0" transform="translate(-262.82 -249.554)" fill="#2f2f2f" stroke="#2f2f2f" stroke-width="0.5"/>
      <path id="Path_5074" data-name="Path 5074" d="M1.632,5.323,10.03,7.8a.873.873,0,0,1,.31.166L13.3,10.431l.478.4,3.87,20.116a3.413,3.413,0,0,0,4.736,2.479l5.4-2.384a1.878,1.878,0,0,0,2.147.526L32.775,30.4A1.876,1.876,0,0,0,33.8,27.955L28.617,15.3,29,14.857a1.992,1.992,0,0,0-.2-2.806L22.868,6.913a1.99,1.99,0,0,0-2.808.2L19.1,8.225l-2.156-1.8h0L12.949,3.181a1.978,1.978,0,0,0-.694-.365L3.158.135A1.99,1.99,0,0,0,.689,1.481l-.4,1.367A1.99,1.99,0,0,0,1.632,5.323ZM19.591,9.381l1.321-1.527a.865.865,0,0,1,1.221-.088L28.063,12.9a.865.865,0,0,1,.088,1.219l-.611.706a.563.563,0,0,0-.1.582l5.315,12.969a.75.75,0,0,1-.41.978L29.5,30.524a.75.75,0,0,1-.979-.411.563.563,0,0,0-.748-.3l-5.844,2.582a2.291,2.291,0,0,1-3.176-1.664L14.848,10.416a.564.564,0,0,0-.192-.326l-.177-.147,2.155-2.31,2.173,1.81a.562.562,0,0,0,.784-.064ZM1.365,3.168l.4-1.368a.865.865,0,0,1,1.075-.585l9.092,2.676a.863.863,0,0,1,.3.159l3.53,2.868L13.614,9.223,11.06,7.095a1.976,1.976,0,0,0-.711-.38l-8.4-2.473a.865.865,0,0,1-.585-1.073Zm0,0" transform="translate(-0.19 -0.054)" fill="#2f2f2f" stroke="#2f2f2f" stroke-width="0.5"/>
      <path id="Path_5075" data-name="Path 5075" d="M3.938,146.139A3.851,3.851,0,0,0,7.874,142.2c0-1.793-2.179-5.03-3.087-6.078a1.16,1.16,0,0,0-1.7,0C2.18,137.172,0,140.41,0,142.2a3.851,3.851,0,0,0,3.937,3.937Zm0-9.279C4.93,138,6.75,140.9,6.75,142.2a2.72,2.72,0,0,1-2.812,2.812A2.72,2.72,0,0,1,1.126,142.2c0-1.3,1.82-4.2,2.812-5.343Zm12.187.439a.563.563,0,0,0-.406.686l.281,1.1a.562.562,0,0,0,1.09-.279l-.281-1.1a.563.563,0,0,0-.684-.407Zm.481,3.627.8,3.374a.563.563,0,0,0,1.1-.257l-.8-3.374a.563.563,0,0,0-1.1.259Zm0,0" transform="translate(0 -126.811)" fill="#2f2f2f" stroke="#2f2f2f" stroke-width="0.5"/>
    </g>
  </g>
</svg>
