<svg xmlns="http://www.w3.org/2000/svg" width="18.663" height="18.663" viewBox="0 0 18.663 18.663">
  <g id="google-maps" transform="translate(-6 -2)">
    <path id="Path_1" data-name="Path 1" d="M22.8,21.4V7.4A1.4,1.4,0,0,0,21.4,6H7.4A1.4,1.4,0,0,0,6,7.4v14a1.4,1.4,0,0,0,1.4,1.4h14A1.4,1.4,0,0,0,22.8,21.4Z" transform="translate(0 -2.134)" fill="#1c9957"/>
    <path id="Path_2" data-name="Path 2" d="M8.938,33.465h14c.773,0-7-7.465-7-7.465S8.167,33.465,8.938,33.465Z" transform="translate(-1.538 -12.802)" fill="#3e7bf1"/>
    <path id="Path_3" data-name="Path 3" d="M33.465,22.935v-14c0-.773-7.465,7-7.465,7S33.465,23.708,33.465,22.935Z" transform="translate(-10.668 -3.672)" fill="#cbccc9"/>
    <path id="Path_4" data-name="Path 4" d="M30.465,31.865a1.4,1.4,0,0,0,1.4-1.4V30.35L24.515,23,23,24.515l7.35,7.35Z" transform="translate(-9.068 -11.202)" fill="#efefef"/>
    <path id="Path_5" data-name="Path 5" d="M22.8,7.4A1.4,1.4,0,0,0,21.4,6h-.116L6,21.281V21.4a1.4,1.4,0,0,0,1.4,1.4h.116L22.8,7.515Z" transform="translate(0 -2.134)" fill="#ffd73d"/>
    <path id="Path_6" data-name="Path 6" d="M30.666,2A4.666,4.666,0,0,0,26,6.666c0,3.173,3.576,4.337,4.354,9.262.05.317.054.536.312.536s.261-.218.312-.536c.778-4.925,4.354-6.09,4.354-9.262A4.666,4.666,0,0,0,30.666,2Z" transform="translate(-10.668)" fill="#d73f35"/>
    <path id="Path_7" data-name="Path 7" d="M35.766,10.133A1.633,1.633,0,1,1,34.133,8.5a1.633,1.633,0,0,1,1.633,1.633Z" transform="translate(-14.136 -3.467)" fill="#752622"/>
    <path id="Path_8" data-name="Path 8" d="M11.558,10.115v.98h1.4a1.4,1.4,0,0,1-1.4,1.019A1.549,1.549,0,1,1,12.564,9.39l.722-.722a2.566,2.566,0,1,0-1.728,4.464,2.409,2.409,0,0,0,2.426-3.014Z" transform="translate(-1.596 -3.201)" fill="#fff"/>
  </g>
</svg>
