<svg xmlns="http://www.w3.org/2000/svg" width="115.477" height="38.716" viewBox="0 0 115.477 38.716">
  <g id="Hatchback_car" transform="translate(-1220 -1422)">
    <g id="Hatchback_car-2" data-name="Hatchback car" transform="translate(1220 1422)">
      <path id="Path_319" data-name="Path 319" d="M96.2,197.132c31.889,0,57.739.5,57.739,1.115s-25.85,1.116-57.739,1.116-57.739-.5-57.739-1.116,25.851-1.115,57.739-1.115Z" transform="translate(-38.465 -160.646)" fill="#b3b3b3" fill-rule="evenodd"/>
      <path id="Path_320" data-name="Path 320" d="M147.525,186.121a5.961,5.961,0,0,0,2.627-.867c1.285-1.194.9-4.919.876-6.827-.005-.464-1.182-.467-1.211-.95-.17-2.943-1.439-8.35-1.76-11.372a4.771,4.771,0,0,0-2.5-3.745c-2.267-1.4-8.759-5.224-11.223-6.256-1.627-.682-1.23-.847-2.977-1.1-8.673-1.246-27.639-2.715-36.138-.014a84.773,84.773,0,0,0-19.385,9.364c-11.164,1.924-20.275,3.56-25.7,5.018a6.412,6.412,0,0,0-4.543,3.512c-.88,1.7-1.3,2.7-1.7,3.669-.966.079-1.2.97-1.182,2.175a17.614,17.614,0,0,0,.378,5.111,3.147,3.147,0,0,0,3.1,2.227l2.718.089c1.319-.25,1.725-.178,1.611-1.943-.038-.605-.048-1.226-.048-1.866a11.373,11.373,0,0,1,22.747,0c0,.878,0,1.733-.059,2.555-.2,2.8-1.068,2.509,1.622,2.647l45.7-.049c1.955-.239,2.479,0,2.207-2.657a24.763,24.763,0,0,1-.1-2.5,11.373,11.373,0,0,1,22.746,0c0,.565,0,1.116-.019,1.653-.073,2.157-.548,2.593,2.214,2.12ZM111.1,165.311c.7-5.737.787-7.4,1.326-8.792a1.336,1.336,0,0,1,.973-.678c4.13.2,8.726.127,12.723,1.054,1.421.4,4.328,3.705,5.056,4.7.281.384,2.368,2.809,2.033,3.31a1.226,1.226,0,0,1-1.091.588c-6.217.207-13.159.863-19.369.938-1.741.021-1.843.446-1.652-1.123Zm-23.609,2.018a9.093,9.093,0,0,0,.411-1.976c.091-1.518-3.24-1.63-4.96-1.519a55.305,55.305,0,0,1,13.276-6.658c3.654-1.223,8.574-1.252,12.49-1.335.681-.009.657.277.571.843-.273,1.8-.94,5.689-1.344,8.3-.195,1.26-.493,1.559-1.781,1.57-5.087.042-18.726,1.019-18.663.775Zm46.463,6.271a8.748,8.748,0,1,1-8.748,8.748,8.748,8.748,0,0,1,8.748-8.748Zm-72.12,0a8.748,8.748,0,1,1-8.748,8.748,8.749,8.749,0,0,1,8.748-8.748Z" transform="translate(-39.161 -153.47)" fill="#fff" fill-rule="evenodd"/>
    </g>
  </g>
</svg>
