<svg xmlns="http://www.w3.org/2000/svg" width="50" height="50" viewBox="0 0 50 50">
  <g id="Group_2372" data-name="Group 2372" transform="translate(0 0)">
    <rect id="Rectangle_1958" data-name="Rectangle 1958" width="50" height="50" transform="translate(0 0)" fill="none"/>
    <g id="svgexport-17_7_" data-name="svgexport-17 (7)" transform="translate(7.529 5.713)">
      <path id="Path_5065" data-name="Path 5065" d="M24.842,4a10.117,10.117,0,0,0-7.371,3.2A10.1,10.1,0,0,0,0,14.1C0,24.158,16.221,34.029,16.925,34.416a1.092,1.092,0,0,0,1.125,0c.672-.388,16.893-10.259,16.893-20.316A10.112,10.112,0,0,0,24.842,4ZM17.471,32.194C14.649,30.393,2.184,21.974,2.184,14.1A7.917,7.917,0,0,1,16.576,9.553a1.092,1.092,0,0,0,1.785,0,7.917,7.917,0,0,1,14.4,4.548C32.759,21.968,20.294,30.387,17.471,32.194Z" fill="#2f2f2f" stroke="#2f2f2f" stroke-width="1"/>
    </g>
  </g>
</svg>
