<svg xmlns="http://www.w3.org/2000/svg" width="19.464" height="19.466" viewBox="0 0 19.464 19.466">
  <path id="home_icon" d="M19.441,8.466h0L11.5.524a1.792,1.792,0,0,0-2.534,0L1.028,8.461l-.008.008a1.791,1.791,0,0,0,1.192,3.053l.055,0h.316v5.843a2.1,2.1,0,0,0,2.1,2.1H7.789a.57.57,0,0,0,.57-.57V14.314a.958.958,0,0,1,.957-.957h1.832a.958.958,0,0,1,.957.957V18.9a.57.57,0,0,0,.57.57h3.107a2.1,2.1,0,0,0,2.1-2.1V11.525h.293a1.792,1.792,0,0,0,1.268-3.059Zm-.808,1.727a.647.647,0,0,1-.461.191h-.864a.57.57,0,0,0-.57.57v6.414a.958.958,0,0,1-.957.957H13.246V14.314a2.1,2.1,0,0,0-2.1-2.1H9.316a2.1,2.1,0,0,0-2.1,2.1v4.011H4.682a.958.958,0,0,1-.957-.957V10.954a.57.57,0,0,0-.57-.57H2.279A.651.651,0,0,1,1.83,9.272h0l7.94-7.94a.651.651,0,0,1,.921,0l7.939,7.938,0,0a.653.653,0,0,1,0,.92Zm0,0" transform="translate(-0.5 0.001)" fill="#2f2f2f"/>
</svg>
