<svg xmlns="http://www.w3.org/2000/svg" width="54.915" height="45.377" viewBox="0 0 54.915 45.377">
  <g id="Honda_icon" transform="translate(-1475.999 -1367)">
    <path id="Honda_icon-2" data-name="Honda_icon" d="M1206.9,1918.235c-4.652-.234-9.367-.424-14.073-.736a24.523,24.523,0,0,1-4.455-.817,8.928,8.928,0,0,1-7.049-7.136,68.913,68.913,0,0,1-1.708-9.94,140.734,140.734,0,0,1-.123-15.645c.3-5.889,2.909-8.648,8.736-9.716a71.349,71.349,0,0,1,10.027-1.173c8.424-.33,16.859-.425,25.236.808a23.44,23.44,0,0,1,4.654,1.1,8.629,8.629,0,0,1,5.485,6.471,16.028,16.028,0,0,1,.5,3.243c.274,7.593.177,15.165-1.384,22.649-1.38,6.612-4.593,9.571-11.382,10.112C1216.574,1917.84,1211.771,1917.982,1206.9,1918.235Zm-11.417-41.371a6.207,6.207,0,0,0,.107.941c1.362,5.116,2.7,10.24,4.132,15.337a14.222,14.222,0,0,0,1.473,3.19,5.107,5.107,0,0,0,3.622,2.485c4.006.8,6.977-.514,8.482-4.419a24.017,24.017,0,0,0,.85-2.374q1.865-6.942,3.663-13.9a5.465,5.465,0,0,0,.015-1.363C1212.628,1875.719,1199.565,1875.791,1195.482,1876.864Zm28.478.66c-.86,12.227-1.7,24.2-2.548,36.237a4.548,4.548,0,0,0,.915-.008c4.3-1.088,6.035-4.21,6.639-8.284a98.831,98.831,0,0,0,1.007-19.42,17.6,17.6,0,0,0-.6-3.733A6.329,6.329,0,0,0,1223.961,1877.523Zm-34.472.144a3.114,3.114,0,0,0-.7.006c-3.29,1.036-5.1,3.3-5.2,7.219-.129,4.872-.112,9.763.165,14.626a48.23,48.23,0,0,0,1.5,8.93c.827,3.292,3.4,4.742,6.8,5.5C1191.186,1901.732,1190.343,1889.781,1189.489,1877.667Zm9.746,36.61c2.921.766,12.461.687,14.731-.1a22.836,22.836,0,0,0-2.771-7.858,11.661,11.661,0,0,0-7.29-.543,3.455,3.455,0,0,0-2.7,2.353C1200.529,1910.106,1199.925,1912.108,1199.235,1914.277Z" transform="translate(296.671 -505.858)" fill="#fff"/>
  </g>
</svg>
