<svg xmlns="http://www.w3.org/2000/svg" width="89.852" height="45.377" viewBox="0 0 89.852 45.377">
  <g id="kia_icon" transform="translate(-1254.966 -1152.623)">
    <path id="Path_1244" data-name="Path 1244" d="M1183.349,3613.465c-10.385-.031-20.539-1.379-30.161-5.544-4.734-2.049-9.022-4.738-12.267-8.888a13.332,13.332,0,0,1-.58-15.5c2.554-3.747,6.1-6.3,10.033-8.434,6.03-3.271,12.6-4.761,19.27-5.875a81.978,81.978,0,0,1,37.729,2.523c6.015,1.823,11.565,4.543,16.114,9.08,5.885,5.87,6.038,13.937.218,19.874-4.223,4.308-9.462,6.981-15.076,8.867A75.77,75.77,0,0,1,1183.349,3613.465Zm-.633-39.875c-2.052.1-4.481.132-6.9.339-7.617.651-15.135,1.831-22.211,4.9a25.221,25.221,0,0,0-9.391,6.346c-2.848,3.289-3.145,6.724-.658,10.195a18.5,18.5,0,0,0,3.607,3.68,34.041,34.041,0,0,0,12.637,5.875,90.8,90.8,0,0,0,44.459.475,38.915,38.915,0,0,0,14.833-6.6c6.3-4.765,6.436-10.819.339-15.769a33.794,33.794,0,0,0-11.012-5.69C1200.192,3574.656,1191.675,3573.86,1182.716,3573.591Z" transform="translate(116.831 -2415.472)" fill="#fff"/>
    <path id="Path_1245" data-name="Path 1245" d="M1315.061,3705.848v7.641h-6.214c-.024-3.163-.057-6.329-.069-9.5-.012-3.2,0-6.408,0-9.664l-1.358-1.587c.285-.321.494-.764.712-.769,2.218-.051,4.438-.031,6.9-.031v7.009c2.533-2.234,3.772-4.835,5.608-6.847h7.135l-6.514,9.935,7.956,11.432h-7.4l-6.064-7.9Z" transform="translate(-36.354 -2527.539)" fill="#fff"/>
    <path id="Path_1246" data-name="Path 1246" d="M1729.229,3713.083h-6.3l-4.508-12.772c-2.1,4.41-2.986,8.78-4.775,12.852h-6.169l6.222-18.929-.745-1.979c.482-.866,5.732-1.022,9.156-.361Z" transform="translate(-398.367 -2527.129)" fill="#fff"/>
    <path id="Path_1247" data-name="Path 1247" d="M1575.659,3691.688v21.226h-6.147c-.374-6.352,0-12.715-.2-19.007l-1.184-1.943C1570.021,3691.211,1571.869,3691.141,1575.659,3691.688Z" transform="translate(-272.272 -2526.988)" fill="#fff"/>
  </g>
</svg>
