<svg xmlns="http://www.w3.org/2000/svg" width="47" height="47" viewBox="0 0 47 47">
  <g id="Group_2459" data-name="Group 2459" transform="translate(0.54 0.289)">
    <g id="Group_1860" data-name="Group 1860" transform="translate(-0.54 -0.289)">
      <rect id="Rectangle_1958" data-name="Rectangle 1958" width="47" height="47" fill="none"/>
      <g id="svgexport-17_5_" data-name="svgexport-17 (5)" transform="translate(6.01 7.911)">
        <path id="Path_1576" data-name="Path 1576" d="M35.694,24.816a17.788,17.788,0,0,0-5.158-12.555.539.539,0,0,0-.154-.153,17.813,17.813,0,0,0-25.074,0,.539.539,0,0,0-.154.154,17.831,17.831,0,0,0,.039,25.131.892.892,0,0,0,1.264,0l2.106-2.046A.892.892,0,0,0,7.3,34.1L5.869,35.525a15.932,15.932,0,0,1-4.062-9.831H3.82a.892.892,0,1,0,0-1.785H1.806a16,16,0,0,1,4.073-9.8l1.428,1.428a.9.9,0,1,0,1.257-1.282L7.136,12.825a16,16,0,0,1,9.817-4.073v2.013a.892.892,0,1,0,1.785,0V8.752a16,16,0,0,1,9.817,4.084l-1.428,1.428a.894.894,0,1,0,1.264,1.264L29.819,14.1a16,16,0,0,1,4.066,9.81H31.868a.892.892,0,1,0,0,1.785h2.013a15.929,15.929,0,0,1-4.062,9.831L28.391,34.1a.892.892,0,0,0-1.264,1.249L29.2,37.421a.892.892,0,0,0,1.264,0A17.735,17.735,0,0,0,35.694,24.816Z" transform="translate(0.006 -6.948)"/>
        <path id="Path_1577" data-name="Path 1577" d="M35.987,39.091a3.827,3.827,0,0,0-2.017.575l-4.237-4.237a.894.894,0,0,0-1.264,1.264l4.237,4.237a3.852,3.852,0,1,0,3.281-1.838Zm0,5.926a2.07,2.07,0,1,1,2.07-2.056,2.07,2.07,0,0,1-2.07,2.056Z" transform="translate(-18.136 -25.093)"/>
      </g>
    </g>
  </g>
</svg>
