<svg xmlns="http://www.w3.org/2000/svg" width="51" height="51" viewBox="0 0 51 51">
  <g id="location_icon" transform="translate(0 -0.115)">
    <rect id="Rectangle_1958" data-name="Rectangle 1958" width="51" height="51" transform="translate(0 0.115)" fill="none"/>
    <g id="svgexport-17_3_" data-name="svgexport-17 (3)" transform="translate(-31.127 5.259)">
      <path id="Path_1572" data-name="Path 1572" d="M68.6,5A17.074,17.074,0,0,0,39.451,17.074c0,9.226,8.723,16.9,13.41,21.022.651.573,1.214,1.068,1.662,1.486a2.942,2.942,0,0,0,4,0c.448-.419,1.01-.913,1.662-1.486C64.876,33.974,73.6,26.3,73.6,17.074A16.963,16.963,0,0,0,68.6,5Zm-9.971,31.32c-.666.585-1.24,1.091-1.714,1.534a.571.571,0,0,1-.776,0c-.474-.443-1.049-.948-1.714-1.534-4.406-3.876-12.607-11.09-12.607-19.247a14.709,14.709,0,0,1,29.419,0C71.234,25.231,63.033,32.445,58.627,36.321Z" fill="#ffd600"/>
      <path id="Path_1573" data-name="Path 1573" d="M168.094,112.938a7.524,7.524,0,1,0,7.524,7.524A7.533,7.533,0,0,0,168.094,112.938Zm0,12.684a5.16,5.16,0,1,1,5.16-5.16A5.165,5.165,0,0,1,168.094,125.622Z" transform="translate(-111.569 -104.033)" fill="#ffd600"/>
    </g>
  </g>
</svg>
