<svg xmlns="http://www.w3.org/2000/svg" width="118.325" height="118.324" viewBox="0 0 118.325 118.324">
  <g id="svgexport-18_2_" data-name="svgexport-18 (2)" transform="translate(0 -0.5)">
    <path id="Path_5149" data-name="Path 5149" d="M118.04,113.974,97.16,65.26a3.482,3.482,0,0,0-3.2-2.109H80.7c5.367-9.376,9.78-19.753,9.78-28.533,0-45.215-62.639-45.766-62.639,0,0,8.78,4.413,19.157,9.78,28.533H24.362a3.48,3.48,0,0,0-3.2,2.109L.284,113.974a3.482,3.482,0,0,0,3.2,4.85H114.841A3.482,3.482,0,0,0,118.04,113.974ZM91.666,70.11l10.3,24.036c-.322.168-33.856,17.581-34.1,17.718H60.589c-.184-.206,1.381,1.368-21.3-21.31l12.6-6.448c2.568,3.278,4.368,5.361,4.648,5.684a3.48,3.48,0,0,0,5.251,0A191.292,191.292,0,0,0,76.451,70.11ZM59.162,7.477c11.732,0,24.36,8.494,24.36,27.141,0,15.679-17.575,39.012-24.36,47.433C52.378,73.629,34.8,50.3,34.8,34.618,34.8,15.87,47.036,7.477,59.162,7.477ZM26.657,70.11c16.858,0,14.942,0,15.212-.005,1.96,3.027,3.928,5.852,5.759,8.365l-31.453,16.1ZM11.882,104.583l20.9-10.7,17.981,17.978h-42Zm71.075,7.282,21.762-11.3,4.845,11.3Zm0,0" transform="translate(0 0)" fill="#ffd600"/>
    <path id="Path_5150" data-name="Path 5150" d="M231.7,101.357A10.44,10.44,0,1,0,221.264,111.8,10.452,10.452,0,0,0,231.7,101.357Zm-13.919,0a3.48,3.48,0,1,1,3.48,3.479,3.483,3.483,0,0,1-3.48-3.479Zm0,0" transform="translate(-162.102 -69.522)" fill="#ffd600"/>
  </g>
</svg>
