<svg xmlns="http://www.w3.org/2000/svg" width="203.464" height="191.596" viewBox="0 0 203.464 191.596">
  <g id="Group_1167" data-name="Group 1167" transform="translate(417.919 -212.133)">
    <rect id="Rectangle_1891" data-name="Rectangle 1891" width="19.406" height="33.718" rx="9.703" transform="translate(-385.75 379.887) rotate(-45)"/>
    <path id="Path_1352" data-name="Path 1352" d="M-228.813,240.51c13.3-14.685,12.686-21.415,8.509-25.466s-10.21.957-10.21.957l-10.984,8.48s-8.3-8.193-22.742-4.148S-279.05,232.3-279.05,232.3s1.6-3.937,4.631-5.331c-.281.193-.551.394-.805.606-8.664,7.242-4.332,17.791-4.332,17.791,4.6,7.99,12.35,10.868,20.721,10.347.077,3.692,0,7.624-.145,11.775-.619,17.327-5.724,36.2-18.1,33.416,5-35.685-5.207-68.136-35.891-63.668,0,0-12.1.255-16.619,8.29,0,0,.1-.127.283-.335-3.454,4.033-6.142,9.971-7.18,18.639,0,0-.927,23.217,3.5,36.465-11.729-1.029-12.106-27.022-10.926-32.188,1.238-5.415,9.747-43.724-13.459-52.107s-44.865,8.583-49.4,27.767-7.013,36.6,5.157,74.921,59.461,67.539,102.133,31.375h0a42.882,42.882,0,0,0,22.043,7.361c34.242,1.65,48.681-27.228,53.838-43.318,4.034-12.586,5.227-48.9-5.724-73.053C-229.158,240.872-228.979,240.694-228.813,240.51Z" transform="translate(-2.401 -0.308)" stroke="#000" stroke-miterlimit="10" stroke-width="2"/>
    <path id="Path_1353" data-name="Path 1353" d="M-352.822,213.154s22.211-4.96,33.5,15.919S-353.319,213.249-352.822,213.154Z" transform="translate(-23.987 0)"/>
    <path id="Path_1354" data-name="Path 1354" d="M-240.259,219.988a16.673,16.673,0,0,0-7.339-.165c-5.26.9-10.49,2.657-14.429,6.378-3.186,3.01-7.366,11.429-12.83,9.791-1.642-.492-3.094-1.991-4.621-2.8a27.7,27.7,0,0,0-5.708-2.26,30.152,30.152,0,0,0-16.225.253c-5.246,1.521-8.783,5.514-13.606,7.667-4.542,2.028-6.884-3.858-8.4-7.154-3.6-7.847-12.6-15-21.252-16.306a.473.473,0,0,0-.42.788.467.467,0,0,1-.4.779,12.844,12.844,0,0,0-13.721,9.178c-.833,2.862-1.546,5.294-1.732,5.894-.517,1.665-4.375,36.607-4.966,42.154-.565,5.3,12.661,39.721,13.838,42.77a.46.46,0,0,0,.308.279c3.7,1.047,51.861,14.673,55.908,14.79s44.794-21.213,47.824-22.8a.458.458,0,0,0,.231-.293l8.314-31.379a.42.42,0,0,1,.025-.071l12.111-27.21a.485.485,0,0,0,.041-.19l.061-22.4a.473.473,0,0,0-.238-.411l-5.861-3.335c-2.122-1.207-4.147-2.984-6.442-3.785C-239.944,220.085-240.1,220.034-240.259,219.988Z" transform="translate(-19.084 -1.027)"/>
    <path id="Path_1355" data-name="Path 1355" d="M-229.738,243.7c12.859-14.192,12.261-20.7,8.224-24.613s-9.869.925-9.869.925L-242,228.21s-8.025-7.919-21.98-4.009-14.313,11.567-14.313,11.567,1.544-3.806,4.476-5.153c-.272.187-.533.38-.778.586-8.373,7-4.187,17.2-4.187,17.2,4.45,7.722,11.936,10.5,20.027,10,.074,3.568,0,7.368-.14,11.381-.6,16.746-5.532,34.988-17.494,32.3,4.835-34.49-5.032-65.853-34.689-61.535,0,0-11.7.247-16.063,8.012,0,0,.094-.123.274-.323-3.338,3.9-5.936,9.637-6.939,18.015,0,0-.9,22.439,3.382,35.243-11.336-.995-11.7-26.116-10.56-31.11,1.2-5.233,9.42-42.26-13.008-50.362s-43.362,8.3-47.748,26.837-6.778,35.372,4.984,72.411,57.469,65.277,98.711,30.325h0a41.445,41.445,0,0,0,21.306,7.114c33.094,1.6,47.05-26.316,52.034-41.867,3.9-12.163,5.052-47.261-5.532-70.606C-230.071,244.052-229.9,243.879-229.738,243.7Z" transform="translate(-4.333 -1.841)" fill="#ffd600" stroke="#fff35a" stroke-miterlimit="10" stroke-width="3"/>
    <g id="Group_1166" data-name="Group 1166" transform="translate(-409.675 215.718)">
      <g id="Group_1165" data-name="Group 1165" transform="translate(125.515)">
        <path id="Path_1356" data-name="Path 1356" d="M-166.931,228.21l10.616-8.2s5.831-4.84,9.869-.925,4.635,10.421-8.224,24.613-38.876,22.337-49.044,4.694c0,0-4.186-10.2,4.187-17.2S-166.931,228.21-166.931,228.21Z" transform="translate(204.76 -217.56)" fill="#ffd600"/>
      </g>
      <path id="Path_1357" data-name="Path 1357" d="M-235.555,239.09s4.146-10.249,11.772-3.072,8.224,20.335,7.625,37.081-5.532,34.988-17.494,32.3-3.588-52.183-23.475-60.557c0,0-29.9-9.013-33.941,24.725,0,0-1.047,26.113,4.485,38.075S-267.1,358.428-234,360.023s47.05-26.316,52.034-41.867,5.483-68.581-17.295-86.624c0,0-8.025-7.919-21.98-4.009S-235.555,239.09-235.555,239.09Z" transform="translate(362.605 -220.883)" fill="#e5bf23"/>
      <path id="Path_1358" data-name="Path 1358" d="M-327.141,248.748s5.646-7.382,13.919-2.1,7.675,25.12,3.788,34.988c0,0-6.28,18.541-19.289,20.036s-13.457-25.867-12.261-31.1,9.42-42.26-13.008-50.362-43.362,8.3-47.748,26.837-6.778,35.372,4.984,72.411,57.469,65.277,98.711,30.325c0,0,16.82-13.022,21.655-47.512s-5.032-65.853-34.689-61.535C-311.078,240.736-322.775,240.983-327.141,248.748Z" transform="translate(405.342 -217.757)" fill="#ffd600"/>
    </g>
    <path id="Path_1359" data-name="Path 1359" d="M-367.893,216.483v1.065s-16.549-.978-30.422,20.055c0,0-3.382,3.642-5.839,21.411l-1.188-.473s1.377-17.863,9.6-27.03S-380.012,217.121-367.893,216.483Z" transform="translate(-4.333 -1.438)" fill="#fcf7ef"/>
    <path id="Path_1360" data-name="Path 1360" d="M-283.708,263.616l-1.071-.252s3.654-6.993,8.443-8.758c0,0,13.295-6.615,27.345-.5,0,0,12.1,4.537,16.7,20.793h-1.2s-4.565-16.016-17.118-20.263S-280.809,254.354-283.708,263.616Z" transform="translate(-49.453 -14.547)" fill="#fcf7ef"/>
    <path id="Path_1361" data-name="Path 1361" d="M-202.973,238.4l-1.114-.339s-.039-4.98,8.23-9.564,20.975-6.143,29.178.992v1.353s-8.285-7.677-21.685-4.09S-202.9,237.671-202.973,238.4Z" transform="translate(-79.652 -4.475)" fill="#fcf7ef"/>
    <path id="Path_1362" data-name="Path 1362" d="M-144.307,226.133l10.612-8.269s4.962-3.5,8.459-1.748l-.343,1.094s-3.175-1.384-7.555,1.666-11.172,8.611-11.172,8.611Z" transform="translate(-102.024 -1.117)" fill="#fcf7ef"/>
    <path id="Path_1363" data-name="Path 1363" d="M-197.394,239.067s9.02-3.78,11.666,12.224-4.393,13.613-4.393,13.613,6.3,1.613,9.191,1.057c0,0,.492-22.935-11.037-27.875A5.583,5.583,0,0,0-197.394,239.067Z" transform="translate(-82.157 -9.405)" fill="#c6a000"/>
    <path id="Path_1364" data-name="Path 1364" d="M-197.394,239.061s3.984-3.449,8.384.867c0,0,3.908,2.407,6.47,11.678a65.911,65.911,0,0,1,1.609,14.348h-2.239s1.537-20.1-5.788-25.68A6.167,6.167,0,0,0-197.394,239.061Z" transform="translate(-82.157 -9.4)" fill="#937700"/>
    <path id="Path_1365" data-name="Path 1365" d="M-188.886,265.552s-14.817-4.246-9.2-21.367c0,0-.166-3.579,2.92-4.5,0,0,7.252-2.885,9.006,14.886C-186.157,254.569-184.859,264.354-188.886,265.552Z" transform="translate(-81.423 -10.056)" fill="#c6a000" opacity="0.29"/>
    <path id="Path_1366" data-name="Path 1366" d="M-213.432,242.117s1.869-5.572,7.54-4.69,12.178,12.359,11.621,28.861c0,0-.243,19.747-2.043,25.877s-4.377,18.607-15.609,16.967c0,0-4.665,33.924-21.165,49.524,0,0,27.2,8.148,42.492,1.294,0,0,14.815-6.836,23.2-21.9,0,0,6.445-12.973,7.361-16.823s-7.043,29.989-33.632,21.42-17.084-31.5-17.084-31.5,12.548,1.638,15.446-19.029,4.159-41.711-5.544-52.927C-200.851,239.191-209.126,231.307-213.432,242.117Z" transform="translate(-68.798 -8.898)" fill="#c6a000" opacity="0.29"/>
    <path id="Path_1367" data-name="Path 1367" d="M-125.236,218.174s-5.813-.54-14.129,8.155l-1.985,1.967s6.663,8.035,8.057,10.595,9.065-2.071,12.034-14.074c0,0-.528,6.96-8.277,16.1l-3.007,3.4s-6.119-12.746-11.763-15.743l10.329-7.913S-129.348,216.54-125.236,218.174Z" transform="translate(-102.024 -1.928)" fill="#c6a000" opacity="0.29"/>
    <path id="Path_1368" data-name="Path 1368" d="M-277.351,326.825s-5.123,36.831-21.655,47.512c0,0,1.447,4.556-21.662,15.129,0,0-20.515,5.509-49.652-9.08,0,0-21.092-6.244-31.3-46.128,0,0-10.133-29.868-4.685-50.564,0,0,.616,123.95,79.286,85.719C-327.018,369.413-287.667,361.229-277.351,326.825Z" transform="translate(-3.37 -26.592)" fill="#c6a000" opacity="0.29"/>
    <path id="Path_1369" data-name="Path 1369" d="M-284.287,266.569s-8.389,13.036-5.743,26.289,10.764,19.551,19.465,14.7c0,0-8.289,13.319-17.279,12.268a82.21,82.21,0,0,1-2.888-16S-294.99,279.1-284.287,266.569Z" transform="translate(-46.912 -20.183)" fill="#c6a000"/>
    <path id="Path_1370" data-name="Path 1370" d="M-303.61,288.6s-4.4,22.421,4.885,31.494,23.891-.756,30.479-23.817-3.664-45.817-20.937-32.171c0,0,9.382-9.317,16.564,1.156s1.194,34.6-2.842,39.834c0,0-8.338,13.659-17.279,12.268S-303.726,299.951-303.61,288.6Z" transform="translate(-42.016 -17.721)" fill="#fe8" opacity="0.42"/>
    <path id="Path_1371" data-name="Path 1371" d="M-340.717,270.609s4.078-42.325-19.292-48.1-50.273,55.039-26,96.3,82.359,30.469,82.359,30.469-50.648,22.484-75.459-7.4-30.377-75.743-21.671-97.295c0,0,10.974-26.478,33.152-26.409S-333.213,232.989-340.717,270.609Z" transform="translate(-4.599 -2.075)" fill="#fe8" opacity="0.42"/>
    <path id="Path_1372" data-name="Path 1372" d="M-225.775,468.562s.912-15.642-8.066-13c-3.1.914-10.347,6.969-15.216,5.716l-11.783-7.79-16.076,4.106-20.662-1.357L-309.588,450l-7.523-.63-35.957.74-7.77.726-17.768,13.442-15.444-2.016-5.223-20.889,1.713-12.387,2.194-9.443s9.451-4.75,9.955-4.517,12.148,1.419,12.148,1.419l6.5,7.522,11.429,3.087,13.648-4.435,15-4.84,21.8-2.1,13.372-4.934,13.344-3.427,8.821,6.874,39.191,16.648a14.327,14.327,0,0,1,3.529,8.234c.63,5.418,4.158,18.272,4.158,20.415s-3.127,8.39-3.127,8.39Z" transform="translate(-6.604 -72.858)"/>
    <path id="Path_1373" data-name="Path 1373" d="M-346.116,475.662s-6,26.134-34.329,21.618C-399.938,494.173-346.116,475.662-346.116,475.662Z" transform="translate(-12.058 -98.435)"/>
    <path id="Path_1374" data-name="Path 1374" d="M-204.774,415.78a25.128,25.128,0,0,0-2.975-4.845,30.457,30.457,0,0,0-4.016-4.4,29,29,0,0,0-2.666-2.123c-.661-.466-2.579-1.18-2.957-1.824,0,0-3.259-7.411-19.1-3.914,0,0-5.637-1.395-13.329,4.32s-11.367,18.853-10.294,28.488c0,0,.566,14.394,9.41,21.44a32.478,32.478,0,0,0,12.665,6.173,25.241,25.241,0,0,0,11.182.848q.689-.1,1.365-.242c.151-.031.3-.069.447-.1.3-.066.6-.132.891-.208.177-.046.351-.1.526-.15.262-.074.524-.147.783-.23.187-.059.372-.126.557-.19.242-.083.484-.165.722-.255.191-.071.379-.15.568-.226.228-.092.457-.184.683-.282.19-.083.379-.172.567-.26.218-.1.435-.2.649-.31.19-.094.378-.194.566-.293.207-.109.412-.22.616-.335q.283-.161.561-.327.3-.177.587-.36t.552-.359q.283-.188.559-.383c.179-.126.357-.252.532-.382a28.953,28.953,0,0,0,6.294-5.146c3.673-4.074,5.375-9.953,6.232-15.261A33.746,33.746,0,0,0-204.774,415.78Zm-30.363,38.477a7.209,7.209,0,0,1-2.186-1.585l.2-.677h0L-232,434.522a3.908,3.908,0,0,0,.961.124,3.9,3.9,0,0,0,1.169-.183l5.523,15.773a11.176,11.176,0,0,1-6.164,4.5A20.95,20.95,0,0,1-235.137,454.257Zm1.529-48.784a21.1,21.1,0,0,1,5.719-.071,11.037,11.037,0,0,1,2.754,2.078c.071.072.132.158.2.232l-1.4,4.775h0l-3.8,12.966a3.916,3.916,0,0,0-.9-.108,3.9,3.9,0,0,0-1.15.177l-6.033-17.229a12.425,12.425,0,0,1,2.531-2.4C-235.009,405.722-234.316,405.578-233.608,405.473Zm12.671,38.1a23.459,23.459,0,0,1-1.547,3.693l-6.271-13.352a4.528,4.528,0,0,0,1.451-1.7l8.2,4A58.64,58.64,0,0,1-220.937,443.571Zm-18.646,6.28c-2.1-2.739-3.4-7.277-3.961-12.426l8.888-5a4.471,4.471,0,0,0,1.518,1.609Zm-4.057-23.906,8.47,2.975a5.048,5.048,0,0,0-.119,1.074,5.047,5.047,0,0,0,.15,1.206l-8.624,3.617A61.969,61.969,0,0,1-243.64,425.945Zm19.8-12.683,1.081-2.653a32,32,0,0,1,3.584,9.3c.193.864.345,1.735.471,2.609l-8.772,4.935A4.45,4.45,0,0,0-229,425.915l5.156-12.653Zm5.113,20.561-8.151-2.863a5.143,5.143,0,0,0,.093-.965,5.056,5.056,0,0,0-.179-1.332l8.532-3.578A43.292,43.292,0,0,1-218.732,433.823Zm-20.1-19.543h0l5.533,11.78a4.511,4.511,0,0,0-1.427,1.625l-8.651-4.222a40.265,40.265,0,0,1,3.212-12.022Z" transform="translate(-58.617 -69.274)" stroke="#000" stroke-miterlimit="10" stroke-width="2"/>
    <path id="Path_1375" data-name="Path 1375" d="M-205.505,418.359a23.06,23.06,0,0,0-2.735-4.453,28,28,0,0,0-3.691-4.04,26.616,26.616,0,0,0-2.45-1.951c-.608-.428-2.371-1.084-2.718-1.676,0,0-3-6.812-17.555-3.6,0,0-5.182-1.282-12.251,3.97s-10.448,17.329-9.461,26.184c0,0,.521,13.23,8.649,19.706a29.839,29.839,0,0,0,11.641,5.674,23.2,23.2,0,0,0,10.277.78c.422-.063.84-.138,1.255-.222.138-.028.273-.063.411-.094.274-.061.549-.121.819-.192.163-.043.322-.092.484-.138.241-.068.482-.135.72-.21.173-.055.342-.116.512-.175.222-.076.444-.151.663-.234.176-.066.349-.138.522-.208.21-.084.421-.169.628-.26.175-.076.348-.158.521-.238.2-.093.4-.187.6-.285.175-.088.347-.179.52-.27.19-.1.379-.2.566-.308s.345-.2.516-.3.361-.218.539-.331.34-.218.507-.329.344-.233.514-.352.327-.232.489-.352a26.609,26.609,0,0,0,5.785-4.729c3.375-3.745,4.94-9.149,5.727-14.027A31.01,31.01,0,0,0-205.505,418.359Zm-27.908,35.366a6.641,6.641,0,0,1-2.009-1.457l.183-.623h0l4.71-16.061a3.583,3.583,0,0,0,.882.114,3.585,3.585,0,0,0,1.074-.168l5.076,14.5a10.275,10.275,0,0,1-5.666,4.139A19.264,19.264,0,0,1-233.413,453.725Zm1.405-44.839a19.392,19.392,0,0,1,5.256-.065,10.137,10.137,0,0,1,2.531,1.91c.066.066.121.145.186.213l-1.287,4.388h0l-3.495,11.917a3.575,3.575,0,0,0-.83-.1,3.575,3.575,0,0,0-1.057.163l-5.545-15.836a11.459,11.459,0,0,1,2.327-2.205C-233.3,409.114-232.658,408.982-232.008,408.886Zm11.646,35.017a21.572,21.572,0,0,1-1.421,3.394l-5.764-12.272a4.161,4.161,0,0,0,1.333-1.561l7.539,3.679A53.807,53.807,0,0,1-220.362,443.9Zm-17.138,5.773c-1.933-2.517-3.126-6.689-3.641-11.421l8.169-4.6a4.109,4.109,0,0,0,1.395,1.479Zm-3.729-21.973,7.786,2.735a4.65,4.65,0,0,0-.109.987,4.638,4.638,0,0,0,.137,1.109l-7.926,3.324A57.144,57.144,0,0,1-241.229,427.7Zm18.2-11.658.994-2.438a29.435,29.435,0,0,1,3.295,8.55c.177.794.317,1.6.432,2.4l-8.063,4.536a4.1,4.1,0,0,0-1.4-1.417l4.738-11.63Zm4.7,18.9-7.492-2.632a4.637,4.637,0,0,0,.086-.887,4.648,4.648,0,0,0-.165-1.224l7.842-3.288A39.78,39.78,0,0,1-218.334,434.943Zm-18.472-17.962h0l5.085,10.827a4.15,4.15,0,0,0-1.312,1.494l-7.951-3.88a37.018,37.018,0,0,1,2.952-11.05Z" transform="translate(-60.024 -70.785)" fill="#ffd600" stroke="#fff35a" stroke-miterlimit="10" stroke-width="1"/>
    <path id="Path_1376" data-name="Path 1376" d="M-360.959,452.218c.039-.116.079-.231.118-.347.106-.323.2-.648.3-.976q.052-.176.1-.352.137-.5.258-1c.028-.118.056-.235.083-.354q.116-.506.216-1.018c.023-.116.044-.232.065-.348.063-.347.122-.7.173-1.048.016-.109.031-.219.046-.329.049-.36.093-.721.13-1.085.01-.1.018-.2.026-.3.034-.375.064-.752.084-1.131,0-.083.006-.166.01-.25.018-.4.031-.8.034-1.2,0-.055,0-.11,0-.165,0-.395,0-.79-.017-1.188a32.151,32.151,0,0,0-2.6-12.966,24.91,24.91,0,0,0-2.947-4.8,30.185,30.185,0,0,0-3.978-4.353,28.637,28.637,0,0,0-2.64-2.1c-.655-.461-2.555-1.168-2.928-1.807,0,0-3.228-7.341-18.917-3.877,0,0-5.583-1.382-13.2,4.278-6.948,5.162-10.575,16.435-10.354,25.619q-.021.577-.019,1.158c0,.055,0,.11,0,.165,0,.366.009.733.025,1.1.007.164.019.328.028.492.016.277.03.554.054.832.039.464.087.929.148,1.4a30.9,30.9,0,0,0,1.782,7.055c1.329,4.062,3.6,8.553,7.458,11.63a32.216,32.216,0,0,0,5.024,3.283,27.767,27.767,0,0,0,18.154,3.671c.479-.068.953-.148,1.423-.239.158-.031.312-.069.469-.1.31-.066.621-.131.927-.207.185-.046.366-.1.549-.148.273-.073.547-.145.817-.227.2-.059.387-.125.579-.188.253-.082.506-.163.755-.253.2-.071.394-.148.59-.223.239-.092.478-.183.714-.281.2-.082.394-.17.59-.257.227-.1.454-.2.678-.307.2-.094.393-.192.588-.29.216-.109.432-.219.645-.333.2-.105.39-.213.583-.323s.41-.235.613-.357.385-.235.576-.355.391-.25.583-.379.38-.256.568-.388.367-.263.549-.4.376-.28.561-.423c.076-.059.155-.117.23-.177a27.466,27.466,0,0,0,4.705-4.091,24.436,24.436,0,0,0,4.978-9.714Zm-30.341,14.33a7.632,7.632,0,0,1-3.606-2.676l5.294-17.142a4.267,4.267,0,0,0,1,.123,4.266,4.266,0,0,0,1.218-.181l5.861,15.9a10.868,10.868,0,0,1-5.869,4.181A22.989,22.989,0,0,1-391.3,466.549Zm.011-48.588a23.111,23.111,0,0,1,6.628.025,10.969,10.969,0,0,1,2.506,1.912l-1.547,5.009h0l-3.965,12.842a4.3,4.3,0,0,0-.942-.106,4.27,4.27,0,0,0-1.2.175l-5.947-16.129c.195-.289.394-.564.6-.823a12.009,12.009,0,0,1,3.022-2.763C-391.855,418.052-391.575,418-391.29,417.96Zm11.7,41.6-6.642-13.429a4.554,4.554,0,0,0,1.514-1.681l8.586,3.979a58.083,58.083,0,0,1-1.816,7.269A23.309,23.309,0,0,1-379.587,459.556Zm-17.5,1.355c-1.768-2.885-2.86-7.183-3.316-11.969l8.025-4.287a4.526,4.526,0,0,0,1.583,1.593Zm.356-34.228h0l5.771,11.667a4.54,4.54,0,0,0-1.489,1.609l-7.784-3.607a43.317,43.317,0,0,1,2.71-11.27Zm15.628-1.008,1.224-2.852a31.423,31.423,0,0,1,3.679,9.438c.19.854.341,1.714.465,2.577l-9.162,4.895a4.519,4.519,0,0,0-1.584-1.526l5.377-12.532Zm-19.357,12.991,7.545,2.517a4.759,4.759,0,0,0-.124,1.064,4.75,4.75,0,0,0,.156,1.195l-7.694,3.064A61.505,61.505,0,0,1-400.464,438.666Zm24.7,7.377-8.515-2.84a4.8,4.8,0,0,0,.1-.956,4.764,4.764,0,0,0-.186-1.318l8.9-3.544A42.872,42.872,0,0,1-375.761,446.043Z" transform="translate(0 -73.975)" stroke="#000" stroke-miterlimit="10" stroke-width="2"/>
    <path id="Path_1377" data-name="Path 1377" d="M-232.369,478.7s-18.234-4.032-20.5-21.711C-252.871,456.992-254.271,475.626-232.369,478.7Z" transform="translate(-61.388 -91.448)" fill="#c6a000"/>
    <path id="Path_1378" data-name="Path 1378" d="M-356.848,459.628l-5.315-5.315c.17-.5.332-1.009.477-1.518l.011-.035c.037-.107.074-.214.109-.322.1-.3.19-.6.278-.906.031-.108.063-.217.094-.327q.128-.459.24-.924c.026-.109.052-.218.078-.328q.108-.47.2-.946c.021-.107.041-.215.06-.322.059-.323.113-.646.161-.973.015-.1.028-.2.042-.3.045-.334.086-.67.12-1.007.009-.093.016-.186.025-.279.031-.349.059-.7.078-1.049,0-.077.006-.155.009-.232.016-.369.029-.738.031-1.11,0-.051,0-.1,0-.153,0-.367,0-.733-.016-1.1a29.843,29.843,0,0,0-2.415-12.033,23.121,23.121,0,0,0-2.735-4.453,27.964,27.964,0,0,0-3.692-4.04A26.605,26.605,0,0,0-371.457,420c-.608-.428-2.371-1.084-2.718-1.676,0,0-3-6.812-17.556-3.6,0,0-5.181-1.282-12.25,3.97-6.448,4.791-9.813,15.252-9.608,23.775q-.019.535-.018,1.075c0,.051,0,.1,0,.153,0,.34.009.681.024,1.022.006.152.017.3.026.457.015.257.028.514.05.772.036.431.081.862.137,1.3a28.72,28.72,0,0,0,1.655,6.547c1.233,3.769,3.337,7.938,6.921,10.793a29.852,29.852,0,0,0,4.662,3.047,25.767,25.767,0,0,0,16.846,3.407q.667-.095,1.321-.222c.146-.028.289-.064.435-.095.288-.061.576-.121.86-.191.172-.043.34-.092.509-.138.254-.068.508-.135.758-.21.181-.055.359-.116.538-.174.235-.076.469-.152.7-.235.184-.066.365-.137.548-.207.222-.085.444-.17.662-.26.185-.076.366-.158.548-.238.212-.093.422-.187.63-.286.183-.087.365-.178.546-.269.2-.1.4-.2.6-.309.182-.1.362-.2.541-.3s.381-.218.569-.331.358-.218.534-.33.362-.232.541-.352.353-.238.527-.36.34-.244.509-.369c.11-.081.218-.164.327-.246l3.972,3.972a7.277,7.277,0,0,0,10.26,0A7.277,7.277,0,0,0-356.848,459.628Zm-18.291-20.634a39.773,39.773,0,0,1-.272,8.035l-7.9-2.636a4.444,4.444,0,0,0,.09-.887,4.429,4.429,0,0,0-.173-1.224Zm-5.233-10.867,1.135-2.646a29.141,29.141,0,0,1,3.415,8.758c.177.792.317,1.591.432,2.393l-8.5,4.542a4.2,4.2,0,0,0-1.469-1.417l4.99-11.63Zm-13.039-4.464a11.157,11.157,0,0,1,2.8-2.564c.261-.046.521-.095.785-.131a21.439,21.439,0,0,1,6.151.023,10.213,10.213,0,0,1,2.326,1.774l-1.435,4.649-3.681,11.917a3.987,3.987,0,0,0-.874-.1,3.952,3.952,0,0,0-1.113.163l-5.518-14.968Q-393.7,424.025-393.411,423.664Zm-2.2,3.913.735,1.486,5.355,10.827a4.223,4.223,0,0,0-1.381,1.494l-7.224-3.348A40.2,40.2,0,0,1-395.61,427.577Zm-2.726,12.606,7,2.336a4.453,4.453,0,0,0-.115.987,4.43,4.43,0,0,0,.145,1.109l-7.14,2.843A57.157,57.157,0,0,1-398.336,440.184Zm.053,9.536,7.446-3.979a4.209,4.209,0,0,0,1.469,1.479l-5.838,13.607C-396.847,458.15-397.86,454.161-398.283,449.72Zm12.071,16.525a21.375,21.375,0,0,1-3.619-.185,7.085,7.085,0,0,1-3.347-2.484l4.913-15.909a3.965,3.965,0,0,0,.929.114,3.958,3.958,0,0,0,1.131-.168l5.439,14.751A10.081,10.081,0,0,1-386.212,466.245Zm8.774-10.26a21.626,21.626,0,0,1-1.523,3.584l-6.164-12.462a4.231,4.231,0,0,0,1.4-1.561l7.968,3.693A53.956,53.956,0,0,1-377.437,455.985Z" transform="translate(-1.24 -75.307)" fill="#ffd600" stroke="#fff35a" stroke-miterlimit="10" stroke-width="1"/>
    <path id="Path_1379" data-name="Path 1379" d="M-342.4,465.222s-5.671-5.86-6.49-6.49l1.512-3.591-.964-.685c2.267-8.657,2.773-20.582-7.33-28.913,0,0,4.948,41.957-21.1,49.319,0,0,2.263,1.158,6.867.167a29.79,29.79,0,0,0,12.634-5.333s4.285,6.3,8.7,6.238S-339.121,470.956-342.4,465.222Z" transform="translate(-15.026 -79.679)" fill="#c6a000" opacity="0.54"/>
    <path id="Path_1380" data-name="Path 1380" d="M-355.185,426.677s4.464,41.248-21.583,48.61c0,0,5.919,3.357,16.867-3.143a25.808,25.808,0,0,0,11.51-14.664C-345.723,448.744-344.325,435.633-355.185,426.677Z" transform="translate(-15.026 -80.103)" fill="#c6a000" opacity="0.14"/>
    <path id="Path_1381" data-name="Path 1381" d="M-282.407,423.947c-2.646-3.264-11.911-7.323-21.88-5.029S-310.2,431.27-310.2,431.27c.059,2.706,10.529,6.588,12.058,7.411a1.736,1.736,0,0,1,.611.675,62.782,62.782,0,0,1-12.745-2.456c-8.279-2.331-11.21-9.582-12.134-15.911,5.5-4.581,12.923-6.455,21.092-6.189,14.469.471,18.586-1.882,20.351-9.293s-6.7-14.234-18.939-13.176-27.409,5.323-34.468,25.175,4.235,32.556,4.235,32.556c14.028,12.969,37.055,8.381,44.467,0S-279.76,427.211-282.407,423.947Z" transform="translate(-30.024 -67.209)"/>
    <path id="Path_1382" data-name="Path 1382" d="M-283.436,426.3c-2.35-2.9-10.575-6.5-19.428-4.465s-5.248,10.967-5.248,10.967c.052,2.4,9.348,5.849,10.706,6.58a1.538,1.538,0,0,1,.543.6,55.722,55.722,0,0,1-11.317-2.18c-7.351-2.069-9.953-8.508-10.774-14.128,4.888-4.067,11.474-5.731,18.728-5.495,12.847.418,16.5-1.671,18.07-8.251s-5.953-12.638-16.816-11.7-24.337,4.726-30.6,22.352,3.76,28.906,3.76,28.906c12.456,11.516,32.9,7.442,39.482,0S-281.086,429.2-283.436,426.3Z" transform="translate(-31.917 -69.419)" fill="#ffd600" stroke="#fff35a" stroke-miterlimit="10" stroke-width="1"/>
    <path id="Path_1383" data-name="Path 1383" d="M-316.207,438.81s-5.579,4.025-7.539,12.9,1.836,14.364,8.912,17.137c0,0,9.291,3.716,15.969-2.427S-294.1,455.2-294.1,455.2s-17.443-.22-20.665-10.851A41.754,41.754,0,0,1-316.207,438.81Z" transform="translate(-34.678 -84.644)" fill="#e5bf23"/>
    <path id="Path_1384" data-name="Path 1384" d="M-141.746,484.408a6.155,6.155,0,0,0-4.995,7.132c.618,6.264-13.741,3.791-15.26,2.01s13.421-18.43,21.171-12.1-.472,3.387-.472,3.387" transform="translate(-95.362 -100.067)"/>
    <path id="Path_1385" data-name="Path 1385" d="M-199.262,413.386s5.213,41.636-20.834,49c0,0,8.263,5.059,24.5-8.312C-195.593,454.071-181.649,427.91-199.262,413.386Z" transform="translate(-73.661 -75.129)" fill="#c6a000" opacity="0.29"/>
    <path id="Path_1386" data-name="Path 1386" d="M-130.729,466.63c-.927-2.72-3.882-5.262-7.756-6.636a19.255,19.255,0,0,1,1.085-2.41,91.128,91.128,0,0,0,6.829-17.183,22.42,22.42,0,0,0-11.022-23.91c-1.218-.585-2.382-1.086-3.5-1.526l.023,0s-9.844-4.7-17.93-1.089a12.388,12.388,0,0,0-5.906,4.947s-2.607-6.079-8.043-6.9l-.032,0a11.653,11.653,0,0,0-4.818-.255c-3.9.329-7.25,2.419-7.081,9.46,0,0-.1.962-.109,2.792a93.17,93.17,0,0,0,1.561,15.817,24.881,24.881,0,0,0,1.578,6.253l.009.036s3.353,16.984,15.977,22.107c0,0,5.913,1.721,9.591-2.262s2.525-12.412,2.34-14.056l-.011-.093c-.076-.872-.191-1.735-.334-2.579a57.146,57.146,0,0,0-2.008-9.118c-.227-4.517,3.1-5.911,3.1-5.911,6.321-1.676,8.429,3.559,6.612,15.508a36.044,36.044,0,0,0-.188,10.356c-6.506,2.425-5.806,7.891-5.806,7.891,1.75,4.388,7.125,2.165,9.663,1.584a11.569,11.569,0,0,0,5.147,3.569c5.689,1.93,8.966-.3,10.094-1.316a1.722,1.722,0,0,0,.409-.406l.046-.054a5.353,5.353,0,0,0,.489-4.625Z" transform="translate(-85.3 -74.435)" stroke="#000" stroke-miterlimit="10" stroke-width="2"/>
    <path id="Path_1387" data-name="Path 1387" d="M-131.606,466.213c-.855-2.508-3.58-4.851-7.152-6.119a17.708,17.708,0,0,1,1-2.223,84,84,0,0,0,6.3-15.843,20.671,20.671,0,0,0-10.163-22.047c-1.123-.539-2.2-1-3.229-1.407l.021,0s-9.077-4.333-16.532-1a11.422,11.422,0,0,0-5.447,4.562s-2.4-5.605-7.416-6.359l-.029,0a10.739,10.739,0,0,0-4.442-.236c-3.6.3-6.685,2.23-6.529,8.722,0,0-.1.887-.1,2.574a85.862,85.862,0,0,0,1.44,14.584,22.928,22.928,0,0,0,1.454,5.766l.008.033s3.092,15.66,14.733,20.383c0,0,5.452,1.588,8.842-2.086s2.328-11.444,2.158-12.961l-.009-.085c-.071-.8-.177-1.6-.309-2.378a52.635,52.635,0,0,0-1.852-8.408,5.384,5.384,0,0,1,2.862-5.45c5.828-1.546,7.772,3.282,6.1,14.3a33.253,33.253,0,0,0-.174,9.549c-6,2.236-5.354,7.276-5.354,7.276,1.613,4.046,6.57,2,8.911,1.461a10.664,10.664,0,0,0,4.746,3.291c5.246,1.78,8.267-.273,9.307-1.213a1.586,1.586,0,0,0,.377-.375c.028-.031.043-.05.043-.05a4.936,4.936,0,0,0,.451-4.265Z" transform="translate(-86.671 -75.886)" fill="#ffd600" stroke="#fff35a" stroke-miterlimit="10" stroke-width="1"/>
    <path id="Path_1388" data-name="Path 1388" d="M-116.506,443.6a20.671,20.671,0,0,0-10.163-22.047c-1.123-.539-2.2-1-3.23-1.407-17.622-4.173-16.245,17.372-14.5,21.732.176.44.339.9.494,1.377a5.384,5.384,0,0,1,2.862-5.45c5.828-1.546,7.772,3.282,6.1,14.3s1.492,19.325,8.129,21.576,9.727-1.638,9.727-1.638c-7.223,3.6-9.841-4.877-5.709-12.6A84,84,0,0,0-116.506,443.6Z" transform="translate(-101.626 -77.461)" fill="#e5bf23"/>
    <path id="Path_1389" data-name="Path 1389" d="M-145.423,418.236l-1.586-.27s-13.806-5.518-19.808,4.831c0,0-2.762-6.952-8.741-7.177q-.118,0-.238-.006c-6.143-.048-8.269,1.8-8.695,4.678l-.84-.141s1.242-3.994,4.55-4.82,7.6-.915,11.247,2.2c0,0,.921.615,2.788,3.592,0,0,3.686-5.2,10.113-5.269,0,0,3.875-.793,11.6,1.977Z" transform="translate(-86.672 -75.673)" fill="#fcf7ef"/>
    <path id="Path_1390" data-name="Path 1390" d="M-214.019,406.727l.173-.882s-2.056-3.994-8.341-4.49-9.522.709-9.522.709-8.854-1.713-16.831,8.548l-.2,1.848a21.686,21.686,0,0,1,10.3-8.719s4.135-1.843,6.805-.827C-231.637,402.915-218.894,399.032-214.019,406.727Z" transform="translate(-62.939 -70.581)" fill="#fcf7ef"/>
    <path id="Path_1391" data-name="Path 1391" d="M-328.878,422.166l-.52-.9s.284-2.434,4.584-9.663a27.637,27.637,0,0,1,10.561-9.664,41.9,41.9,0,0,1,16.445-4.395,23.49,23.49,0,0,1,11.232,2.111v.788a19.767,19.767,0,0,0-9.388-2.143c-5.561.074-15.626,1.733-22.147,7.152,0,0-3.592,1.7-8.318,10.4C-326.429,415.85-328.87,420.827-328.878,422.166Z" transform="translate(-32.755 -69.182)" fill="#fcf7ef"/>
    <path id="Path_1392" data-name="Path 1392" d="M-361.111,418.8l.245-1.123s-3.382-6.983-17.957-3.592v.8S-365.089,411.42-361.111,418.8Z" transform="translate(-14.257 -75.043)" fill="#fcf7ef"/>
    <path id="Path_1393" data-name="Path 1393" d="M-293.581,438.581l-1.079.661a6.208,6.208,0,0,1,4.112-3.733s2.957-1.5,9.12-.992a28.2,28.2,0,0,1,10.065,3.4l-.359.636s-4.839-3.9-13.888-3.261C-285.61,435.3-291.533,435.462-293.581,438.581Z" transform="translate(-45.755 -82.998)" fill="#fcf7ef"/>
    <path id="Path_1394" data-name="Path 1394" d="M-103.757,497.056l-1.561.444s2.955-1.673.521-5.808a11.321,11.321,0,0,0-6.3-4.691l.556-.578s5.411,1.748,7.136,6.309A5.261,5.261,0,0,1-103.757,497.056Z" transform="translate(-114.454 -102.463)" fill="#fcf7ef"/>
    <path id="Path_1395" data-name="Path 1395" d="M-294.084,455.2s1.99,5.186-4.763,11.218-15.978,2.792-18.136,1.435-8.779-4.821-6.9-15.4c0,0,.41-7.316,7.69-13.649,0,0-7.29,6.8-7.29,14.932,0,0-.743,8.13,4.268,11.719s12.712,6.427,21.218-.8C-297.993,464.659-292.869,460.635-294.084,455.2Z" transform="translate(-34.695 -84.644)" fill="#d3b01c"/>
    <path id="Path_1396" data-name="Path 1396" d="M-130.476,420.042s-7.689-1.818-10.761,3.995-1.27,14.893-1.27,14.893a5.143,5.143,0,0,0-1.464,4.142s-1.991-2.86-1.259-11.09c0,0,.12-7.854,6.1-11.208C-139.133,420.774-136.208,418.883-130.476,420.042Z" transform="translate(-101.619 -77.479)" fill="#c6a000"/>
    <path id="Path_1397" data-name="Path 1397" d="M-105.421,481.917a4.882,4.882,0,0,1-4.522,1.3c-2.89-.567-6.734-5.671-1.63-14.554s7.762-18.034,6.616-22.809c0,0,1.213,2.106.165,7.567s-4.731,12.713-4.731,12.713-4.71,8.132-3.466,11.572C-112.989,477.709-112.091,484.96-105.421,481.917Z" transform="translate(-113.341 -87.281)" fill="#fe8" opacity="0.42"/>
    <path id="Path_1398" data-name="Path 1398" d="M-128.514,420.13s-10.527-3.079-10.811,7.6c0,0,.094,4.257,6.049,4.633s11.516,2.868,8.877,11.309-10.875,36.07,8.27,28.777a7.837,7.837,0,0,1-5.649,1.91c-3.528-.193-7.094-1.275-9.911-6.168,0,0-3.025-4.3-2.164-13.758l.549-4.26s1.716-10.031-2.531-12.268c0,0-3.479-1.417-5.281.985,0,0-2.1-11.314,1.853-15.833A9.746,9.746,0,0,1-128.514,420.13Z" transform="translate(-103.01 -77.441)" fill="#c6a000" opacity="0.29"/>
    <path id="Path_1399" data-name="Path 1399" d="M-112.392,493.241s2.693,8.069,7.86,2.717a3.678,3.678,0,0,1-1.166,4.05s-3.9,1.836-5.9-1.846A9.416,9.416,0,0,1-112.392,493.241Z" transform="translate(-113.955 -105.014)" fill="#c6a000" opacity="0.29"/>
    <path id="Path_1400" data-name="Path 1400" d="M-105.55,499.843a4.279,4.279,0,0,1-3.688.42c-1.822-.8-3.632-3.134-3.176-7.022C-112.413,493.241-112.753,501.828-105.55,499.843Z" transform="translate(-113.934 -105.014)" fill="#c6a000"/>
    <path id="Path_1401" data-name="Path 1401" d="M-130.06,496.458s-6.507,3.895-6.649-.784c0,0-.756,1.678.379,2.67s2.386,1.82,7.632.189C-128.7,498.533-129.972,496.613-130.06,496.458Z" transform="translate(-104.775 -105.925)" fill="#c6a000" opacity="0.29"/>
    <path id="Path_1402" data-name="Path 1402" d="M-165.974,427.557s-.161,12.675,5.1,22.471,2.173,17.432-2.552,18.13-14.554-5.948-19.658-25.046a46.236,46.236,0,0,0,1.229,6.849c.661,1.792.8,2.075.8,2.075s3.166,10.472,4.915,11.781,3.5,6.009,9.451,7.972c0,0,2.741,1.063,6.852-.638a8.233,8.233,0,0,0,3.355-4.749,25.1,25.1,0,0,0,.5-5.174,69.129,69.129,0,0,0-.922-8.79c-.4-1.417-1.491-7.027-1.491-7.027S-163.753,444.616-165.974,427.557Z" transform="translate(-87.513 -80.432)" fill="#c6a000" opacity="0.29"/>
    <path id="Path_1403" data-name="Path 1403" d="M-234.052,403.835s-14.838.189-17.556,24.835a10.228,10.228,0,0,0-3.588-3s.814-7.122,4.037-12.287C-251.159,413.38-244.283,402.323-234.052,403.835Z" transform="translate(-60.524 -71.501)" fill="#fe8" opacity="0.42"/>
    <path id="Path_1404" data-name="Path 1404" d="M-209.687,407.024s-13.265-.258-16.908,2.292-7.883,8.888-7.653,27.078c0,0,.742,9.59,4.438,14.618,0,0-16.1-24.75,2.873-47.622C-226.937,403.391-213.1,399.82-209.687,407.024Z" transform="translate(-67.639 -71.057)" fill="#c6a000" opacity="0.29"/>
    <path id="Path_1405" data-name="Path 1405" d="M-366.5,418.906s-13.265-.258-16.908,2.292-7.884,8.888-7.654,27.078c0,0,.743,9.59,4.438,14.618,0,0-16.1-24.75,2.873-47.622C-383.749,415.273-369.91,411.7-366.5,418.906Z" transform="translate(-8.953 -75.504)" fill="#c6a000" opacity="0.29"/>
    <path id="Path_1406" data-name="Path 1406" d="M-278.387,441.439s-1.207,11.775-11.029,15.3c0,0,1.331,8.947-10.326,13.673,0,0-7.74,1.549-12.728-1.071,0,0,2.583,2.646,12.255,3.119,0,0,9.073.41,16.681-3.8,0,0,4.521-2.6,6.144-6.191a23.524,23.524,0,0,0,2.6-10.334C-274.588,447.528-275.494,441.887-278.387,441.439Z" transform="translate(-39.09 -85.628)" fill="#c6a000" opacity="0.29"/>
    <path id="Path_1407" data-name="Path 1407" d="M-293.187,439.593s18.618-1.418,18.713,8.837a23.917,23.917,0,0,0,3.3-9.286,22.964,22.964,0,0,0-13.274-3.1S-291.06,436.049-293.187,439.593Z" transform="translate(-46.306 -83.585)" fill="#fe8" opacity="0.42"/>
    <path id="Path_1408" data-name="Path 1408" d="M-285.8,465.9s-.115,15.372-17,14.081C-302.8,479.976-287.568,481.773-285.8,465.9Z" transform="translate(-42.709 -94.78)" fill="#c6a000"/>
    <path id="Path_1409" data-name="Path 1409" d="M-316.21,438.81l1.089,3.816s-12.46,9.421-5.442,21.641c0,0,2.546,5.632,12.374,4.862s10.773-14.19,10.773-14.19l3.311.264s1.532,5.786-4.763,11.218a16.066,16.066,0,0,1-14.849,2.78s-11.034-2.505-10.535-13.677C-324.252,455.525-324.861,445.3-316.21,438.81Z" transform="translate(-34.674 -84.644)" fill="#c6a000" opacity="0.29"/>
    <path id="Path_1410" data-name="Path 1410" d="M-311.391,426.632s5.524-26.212,31.975-19.155c0,0,5.634,1.93,3.39,8.254a6.837,6.837,0,0,1-3.811,3.844c-3.151,1.48-9.195,1.417-9.195,1.417S-303.691,418.82-311.391,426.632Z" transform="translate(-39.494 -72.466)" fill="#fe8" opacity="0.42"/>
    <path id="Path_1411" data-name="Path 1411" d="M-257.355,414.931s3.132-6.045-3.61-12.723C-260.965,402.208-252.627,405.46-257.355,414.931Z" transform="translate(-58.365 -70.945)" fill="#fe8" opacity="0.67"/>
    <path id="Path_1412" data-name="Path 1412" d="M-326.129,448.632s-8.916-12.555.535-31.682S-287.285,401-287.285,401s-7.1-5.6-26.672,1.892c0,0-9.6,2.77-15.63,19.829C-329.587,422.726-335.171,434.512-326.129,448.632Z" transform="translate(-32.046 -69.742)" fill="#c6a000" opacity="0.29"/>
    <path id="Path_1413" data-name="Path 1413" d="M-391.709,415.907s-19.344.693-17.327,36.552c0,0,1.1,15.332,20.9,19.547,0,0-9.007-1.282-15.67-6.433s-10.207-17.33-9.309-21c0,0-.709-10,4.537-18.838C-408.58,425.736-403.24,415.2-391.709,415.907Z" transform="translate(-1.372 -76.059)" fill="#fe8" opacity="0.42"/>
    <path id="Path_1414" data-name="Path 1414" d="M-337.224,478.582s-4.52,9.2-8.38,10.963c0,0,3.985,4.978,6.064,5.734s6.994,1.89,9.64-4.537c0,0-5.954,6.049-8.978,3.214S-337.224,478.582-337.224,478.582Z" transform="translate(-26.69 -99.528)" fill="#c6a000" opacity="0.51"/>
    <path id="Path_1415" data-name="Path 1415" d="M-347.929,460.966s-6.562-9.35-1.647-24.976c0,0-3.654,3.78-3.528,25.581,0,0,.378,14.492-22.431,17.265,0,0,7.972,3.024,18.729-5.23A42.29,42.29,0,0,0-347.929,460.966Z" transform="translate(-15.488 -83.588)" fill="#e5bf23" opacity="0.35"/>
  </g>
</svg>
