<svg xmlns="http://www.w3.org/2000/svg" width="50" height="50" viewBox="0 0 50 50">
  <g id="manual" transform="translate(-57 -13898)">
    <rect id="Rectangle_1931" data-name="Rectangle 1931" width="50" height="50" transform="translate(57 13898)" fill="none"/>
    <g id="svgexport-10_2_" data-name="svgexport-10 (2)" transform="translate(64.902 13905.901)">
      <path id="Path_1367" data-name="Path 1367" d="M34.2,3.99a3.99,3.99,0,1,0-5.7,3.605v5.514a2.28,2.28,0,0,1-2.28,2.28H20.7a4.005,4.005,0,0,0-1.9-1.9v-5.9a3.99,3.99,0,1,0-3.42,0v5.9a4.005,4.005,0,0,0-1.9,1.9H5.7V7.595a3.99,3.99,0,1,0-3.42,0V26.6a3.99,3.99,0,1,0,3.42,0V18.809h7.794a4.005,4.005,0,0,0,1.9,1.9v5.9a3.99,3.99,0,1,0,3.42,0V20.7a4.005,4.005,0,0,0,1.9-1.9h5.514a5.7,5.7,0,0,0,5.7-5.7V7.595A3.99,3.99,0,0,0,34.2,3.99Z" transform="translate(0 0)" fill="#fff"/>
    </g>
  </g>
</svg>
