<svg xmlns="http://www.w3.org/2000/svg" width="58.334" height="46.798" viewBox="0 0 58.334 46.798">
  <g id="Mazda_icon" transform="translate(-1248 -1630)">
    <path id="Mazda_icon-2" data-name="Mazda_icon" d="M1921.762,1694.27c3.393.318,7.294.394,11.08,1.095,10.259,1.9,16.149,8.433,17.243,18.833a28.075,28.075,0,0,1-.6,9.939c-1.848,7.225-6.2,12.29-13.363,14.552a49.876,49.876,0,0,1-29.33.344c-7.838-2.26-12.534-7.7-14.17-15.695a27.657,27.657,0,0,1,.513-14.258c2.776-8.569,9.126-12.8,17.71-14C1914.288,1694.6,1917.79,1694.551,1921.762,1694.27Zm-.688,34.605c-.762-1.441-1.315-2.422-1.808-3.432a13.61,13.61,0,0,0-6.65-6.9c-4.166-1.792-8.541-3.1-12.957-4.659a23.361,23.361,0,0,0,.3,8.506c1.547,6.9,5.235,11.91,12.524,13.4a41.513,41.513,0,0,0,16.875.03,17.553,17.553,0,0,0,12.981-21.927c-3.085,1.011-6.173,2.01-9.253,3.035a16.2,16.2,0,0,0-10.548,9.771A14.059,14.059,0,0,1,1921.074,1728.875Zm18.962-22.681a17.717,17.717,0,0,0-8.916-6.747,32.279,32.279,0,0,0-16.994-.665,27.4,27.4,0,0,0-6.677,2.544,13.185,13.185,0,0,0-5.061,4.921c.906.531,1.6,1.011,2.347,1.359,1.758.812,3.525,1.611,5.325,2.323,4.217,1.668,7.819,4.084,10.219,8.054a5.1,5.1,0,0,0,.974.911,8.52,8.52,0,0,0,.7-.853,17.957,17.957,0,0,1,9.058-7.666q2.918-1.153,5.782-2.442C1937.829,1707.468,1938.8,1706.863,1940.036,1706.194Z" transform="translate(-643.938 -64.27)" fill="#fff"/>
  </g>
</svg>
