<svg xmlns="http://www.w3.org/2000/svg" width="51" height="51" viewBox="0 0 51 51">
  <g id="message_icon" transform="translate(0 0)">
    <rect id="Rectangle_1958" data-name="Rectangle 1958" width="51" height="51" transform="translate(0 0)" fill="none"/>
    <g id="svgexport-20" transform="translate(6.514 7.111)">
      <path id="Layer_3" data-name="Layer 3" d="M32.548,4H5.423A4.428,4.428,0,0,0,1,8.423V28.354a4.428,4.428,0,0,0,4.423,4.423H32.548a4.428,4.428,0,0,0,4.423-4.423V8.423A4.428,4.428,0,0,0,32.548,4ZM5.423,6.4H32.548a2.028,2.028,0,0,1,2.025,2.025v.917L18.986,19.361,3.4,9.341V8.423A2.028,2.028,0,0,1,5.423,6.4ZM32.548,30.379H5.423A2.028,2.028,0,0,1,3.4,28.354V12.192l14.939,9.6a1.2,1.2,0,0,0,1.3,0l14.939-9.6V28.354a2.028,2.028,0,0,1-2.025,2.025Z" transform="translate(0)" fill="#ffd600"/>
    </g>
  </g>
</svg>
