<svg xmlns="http://www.w3.org/2000/svg" width="113.946" height="45.063" viewBox="0 0 113.946 45.063">
  <g id="Micro_car_" data-name="Micro_car " transform="translate(-1221 -1156)">
    <g id="Micro_car_icon" data-name="Micro car icon" transform="translate(1221 1156)">
      <path id="Path_306" data-name="Path 306" d="M95.438,96.289c31.466,0,56.973.492,56.973,1.1s-25.507,1.1-56.973,1.1S38.465,98,38.465,97.39s25.508-1.1,56.973-1.1Z" transform="translate(-38.465 -53.427)" fill="#b3b3b3" fill-rule="evenodd"/>
      <path id="Path_308" data-name="Path 308" d="M135.93,82.688c1.947-.333,2.136-4.978,2.122-7.713-.007-1.527.354-2.048-1.376-2.274-.541-.071-1.088.015-1.1-.164a76.858,76.858,0,0,0-1.516-12.189c-1.058-4.8-5.318-10.2-7.2-13.265-1.027-1.672.2-2.47-.535-2.526-7.524-.58-18.861.07-26.98-.187a25.151,25.151,0,0,0-9.095,1.276,17.04,17.04,0,0,0-3.856,1.8C79.636,51.7,72.232,58.381,68.907,60.67c-1.634,1.125-5.572,5.022-6.369,6.762-1.247,2.724-.233,5.652-.3,5.817-.953.078-1.184.958-1.167,2.146a17.41,17.41,0,0,0,.373,5.043c.383,1.361-1.85,2.15-.4,2.2l2.682.088c1.3-.247,1.7-.176,1.59-1.918-.038-.6-.048-1.21-.048-1.841a11.223,11.223,0,0,1,22.445,0c0,.867,0,1.711-.059,2.521-.194,2.763-1.054,2.475,1.6,2.612l19.985-.049c1.929-.235,2.445,0,2.178-2.622a24.424,24.424,0,0,1-.1-2.462,11.222,11.222,0,1,1,22.445,0c0,.558,0,1.1-.019,1.631-.072,2.128-.541,2.559,2.184,2.092ZM85.8,60.8a9.036,9.036,0,0,0,.406-1.951c.09-1.5-3.2-1.609-4.895-1.5,3.292-3.076,6.006-7.983,10.38-9.5,3.606-1.207,16.411-.817,20.276-.9.672-.009,1.055.689,1.3,1.2,1.361,2.884,2.724,7.853,2.493,10.492-.11,1.253-.749,1.486-2.019,1.5-5.019.041-28,.9-27.937.66Zm36.743,9.535a8.632,8.632,0,1,1-8.632,8.632,8.633,8.633,0,0,1,8.632-8.632Zm-46.053,0a8.632,8.632,0,1,1-8.632,8.632,8.633,8.633,0,0,1,8.632-8.632Zm43.4-23.437c-.8.049-2.193-.049-2.711.025-1.025.147-.53.649-.172,1.8,1.158,3.742,2.079,8.176,3.225,9.664,1.068,1.387,1.412,1,4.484,1.218.512.036,3.206.007,4.028-.068,1.668-.153,1.872-.505,1.276-2.2-1.226-3.49-5.777-10.428-10.13-10.445Z" transform="translate(-42.339 -44.308)" fill="#fff" fill-rule="evenodd"/>
    </g>
  </g>
</svg>
