<svg xmlns="http://www.w3.org/2000/svg" width="47" height="47" viewBox="0 0 47 47">
  <g id="Group_2471" data-name="Group 2471" transform="translate(-11215 -10427)">
    <rect id="Rectangle_2125" data-name="Rectangle 2125" width="47" height="47" transform="translate(11215 10427)" fill="none"/>
    <g id="svgexport-17_15_" data-name="svgexport-17 (15)" transform="translate(11218.255 10436.581)">
      <path id="Path_5131" data-name="Path 5131" d="M38.278,20.578l-2.374-1.9-.028-.025,2.21-.442a.631.631,0,0,0,.508-.62v-1.9a.633.633,0,0,0-.633-.633H34.8a.633.633,0,0,0-.633.633V16.8l-.044-.059a.614.614,0,0,0-.2-.271,9.339,9.339,0,0,1-.86-1.446l-1.069-2.352A4.894,4.894,0,0,0,27.838,10H12.654A4.894,4.894,0,0,0,8.5,12.675L7.431,15.026a9.343,9.343,0,0,1-.86,1.446.618.618,0,0,0-.2.271l-.044.059V15.694a.633.633,0,0,0-.633-.633H2.531a.633.633,0,0,0-.633.633v1.9a.632.632,0,0,0,.509.62l2.21.442-.028.025-2.374,1.9A6.58,6.58,0,0,0,0,25.184V35.94a1.9,1.9,0,0,0,1.9,1.9H6.959a1.9,1.9,0,0,0,1.9-1.9V34.675H31.634V35.94a1.9,1.9,0,0,0,1.9,1.9h5.061a1.9,1.9,0,0,0,1.9-1.9V25.184A6.58,6.58,0,0,0,38.278,20.578ZM32.529,33.409l-1.451-1.451a4.109,4.109,0,0,0-2.607-1.08H11.7A4.109,4.109,0,0,0,9.1,31.958L7.647,33.409H3.163a1.9,1.9,0,0,1-1.9-1.9V28.348H1.9v.633a2.533,2.533,0,0,0,2.531,2.531h1.9a.633.633,0,1,0,0-1.265h-1.9A1.267,1.267,0,0,1,3.163,28.98v-.633H4.429a2.925,2.925,0,0,1,1.713.709.633.633,0,1,0,.895-.895,4.108,4.108,0,0,0-2.607-1.08H1.265v-1.9a3.645,3.645,0,0,1,.085-.711,2.406,2.406,0,0,0,1.813.711H8.225A.633.633,0,0,0,8.672,25l.818-.818.818.818a.631.631,0,0,0,.447.185h7.33L19.8,26.9a.631.631,0,0,0,.895,0l1.713-1.713h7.33A.631.631,0,0,0,30.183,25L31,24.181l.818.818a.631.631,0,0,0,.447.185h5.061a2.406,2.406,0,0,0,1.813-.711,3.645,3.645,0,0,1,.085.711v1.9H36.063a4.109,4.109,0,0,0-2.607,1.08.633.633,0,0,0,.895.895,2.925,2.925,0,0,1,1.713-.709h1.265v.633a1.267,1.267,0,0,1-1.265,1.265h-1.9a.633.633,0,0,0,0,1.265h1.9a2.533,2.533,0,0,0,2.531-2.531v-.633h.633v3.163a1.9,1.9,0,0,1-1.9,1.9Zm-1.789,0H9.436l.556-.556a2.925,2.925,0,0,1,1.713-.709H28.471a2.925,2.925,0,0,1,1.713.709ZM7.314,17.592H33.178a12.22,12.22,0,0,0,1.935,2.075l.761.609L31.4,22.066h0a.633.633,0,0,0-.211.139l-.633.633-1.081,1.081h-7.33a.631.631,0,0,0-.447.185l-1.451,1.451L18.8,24.1a.631.631,0,0,0-.447-.185h-7.33l-1.08-1.08L9.3,22.206a.633.633,0,0,0-.211-.139h0l-4.475-1.79.761-.609a12.273,12.273,0,0,0,1.935-2.076Zm31.242,5.327a1.125,1.125,0,0,1-1.228,1h-4.8l-.633-.633.094-.094,5.02-2.008.477.382A4.553,4.553,0,0,1,38.556,22.919ZM35.43,16.327h1.9v.747l-1.9.38ZM8.582,15.55,9.651,13.2a3.645,3.645,0,0,1,3-1.933H27.838a3.644,3.644,0,0,1,3,1.933l1.069,2.352a8.55,8.55,0,0,0,.415.777H8.167a8.4,8.4,0,0,0,.415-.777Zm-5.419.777h1.9v1.126l-1.9-.38ZM3,21.567l.477-.382L8.5,23.193l.094.094-.633.633h-4.8a1.125,1.125,0,0,1-1.228-1A4.551,4.551,0,0,1,3,21.567ZM6.959,36.573H1.9a.634.634,0,0,1-.633-.633V34.026a3.134,3.134,0,0,0,1.9.648H7.592V35.94A.634.634,0,0,1,6.959,36.573Zm31.634,0H33.532a.634.634,0,0,1-.633-.633V34.675h4.429a3.134,3.134,0,0,0,1.9-.649V35.94A.634.634,0,0,1,38.593,36.573Z" transform="translate(0 -10)" fill="#2f2f2f"/>
    </g>
  </g>
</svg>
