<svg xmlns="http://www.w3.org/2000/svg" width="130" height="100" viewBox="0 0 130 100">
  <g id="Group_1169" data-name="Group 1169" transform="translate(-1931 1770)">
    <rect id="Rectangle_1891" data-name="Rectangle 1891" width="130" height="100" transform="translate(1931 -1770)" fill="none"/>
    <g id="Group_1166" data-name="Group 1166" transform="translate(1345.077 -2635.208)">
      <g id="Component_3_1" data-name="Component 3 – 1" transform="translate(604.01 881.763)">
        <path id="Path_1249" data-name="Path 1249" d="M142.88,303.284a.052.052,0,1,0-.1,0,25.132,25.132,0,0,1-1.243,6.136,21.267,21.267,0,0,1-3.27,5.417,18.353,18.353,0,0,1-4.372,3.906,8.9,8.9,0,0,1-4.974,1.065.11.11,0,0,0-.072.027,19.857,19.857,0,0,1-4.307-.025,11.632,11.632,0,0,1-4-2.328,10.4,10.4,0,0,1-3.511-3.981,12.523,12.523,0,0,0-1.157-1.788,18.033,18.033,0,0,0-1.029-1.6,18.532,18.532,0,0,1-1.25-5.732,24.75,24.75,0,0,1,.545-7.514,15,15,0,0,1,2.543-5.932c1.244-1.736,2.83-3.154,4.159-4.809a.1.1,0,0,0-.145-.145,36.824,36.824,0,0,0-4.256,4.81,14.866,14.866,0,0,0-2.6,6.262,26.114,26.114,0,0,0-.453,7.584c.12,1.14.34,2.287.544,3.416a6.568,6.568,0,0,0,.929,2.59,9.545,9.545,0,0,0,.635,1.283c.5.822,1.131,1.547,1.667,2.339a13.6,13.6,0,0,0,3.246,3.445,12.7,12.7,0,0,0,4.064,2.351,8.763,8.763,0,0,0,2.474.122,12.114,12.114,0,0,0,1.972-.136,4.147,4.147,0,0,0,2.025-.02,9.4,9.4,0,0,0,2.49-.7,11.072,11.072,0,0,0,2.436-1.684,16.381,16.381,0,0,0,2.444-2.412,33.024,33.024,0,0,0,3.3-5.511,13.785,13.785,0,0,0,1.273-6.434Z" transform="translate(-113.286 -253.326)" fill="#fff" stroke="#fff" stroke-width="0.5"/>
        <path id="Path_1250" data-name="Path 1250" d="M185.934,341.259c0-.01-.02,0-.016,0a23.037,23.037,0,0,1,1.209,5.367,26.994,26.994,0,0,1-.289,5.422,19.694,19.694,0,0,1-1.5,5.654,11.371,11.371,0,0,1-2.662,3.243.058.058,0,0,0-.023.01,2.145,2.145,0,0,0-.174.13.42.42,0,0,0-.109.117,8.99,8.99,0,0,1-7.724,2.36,10.16,10.16,0,0,1-4.4-2.389,18.123,18.123,0,0,1-2.707-3.555.036.036,0,0,0-.062.036,11.126,11.126,0,0,0,7.349,6.162,7.212,7.212,0,0,0,4.611-.579,10.029,10.029,0,0,0,3.821-2.6,12.6,12.6,0,0,0,3.656-8.048,20.243,20.243,0,0,0-.982-11.328Z" transform="translate(-159.627 -300.596)" fill="#fff" stroke="#fff" stroke-width="0.5"/>
        <path id="Path_1251" data-name="Path 1251" d="M276.227,472.971" transform="translate(-252.587 -413.188)" fill="none" stroke="#fff" stroke-linecap="round" stroke-linejoin="round" stroke-width="0.5"/>
        <g id="Group_345" data-name="Group 345" transform="translate(5.994 42.428)">
          <path id="Path_1252" data-name="Path 1252" d="M163.129,353.442c-.032.1-.062.194-.093.289.035-.1.069-.191.107-.289C163.152,353.437,163.137,353.433,163.129,353.442Z" transform="translate(-161.827 -353.437)" fill="#fff" stroke="#fff" stroke-width="0.5"/>
          <path id="Path_1253" data-name="Path 1253" d="M155.793,359.949a26.5,26.5,0,0,1,1.052-4.485A19.432,19.432,0,0,0,155.793,359.949Z" transform="translate(-155.63 -355.175)" fill="#fff" stroke="#fff" stroke-width="0.5"/>
          <path id="Path_1254" data-name="Path 1254" d="M155.1,391.964a14.5,14.5,0,0,1-.4-3.651,18.518,18.518,0,0,1,.119-1.994,18.235,18.235,0,0,0-.161,1.994,14.511,14.511,0,0,0,.328,3.43,13.4,13.4,0,0,0,1.289,3.147c0,.012.026,0,.02-.009a22.571,22.571,0,0,1-1.2-2.917Z" transform="translate(-154.655 -381.547)" fill="#fff" stroke="#fff" stroke-width="0.5"/>
        </g>
        <path id="Path_1255" data-name="Path 1255" d="M170.036,262.52a13.832,13.832,0,0,0-3.053-.114,10.092,10.092,0,0,0-2.749.415,18.6,18.6,0,0,0-4.517,2.4.8.8,0,0,0-.352.19c-.308.308.059.655.389.618a.032.032,0,0,0,.009-.062q-.379-.512.025-.554a2.954,2.954,0,0,1,.443-.067c.21-.022.421-.025.631-.033a9.7,9.7,0,0,1,2.542.269c1.137.249,2.789.952,3.851.182.075-.054.033-.188-.067-.158a6.759,6.759,0,0,1-3.472-.2,11.7,11.7,0,0,0-2.944-.278c-.172.01-.4,0-.629.023,1.351-.558,2.581-1.4,3.971-1.892,1.943-.681,3.941-.2,5.914-.534a.107.107,0,0,0,.007-.2Z" transform="translate(-152.593 -233.169)" fill="#fff" stroke="#fff" stroke-width="0.5"/>
        <path id="Path_1256" data-name="Path 1256" d="M243.079,232.972a14.8,14.8,0,0,0-1.312,2.668c-.2.476-.723,1.343-.613,1.881,0,.014.022.013.029,0a10.093,10.093,0,0,0,.979-2.012q.532-1.24,1.02-2.5C243.208,232.953,243.108,232.921,243.079,232.972Z" transform="translate(-222.592 -208.01)" fill="#fff" stroke="#fff" stroke-width="0.5"/>
        <path id="Path_1257" data-name="Path 1257" d="M227.542,282.978a4.806,4.806,0,0,0-3.327-2.106,6,6,0,0,0-4.243.169.02.02,0,0,0,.016.038,7.024,7.024,0,0,1,4.1.266,10.8,10.8,0,0,1,3.3,1.791C227.487,283.2,227.6,283.076,227.542,282.978Z" transform="translate(-204.495 -248.718)" fill="#fff" stroke="#fff" stroke-width="0.5"/>
        <path id="Path_1258" data-name="Path 1258" d="M227.828,380.022c-1.364-1.141-2.649.557-2.854,1.814-.239,1.461,1.058,3.355,2.653,2.529.059-.03.017-.116-.043-.1a1.776,1.776,0,0,1-1.881-.446,2.442,2.442,0,0,1-.518-2.122,2.4,2.4,0,0,1,1.3-1.793c.47-.194.878.207,1.331.145A.013.013,0,0,0,227.828,380.022Z" transform="translate(-208.75 -333.415)" fill="#fff" stroke="#fff" stroke-width="0.5"/>
        <path id="Path_1259" data-name="Path 1259" d="M356.018,203.977a.906.906,0,0,0-.347-.587.071.071,0,0,0,0-.126,14.5,14.5,0,0,0-1.535-.579,3.256,3.256,0,0,0-1.591-.313.009.009,0,0,0,0,.017c.54.244,1.118.4,1.662.645a2.921,2.921,0,0,0,1.406.365,1.079,1.079,0,0,1,.262.593,2.315,2.315,0,0,1-.145.678.052.052,0,0,0,.087.051A.751.751,0,0,0,356.018,203.977Z" transform="translate(-317.824 -181.857)" fill="#fff" stroke="#fff" stroke-width="0.5"/>
        <path id="Path_1260" data-name="Path 1260" d="M361.361,219.487c-.279-.068-.579.113-.849.194-.411.123-.815.256-1.214.414a.009.009,0,1,0,0,.017,12.509,12.509,0,0,0,1.266-.224c.279-.071.639-.1.813-.347a.036.036,0,0,0-.016-.054Z" transform="translate(-323.595 -196.491)" fill="#fff" stroke="#fff" stroke-width="0.5"/>
        <path id="Path_1261" data-name="Path 1261" d="M245.183,229.643v0Z" transform="translate(-226.044 -205.185)" fill="#fff" stroke="#fff" stroke-width="0.5"/>
        <path id="Path_1262" data-name="Path 1262" d="M231.469,210.147c-.1-.013-.136.107-.1.178.259.531.687.92.328,1.547a1.013,1.013,0,0,1-1.194.412c-.987-.289-.859-2.344.22-2.153a.012.012,0,0,0,.012-.019c-.511-.5-1.013.34-1.182.751a1.4,1.4,0,0,0,.6,1.793,1.455,1.455,0,0,0,1.913-.446C232.5,211.61,232.334,210.261,231.469,210.147Z" transform="translate(-212.585 -188.359)" fill="#fff" stroke="#fff" stroke-width="0.5"/>
        <path id="Path_1263" data-name="Path 1263" d="M248.208,212.234a2.527,2.527,0,0,0-1.218-.7c-.032-.01-.068.03-.046.059a3.205,3.205,0,0,0,1.149.787.1.1,0,0,0,.116-.149Z" transform="translate(-227.55 -189.705)" fill="#fff" stroke="#fff" stroke-width="0.5"/>
        <path id="Path_1264" data-name="Path 1264" d="M248.581,210.122c-.508.211-.761.849-.964,1.322a9.658,9.658,0,0,0-.372.981.088.088,0,0,0-.085-.043,6.058,6.058,0,0,0-.9.214c-.188.051-.466.122-.537.323a.017.017,0,0,0,.009.02c.194.11.509,0,.713-.046a1.661,1.661,0,0,0,.748-.3,2.786,2.786,0,0,0-.107.764.016.016,0,0,0,.027.012,3.976,3.976,0,0,0,.571-1.432,6.1,6.1,0,0,1,.414-.974c.145-.289.389-.493.531-.775C248.646,210.157,248.62,210.1,248.581,210.122Z" transform="translate(-226.512 -188.495)" fill="#fff" stroke="#fff" stroke-width="0.5"/>
        <path id="Path_1265" data-name="Path 1265" d="M257.433,221.268v0Z" transform="translate(-236.516 -198.026)" fill="#fff" stroke="#fff" stroke-width="0.5"/>
        <path id="Path_1266" data-name="Path 1266" d="M266.082,229.256c-.707-.04-1.39.181-2.1.155-.81-.03-1.613-.217-2.425-.263-.846-.049-1.694-.064-2.539-.135a4.953,4.953,0,0,1-1.6-.145c-.012,0-.023.009-.014.017a1.7,1.7,0,0,0,1.049.359c.849.093,1.685.214,2.54.268,1.674.106,3.534.652,5.147-.049C266.247,229.415,266.181,229.262,266.082,229.256Z" transform="translate(-236.49 -204.521)" fill="#fff" stroke="#fff" stroke-width="0.5"/>
        <path id="Path_1267" data-name="Path 1267" d="M272.9,176.356a8.329,8.329,0,0,0-2.025-.145c.579-1.117.942-2.38,1.447-3.53a27.013,27.013,0,0,0,1.659-3.8c.045-.1-.122-.194-.191-.085a25.946,25.946,0,0,0-1.842,3.669c-.525,1.191-.919,2.451-1.46,3.628a.2.2,0,0,0-.051.123v.009a16.273,16.273,0,0,1-1.68,0,27.9,27.9,0,0,1-4.068-.479.029.029,0,1,0-.023.054,9.812,9.812,0,0,0,3.534.668,20.368,20.368,0,0,0,4.682.033C272.957,176.492,272.987,176.376,272.9,176.356Z" transform="translate(-242.689 -153.124)" fill="#fff" stroke="#fff" stroke-width="0.5"/>
        <path id="Path_1268" data-name="Path 1268" d="M278.669,241.336a7.01,7.01,0,0,0-2.7-.988,5.6,5.6,0,0,0-2.717.237.016.016,0,0,0,0,.032,7.337,7.337,0,0,0,1.262-.075,5.167,5.167,0,0,1,1.6.153c.845.184,1.656.535,2.488.774a.073.073,0,0,0,.061-.133Z" transform="translate(-250.039 -214.266)" fill="#fff" stroke="#fff" stroke-width="0.5"/>
        <path id="Path_1269" data-name="Path 1269" d="M248.464,154.424c-.838.211-1.557.7-2.425.861-.145.027-.318.051-.492.069a2.885,2.885,0,0,0,.919-.762,4.793,4.793,0,0,0,.868-3.255,4.719,4.719,0,0,0-1.382-3.183c-.091-.074-.263-.009-.216.126.268.76.723,1.411.955,2.193a5.05,5.05,0,0,1-.109,2.95,2.477,2.477,0,0,1-1.7,1.758,2.232,2.232,0,0,1-2.241-1.047,5.574,5.574,0,0,1-.532-3.919,3.183,3.183,0,0,1,.835-1.736c.443-.449,1.447-.825,2-.383a.062.062,0,0,0,.1-.043.5.5,0,0,0-.1-.352,5.947,5.947,0,0,1,.868.072,5.932,5.932,0,0,0,1.914.158.072.072,0,0,0,.03-.013,7.5,7.5,0,0,1,1.126,3.06,8.9,8.9,0,0,1-.419,3.271.078.078,0,0,0,.145.059,5.836,5.836,0,0,0-.82-6.486.093.093,0,0,0-.036-.052l-.061-.035-.009-.009a.016.016,0,0,0-.012,0,4.629,4.629,0,0,0-3.906-.233,2.646,2.646,0,0,0-1.892,1.458,6.129,6.129,0,0,0,.1,5.369,2.511,2.511,0,0,0,1.709,1.3,4.169,4.169,0,0,0,2.008.289,3.634,3.634,0,0,0,2.915-1.3.123.123,0,0,0-.145-.185Z" transform="translate(-222.728 -134.667)" fill="#fff" stroke="#fff" stroke-width="0.5"/>
        <path id="Path_1270" data-name="Path 1270" d="M252.539,171.577c-.036.033-.071.068-.107.1a.02.02,0,0,0-.026,0c-.38.339-.868.78-1.285.243a2.367,2.367,0,0,1-.331-.987c-.1-.537.058-1.3-.226-1.784a.185.185,0,0,0-.252-.067.728.728,0,0,0-.077.048.013.013,0,0,0-.022-.009c-.022.025-.039.052-.058.077a.946.946,0,0,0-.239.409,3.265,3.265,0,0,0,.723,3.154,1.344,1.344,0,0,0,2.306-1.013.244.244,0,0,0-.408-.175Z" transform="translate(-229.961 -153.396)" fill="#fff" stroke="#fff" stroke-width="0.5"/>
        <path id="Path_1271" data-name="Path 1271" d="M255.529,158.348a.029.029,0,1,0,.046.036c.328-.255.6-.518,1.045-.434a1.493,1.493,0,0,1,.758.514,3.992,3.992,0,0,1,.825,1.766.074.074,0,0,0,.145-.02C258.487,158.976,256.453,156.513,255.529,158.348Z" transform="translate(-234.891 -143.678)" fill="#fff" stroke="#fff" stroke-width="0.5"/>
        <path id="Path_1272" data-name="Path 1272" d="M194.659,165.888a.071.071,0,0,0-.117.068,2.077,2.077,0,0,1-.192,2,1.149,1.149,0,0,1-1.382.289c-1.058-.495-.676-2.3.321-2.6a.013.013,0,0,0,0-.026.834.834,0,0,0-.182-.016H193.1l-.009.012c-.579.022-.945.66-1.1,1.157a1.681,1.681,0,0,0-.054.762,1.771,1.771,0,0,0-.336-.174,2.011,2.011,0,0,0-1.157-.153,13.065,13.065,0,0,0,1.881-3.359,44.155,44.155,0,0,0,2.025-4.538c.032-.087-.09-.12-.137-.058a22.293,22.293,0,0,0-2.066,4.2c-.265.569-.567,1.12-.806,1.7a9.079,9.079,0,0,1-1.079,2.122,1.3,1.3,0,0,0-.434.313A2.943,2.943,0,0,0,189.2,169c-.012.1.036.456.169.48-1.124,1.651-1.764,3.6-2.9,5.247a4.45,4.45,0,0,0-1.285,1.395,12.442,12.442,0,0,0-1.059,2.146,5.849,5.849,0,0,0-1.813-1.619,18.449,18.449,0,0,0-.052-2.24,12.3,12.3,0,0,0-.178-2.218c0-.016-.026-.012-.026,0-.027.829.019,1.664.019,2.493a7.94,7.94,0,0,0,.082,1.863c-.259-.159-.516-.307-.762-.448a9.869,9.869,0,0,0-1.6-.738,7.447,7.447,0,0,0,1.084-1.775c.362-.71.768-1.4,1.1-2.124.029-.062-.052-.145-.1-.08a9.881,9.881,0,0,0-1.087,1.845,20.777,20.777,0,0,0-1.05,2.114,9.866,9.866,0,0,0-2.245-.5.02.02,0,0,0,0,.041,15.385,15.385,0,0,1,3.686,1.591c1.033.6,1.845,1.471,2.814,2.14-.233.619-.443,1.244-.652,1.853-.272.788-.579,1.56-.9,2.323a7.755,7.755,0,0,0-7.769-3.121c-3.546.54-6.063,3.814-7.844,6.687,0,.01.009.019.016.009,1.95-2.64,3.961-5.827,7.407-6.554a8.8,8.8,0,0,1,4.67.395,9.114,9.114,0,0,1,3.465,2.653.036.036,0,0,0,.022.012c-.434,1.024-.9,2.034-1.377,3.05l-.1.2c-2.292-2.17-6.15-1.493-8.158.747a9.693,9.693,0,0,0-1.973,4.311,11.369,11.369,0,0,0-.145,5.289c.694,2.921,3.213,6.538,6.528,6.531a4.72,4.72,0,0,0,1.907-.443,2.039,2.039,0,0,0,0,.91.108.108,0,0,0,.1.1,1.1,1.1,0,0,0,.611-.132.11.11,0,0,0,.049-.122q-.041-.252-.082-.5c-.022-.13-.025-.26-.135-.346a.046.046,0,0,0-.071.009.42.42,0,0,0-.019.326c.029.161.056.32.082.48a.939.939,0,0,1-.341.081,1.676,1.676,0,0,0-.184-.815,8.716,8.716,0,0,0,2.387-1.685l.01-.01c-.114.214-.24.422-.37.629a3.327,3.327,0,0,1-.466.612c-.229.226-.308.056-.379-.187,0-.009-.016-.009-.017,0-.026.145-.043.42.168.447s.422-.231.544-.372a3.933,3.933,0,0,0,.868-1.484,8.8,8.8,0,0,0,2.092-4.033,8.116,8.116,0,0,0,.145-.877.808.808,0,0,0,.21.039.159.159,0,0,0,.153-.2.656.656,0,0,0-.038-.085c.544-2.1,1.157-4.932-.145-6.852a.023.023,0,0,0-.042.017,10.526,10.526,0,0,1,.495,3.423c-.036,1.115-.3,2.212-.359,3.328a3.411,3.411,0,0,0-1.042-.694c-.415-.247-.762-.593-1.157-.868a2.157,2.157,0,0,1-.145-1.2.056.056,0,0,0-.019-.041c.269-.587.527-1.181.778-1.775.868-2.043,1.656-4.116,2.593-6.128s2.329-3.811,3.244-5.861c.082-.187.168-.391.246-.6.114-.132.236-.255.362-.376a5.664,5.664,0,0,0,.425-.521h0a5.859,5.859,0,0,1-.425.521c-.122.119-.242.24-.353.367a4.029,4.029,0,0,0,.256-2.623,11.346,11.346,0,0,1,.826-2.315,33.135,33.135,0,0,1,1.426-3.277c.071.059.145.119.217.175a.03.03,0,0,0,.026,0c.211.11.5-.357.571-.488a1.871,1.871,0,0,0,.289-1.047,1.7,1.7,0,0,0,.242.175C194.345,169.633,196.139,167.05,194.659,165.888Zm-12.626,28.025a3.079,3.079,0,0,0,.851.842c.059.045.124.1.192.155a.171.171,0,0,0-.052.12c0,.072.041.108.071.166a.064.064,0,0,0,.11,0,.694.694,0,0,0,.072-.126,4.1,4.1,0,0,0,.521.375,8.3,8.3,0,0,1-5.606,7.064c-3.385,1.013-6.128-2.714-7.076-5.47a9.816,9.816,0,0,1-.162-4.974,12.04,12.04,0,0,1,1.5-4.2,5.642,5.642,0,0,1,8.335-1.419c-.838,1.774-1.736,3.558-2.415,5.4-.043.085-.088.169-.136.253-.153.258-.317.509-.463.771a1.969,1.969,0,0,0-.263,2.005,1.9,1.9,0,0,1-.434-1.17,1.39,1.39,0,0,1,.171-.731c.109-.192.3-.176.425-.32a.007.007,0,0,0,0-.01c-.389-.344-.723.629-.752.846-.075.545.087,1.377.664,1.591a.036.036,0,0,0,.025,0,1.591,1.591,0,0,0,2.459.579,4.733,4.733,0,0,0,1.289-1.846c.145-.281.281-.564.417-.849A1.107,1.107,0,0,0,182.033,193.913Zm6.183-15.3c-.935,2.083-2.328,3.906-3.286,5.978-1.377,2.98-2.438,6.1-3.906,9.038-.353.706-.909,1.766-1.7,1.985a1.292,1.292,0,0,1-.935-.365,1.81,1.81,0,0,1-.408-1.078,2.162,2.162,0,0,1,.027-.634,2.616,2.616,0,0,0,.289.628h0c-.048-.107-.109-.208-.162-.312a1.423,1.423,0,0,1-.123-.353.374.374,0,0,1,.016-.078.051.051,0,0,1,.046,0h0l-.043-.014q.023-.1.051-.191c.048-.1.094-.194.145-.289a5.442,5.442,0,0,0,.259.767h.007a5.529,5.529,0,0,1-.259-.78c.043-.091.088-.181.132-.272a1.3,1.3,0,0,0,.055.23c.062.2.081.408.162.608h.007a2.627,2.627,0,0,1-.136-.5c-.022-.12-.068-.234-.082-.35q.145-.305.289-.615a3.976,3.976,0,0,0,.216.958h.01a5.087,5.087,0,0,1-.216-.978c.051-.111.1-.221.152-.333a1.347,1.347,0,0,0,.152.684h0c-.064-.136-.281-.694-.074-.77h0a.12.12,0,0,0-.062.051q.3-.677.595-1.358a5.286,5.286,0,0,0,.145,1.143h0a5.62,5.62,0,0,1-.145-1.157l.124-.289a4.393,4.393,0,0,0,.084.964h.007a4.836,4.836,0,0,1-.084-.979l.078-.181a5,5,0,0,0,.071,1.013h.009a5.226,5.226,0,0,1-.069-1.037l.136-.315a4.341,4.341,0,0,0,.192,1.259h0a4.432,4.432,0,0,1-.192-1.269c.3-.692.6-1.38.913-2.06q.162-.349.327-.7a.163.163,0,0,0,.13-.275c.671-1.411,1.36-2.821,1.93-4.272.414-1.053.742-2.211,1.157-3.327a.1.1,0,0,0,.067-.145l-.007-.014a13.25,13.25,0,0,1,.66-1.474,4.91,4.91,0,0,1,1.753.289,2.707,2.707,0,0,1,1.412,1.176c.013.025.046,0,.042-.017a1.475,1.475,0,0,0-.252-.6.12.12,0,0,0,.145-.009,1.8,1.8,0,0,0,.466-1.447c-.019-.383-.239-.922-.687-.916a.019.019,0,0,0-.016.027,2.152,2.152,0,0,1,.226,1.1c-.023.391-.137.774-.172,1.165a.1.1,0,0,0,0,.032,2.513,2.513,0,0,0-1.023-.748,2.543,2.543,0,0,0-1.839-.145,7.137,7.137,0,0,1,1.182-1.628c.684-.69,2.119-.907,2.569.178a4.3,4.3,0,0,1-.561,3Zm2.373-7.506c-.259.566-.492,1.143-.712,1.725a9.56,9.56,0,0,0-.836,2.43,1.651,1.651,0,0,0-1.221-.815,1.749,1.749,0,0,0-1.013.1,6.757,6.757,0,0,0,1.194-1.9,24.073,24.073,0,0,0,1.538-3.22,1.447,1.447,0,0,1,1.013-.082,1.921,1.921,0,0,1,.723.417,6.463,6.463,0,0,0-.686,1.343Zm1.619-2.742a.888.888,0,0,0-.069.34,3.2,3.2,0,0,1-.145.528,1.869,1.869,0,0,1-.216.434.78.78,0,0,1-.145.136c-.184-.7-1.7-1.136-2.17-.608a2.87,2.87,0,0,1,.47-1.127,1.082,1.082,0,0,1,1.273-.543,1.388,1.388,0,0,1,.868.508.9.9,0,0,1,.145.3.124.124,0,0,0-.012.028Z" transform="translate(-159.068 -144.975)" fill="#fff" stroke="#fff" stroke-width="0.5"/>
        <path id="Path_1273" data-name="Path 1273" d="M293.452,156.682a6.044,6.044,0,0,0-1.425-1.617,4.629,4.629,0,0,0-1.636-1.191c-.014,0-.027.016-.016.026a22.347,22.347,0,0,1,2.258,2.095,1.824,1.824,0,0,1,.529,2.137,5.675,5.675,0,0,1-1.149,1.379c-.03.032.012.093.049.064C292.895,158.943,294.014,157.837,293.452,156.682Z" transform="translate(-264.671 -140.414)" fill="#fff" stroke="#fff" stroke-width="0.5"/>
        <path id="Path_1274" data-name="Path 1274" d="M291.159,135.148c-.36.158-.512.434-.937.2a1.415,1.415,0,0,1-.625-.955.016.016,0,0,0-.03,0,1.128,1.128,0,0,0,.444,1.079,1.849,1.849,0,0,0-.749.4,9.771,9.771,0,0,0-1.029.822c-.013.014,0,.045.017.043a2.2,2.2,0,0,0,.885-.424,5.827,5.827,0,0,0,1.013-.741h0a.666.666,0,0,0,1.065-.375C291.226,135.155,291.185,135.133,291.159,135.148Z" transform="translate(-262.845 -123.748)" fill="#fff" stroke="#fff" stroke-width="0.5"/>
        <path id="Path_1275" data-name="Path 1275" d="M441.174,62.222a5.129,5.129,0,0,0-2.279-.563,25.42,25.42,0,0,0-2.857-.446,2.237,2.237,0,0,0-1.969.842,1.751,1.751,0,0,0-.041,2.132c.068.069.166-.019.129-.1a1.862,1.862,0,0,1,.608-2.242,3.336,3.336,0,0,1,2.383-.019c.579.132,1.157.307,1.746.4a10.274,10.274,0,0,1,1.677.321c.813.268.888,1.085.522,1.766a2.74,2.74,0,0,1-1.839,1.114,7.8,7.8,0,0,1-2.279.289,6.656,6.656,0,0,1-2.3-.723,1.194,1.194,0,0,0,.289-.1,2.4,2.4,0,0,0,1.149-1.253.145.145,0,0,0-.192-.192,2.331,2.331,0,0,0-.686.467,2.3,2.3,0,0,1-1.292.519,5.323,5.323,0,0,0-2.036,1.04c-.363.255-.723.5-1.069.764h-.014c-.393,0-.786.022-1.179.033a5.279,5.279,0,0,0-1.209-.022c-.868.236-.579,1.338-.4,1.978a.043.043,0,0,0,.083,0,1.225,1.225,0,0,0,.032-.66c-.083-.55.145-1.117.788-1.013.145.023.268.039.409.055a6.663,6.663,0,0,0,1,.009,8.317,8.317,0,0,0-1.821,1.927.072.072,0,0,0,.1.1c1.013-.615,1.933-1.343,2.876-2.05.463.013.965.1,1.105.434.231.554-.289,1.222-.109,1.813.023.074.153.09.166,0,.042-.312.249-.858.311-1.345a1.564,1.564,0,0,1,1.157-.178c.521.113.794.508,1.192.806.078.059.159-.038.145-.113a1.7,1.7,0,0,0-2.478-.828.723.723,0,0,0-.192-.522,1.591,1.591,0,0,0-.882-.375c.239-.175.479-.349.723-.515a5,5,0,0,1,1.223-.641,2.111,2.111,0,0,1,.446-.084.162.162,0,0,0,.036.175c1.506,1.4,4.115,1.11,5.883.409a2.358,2.358,0,0,0,1.557-1.591,1.591,1.591,0,0,0-.608-1.823Z" transform="translate(-382.196 -61.204)" fill="#fff" stroke="#fff" stroke-width="0.5"/>
        <path id="Path_1276" data-name="Path 1276" d="M469.446,126.036c.113-.723-.451-1.683-1.277-1.477a.377.377,0,0,0-.179.111,7.253,7.253,0,0,0-2.882-.794,19.553,19.553,0,0,0-3.029-.178c-.786.022-1.538.145-2.328.133a.08.08,0,0,0-.077.1c.434,1.075,2.684.83,3.594.882a18.272,18.272,0,0,1,2.967.369,4.556,4.556,0,0,1,1.221.49.933.933,0,0,0-.051.321.542.542,0,0,0,0,.2.891.891,0,0,0,.441.6.971.971,0,0,0,.448.192.991.991,0,0,0,1.157-.712.289.289,0,0,0-.006-.243Z" transform="translate(-409.4 -114.613)" fill="#fff" stroke="#fff" stroke-width="0.5"/>
        <path id="Path_1277" data-name="Path 1277" d="M488.853,111.809a.978.978,0,0,0-.946-.4c-.767,0-1.521-.059-2.284-.135a23.04,23.04,0,0,0-2.435-.123c-.512,0-1.085-.041-1.321-.6a.546.546,0,0,0-.339-.324.013.013,0,0,0-.016.022c.263.307.314.642.668.858a4.3,4.3,0,0,0,1.794.311c.826.068,1.646.237,2.47.337a6.543,6.543,0,0,1,2.234.226C488.785,112.039,488.93,111.925,488.853,111.809Z" transform="translate(-428.072 -103.104)" fill="#fff" stroke="#fff" stroke-width="0.5"/>
        <path id="Path_1278" data-name="Path 1278" d="M528.1,124.2a.072.072,0,0,0-.107.043,2.788,2.788,0,0,0,.009.671.494.494,0,0,1-.126.346c-.09.1-.221.09-.336.135a.078.078,0,0,0-.019.145c.278.159.592-.091.7-.343C528.343,124.89,528.406,124.416,528.1,124.2Z" transform="translate(-467.372 -115.036)" fill="#fff" stroke="#fff" stroke-width="0.5"/>
        <path id="Path_1279" data-name="Path 1279" d="M525.349,124.632c-.035-.224-.258-.674-.093-.883a.013.013,0,0,0,0-.019.013.013,0,0,0-.019,0,.808.808,0,0,0-.3.434.537.537,0,0,0,.233.612.126.126,0,0,0,.182-.145Z" transform="translate(-465.174 -114.643)" fill="#fff" stroke="#fff" stroke-width="0.5"/>
        <path id="Path_1280" data-name="Path 1280" d="M390.827,133.529a1.812,1.812,0,0,0-.2.637,2.45,2.45,0,0,0-.937-.163c-.418-.009-1.088.064-1.285-.4a.012.012,0,0,0-.01-.006.012.012,0,0,0-.01.006.024.024,0,0,1-.009.022.087.087,0,0,0-.123,0,6.554,6.554,0,0,1-3.233,2.008,10.728,10.728,0,0,1-4.038-.388c-1.583-.263-4.2-.217-5.03,1.492-.045.091.09.171.136.08a3.846,3.846,0,0,1,3.328-1.484,24.056,24.056,0,0,1,3.643.554,6.077,6.077,0,0,0,2.956-.26,5.8,5.8,0,0,0,2.335-1.819.45.45,0,0,0,.289.33c.652.247,1.37,0,2.007.32a.129.129,0,0,0,.188-.077,4.015,4.015,0,0,0,.068-.832.046.046,0,0,0-.077-.017Z" transform="translate(-337.833 -123.004)" fill="#fff" stroke="#fff" stroke-width="0.5"/>
        <path id="Path_1281" data-name="Path 1281" d="M352.94,168.008a8.392,8.392,0,0,0-.985,2.2c-.289.806-.65,1.584-.965,2.38,0,.016.016.026.026.016a6.141,6.141,0,0,0,1.192-2.025,14.932,14.932,0,0,0,.9-2.5.091.091,0,0,0-.165-.071Z" transform="translate(-316.497 -152.461)" fill="#fff" stroke="#fff" stroke-width="0.5"/>
        <path id="Path_1282" data-name="Path 1282" d="M290.714,259.141c-.253-.179-.723-.067-1.013-.032a2.091,2.091,0,0,0-.893.26c-.65.411-.407,1.28-.051,1.8.032.046.126.036.119-.032-.064-.524-.307-1.238.289-1.523a2.9,2.9,0,0,1,.748-.2c.252-.045.624-.041.8-.25a.016.016,0,0,0,.006-.012.016.016,0,0,0-.006-.012Z" transform="translate(-262.998 -230.316)" fill="#fff" stroke="#fff" stroke-width="0.5"/>
        <path id="Path_1283" data-name="Path 1283" d="M332.441,258.239a14.513,14.513,0,0,0,.033-1.67,3.917,3.917,0,0,0-.683-2.477c-.7-.77-1.787-.11-2.5.247a4.786,4.786,0,0,1-2.131.518c-.091,0-.673.038-1.027.016a2.675,2.675,0,0,1-.187-.2c-.122-.145-.213-.307-.323-.459h0c.1.145.184.289.289.418a3.16,3.16,0,0,0,.217.236c-.145-.01-.258-.029-.266-.067a.016.016,0,0,0-.009-.011.016.016,0,0,0-.014,0,.244.244,0,0,0-.033.026l-.017-.026c-.074-.1-.133-.205-.2-.308h0c.072.113.145.227.22.334-.069.068-.007.129.116.178a.672.672,0,0,0,.065.087h0a.745.745,0,0,1-.064-.084,4.776,4.776,0,0,0,.972.187,4.952,4.952,0,0,0,1.526-.109c.758-.188,1.408-.676,2.156-.891,1.354-.392,1.506,1.49,1.548,2.377.068,1.389-.354,3.053.229,4.34.023.052.109.026.106-.029A19.706,19.706,0,0,1,332.441,258.239Z" transform="translate(-294.782 -225.78)" fill="#fff" stroke="#fff" stroke-width="0.5"/>
        <path id="Path_1284" data-name="Path 1284" d="M351.6,273.348c-.418-1.314-.913-2.569-1.2-3.925-.289-1.328-.192-2.711-.566-4.02,0-.017-.029-.01-.026.007.2,1.383-.145,2.749.129,4.141a10.293,10.293,0,0,0,1.545,3.848C351.516,273.456,351.621,273.423,351.6,273.348Z" transform="translate(-315.482 -235.744)" fill="#fff" stroke="#fff" stroke-width="0.5"/>
        <path id="Path_1285" data-name="Path 1285" d="M328.079,338.17c-.168-.781-.434-1.541-.651-2.315a20.188,20.188,0,0,1-.479-3.343A46.492,46.492,0,0,0,325.82,325a.012.012,0,0,0-.022,0c.367,2.315.639,4.621.881,6.944a26.054,26.054,0,0,0,.817,4.887,12.111,12.111,0,0,1,.5,2.157,1.221,1.221,0,0,1-.243,1.023c-.312.349-.949.321-1.371.32-2.08-.009-4.156-.133-6.237-.155-.062,0-.08.1-.014.111l.077.013a6.874,6.874,0,0,0,3.327,2.231c1.479.268,2.924-.6,4.33-.893a.067.067,0,0,0-.017-.129c-1.324.036-2.5.7-3.816.774-1.528.09-2.6-1.127-3.725-1.965a32.206,32.206,0,0,0,6.434.227c.5-.015,1.172-.159,1.382-.683A3.012,3.012,0,0,0,328.079,338.17Z" transform="translate(-290.086 -286.692)" fill="#fff" stroke="#fff" stroke-width="0.5"/>
        <path id="Path_1286" data-name="Path 1286" d="M417.759,323.609c-1.493.462-3,.909-4.507,1.317a18.654,18.654,0,0,1-3.219.547.049.049,0,0,0-.029-.017,12.58,12.58,0,0,0-3.965.175c-1.529.208-3.05.541-4.582.709a4.4,4.4,0,0,1-4.63-2.344,21.05,21.05,0,0,1-1.714-6.813,40.27,40.27,0,0,1-.447-4.919c-.051-1.6.1-3.193.159-4.79a.085.085,0,0,0-.087-.087h-.049a.082.082,0,0,0-.078.059,4.474,4.474,0,0,0-.113.522c-.1.373-.165.757-.234,1.134a16.706,16.706,0,0,0-.211,2.315,30.813,30.813,0,0,0,.31,5.3,23.992,23.992,0,0,0,1.856,7.469,4.887,4.887,0,0,0,4.292,2.823,21.978,21.978,0,0,0,4.33-.563c1.382-.213,2.862-.269,4.243-.593a9.114,9.114,0,0,0,3.88-.378,23.674,23.674,0,0,0,4.848-1.726A.078.078,0,0,0,417.759,323.609Z" transform="translate(-353.301 -271.644)" fill="#fff" stroke="#fff" stroke-width="0.5"/>
        <path id="Path_1287" data-name="Path 1287" d="M394.3,325.124c-.829.135-1.633.366-2.468.464a16.385,16.385,0,0,1-2.211.067,36.506,36.506,0,0,0-4.33.027,8.06,8.06,0,0,1-4.093-.252,6.1,6.1,0,0,1-2.893-3.391,28.92,28.92,0,0,1-1.806-8.569,33.375,33.375,0,0,1-.052-4.6c.085-1.463.479-2.941.473-4.4a.09.09,0,0,0-.165-.045,10.841,10.841,0,0,0-.942,4.444,29.057,29.057,0,0,0,.106,5.111,27.631,27.631,0,0,0,2.159,8.873,6.438,6.438,0,0,0,2.853,3.047,7.167,7.167,0,0,0,3.925.373,37.774,37.774,0,0,1,4.774-.069,9.006,9.006,0,0,0,4.8-.793.158.158,0,0,0-.129-.285Z" transform="translate(-337.653 -269.075)" fill="#fff" stroke="#fff" stroke-width="0.5"/>
        <path id="Path_1288" data-name="Path 1288" d="M520.472,435.746A24.894,24.894,0,0,1,512.8,437.5a.016.016,0,0,0,0,.032,6.353,6.353,0,0,0,3.8-.09,14.357,14.357,0,0,0,3.938-1.549C520.617,435.851,520.563,435.715,520.472,435.746Z" transform="translate(-454.809 -381.367)" fill="#fff" stroke="#fff" stroke-width="0.5"/>
        <path id="Path_1289" data-name="Path 1289" d="M424.852,241.916a5.43,5.43,0,0,0-2.69-1.467,20.7,20.7,0,0,0-4.32-.422,16.273,16.273,0,0,1-2.441-.135,15,15,0,0,1-2.4-.767.1.1,0,0,0-.1.166,5.173,5.173,0,0,0,3.56,1.075,40.649,40.649,0,0,1,4.748.109,5.787,5.787,0,0,1,3.212,1.432c.415.375,1,1.233,1.56,1.334a.03.03,0,0,0,.036-.02C426.11,242.814,425.1,242.149,424.852,241.916Z" transform="translate(-369.402 -213.285)" fill="#fff" stroke="#fff" stroke-width="0.5"/>
        <path id="Path_1290" data-name="Path 1290" d="M378.383,202.636a7.337,7.337,0,0,1-2.5-2.088,7.234,7.234,0,0,1-1.123-3.063c0-.03-.058-.023-.054.007a5.875,5.875,0,0,0,3.646,5.217A.041.041,0,0,0,378.383,202.636Z" transform="translate(-336.771 -177.68)" fill="#fff" stroke="#fff" stroke-width="0.5"/>
        <path id="Path_1291" data-name="Path 1291" d="M498.815,363.349a.023.023,0,0,0-.045,0,7.222,7.222,0,0,0,.331,1.72,5.543,5.543,0,0,1-.174,2.428c-.3,1.354-.836,2.64-1.084,4.007-.016.085.109.153.145.064a17.451,17.451,0,0,0,1.412-4.207,7.487,7.487,0,0,0-.586-4.012Z" transform="translate(-442.034 -319.47)" fill="#fff" stroke="#fff" stroke-width="0.5"/>
        <path id="Path_1292" data-name="Path 1292" d="M520.093,295.269a3.283,3.283,0,0,0-.868.566,6.33,6.33,0,0,1-1.881,1.1,16.043,16.043,0,0,1-3.191.658c-.208.033-.412.071-.615.113a.029.029,0,0,0,0-.022,45.235,45.235,0,0,0-4.34-7.378c-.02-.023-.061.007-.043.033,1.612,2.355,2.629,5.088,4.329,7.378h0a8.035,8.035,0,0,0-2.1.742,21.2,21.2,0,0,0-2.749,1.913c-.016.012,0,.038.016.027.881-.541,1.726-1.139,2.626-1.648a9.357,9.357,0,0,1,3.407-.984,8.051,8.051,0,0,0,5.451-2.436C520.148,295.305,520.131,295.255,520.093,295.269Z" transform="translate(-451.247 -257.031)" fill="#fff" stroke="#fff" stroke-width="0.5"/>
        <path id="Path_1293" data-name="Path 1293" d="M548.314,407.227l-.01-.012c0-.026-.042-.022-.036,0a.04.04,0,0,0,.039.032.013.013,0,0,0,.007-.02Z" transform="translate(-485.138 -356.968)" fill="#fff" stroke="#fff" stroke-width="0.5"/>
        <path id="Path_1294" data-name="Path 1294" d="M617.4,299.677c-.289-.547-.616-1.081-.924-1.619a5.242,5.242,0,0,0-1-1.507.016.016,0,0,0-.028.016,6.752,6.752,0,0,0,.8,1.628,7.416,7.416,0,0,0,1.063,1.555.059.059,0,0,0,.093-.072Z" transform="translate(-542.57 -262.377)" fill="#fff" stroke="#fff" stroke-width="0.5"/>
        <path id="Path_1295" data-name="Path 1295" d="M619.254,291.043a9.344,9.344,0,0,1-.882.606,1.243,1.243,0,0,1-1.4-.129c-.012,0-.029,0-.023.017.408,1.124,1.988.253,2.393-.408C619.373,291.079,619.307,291.006,619.254,291.043Z" transform="translate(-543.849 -257.664)" fill="#fff" stroke="#fff" stroke-width="0.5"/>
        <path id="Path_1296" data-name="Path 1296" d="M631.309,309.9c-.289.37-1.836,1.927-2.282,1.348h-.013c.249.945,2.185-.917,2.364-1.312a.041.041,0,0,0-.069-.036Z" transform="translate(-554.163 -273.774)" fill="#fff" stroke="#fff" stroke-width="0.5"/>
        <path id="Path_1297" data-name="Path 1297" d="M669.722,333.016c-.218-.35-1.12-2.025-1.69-1.821v.009c.341-.049.791.786.933,1,.279.417.537.849.783,1.288a6.978,6.978,0,0,1,.622,1.531,14.229,14.229,0,0,0,.619,2.47c.026.054.094.012.087-.036A11.1,11.1,0,0,0,669.722,333.016Z" transform="translate(-587.514 -291.981)" fill="#fff" stroke="#fff" stroke-width="0.5"/>
        <path id="Path_1298" data-name="Path 1298" d="M624.966,270.753c-.541-1.234-2.354-1.085-3.435-1.13a27.591,27.591,0,0,0-6.068-.056c-.017,0-.013.032,0,.032,1.476,0,2.943.043,4.414.145a20.443,20.443,0,0,1,3.8.305c.887.234,1.8,1.373.757,2.073a2.946,2.946,0,0,1-1.827.26c-1.131-.094-2.215-.476-3.338-.631-.045,0-.067.059-.019.069a15.517,15.517,0,0,0,4.158.723C624.465,272.51,625.472,271.91,624.966,270.753Z" transform="translate(-542.571 -239.171)" fill="#fff" stroke="#fff" stroke-width="0.5"/>
        <path id="Path_1299" data-name="Path 1299" d="M612.391,273.81a1.591,1.591,0,0,0-2.6.341.878.878,0,0,0,.135,1.066c.135.153.411.169.593.211.48.11.531.527.839.8a.019.019,0,0,0,.021,0,.019.019,0,0,0,.009-.019,1.737,1.737,0,0,0-.424-.749c-.229-.25-.654-.169-.907-.376-.579-.472.136-1.227.535-1.479a1.652,1.652,0,0,1,1.745.282.051.051,0,0,0,.058-.08Z" transform="translate(-537.621 -242.492)" fill="#fff" stroke="#fff" stroke-width="0.5"/>
        <path id="Path_1300" data-name="Path 1300" d="M632.615,286.065c-.087-.169-.175-.341-.256-.514-.022-.046-.081-.01-.075.032a.775.775,0,0,0,.289.518.029.029,0,0,0,.042-.036Z" transform="translate(-556.96 -252.958)" fill="#fff" stroke="#fff" stroke-width="0.5"/>
        <path id="Path_1301" data-name="Path 1301" d="M530.119,282.466a36.173,36.173,0,0,1-6.967-1.039c-.975-.184-1.956-.369-2.934-.529a3.639,3.639,0,0,0-2.3.172c-.023.013,0,.048.017.042a6.554,6.554,0,0,1,3.191.156c1.013.246,2.046.425,3.07.637,1.111.229,2.218.463,3.339.641a5.607,5.607,0,0,0,2.6.02.051.051,0,1,0-.017-.1Z" transform="translate(-459.182 -248.912)" fill="#fff" stroke="#fff" stroke-width="0.5"/>
        <path id="Path_1302" data-name="Path 1302" d="M597.836,328.71a24.77,24.77,0,0,1-3.021-.03.051.051,0,0,0,0-.01c.035-.786.936-1.432,1.538-1.787a.087.087,0,0,0-.088-.145c-.667.331-1.633,1.1-1.607,1.939h-.035c-.612-.03-1.222.046-1.833.016a3.722,3.722,0,0,0-1.279-.053.077.077,0,0,0,.041.145,5.422,5.422,0,0,1,1.48.1c.611.041,1.23-.027,1.843,0a11.258,11.258,0,0,0,2.983,0,.094.094,0,0,0-.022-.178Z" transform="translate(-522.062 -288.174)" fill="#fff" stroke="#fff" stroke-width="0.5"/>
        <path id="Path_1303" data-name="Path 1303" d="M634.815,315.646a6,6,0,0,1-.6.511c-.187.132-.4.205-.6.318-.085.049-.01.169.075.129a4.051,4.051,0,0,0,.678-.337,3.578,3.578,0,0,0,.558-.5.084.084,0,0,0-.118-.117Z" transform="translate(-558.07 -278.683)" fill="#fff" stroke="#fff" stroke-width="0.5"/>
        <path id="Path_1304" data-name="Path 1304" d="M648.836,321.2c-.475-.91-.93-1.832-1.418-2.734-.135-.249-.312-.809-.595-.924-.08-.033-.129.094-.056.136.237.145.4.742.532.984.482.868.907,1.759,1.393,2.623C648.745,321.379,648.885,321.3,648.836,321.2Z" transform="translate(-569.31 -280.321)" fill="#fff" stroke="#fff" stroke-width="0.5"/>
        <path id="Path_1305" data-name="Path 1305" d="M539.622,242.437a.08.08,0,0,0-.02.156c1.424.417,1.23,1.913.318,2.757s-2.377.595-3.5.54a10.906,10.906,0,0,0-5.757,1.775c-.113.065-.035.266.091.216a22.461,22.461,0,0,1,4.18-1.463c1.494-.289,3.028.233,4.485-.279a2.493,2.493,0,0,0,1.652-2.05,1.548,1.548,0,0,0-1.445-1.652Z" transform="translate(-470.04 -216.121)" fill="#fff" stroke="#fff" stroke-width="0.5"/>
        <path id="Path_1306" data-name="Path 1306" d="M514.032,272.773c-.7-.217-1.525.017-2.075-.551-.075-.077-.178.02-.145.107.386.868,1.4.556,2.148.677a.122.122,0,1,0,.071-.233Z" transform="translate(-453.975 -241.56)" fill="#fff" stroke="#fff" stroke-width="0.5"/>
        <path id="Path_1307" data-name="Path 1307" d="M419.187,176.492a1.513,1.513,0,0,0-1.28.068,2.952,2.952,0,0,0-.524.359c-.275.233-.249.495-.6.4a1.109,1.109,0,0,0-.136-.466.212.212,0,0,0-.012-.152,9.982,9.982,0,0,0-5.474-5.234,6.892,6.892,0,0,0-3.07-.376c.349-.7,1.143-1.264,1.221-2.051a2.221,2.221,0,0,0-.91-2.121,6.345,6.345,0,0,0-2.749-.323c-.628-.035-1.254-.068-1.881-.067-.434,0-.881.087-1.319.1a3.106,3.106,0,0,0-1.192-.273,6.636,6.636,0,0,0-3.084.049,4.737,4.737,0,0,0-3.328,1.575c-.289.391-.65,1.447,0,1.577a7.916,7.916,0,0,0-1.6.9,6.611,6.611,0,0,1-1.817,1.115,2.364,2.364,0,0,1-2.373-.988c-.094-.289-.194-.554-.272-.781a18.844,18.844,0,0,0-2.561-4.677,22.859,22.859,0,0,0-3.479-3.989,8.306,8.306,0,0,0-4.424-2.415H378.3c-.041-.017-.082-.035-.124-.051.223-.353.422-.868.163-1.133-.386-.405-1.371-.289-1.86-.289-.816.012-2.351-.145-2.148.922a12.637,12.637,0,0,0-1.633.062,5.361,5.361,0,0,0-2.075.394,4.126,4.126,0,0,0-2.553,2.067c-.046.116.119.191.2.114a8.007,8.007,0,0,1,2.472-1.761,5.68,5.68,0,0,1,1.422-.366q.375,0,.749-.014a5.2,5.2,0,0,0,.723.01.065.065,0,0,0,.048-.032c.488-.013.975-.02,1.464,0a15.546,15.546,0,0,1,2.076.229q.119.022.239.048v.016a.044.044,0,0,0,.085.012v-.009a6.6,6.6,0,0,0,.956.178l.014.007a.045.045,0,0,0,.052,0h.061c.411.271.851.5,1.262.765a23.714,23.714,0,0,1,2.183,1.564,21.422,21.422,0,0,1,3.4,3.809A24.756,24.756,0,0,1,388,169.437a12.418,12.418,0,0,1,.917,3.837.082.082,0,0,0,.136.036,2.315,2.315,0,0,0,.205-2.054,2.711,2.711,0,0,0,2.088.664c.888-.069,1.767-.178,2.658-.216a5.375,5.375,0,0,1,2.893.619c.111.058.243-.091.145-.182a4.266,4.266,0,0,0-3.578-.8c-.3.029-.638.08-.987.127.689-.4,1.324-1,1.994-1.317a11.717,11.717,0,0,1,2.393-.88,3.636,3.636,0,0,1,1.447-.124,9.853,9.853,0,0,0,1.26.24.117.117,0,0,0,.03-.229,4.766,4.766,0,0,0-2.124-.434,7.759,7.759,0,0,0-2.1.6l-.245.108a.082.082,0,0,0-.036-.025c-.978-.326.509-1.751.858-1.97a6.308,6.308,0,0,1,2.556-.723,5.2,5.2,0,0,1,2.86.1c1.03.534.664,2.234.221,3a.129.129,0,0,0,.2.156,2.559,2.559,0,0,0,.122-3.132h0a1.9,1.9,0,0,0,.247.061,1.253,1.253,0,0,1,.806,1.17,9.465,9.465,0,0,1-.279,2.315c-.017.113.136.2.2.084a4.54,4.54,0,0,0,.337-3.038,1.021,1.021,0,0,0-.3-.5c.388-.016.78-.064,1.134-.059,1.013.014,2.033.12,3.051.145a2.123,2.123,0,0,1,1.377.386,1.881,1.881,0,0,1,.363,1.94c-.281.645-1.05,1.013-1.013,1.766a7.479,7.479,0,0,0-3.841,1.541c.078-.948-.8-1.658-1.62-2.266-.075-.055-.159.062-.1.126.5.5,1.11.868,1.376,1.554s-.307,1.473-.738,1.968a18.2,18.2,0,0,1-2.863,2.326c-.111.084-.01.273.113.192a11.046,11.046,0,0,0,3.52-3.045,2.23,2.23,0,0,0,.224-.459.128.128,0,0,0,.039-.013,8.8,8.8,0,0,1,7.122-1.157,8.665,8.665,0,0,1,3.1,1.963,15.19,15.19,0,0,1,2.146,3.055.212.212,0,0,0,.088.082.276.276,0,0,1-.3.339c-.357.012-.723.085-1.072.119a16.455,16.455,0,0,1-2.387-.226,18.752,18.752,0,0,0-4.819.56l-.023.007c-.247-.453-.508-.9-.752-1.332a.023.023,0,0,0-.042.017,11.063,11.063,0,0,0,1.437,3,.072.072,0,0,0-.035.1c.039.065-.055.276-.08.346a1.563,1.563,0,0,1-.2.353c-.055.078.069.174.133.1a1.3,1.3,0,0,0,.266-.45.723.723,0,0,0,.055-.312.049.049,0,0,0,.048-.068c-.065-.178-.145-.354-.217-.531a3.85,3.85,0,0,1,1.743.226c.091.039.172-.09.079-.136a3.127,3.127,0,0,0-1.9-.258c-.11-.237-.227-.475-.35-.709a32.289,32.289,0,0,1,3.327-.5,15.093,15.093,0,0,1,3.242.211,5,5,0,0,0,1.235-.114l.094-.01a.078.078,0,0,0,.016.046c.2.272.447.231.781.246.7.03,1.188.758,1.849.979.587.2,1.6.039,1.852-.622C420.661,177.563,419.934,176.756,419.187,176.492Zm-41.3-17.906c-.091-.027-.184-.051-.278-.074.041-.247.074-.5.113-.745,0-.026-.033-.048-.046-.019a2.687,2.687,0,0,0-.227.723c-.08-.016-.159-.033-.239-.048a2.922,2.922,0,0,0,.068-.723.016.016,0,0,0-.032,0c-.051.237-.094.467-.122.706h-.019c-.106-.027-.213-.049-.321-.069a1.353,1.353,0,0,0,.059-.754.019.019,0,0,0-.033,0,1.758,1.758,0,0,0-.145.735c-.116-.02-.232-.038-.349-.052a4.607,4.607,0,0,0,.116-.621.02.02,0,0,0-.039-.012,3.593,3.593,0,0,0-.145.624c-.172-.019-.344-.033-.518-.041.032-.182.061-.365.1-.547a.02.02,0,0,0-.039-.012,2.061,2.061,0,0,0-.145.556h-.31a1.225,1.225,0,0,0,.082-.521.02.02,0,1,0-.04,0,2.267,2.267,0,0,0-.145.528h-.205c-.136-.009-.273-.016-.411-.022.012-.289.02-.537.383-.606a.942.942,0,0,0-.145.561.043.043,0,0,0,.08.022,1.129,1.129,0,0,0,.145-.6h.041c.4-.03.8-.017,1.194-.03a6.935,6.935,0,0,1,1.487.071c.632.106.285.558.093.964Zm41.17,20.237c-.739.059-1.192-.5-1.736-.878-.344-.24-.914-.046-1.236-.24a1.4,1.4,0,0,0,.556-.122.233.233,0,0,0,.058-.045,1.1,1.1,0,0,0,.457.077.136.136,0,0,0,.117-.068,1.481,1.481,0,0,1,2.354-.46c.935.726.456,1.652-.566,1.735Z" transform="translate(-331.085 -143.293)" fill="#fff" stroke="#fff" stroke-width="0.5"/>
        <path id="Path_1308" data-name="Path 1308" d="M575.711,387.19a2.623,2.623,0,0,1-.661-.067,1.059,1.059,0,0,1-.553-.506,2.72,2.72,0,0,1-.479-1.089.074.074,0,0,0-.145.02,2.912,2.912,0,0,0,.579,1.341,1.269,1.269,0,0,0,1.264.477.088.088,0,0,0-.006-.176Z" transform="translate(-507.025 -338.396)" fill="#fff" stroke="#fff" stroke-width="0.5"/>
        <path id="Path_1309" data-name="Path 1309" d="M544.477,311.05c-.469-1.089-1.9-1.233-2.932-1.157a13.6,13.6,0,0,0-4.567,1.516l-.937.434a13.428,13.428,0,0,0-.952-3.312c.09.012.174.025.226.025.321,0,.638-.087.961-.094.281,0,.635.145.816-.163.11-.187-.078-.467-.161-.619a3.8,3.8,0,0,1-.2-.911.612.612,0,0,1,.1-.77c.122-.043.245-.032.366-.084.723-.314.658-.9.058-1.321a6.8,6.8,0,0,0-1.3-.466c-.305-.132-.182-.771-.224-1.024a.943.943,0,0,1,.318-.935c.027-.028.237-.191.127-.289a.086.086,0,0,0,.121-.122l-.022-.026a.09.09,0,0,0-.145.017c-.243.333-.579.53-.657.951a3.83,3.83,0,0,0,.116,1.334c.058.239.392.334.587.4a8.1,8.1,0,0,1,.8.255q.545.205.271.966a1.434,1.434,0,0,1-.475.133c-.765.127-.234,1.257-.13,1.648a1.938,1.938,0,0,0,.2.475c.227.417-.732.324-.851.341a4.269,4.269,0,0,1-.991.067,13.921,13.921,0,0,0-.868-1.61,15.777,15.777,0,0,0-1.748-2.212c-.307-.336-.668-.619-.992-.939a1.3,1.3,0,0,0-.534-.406c-.081-.023-.145.1-.059.145.289.123.528.5.723.723.268.3.563.561.823.868a16.208,16.208,0,0,1,1.591,2.232,12.619,12.619,0,0,1,.684,1.34.111.111,0,0,0,.032.074,25.921,25.921,0,0,1,1.144,3.423,35.33,35.33,0,0,1-3.879,1.5c-1.079.337-2.16.667-3.249.971a.117.117,0,0,0,0-.013.162.162,0,0,0-.02-.155c-.136-.166-.032-.6-.069-.8-.1-.554-.1-.868-.692-1.033-.033-.01-.068-.016-.1-.026a17.769,17.769,0,0,1-1.622-2.784c-.22-.548-.405-.742-1.005-.784-.236-.016-.68.09-.579.424a1.862,1.862,0,0,1-.34,1.658c-.187.353-.2.8-.386,1.13a.074.074,0,0,0,0,.077c-.446.01-1.253.081-1.474-.136-.069-.068-.165.033-.1.1.224.263.66.169.971.188.8.049,1.591.126,2.394.162a8.225,8.225,0,0,1,1.978.117c.042.052.085.106.129.156a.1.1,0,0,0,.163-.036.723.723,0,0,1,.4.569c.022.181-.059,1.094.208,1.042a.1.1,0,0,0-.022.181l-.608.168c-1.234.328-2.565.489-3.788.868a.173.173,0,0,0-.081-.043,14.536,14.536,0,0,0-3.895-.323H520.1a3.246,3.246,0,0,0-.033-.595c.467-.2.868-.548,1.354-.736.107-.042.135-.109.165-.22.077-.281.158-.561.227-.843a.081.081,0,0,0,.043-.133l-.01-.01c.012-.051.025-.1.036-.153a.084.084,0,0,0-.01-.064l.055-.156c.023-.067.043-.132.062-.2,0,0,0-.006,0-.009a.283.283,0,0,1,.012-.048c.014-.049.029-.1.043-.145.1-.289.281-.579.4-.846a6.183,6.183,0,0,1,.579-1.029c.308,0,.828-.133.846-.525.017-.369-.356-.548-.65-.674a1.736,1.736,0,0,0-1.315-.145c-.25.114-.37.289-.331.476a4.318,4.318,0,0,0-2.17-.116,13.806,13.806,0,0,0,.645-3.6.009.009,0,0,0-.018,0,36.654,36.654,0,0,1-3.931,10.027,6.785,6.785,0,0,1-2.821,2.682,11,11,0,0,1-2.322.778c-.958.234-1.937.233-2.893.42-.1.019-.1.191,0,.205a10.272,10.272,0,0,0,5.022-.984,7.1,7.1,0,0,0,3.038-2.447,13.564,13.564,0,0,0,.907-1.476,3.965,3.965,0,0,0,.723,1.356,2.211,2.211,0,0,0,.868.5,15.218,15.218,0,0,0-2.041.833c-1.361.689-1.862,2.39-.347,3.231.026.014.064-.016.043-.043-.482-.645-.937-1.262-.483-2.062a3.13,3.13,0,0,1,1.7-1.141c.95-.362,1.918-.683,2.893-.962a7.139,7.139,0,0,1,3.038-.434c1.185.211,1.149,1.62.923,2.585-1.2.529-2.4,1.089-3.64,1.507a13.734,13.734,0,0,1-4.411.652.073.073,0,1,0-.019.145,7.434,7.434,0,0,0,4.353-.169,11.677,11.677,0,0,0,2.559-1.026c.843-.245,1.67-.544,2.525-.755,1.13-.279,2.282-.463,3.43-.641,1.6-.249,3.183-.579,4.786-.843a12.351,12.351,0,0,1-1.688,3.264,4.219,4.219,0,0,1-3.569,1.149,2.216,2.216,0,0,0,.21-.085c.405-.194.33-.564.1-.858a4.325,4.325,0,0,0-2.749-1.157.039.039,0,0,0-.02.074,9.88,9.88,0,0,1,2.18.744c.331.2.972.809.3,1.053a2.557,2.557,0,0,1-.9.09,26.084,26.084,0,0,1-4.874-1.068.016.016,0,0,0-.009.03,38.453,38.453,0,0,0,3.812,1.195,3.678,3.678,0,0,0,1.933-.01.02.02,0,0,0,.011.029,3.514,3.514,0,0,0,3.5-.787,6.144,6.144,0,0,0,1.881-3.66.039.039,0,0,0,0-.022l.21-.033c0,2.938-1.415,6.921-4.447,8a7.034,7.034,0,0,1-4.774-.4c-1.756-.762-2.315-2.812-3.183-4.34-.012-.02-.046,0-.038.016a8.116,8.116,0,0,0,2.937,4.384,7.153,7.153,0,0,0,4.933.561,5.678,5.678,0,0,0,3.194-2.736,9.625,9.625,0,0,0,1.548-5.506.094.094,0,0,0,0-.01c.409-.065.817-.129,1.228-.182l.116-.014a15.212,15.212,0,0,1-2.144,7.357,10.28,10.28,0,0,1-5.958,4.305,10.551,10.551,0,0,1-7.84-1.108,12.821,12.821,0,0,1-5.053-5.415c0-.007-.016,0-.012,0a11.551,11.551,0,0,0,12.712,6.752c5.315-1.181,8.637-6.677,8.521-11.928a20.82,20.82,0,0,0,5.281-1.059,5.884,5.884,0,0,0,2.477-2.118,3.137,3.137,0,0,0,.72-2.76Zm-19.1,1.147c-.444-.014-.888-.054-1.331-.084H524a1.693,1.693,0,0,0,.152-.483,4.417,4.417,0,0,1,.566-1.157,1.173,1.173,0,0,0,.224-.579c0-.184-.246-.784-.017-.868.9-.317,1.157.956,1.471,1.521a15.993,15.993,0,0,0,1.047,1.761,14.688,14.688,0,0,0-2.056-.11Zm-3.691.289a2.342,2.342,0,0,0-.4-.12.7.7,0,0,0-.515,0c.016-.055.033-.11.048-.164a.064.064,0,0,0,.061.01.746.746,0,0,1,.833.162,1.079,1.079,0,0,1-.024.11Zm.09-.289a.852.852,0,0,0-.917-.133.609.609,0,0,1,.016-.087c.039.032.113.027.121-.033.017-.119.343-.119.418-.106a.526.526,0,0,1,.337.259.073.073,0,0,0,.044.035.2.2,0,0,1-.012.061Zm.246-.723h0a2.042,2.042,0,0,0-.172.461.665.665,0,0,0-.508-.289.6.6,0,0,0-.434.158,1.907,1.907,0,0,1,.042-.233c.022-.059.046-.119.071-.177,0-.012.012-.023.019-.035a.065.065,0,0,0,.012-.041c.041-.093.083-.184.127-.275a.074.074,0,0,0,.145.03c.033-.1.229-.077.305-.059a.593.593,0,0,1,.415.321.061.061,0,0,0,.038.033.735.735,0,0,0-.048.106Zm.289-.579c-.052.1-.113.216-.172.328a.723.723,0,0,0-.535-.376.457.457,0,0,0-.386.087c.041-.08.082-.159.124-.239a.073.073,0,0,0,.049-.009c.145-.082.289-.185.46-.109a.707.707,0,0,1,.289.325c.042.078.178.023.145-.061a.773.773,0,0,0-.391-.434.459.459,0,0,0-.434.048l.09-.166a.064.064,0,0,0,.087.01.349.349,0,0,1,.393-.062,1.237,1.237,0,0,1,.3.259c.059.069.177-.022.126-.1a.97.97,0,0,0-.4-.343.45.45,0,0,0-.4.046c.033-.064.067-.127.1-.191h0c.247-.218.7.1.79.343a.081.081,0,0,0,.067.053c-.085.2-.182.392-.282.589Zm.589-2.1a2.71,2.71,0,0,1,.495.211,1.031,1.031,0,0,1,.223.161c.518.46-.492.625-.608.628a.072.072,0,0,0-.051.02.062.062,0,0,0-.042.023,3.368,3.368,0,0,0-.229.341.868.868,0,0,0-.813-.509l.049-.1a.062.062,0,0,0,.054,0,.624.624,0,0,1,.434-.038.675.675,0,0,1,.363.307.083.083,0,1,0,.145-.081A.709.709,0,0,0,522,309.4a.081.081,0,0,0-.113-.065.058.058,0,0,0,0-.062c-.509-.687.79-.547,1.035-.474Zm-4.47,2.776c.661.087,1.338-.019,2.005.062.1.013.126-.161.025-.181a6.379,6.379,0,0,0-1.959-.048l.093-.217c.279-.657.535-1.327.754-2.008a7.134,7.134,0,0,1,2.229.065.072.072,0,0,0,.068-.016.746.746,0,0,0,.106.145.071.071,0,0,0,.091,0c-.308.625-.7,1.27-.966,1.927a1.244,1.244,0,0,0-.153.563c-.036.23-.12.457-.155.686-.082.252-.177.566-.421.637a1.694,1.694,0,0,0-.311.169,1.994,1.994,0,0,1-.383.158,1.994,1.994,0,0,0-.579-.424,2.315,2.315,0,0,0-.959-.325c.194-.4.359-.794.53-1.189Zm.512,4.758a2.7,2.7,0,0,1-1.127-.628c-.366-.365-.425-.877-.681-1.3.25-.476.482-.965.7-1.457a7,7,0,0,1,.767.234,1.883,1.883,0,0,1,.464.266,2.411,2.411,0,0,1,.253.162.062.062,0,0,0,.022.054l.013.012a.077.077,0,0,0,.1,0,4.854,4.854,0,0,0,.926-.388c.11-.048.161-.239.205-.336a3.3,3.3,0,0,0,.155-.4.062.062,0,0,0,.032-.011.463.463,0,0,1,.409-.023.079.079,0,0,0-.01.014c-.136.289-.25.858-.56.965-.349.122-.679.317-1.013.462-.08.035-.022.168.058.145.393-.145.762-.365,1.157-.485a.252.252,0,0,0,.171-.194c.094-.273.211-.54.326-.8a.085.085,0,0,0,0-.059,1.638,1.638,0,0,1,.325.1v.012q-.09.321-.181.641c-.075.262-.051.279-.289.4-.4.207-.773.5-1.175.693a.079.079,0,0,0-.09.072,2.786,2.786,0,0,1-.313,1.652c-.2.072-.418.136-.636.205Zm.888-.265a3.99,3.99,0,0,0,.221-.589,1.556,1.556,0,0,0,.035-.179h.01a4.885,4.885,0,0,0,1.613.136,3.228,3.228,0,0,1,.619.019,14.369,14.369,0,0,0-1.684.388c-.256.078-.528.151-.8.227Zm22.4-1.157a9.965,9.965,0,0,1-5.152,1.555c-1.986.258-3.932.624-5.908.948a59.894,59.894,0,0,0-6.48,1.214,1.284,1.284,0,0,0,.071-.13l.038-.029a.085.085,0,0,0,.02-.12,2.769,2.769,0,0,0-.658-2.519.807.807,0,0,0-.072-.061.167.167,0,0,0,.026-.029,12.439,12.439,0,0,0,2.526-.4c1.185-.256,2.351-.589,3.511-.935a39.477,39.477,0,0,0,5.3-1.837,31.326,31.326,0,0,1,5.013-2.082c1.17-.31,3.65-.527,3.727,1.221a4.677,4.677,0,0,1-1.944,3.2Z" transform="translate(-450.724 -266.788)" fill="#fff" stroke="#fff" stroke-width="0.5"/>
        <path id="Path_1310" data-name="Path 1310" d="M348.493,138.751c-.072.191-.116.391-.19.579-.1.271-.239.528-.353.794-.041.094.094.178.145.081a6.966,6.966,0,0,0,.547-1.418.077.077,0,1,0-.149-.036Z" transform="translate(-313.894 -127.443)" fill="#fff" stroke="#fff" stroke-width="0.5"/>
        <path id="Path_1311" data-name="Path 1311" d="M385.811,124.205q-.093.122-.2.234h-.02a1.9,1.9,0,0,1-.6,0,.754.754,0,0,1-.321-.182c-.036-.032-.155-.179-.163-.124.014-.081-.1-.145-.145-.059-.093.179.23.4.352.479a.991.991,0,0,0,.676.123,3.779,3.779,0,0,1-2.442,1.107c-.9.038-1.765-.321-2.678-.276-1.075.052-2.843.655-3.135,1.849-.023.093.113.158.158.067l.052-.062a.068.068,0,0,0,.007-.094,3.212,3.212,0,0,1,2.277-1.447,7.436,7.436,0,0,1,2.818.162,3.692,3.692,0,0,0,3.529-1.671A.1.1,0,0,0,385.811,124.205Z" transform="translate(-338.849 -114.903)" fill="#fff" stroke="#fff" stroke-width="0.5"/>
        <path id="Path_1312" data-name="Path 1312" d="M298.331,89.123c-1.288.4-2.513.952-3.812,1.331-.66.192-1.321.381-1.978.579-.062.019-.127.036-.194.052a12.771,12.771,0,0,1,1.7-1.24c1.421-.307,2.852-.579,4.245-.994a.085.085,0,0,0-.036-.166.077.077,0,0,0,0-.145,5.237,5.237,0,0,0-3.206.59,8.2,8.2,0,0,0-.992.48h0c-1.264.3-2.519.611-3.762.992.017-.543-.7-.637-1.088-.622a1.4,1.4,0,0,0-1.4.809c-.347-.056-.7-.09-1.047-.132-.164-.02-.327-.033-.49-.054.046,0-.106-.447-.1-.434a.807.807,0,0,0-.663-.434c-.108-.02-.664-.03-.608.207a.1.1,0,0,0-.067-.071.807.807,0,0,0-.278-.885,2.238,2.238,0,0,0-2.37.129,2.042,2.042,0,0,0-.8-1.047,3.929,3.929,0,0,0-.453-.266c.289-.856.777-4.321-.723-4.321a3.346,3.346,0,0,0-.911.289,4.348,4.348,0,0,0-1.013.395c-.589.363-.579,1.277-.434,1.859.007.033.064.036.069,0,.107-.657-.054-1.354.621-1.764a7.761,7.761,0,0,1,1.531-.528c1.231-.4.755,3.287.7,3.992a2.781,2.781,0,0,0-.822-.213l-.159-.02a3.617,3.617,0,0,0-.624-.369,4.2,4.2,0,0,0-1.183-.561c-.02,0-.042.017-.027.036a2.577,2.577,0,0,0,.942.7l.074.045a6.033,6.033,0,0,1-.618-.179c-.525-.188-.687-.642-.156-1.027a3.418,3.418,0,0,0,.632-.405.025.025,0,0,0-.017-.042,1.48,1.48,0,0,0-1.214.752c-.162.451.124.754.495.975a12.92,12.92,0,0,0,1.9.706,7.824,7.824,0,0,1,1.771,1.2c-.392.208-.757.422-1.058.567l-.022-.043a.084.084,0,0,0-.1-.039c-.289.116-1.4.592-1.179,1.055-1.013.273-1.745,1.231-2.681,1.68-.026.013-.007.052.019.046a8.836,8.836,0,0,0,2.865-1.61.082.082,0,0,0-.062-.145l-.038.01c-.055-.271.369-.48.56-.593.1-.058.2-.107.3-.156.163-.08.179-.145.26.023.191.382.388,1.262.9,1.332.035,0,.071-.027.049-.064-.145-.231-.353-.4-.485-.655-.119-.229-.21-.47-.321-.7a3.285,3.285,0,0,0,1.318-.457l.016.012a.127.127,0,0,0,.19-.12,2.763,2.763,0,0,1,1.787-.448c1.2.194.1,1.544-.188,2.073a17.669,17.669,0,0,0-.94,1.943c-.017.043.052.071.074.032.569-.981,1.179-1.949,1.7-2.953a.117.117,0,0,0,.056.017,3.947,3.947,0,0,1,.8-.054c.493.1.252.561.486.8.064.064.177.055.259.065.512.065,1.027.1,1.535.2a.166.166,0,0,0,.2-.114c.174-.686,1.032-.778,1.591-.679.622.113.025.806.4,1a3.01,3.01,0,0,0,.839.168.388.388,0,0,1,.061.017h-.009c-.078.055-.009.178.075.129.017-.01.038-.017.055-.027.067.185-.226.5-.281.579-.165.221-.229.558-.414.76a1.048,1.048,0,0,0-.422-.155,1.555,1.555,0,0,0-1.646,1.056l-.039-.013a7.089,7.089,0,0,0-2-.106c-.971.051-1.94-.062-2.912-.065-.4,0-.794-.019-1.191-.035a2.668,2.668,0,0,1-.379-.048,3.707,3.707,0,0,1,.482-1.121,2.365,2.365,0,0,0,.515-.956c.085-.683-1-.521-1.2-.084a.023.023,0,0,0,0,.035c.213.08.459-.054.671-.081.482-.064,0,.778-.084.916a3.057,3.057,0,0,0-.6,1.256,2.91,2.91,0,0,0-.689-.084c-.449.02-.894.058-1.343.051-.065,0-.276.068-.236.069a.084.084,0,0,0-.042.156,2.534,2.534,0,0,0,1.1.145c.838.012,1.664.178,2.507.21.953.036,1.92.091,2.873.094a11.107,11.107,0,0,1,2.358.065.219.219,0,0,0,.082.016h.019a.207.207,0,0,0,.082-.017.019.019,0,0,0,.013,0,1.842,1.842,0,0,1,1.241.161,2.5,2.5,0,0,1,.829.829.068.068,0,0,0,.114-.03c.093-.512-.37-.868-.784-1.069a1.421,1.421,0,0,0-1.311.01.241.241,0,0,0,.017-.182,1.616,1.616,0,0,1,1.288-1,.9.9,0,0,1,.635.185.185.185,0,0,0,.094.082,1.011,1.011,0,0,1,.13.158,1.69,1.69,0,0,1-.069,1.532c-.012.027.032.043.045.019a1.564,1.564,0,0,0,.229-1.561.907.907,0,0,0-.145-.223,6.166,6.166,0,0,0,.453-.806c.12-.187.474-.522.376-.793a.516.516,0,0,0-.045-.094,4.3,4.3,0,0,1,.434-.113.088.088,0,0,0,.133.023l.081-.069c.265-.054.528-.1.758-.172.657-.2,1.318-.383,1.978-.579a28.135,28.135,0,0,0,3.6-1.3C298.488,89.24,298.424,89.094,298.331,89.123Zm-.116-.434h.013c-.715.1-1.4.334-2.109.488-.434.094-.868.179-1.311.269a5.787,5.787,0,0,1,3.407-.755ZM290.3,90.784c1.065-.221,2.1-.55,3.161-.8a12.476,12.476,0,0,0-1.477,1.186,4.807,4.807,0,0,0-.686.184c-.324-.249-.92-.137-1-.564Z" transform="translate(-253.005 -80.246)" fill="#fff" stroke="#fff" stroke-width="0.5"/>
        <path id="Path_1313" data-name="Path 1313" d="M302.273,339.047a9.048,9.048,0,0,0-1.92-4.4.076.076,0,0,0-.107.107,11.138,11.138,0,0,1,1.784,4.356,29.743,29.743,0,0,1,.569,5.194.1.1,0,1,0,.192,0,23.93,23.93,0,0,0-.518-5.26Z" transform="translate(-273.103 -294.932)" fill="#fff" stroke="#fff" stroke-width="0.5"/>
        <path id="Path_1314" data-name="Path 1314" d="M321.88,407.469h0a13.578,13.578,0,0,0,1.111,1.334s.013,0,.009-.009C322.632,408.339,322.208,407.948,321.88,407.469Z" transform="translate(-291.61 -357.198)" fill="#fff" stroke="#fff" stroke-width="0.5"/>
        <path id="Path_1315" data-name="Path 1315" d="M343.852,348.862l.169-.127C343.963,348.777,343.9,348.817,343.852,348.862Z" transform="translate(-310.396 -306.99)" fill="#fff" stroke="#fff" stroke-width="0.5"/>
        <path id="Path_1316" data-name="Path 1316" d="M345.268,347.135h0a1.143,1.143,0,0,1-.245.232A1,1,0,0,0,345.268,347.135Z" transform="translate(-311.393 -305.618)" fill="#fff" stroke="#fff" stroke-width="0.5"/>
        <path id="Path_1317" data-name="Path 1317" d="M352.94,369.13h0a.525.525,0,0,1-.187.249C352.833,369.308,352.924,369.244,352.94,369.13Z" transform="translate(-317.999 -324.42)" fill="#fff" stroke="#fff" stroke-width="0.5"/>
        <path id="Path_1318" data-name="Path 1318" d="M352.47,370.9l.041-.035Z" transform="translate(-317.764 -325.906)" fill="#fff" stroke="#fff" stroke-width="0.5"/>
        <path id="Path_1319" data-name="Path 1319" d="M315.061,297.68c-.23-.809-.567-1.581-.767-2.4-.308-1.262-.569-2.535-.814-3.809-.49-2.538-.927-5.087-1.447-7.618h0v-.246l.041.042a.013.013,0,0,0,.02-.014.773.773,0,0,0-.059-.074c0-.145.012-.289.022-.443.022.03.045.061.067.093a.011.011,0,0,0,.019-.012c-.026-.045-.054-.09-.083-.133.025-.389.064-.777.119-1.157.039-.269.271-.985-.062-1.178a.647.647,0,0,0-.451-.075,6.552,6.552,0,0,1-1,.1c-.362,0-.723-.03-1.085-.032a4.005,4.005,0,0,0-.418.026,1.931,1.931,0,0,0-.2.025c-.017-.023-.014-.02-.049-.038a.033.033,0,0,0-.048.019l-.009.022a.042.042,0,0,0,.019.048,2.708,2.708,0,0,0,1.11.1,6.943,6.943,0,0,0,1.548-.019c.171-.028.488-.126.512.207a1.736,1.736,0,0,1-.026.37c-.036.255-.087.506-.113.764v.064a5,5,0,0,0-.49-.524c.067-.058.13-.119.2-.175h0c-.067.056-.132.117-.2.175-.114-.109-.23-.216-.346-.323l.017-.016h0l-.017.016c-.107-.1-.214-.2-.317-.307h0c.1.111.2.217.3.321l-.2.187a2.758,2.758,0,0,0-.512-.535h0a3.811,3.811,0,0,1,.486.56c-.119.111-.239.223-.356.337-.048-.042-.1-.087-.145-.127l-.038-.036h.007a5.581,5.581,0,0,1-.424-.493h-.007l.026.048h0a1.745,1.745,0,0,0,.378.464c-.472.454-.916.936-1.377,1.4a.765.765,0,0,0-.09-.054c0,.035,0,.02.027.049h0a2.746,2.746,0,0,0,.213.223c-.1.106-.19.213-.289.32-.032-.022-.064-.042-.1-.061v.009a.58.58,0,0,0,.078.081c-.074.084-.145.165-.223.25,0,0,0,.012.007,0,.074-.084.145-.166.226-.249l.036.03h0l-.035-.03h0l.069.051c.084.074.158.162.236.242.022.023.045.043.068.065l-.446.524h0l.448-.521c.065.064.132.126.2.188q-.246.275-.485.557c-.236-.252-.469-.5-.694-.764,0,0-.014,0-.01.01.221.268.45.525.684.777q-.184.217-.362.434a3.616,3.616,0,0,0-.678-.723s-.009,0,0,0a3.647,3.647,0,0,1,.668.723l-.09.11s0,.014.009.009l.091-.107c.058.074.117.145.177.208s.087.091.132.145c-.088.11-.178.22-.263.333,0,0,0,.014.01.009.087-.111.177-.22.265-.328.067.069.135.135.2.2-.109.123-.218.245-.324.37-.221-.211-.446-.418-.677-.615h0c.227.2.447.417.664.631l-.013.014s0,.016.01.01l.013-.014.278.279-.227.289s0,.013.009.007l.229-.281.256.259c-.1.117-.205.236-.307.354a2.245,2.245,0,0,1-.613-.534h-.01a2.248,2.248,0,0,0,.615.538c-.2.233-.389.467-.579.712-.009.012.012.026.02.014.188-.24.382-.475.579-.706l.091.069q.12.1.237.2-.391.434-.777.868s0,.013.009.009q.392-.434.784-.858c.065.055.129.113.194.169q-.252.252-.492.516h0c-.253.276-.5.561-.733.858,0,.009,0,.02.012.012.237-.289.486-.579.741-.849.145.155.3.313.443.47q-.579.684-1.114,1.393a15.385,15.385,0,0,0-.59-1.793c-.289-.752-.767-1.447-1.033-2.211a.081.081,0,0,0-.155.043,11.775,11.775,0,0,0,.732,1.824,16.118,16.118,0,0,1,.829,2.765,43.085,43.085,0,0,1,.926,5.932c.01.111.192.155.21.029a8.617,8.617,0,0,0-.145-2.5c-.159-1.013-.328-2.01-.548-3q-.1-.434-.205-.88h0a12.092,12.092,0,0,1,1.236-1.4c.127.145.253.289.379.425q-.227.265-.45.534a1.647,1.647,0,0,0-.349-.246h0a1.877,1.877,0,0,1,.339.258c-.107.129-.214.258-.32.388-.007.01,0,.023.013.013l.326-.383a9.065,9.065,0,0,1,.612.689l-.054.046h0l.054-.046.019.022c.08.093.162.184.245.275q-.24.26-.473.527c-.093-.093-.182-.187-.278-.276h0c.093.093.182.19.272.289q-.177.2-.349.408c-.007.01,0,.023.013.013.116-.136.236-.268.354-.4.106.11.208.224.311.339q-.345.345-.676.7s0,.013.009.009c.221-.239.448-.472.677-.7.067.074.13.145.2.223q-.278.289-.553.569c-.058-.058-.116-.116-.177-.171h0c.059.056.117.116.174.175q-.223.233-.434.472s0,.014.009.009c.145-.156.3-.31.447-.464.085.09.169.182.253.275l-.1.109s0,.017.01.01l.106-.106c.11.122.218.243.331.362h0c-.4.418-.788.851-1.157,1.3,0,.007,0,.019.012.012.372-.446.761-.875,1.157-1.295.038.039.077.077.116.116a11.767,11.767,0,0,0-.951,1.07c-.007.01,0,.023.013.013a13.021,13.021,0,0,1,.953-1.066c.121.121.244.243.367.362a16.627,16.627,0,0,0-1.066,1.276s0,.01.009,0c.336-.434.7-.859,1.069-1.269l.434.434.1.1c-.466.434-.94.868-1.4,1.3-.01.01,0,.025.014.016.463-.434.936-.868,1.4-1.3q.205.21.405.425c-.272.265-.538.537-.809.8-.7.694-1.4,1.39-2.043,2.144l-.049-.071h0l.049.074q-.145.164-.272.33c-.007.01,0,.023.013.013.091-.106.185-.21.278-.314.058.087.119.172.179.258l-.038.041c-.012.013,0,.032.019.019l.035-.036c.129.181.263.359.4.535-.1.113-.2.227-.289.341-.153-.177-.3-.354-.434-.538h0a6.537,6.537,0,0,0,.434.541q-.357.417-.7.842a2.515,2.515,0,0,1-.214-.2h0a2.224,2.224,0,0,0,.214.2l-.122.145c-.007.01,0,.023.013.013l.126-.145a2.077,2.077,0,0,1,.177.169l.041.045a3.04,3.04,0,0,0-.171.263c-.145-.009-.281-.016-.421-.022a.073.073,0,0,0-.019.145c.289.062.59.111.888.152l-.1.11a.012.012,0,1,0,.017.017c.042-.04.083-.082.123-.123a22.7,22.7,0,0,0,2.446.174,10.032,10.032,0,0,0,2.279-.085C315.567,300.392,315.414,298.918,315.061,297.68Zm-3.125-14.237a6.061,6.061,0,0,0-.495-.495l.26-.262c.062.069.124.145.184.213C311.9,283.081,311.916,283.261,311.936,283.442Zm-1.872,16.3-.022-.025c-.122-.145-.247-.289-.373-.434l.039-.045c.081-.093.164-.184.245-.275q.194.244.392.486c-.087.1-.188.2-.281.294Zm.314-.247c.145.182.289.366.443.548l-.268.289c-.145-.184-.3-.366-.454-.548Zm-.434-.579-.184-.227c.386-.434.778-.868,1.188-1.286s.828-.816,1.259-1.205c.175-.159.359-.31.543-.459l.327.362a11.536,11.536,0,0,1-.946.7,16.528,16.528,0,0,0-1.33,1.192c-.3.3-.577.6-.854.92Zm2.407-3.676.376-.328q.21.244.424.483c-.126.107-.256.211-.385.315-.135-.155-.272-.314-.412-.469Zm-.02-.022c-.107-.119-.214-.239-.323-.356q.184-.181.373-.357c.109.13.22.259.33.388Zm-.311-1.224c.187-.182.375-.365.57-.538l.434.434-.059.048c-.192.168-.379.343-.57.514Zm.545-.548c-.2.166-.38.346-.564.525q-.252-.313-.5-.624c.145-.156.289-.311.451-.456l.062-.059q.278.307.563.608Zm-1.327-1.48.3.343c-.168.152-.334.307-.5.464l-.012.012q-.153-.182-.308-.36.255-.231.516-.457Zm-.531.434c-.087-.1-.172-.2-.26-.289l.482-.489.172.192.119.135q-.255.223-.506.456Zm.848-.078.145.158q-.266.231-.525.469l-.12-.145q.249-.243.5-.477Zm.145.169.289.328c-.178.165-.349.337-.515.514-.1-.123-.2-.246-.3-.367q.273-.237.531-.47Zm.027-.025q.249-.22.5-.434l.281.321c-.145.114-.271.247-.4.362l-.09.082Zm-.01-.012-.145-.159.493-.451.155.177q-.24.221-.492.438Zm-.155-.174-.3-.341q.253-.22.509-.434l.289.328Zm-.321-.362-.211-.237-.081-.09.1-.106q.184-.185.37-.366l.331.37q-.248.215-.5.432Zm-.2-.446-.1.1-.194-.216q.24-.233.483-.463l.187.208q-.175.182-.36.369Zm-.308-.122-.339-.376q.227-.247.462-.49l.363.407c-.151.155-.313.308-.473.463Zm.1-.961-.179-.2q.349-.31.69-.628l.226.205c-.191.172-.382.341-.554.516l-.145.145Zm.2-7.746c-.5.448-.981.923-1.447,1.416l-.088-.093c-.035-.036-.071-.077-.107-.119.434-.5.885-1,1.358-1.471a3.859,3.859,0,0,1,.3.269Zm-.247-.289c.1-.1.207-.2.311-.3l.281.289c-.1.09-.207.178-.31.269-.055-.051-.111-.1-.163-.153s-.062-.074-.106-.111Zm-.887,2.121-.22.23c-.059-.056-.12-.111-.179-.169l-.153-.152.23-.253Zm-.01.5c-.177.184-.353.367-.524.556-.071-.069-.145-.145-.214-.21q.25-.289.509-.563Zm.378,1.526.045-.045c.091.082.185.162.278.242q-.229.2-.451.4l-.236-.216c.134-.13.256-.256.379-.382Zm-.379.365-.282-.265-.042-.041q.2-.211.4-.42c.111.1.224.2.337.3l-.145.145c-.074.085-.164.181-.253.275Zm.616.634c-.116.127-.23.256-.344.385l-.058-.052c-.117-.11-.233-.223-.347-.334q.184-.175.37-.346Zm.012.01.315.289-.388.337-.271-.243c.127-.13.236-.259.356-.386Zm-.353-.392q.223-.2.45-.4c.113.1.231.194.346.289l-.028.029c-.132.145-.262.289-.392.425Zm.182-.692q.256-.259.519-.512l.3.305q-.271.218-.532.443c-.081-.081-.182-.159-.278-.239Zm-.014-.012c-.053-.046-.11-.09-.163-.136s-.12-.107-.179-.161c.177-.182.356-.36.534-.541.111.107.221.217.331.327q-.253.249-.511.508Zm-.365-.317c-.107-.1-.213-.2-.318-.3q.249-.289.5-.579l.282.268.069.068c-.168.178-.349.354-.53.535Zm-.331-.31c-.084-.081-.169-.161-.252-.243.172-.188.349-.372.524-.556l.234.223-.495.577Zm-.023.027q-.184.216-.365.434c-.088-.087-.178-.171-.265-.258.126-.145.249-.289.376-.422a3.051,3.051,0,0,1,.265.243Zm.013.013c.1.1.211.2.317.289q-.2.205-.4.415l-.289-.275q.2-.218.383-.434Zm.049.9.182.171q-.172.181-.341.363l-.311-.307c.11-.122.218-.245.331-.365Zm.2.187.231.214q-.187.171-.37.344l-.2-.2Zm.093.856.162.145c-.064.071-.127.145-.19.214l-.046.055c-.145-.133-.289-.265-.443-.395.09-.09.181-.177.272-.265.093.081.174.162.255.242Zm.075.278.1-.114c.087.081.178.159.266.239l-.268.239-.058-.052-.174-.155a1.651,1.651,0,0,0,.143-.162Zm.383.145.333.289c-.082.09-.162.181-.243.271l-.356-.323Zm.352.308.462.4q-.145.126-.289.256l-.421-.385c.1-.1.172-.194.26-.284Zm.145.687c-.214.2-.421.407-.625.615l-.337-.373q.269-.315.544-.625Zm0,0,.408.372q-.343.315-.69.625l-.343-.38c.226-.213.432-.42.647-.621Zm.446.353.289-.268.227.21c-.1.091-.192.181-.289.269a1.818,1.818,0,0,0-.206-.217Zm-.009-.007-.407-.375q.145-.13.289-.256.207.181.409.363Zm-.557-1.076c.11-.12.224-.237.337-.356q.242.233.475.475c-.117.093-.234.188-.349.289q-.208-.211-.441-.414Zm-.019-.017-.328-.289.383-.34c.1.09.191.181.289.272-.1.116-.211.233-.323.353Zm-.24-.969q.207-.23.418-.457c.132.111.266.22.4.33-.162.145-.333.289-.5.424Zm.1-.791q.26-.226.525-.447l.266.268c-.145.159-.3.31-.443.46Zm.569-.483.256-.21q.11.1.217.2a2.826,2.826,0,0,1-.214.272Zm-.013-.013-.305-.31.216-.207.349.311Zm-.317-.321c-.11-.11-.22-.221-.331-.328l.192-.2c.116.107.234.213.354.318a2.465,2.465,0,0,1-.194.2Zm-.347-.346-.069-.068-.289-.268c.064-.071.126-.145.19-.21l.1.106c.084.084.169.166.258.247Zm-.367-.347-.236-.221.208-.216.218.227a1.713,1.713,0,0,1-.169.205Zm-.25-.236-.23-.216.218-.23c.072.078.145.153.221.23Zm-.311-.848c.457-.495.929-.975,1.428-1.431l.347.327c-.485.477-.974.953-1.447,1.447Zm1.463-1.463c.1-.091.2-.181.307-.271q.156.164.307.331l-.263.26a4.131,4.131,0,0,0-.33-.324Zm.8-.272a4.083,4.083,0,0,0,0,.479c-.048-.059-.1-.116-.145-.174h0q-.145-.168-.305-.328l.123-.109h0l-.124.107-.234-.236c-.017-.017-.033-.038-.051-.056.078-.072.158-.145.237-.214a7.179,7.179,0,0,1,.521.528Zm-.859-.877c.111.111.224.22.337.328-.08.071-.159.145-.237.214-.1-.111-.2-.231-.3-.353.085-.072.15-.13.218-.193Zm-.227.217a4.211,4.211,0,0,0,.271.327l.026.028c-.106.1-.21.2-.312.3-.111-.107-.221-.213-.337-.315.137-.117.256-.229.375-.34Zm-.119.609.072.071c-.475.467-.923.965-1.36,1.468-.1-.123-.216-.265-.334-.385q.663-.723,1.36-1.4a2.068,2.068,0,0,1,.284.244Zm-1.823.979c.462-.464.9-.946,1.376-1.4.058.056.119.111.178.166q-.7.678-1.363,1.4a1.329,1.329,0,0,0-.169-.166Zm-.13.544c.094-.106.188-.211.289-.315.041.039.08.08.114.117l.232.255-.234.272a3.1,3.1,0,0,0-.381-.333Zm.407.34.234-.271c.064.071.127.145.192.211q-.117.126-.232.253a1.156,1.156,0,0,0-.175-.2Zm.182.258.155.145.178.172q-.259.276-.508.563-.159-.162-.314-.327.263-.282.511-.557Zm-.787,1.111c-.03-.032-.061-.067-.091-.1l.369-.434c.1.11.208.218.314.327q-.187.214-.365.434a2.278,2.278,0,0,0-.207-.23Zm.239.242q.181-.218.367-.434c.069.071.145.145.211.211-.127.145-.249.289-.373.424a1.816,1.816,0,0,0-.184-.206Zm-.145.616c.107-.124.217-.245.326-.367.087.088.178.174.266.26l-.311.38a1.945,1.945,0,0,0-.253-.278Zm.289.289.313-.379.279.273c-.111.12-.221.242-.331.363Zm.259.884c-.093-.077-.2-.145-.3-.223.1-.117.2-.233.3-.349l.307.31-.271.289Zm.052.045.269-.289.2.2c-.091.088-.184.177-.273.266a.654.654,0,0,0-.167-.181Zm-.3.723q.243-.263.5-.515c.145.132.289.265.444.4q-.246.289-.489.579a3.406,3.406,0,0,0-.421-.469Zm-.632,2.05-.039-.164q.553-.706,1.127-1.392l.145.156a11.116,11.116,0,0,0-1.2,1.393Zm1.1-1.571c.162-.194.323-.388.488-.579l.067.061.158.145-.181.162c-.132.12-.26.243-.388.366Zm.161.172c.127-.123.255-.246.388-.366l.182-.164.356.328q-.276.307-.544.621a3.841,3.841,0,0,0-.353-.433Zm.556,1.677-.065-.072a7.429,7.429,0,0,0-.558-.611l.45-.528.333.376c-.136.145-.272.281-.405.42h0l.405-.418.337.38Zm0,.009q.253-.22.5-.444l.179.2.039.043q-.234.242-.462.489a1.386,1.386,0,0,0-.226-.3Zm-.214.868c.156-.177.313-.353.472-.527l.337.376q-.247.239-.49.483a1.684,1.684,0,0,0-.282-.344Zm.328.344q.243-.243.49-.483l.194.216-.483.488a.849.849,0,0,0-.165-.237Zm-.362.828q.275-.289.551-.569c.085.1.171.2.255.3q-.282.262-.548.541a1.075,1.075,0,0,0-.221-.281Zm.271.289q.272-.273.554-.534c.1.122.2.243.305.365q-.263.259-.519.525a2.372,2.372,0,0,0-.305-.373Zm.434.453-.074-.075q.229-.239.463-.475l.053-.052.12.145q-.265.243-.519.5Zm.059.058c.168-.169.341-.334.515-.5l.3.37-.152.162-.289.321a2.954,2.954,0,0,0-.341-.375Zm.92.9c-.175-.179-.356-.353-.538-.527l.289-.321.145-.161.5.622-.163.159-.245.231Zm.022.023c.082-.077.165-.152.247-.23l.162-.156q.187.229.375.456c-.129.116-.253.234-.378.354a3.344,3.344,0,0,0-.372-.443Zm-2.273,3.685c-.062-.084-.123-.168-.182-.255.686-.775,1.409-1.515,2.144-2.244.237-.236.473-.473.712-.707.109.116.214.234.323.352a39.182,39.182,0,0,0-2.961,2.835Zm.017.023c.956-.987,1.963-1.943,3-2.854.145.155.281.31.42.464-.185.145-.37.3-.55.453-.434.383-.858.784-1.27,1.195s-.809.835-1.2,1.27a4.432,4.432,0,0,0-.37-.547Zm.421.587c.059.077.122.153.181.229l-.289.324-.191-.217ZM308.7,299.89l.715-.823.191.217-.046.053c-.208.239-.443.492-.639.761a2.365,2.365,0,0,0-.188-.229Zm.065.486c.052-.082.107-.162.166-.243.081.091.163.184.246.275Zm.434.035c-.087-.1-.175-.191-.26-.289.213-.289.463-.553.689-.81.067.077.132.153.194.233s.127.155.191.231q-.313.325-.621.652Zm.24.023q.305-.305.606-.616l.456.547-.145.158Zm.943.091.137-.145.136.163Zm.3.027c-.048-.061-.1-.12-.145-.181l.273-.279q.174.218.341.434l-.007.009c0,.009,0,.02.012.012h0l.033.043q-.217-.038-.473-.059Zm3.218,0a8.075,8.075,0,0,1-2.077.051,10.411,10.411,0,0,1,1.157-1.25c.352-.336.812-.566,1.144-.913a5.877,5.877,0,0,1-.593.434c-.226.175-.447.352-.654.547a7.878,7.878,0,0,0-1.072,1.186h-.13c-.152,0-.3-.007-.456-.014l-.042-.056q.665-.764,1.382-1.48a12.408,12.408,0,0,1,1.525-1.262.26.26,0,0,0-.122.049h0q.107-.007-.045.054a2.007,2.007,0,0,0-.172.113c-.122.084-.239.178-.357.266a6.287,6.287,0,0,0-.648.579c-.55.534-1.076,1.091-1.573,1.675q-.164-.226-.334-.446c.372-.391.735-.787,1.114-1.169.554-.557,1.194-1.013,1.752-1.57,0,0,0-.017-.01-.01-.564.547-1.205,1.005-1.768,1.555-.383.375-.746.771-1.111,1.157-.145-.185-.289-.367-.434-.551.323-.333.647-.663.985-.978.38-.354.781-.686,1.188-1.013a4.031,4.031,0,0,0,.962-.8c0-.007,0-.015-.012,0a2.3,2.3,0,0,1-.564.477c-.171.13-.343.259-.512.391-.412.318-.806.661-1.188,1.013-.305.282-.6.579-.893.868l-.395-.485c.279-.314.561-.625.858-.923.386-.389.8-.758,1.217-1.111.327-.276.736-.5,1.039-.806l.22.243c.01.012.026,0,.016-.016-.071-.082-.145-.165-.217-.246a1.712,1.712,0,0,0,.114-.132h0a1.641,1.641,0,0,1-.116.129l-.321-.363c.129-.1.258-.21.383-.318.1.116.208.23.315.343.009.009.02,0,.013-.013-.1-.114-.205-.23-.308-.347.1-.088.2-.179.3-.273h0c-.1.094-.2.184-.3.271q-.211-.243-.418-.49.279-.24.56-.476c.007,0,0-.017-.012-.012q-.289.231-.564.47c-.109-.13-.218-.26-.327-.392l.085-.081c.178-.163.359-.327.534-.493l.1.1a.011.011,0,0,0,.016-.014l-.1-.1c.032-.03.065-.059.1-.091l.029-.026c-.048.039-.094.075-.135.107-.145-.145-.289-.289-.425-.441l.065-.058a2.8,2.8,0,0,0,.56-.518h0a3.184,3.184,0,0,1-.635.563q-.289-.3-.561-.612c.155-.145.314-.314.485-.451l.145.172c.01.012.026,0,.017-.017-.046-.059-.1-.116-.145-.174a1.83,1.83,0,0,1,.184-.13h0a1.588,1.588,0,0,0-.185.132c-.09-.11-.179-.221-.271-.328l.072-.062h0l-.072.062-.153-.181c.234-.213.466-.434.692-.651h0c-.226.221-.46.434-.7.644-.1-.11-.19-.221-.289-.33q.453-.378.914-.745h0c-.31.243-.618.486-.923.735l-.336-.373.405-.394.051-.045a1.715,1.715,0,0,0-.145.12l-.321.307-.188-.207.76-.723h0l-.762.715-.369-.405a1.943,1.943,0,0,1,.145-.145c.172-.177.362-.349.551-.521.136.124.272.249.409.372.01.009.025,0,.014-.014-.132-.129-.266-.253-.4-.379q.145-.133.289-.271c.106.1.211.2.314.3.01.01.025,0,.014-.016-.1-.107-.2-.21-.3-.311a4.3,4.3,0,0,0,.564-.648h0a4.365,4.365,0,0,1-.57.641c-.074-.072-.145-.145-.223-.214.1-.1.21-.2.314-.3-.1.1-.21.2-.315.3q-.2-.187-.4-.367c.113-.1.229-.2.346-.289l.1.1c.013.013.032,0,.02-.02s-.062-.067-.093-.1a6.646,6.646,0,0,1,.543-.4h0c-.187.122-.369.255-.545.393q-.229-.25-.469-.489c.067-.071.132-.145.2-.211a.01.01,0,1,0-.014-.014c-.068.069-.135.145-.2.211-.093-.091-.184-.182-.278-.272.165-.145.334-.281.5-.434.311.256.626.509.951.757.019.014.042-.017.025-.032-.3-.269-.608-.522-.92-.774a2.707,2.707,0,0,0,.257-.272s0-.013-.009-.009a2.709,2.709,0,0,1-.259.272l-.411-.328.019-.02c.135-.145.289-.289.42-.441a12.36,12.36,0,0,0,.978.894c.012.01.029,0,.017-.017-.331-.289-.647-.6-.959-.919a2.767,2.767,0,0,0,.213-.272,5.915,5.915,0,0,1,.579.626.013.013,0,0,0,.02-.014,4.043,4.043,0,0,0-.561-.673c.025-.039.048-.078.068-.117h0c-.02.039-.045.078-.068.116q-.1-.1-.2-.188l.174-.145h0l-.177.145c-.116-.107-.234-.213-.353-.317l.038-.036a3.862,3.862,0,0,0,.739-.749h0a3.853,3.853,0,0,1-.781.78c-.122-.107-.243-.213-.36-.318l.113-.114c.318-.317.681-.595.985-.923h0c-.307.327-.671.6-.994.916l-.114.114c-.09-.081-.177-.162-.26-.245l-.1-.107c.349-.375.71-.738,1.092-1.085h0c-.383.344-.746.706-1.1,1.079l-.22-.223q.712-.723,1.467-1.406h0q-.761.676-1.476,1.4c-.075-.077-.145-.152-.224-.229.472-.492.958-.972,1.439-1.447.184.174.367.347.541.529.016.145.033.289.046.434a.016.016,0,0,0,.03,0v-.023c.392,2.16.716,4.33,1.1,6.491a38.432,38.432,0,0,0,1.276,5.884c.418,1.231,1.558,3.634-.509,4.126Z" transform="translate(-278.471 -248.776)" fill="#fff" stroke="#fff" stroke-width="0.5"/>
        <path id="Path_1320" data-name="Path 1320" d="M328.224,280.48h.048Z" transform="translate(-297.035 -248.643)" fill="#fff" stroke="#fff" stroke-width="0.5"/>
        <path id="Path_1321" data-name="Path 1321" d="M249.85,385.934v0Z" transform="translate(-230.034 -338.789)" fill="#fff" stroke="#fff" stroke-width="0.5"/>
        <path id="Path_1322" data-name="Path 1322" d="M244.683,403.768v0Z" transform="translate(-225.616 -354.034)" fill="#fff" stroke="#fff" stroke-width="0.5"/>
        <path id="Path_1323" data-name="Path 1323" d="M326.961,255.8h0a2.93,2.93,0,0,0,.563.816h0a3.125,3.125,0,0,1-.563-.816Z" transform="translate(-295.951 -227.543)" fill="#fff" stroke="#fff" stroke-width="0.5"/>
      </g>
    </g>
  </g>
</svg>
