<svg xmlns="http://www.w3.org/2000/svg" width="39.667" height="35" viewBox="0 0 39.667 35">
  <g id="svgexport-10_11_" data-name="svgexport-10 (11)" transform="translate(0 -26)">
    <path id="Path_1375" data-name="Path 1375" d="M69.962,108.436H60.9a.9.9,0,0,0,0,1.795h9.064a.9.9,0,0,0,0-1.795Zm13.551,0H74.449a.9.9,0,0,0,0,1.795h9.064a.9.9,0,1,0,0-1.795Zm0-22.436H60.9a.9.9,0,0,0,0,1.795H83.513a.9.9,0,0,0,0-1.795Zm0,4.487H74.449a.9.9,0,0,0,0,1.795h9.064a.9.9,0,1,0,0-1.795Zm0,4.487H74.449a.9.9,0,0,0,0,1.795h9.064a.9.9,0,0,0,0-1.795Zm0,4.487H74.449a.9.9,0,0,0,0,1.795h9.064a.9.9,0,1,0,0-1.795Zm0,4.487H74.449a.9.9,0,0,0,0,1.795h9.064a.9.9,0,0,0,0-1.795Zm-13.551,0H60.9a.9.9,0,0,0,0,1.795h9.064a.9.9,0,0,0,0-1.795Zm0-13.462H60.9a.9.9,0,0,0-.9.9v9.064a.9.9,0,0,0,.9.9h9.064a.9.9,0,0,0,.9-.9V91.385A.9.9,0,0,0,69.962,90.487Zm-.9,9.064H61.795V92.282h7.269Z" transform="translate(-54.615 -54.615)" fill="#ffd600"/>
    <path id="Path_1376" data-name="Path 1376" d="M37.872,30.487H35.179V27.795A1.8,1.8,0,0,0,33.385,26H1.795A1.8,1.8,0,0,0,0,27.795V56.513A4.492,4.492,0,0,0,4.487,61H35.179a4.492,4.492,0,0,0,4.487-4.487V32.282A1.8,1.8,0,0,0,37.872,30.487Zm0,26.026a2.7,2.7,0,0,1-2.692,2.692H4.487a2.7,2.7,0,0,1-2.692-2.692V27.795h31.59V55.167a2.246,2.246,0,0,0,2.244,2.244.9.9,0,1,0,0-1.795.449.449,0,0,1-.449-.449V32.282h2.692Z" fill="#ffd600"/>
  </g>
</svg>
