<svg xmlns="http://www.w3.org/2000/svg" width="57.907" height="45.028" viewBox="0 0 57.907 45.028">
  <g id="icon" transform="translate(436.637 -462.96)">
    <path id="Path_1228" data-name="Path 1228" d="M-416.617,478.878c-.654.1-6.086.069-6.5-.04-.018-.186-.038-.392-.062-.642a1.888,1.888,0,0,1,.423-.158c.741-.079,1.485-.129,2.226-.214a6.241,6.241,0,0,0,1.019-.207,2.461,2.461,0,0,0,1.456-1.277c.469-.84.887-1.713,1.407-2.519a23.714,23.714,0,0,1,1.674-2.227c.475-.575,1.017-1.094,1.53-1.636a20.03,20.03,0,0,1,2.667-2.235,21.789,21.789,0,0,1,3-1.864c.706-.366,1.457-.643,2.18-.976a17.2,17.2,0,0,1,3.254-1.085c1.174-.278,2.375-.444,3.566-.644a17.4,17.4,0,0,1,3.376-.183,25.588,25.588,0,0,1,4.245.462,26.331,26.331,0,0,1,4.121,1.13,25.282,25.282,0,0,1,4.435,2.144,23.972,23.972,0,0,1,3.687,2.786,22.936,22.936,0,0,1,3.459,3.971A23.358,23.358,0,0,1-374,475.954a3.56,3.56,0,0,0,.971,1.3,2.815,2.815,0,0,0,1.465.552c.841.084,1.684.15,2.525.227a1.674,1.674,0,0,1,.265.073v.716a45.477,45.477,0,0,1-6.5.06c-.076-.168-.171-.356-.249-.552a20.237,20.237,0,0,0-3.244-5.4,19.925,19.925,0,0,0-3.566-3.308,23.248,23.248,0,0,0-2.9-1.829c-.761-.4-1.566-.727-2.363-1.056a20.488,20.488,0,0,0-3.671-1.08,19.148,19.148,0,0,0-2.115-.289c-.94-.086-1.885-.183-2.827-.178a18.709,18.709,0,0,0-3.463.312c-1.057.2-2.112.43-3.153.707a12.691,12.691,0,0,0-1.966.713c-.952.431-1.9.879-2.805,1.4a21.052,21.052,0,0,0-3.635,2.683,22.113,22.113,0,0,0-2.877,3.222,18.08,18.08,0,0,0-2,3.5A7.534,7.534,0,0,1-416.617,478.878Z" transform="translate(-11.751)" fill="#fff"/>
    <path id="Path_1229" data-name="Path 1229" d="M-373.126,694.886q-.636,1.128-1.272,2.256a16.576,16.576,0,0,1-2.108,2.95,32.237,32.237,0,0,1-2.745,2.746,22.955,22.955,0,0,1-4.4,2.978,24.905,24.905,0,0,1-4.223,1.761,21.329,21.329,0,0,1-3.287.789,28.072,28.072,0,0,1-4.8.4c-1.009-.027-2.013-.134-3.018-.253a24.19,24.19,0,0,1-4.7-1.064,25.271,25.271,0,0,1-5.948-2.872,24.009,24.009,0,0,1-4.5-3.839,17.613,17.613,0,0,1-2.362-3.133c-.432-.747-.857-1.5-1.264-2.259a2.319,2.319,0,0,0-1.813-1.319c-.8-.106-1.609-.209-2.413-.318-.26-.035-.519-.081-.809-.127v-.638c.4-.1,5.844-.128,6.548-.035a5.525,5.525,0,0,1,.274.542,18.2,18.2,0,0,0,3.26,5.387c.561.649,1.2,1.23,1.807,1.84a18.647,18.647,0,0,0,4.22,3.057A22.077,22.077,0,0,0-403.7,705.1a29.982,29.982,0,0,0,4.615,1.217,7.762,7.762,0,0,0,1.137.113c.895.048,1.793.149,2.684.109a24.935,24.935,0,0,0,5.411-.715,25.112,25.112,0,0,0,4.965-1.9,21.081,21.081,0,0,0,2.986-1.883,19.054,19.054,0,0,0,2.481-2.145,20.99,20.99,0,0,0,2.639-3.364,22.893,22.893,0,0,0,1.609-3.141c.07-.166.144-.331.22-.509h6.5l.1.7c-.265.045-.5.092-.742.124-.918.126-1.837.246-2.756.37a1.981,1.981,0,0,0-1.267.807Z" transform="translate(-12.091 -200.779)" fill="#fff"/>
    <path id="Path_1230" data-name="Path 1230" d="M-301.669,615.816a2.377,2.377,0,0,1,.027,1.275c-.215.01-.394.026-.572.026q-2.393,0-4.787,0c-.216,0-.433-.007-.648.011a.483.483,0,0,0-.5.5c-.022.326.091.484.433.545a5.025,5.025,0,0,0,.838.09c1.28.01,2.56-.009,3.839.009a1.705,1.705,0,0,1,1.742,1.164,1.957,1.957,0,0,1-.435,2.121,1.973,1.973,0,0,1-1.307.538q-3.066,0-6.133,0a2.638,2.638,0,0,1-.364-.054v-1.238c.2-.012.378-.032.554-.032q2.618,0,5.235,0a3.481,3.481,0,0,0,.4-.006.583.583,0,0,0,.58-.616c-.014-.364-.2-.545-.622-.548-1.3-.01-2.593,0-3.889-.012a4.1,4.1,0,0,1-1.133-.121,1.81,1.81,0,0,1-1.323-1.427,1.735,1.735,0,0,1,.681-1.81,2.016,2.016,0,0,1,1.249-.433l4.487-.012c.382,0,.765,0,1.147,0C-302.013,615.791-301.85,615.806-301.669,615.816Z" transform="translate(-110.793 -133.474)" fill="#fff"/>
    <path id="Path_1231" data-name="Path 1231" d="M-221.37,622.052v-1.237c.206-.013.4-.036.588-.036q2.667,0,5.335,0a.836.836,0,0,0,.678-.233.528.528,0,0,0,.151-.546.529.529,0,0,0-.47-.39c-.148-.015-.3-.01-.448-.01-1.246,0-2.493.007-3.739,0a2.617,2.617,0,0,1-1.518-.392,1.83,1.83,0,0,1-.763-1.916,1.834,1.834,0,0,1,1.594-1.444,6.573,6.573,0,0,1,.992-.049c1.629,0,3.257,0,4.886,0h.538a4.118,4.118,0,0,1,.076,1.286c-.225.016-.416.041-.607.041q-2.493,0-4.986,0a3.236,3.236,0,0,0-.5.018.543.543,0,0,0-.475.5.487.487,0,0,0,.421.53,3.356,3.356,0,0,0,.736.1c1.313.01,2.626.006,3.939,0a1.745,1.745,0,0,1,1.811,1.2,1.865,1.865,0,0,1-.485,2.136,1.757,1.757,0,0,1-1.175.485c-2.094.013-4.188.006-6.282,0A2.173,2.173,0,0,1-221.37,622.052Z" transform="translate(-187.8 -133.479)" fill="#fff"/>
    <path id="Path_1232" data-name="Path 1232" d="M-431.026,621.157c-.188-.186-.374-.373-.564-.556q-.805-.774-1.614-1.545c-.517-.49-1.038-.976-1.558-1.463-.058-.054-.121-.1-.261-.217,0,.826.013,1.566,0,2.306a13.3,13.3,0,0,1-.068,2.248h-1.446a58.893,58.893,0,0,1-.029-6.216,2.316,2.316,0,0,1,.316-.058c.182-.01.368.015.548-.006a1.861,1.861,0,0,1,1.714.639c.849.906,1.8,1.716,2.715,2.562.483.448.975.885,1.541,1.4,0-.823,0-1.562,0-2.3s0-1.484.006-2.261h1.423a59.688,59.688,0,0,1,.02,6.258c-.292.006-.6.015-.908.019s-.63,0-.91,0l-.927-.811Z" transform="translate(0 -133.339)" fill="#fff"/>
    <path id="Path_1233" data-name="Path 1233" d="M-45.5,615.755c.6,0,1.128-.035,1.652.016a1.23,1.23,0,0,1,.636.348c1.094,1.009,2.173,2.033,3.253,3.056.383.363.754.738,1.216,1.191v-4.542a6.763,6.763,0,0,1,1.564-.066,3.984,3.984,0,0,1,.054.453q.005,2.593,0,5.186c0,.2-.038.392-.062.625h-1.947l-4.878-4.582a6.8,6.8,0,0,0-.066,1.527c-.015.5,0,1,0,1.5V622a4.533,4.533,0,0,1-1.418.018Z" transform="translate(-341.607 -133.437)" fill="#fff"/>
    <path id="Path_1234" data-name="Path 1234" d="M-137.961,621.215l-.727,1.041a14.824,14.824,0,0,1-1.843-.016l4.2-6.254h1.649l4.124,6.147a3.51,3.51,0,0,1-1.783.092l-.526-.753a.614.614,0,0,0-.532-.31c-1.463.007-2.925.006-4.388.01A.924.924,0,0,0-137.961,621.215Zm.974-1.35h3.028l-1.528-2.282c-.168.229-.3.394-.417.572-.364.569-.721,1.142-1.08,1.714l-.03.024Z" transform="translate(-258.611 -133.647)" fill="#fff"/>
    <path id="Path_1235" data-name="Path 1235" d="M-342.913,615.785v6.2a5.329,5.329,0,0,1-1.411.02,61.623,61.623,0,0,1-.026-6.234A4.182,4.182,0,0,1-342.913,615.785Z" transform="translate(-80.543 -133.414)" fill="#fff"/>
    <path id="Path_1236" data-name="Path 1236" d="M-392.525,659.239l-.025.029.029-.026Z" transform="translate(-38.504 -171.424)" fill="#fff"/>
    <path id="Path_1237" data-name="Path 1237" d="M-30.567,708.9l.028.019-.031-.016Z" transform="translate(-354.648 -214.799)" fill="#fff"/>
  </g>
</svg>
