<svg xmlns="http://www.w3.org/2000/svg" width="42" height="42" viewBox="0 0 42 42">
  <g id="Group_1787" data-name="Group 1787" transform="translate(3520.679 -12696.321)">
    <rect id="Rectangle_2063" data-name="Rectangle 2063" width="42" height="42" transform="translate(-3520.679 12696.321)" fill="none"/>
    <g id="svgexport-15" transform="translate(-3514.222 12704.654)">
      <g id="Money_Verified" data-name="Money Verified" transform="translate(0 0)">
        <g id="Group_1770" data-name="Group 1770">
          <path id="Path_1557" data-name="Path 1557" d="M14.074,20.766H2.815A2.815,2.815,0,0,1,0,17.951V4.815A2.815,2.815,0,0,1,2.815,2H25.333a2.815,2.815,0,0,1,2.815,2.815V16.581a.938.938,0,1,1-1.877,0V4.815a.938.938,0,0,0-.938-.938H2.815a.938.938,0,0,0-.938.938V17.951a.938.938,0,0,0,.938.938H14.074a.938.938,0,1,1,0,1.877Z" transform="translate(0 -2)" fill="#5fdba7"/>
          <path id="Path_1558" data-name="Path 1558" d="M14.321,17.259c-2.59,0-4.691-2.524-4.691-5.63S11.731,6,14.321,6s4.691,2.524,4.691,5.63S16.911,17.259,14.321,17.259Zm0-9.383c-1.548,0-2.815,1.68-2.815,3.753s1.267,3.753,2.815,3.753,2.815-1.68,2.815-3.753S15.869,7.877,14.321,7.877ZM6.815,12.568H4.938a.938.938,0,1,1,0-1.877H6.815a.938.938,0,0,1,0,1.877Zm16.889,0H21.827a.938.938,0,1,1,0-1.877H23.7a.938.938,0,0,1,0,1.877Z" transform="translate(-0.247 -2.247)" fill="#5fdba7"/>
        </g>
        <path id="Path_1559" data-name="Path 1559" d="M24.568,29.136a6.568,6.568,0,1,1,6.568-6.568,6.568,6.568,0,0,1-6.568,6.568Zm0-11.259a4.691,4.691,0,1,0,4.691,4.691A4.691,4.691,0,0,0,24.568,17.877Z" transform="translate(-1.111 -2.864)" fill="#5fdba7"/>
        <path id="Path_1560" data-name="Path 1560" d="M23.529,24.727,22.272,23.48A.942.942,0,0,1,23.6,22.147l.582.591,1.877-1.877a.939.939,0,1,1,1.332,1.323l-2.58,2.543A.938.938,0,0,1,23.529,24.727Z" transform="translate(-1.358 -3.147)" fill="#5fdba7"/>
      </g>
    </g>
  </g>
</svg>
