<svg xmlns="http://www.w3.org/2000/svg" width="113.716" height="42.198" viewBox="0 0 113.716 42.198">
  <g id="Pickup_car" transform="translate(-1221 -1550)">
    <g id="Car_icon_" data-name="Car icon " transform="translate(1221 1550)">
      <path id="Path_324" data-name="Path 324" d="M438.213,197.132c31.4,0,56.858.45,56.858,1.005s-25.456,1.006-56.858,1.006-56.858-.451-56.858-1.006,25.456-1.005,56.858-1.005Z" transform="translate(-381.355 -156.946)" fill="#b3b3b3" fill-rule="evenodd"/>
      <path id="Path_325" data-name="Path 325" d="M493.3,174.638a27.884,27.884,0,0,0,.191-4.916c.063-1.721-.669-1.16-1.331-1.623-.141-2.429-.014-6.51-.279-9.005-.309-2.915-1.141-3.276-4.391-3.27l-38.282.082a2.551,2.551,0,0,1-1.519-.3c-.683-.461-1.1-6.005-1.825-9.225-.384-1.716-.375-2.565-2.291-2.565H426.437a11.867,11.867,0,0,0-7.238,2.96l-9.771,7.933a134.148,134.148,0,0,0-20.884,3.42c-1.856.482-2.613,1.338-2.6,3.4l.041,6.9a3.876,3.876,0,0,0-.883.17c-.574.192-.6.388-.642.951-.031.447-.02,1-.014,1.279.026,1.1.133,4.258.935,4.856a2.957,2.957,0,0,0,1.578.537l1.773.035c1.322-.263,1.577-.693,1.817-2.181a10.816,10.816,0,0,1,10.812-9.114,10.968,10.968,0,0,1,10.9,9.778c.171,1.572,1.011,1.593,2.167,1.606l44.1.093c.929,0,1.116-.521,1.184-1.393a10.959,10.959,0,0,1,21.834-.171c.139,1.464.116,1.613,1.428,1.615l3.555.008c1.519,0,6.368-.228,6.776-1.858Zm-55.715-19.75c.5-4.127.732-7.112.931-8.265.087-.5.182-.825.8-.818h2.608c.207,0,.326.478.367,1.219l.408,7.464c.1,1.809-.094,1.607-1.028,1.607H438.91c-1.433,0-1.48.086-1.323-1.207ZM417.972,156.1c-.578,0,.3-.352.339-1.092.075-1.253-2.215-1.346-3.635-1.254l5.932-5.331a8.135,8.135,0,0,1,2.422-1.567,9.56,9.56,0,0,1,4.047-1.046h8.5c.562-.008.541.229.471.7-.252,1.689-.729,6.191-1.109,8.3-.187,1.035-.408,1.3-1.47,1.3Zm-16.61,11.082a8.741,8.741,0,1,1-8.741,8.741,8.741,8.741,0,0,1,8.741-8.741Zm69.273,0a8.741,8.741,0,1,1-8.742,8.741,8.742,8.742,0,0,1,8.742-8.741Z" transform="translate(-382.115 -143.813)" fill="#fff" fill-rule="evenodd"/>
    </g>
  </g>
</svg>
