<svg xmlns="http://www.w3.org/2000/svg" width="146" height="146" viewBox="0 0 146 146">
  <g id="Group_1396" data-name="Group 1396" transform="translate(-277.617 -335.617)">
    <circle id="Ellipse_26" data-name="Ellipse 26" cx="73" cy="73" r="73" transform="translate(277.617 335.617)" fill="#ffd600"/>
    <g id="Group_1519" data-name="Group 1519" transform="translate(-2305.856 -1499.856)">
      <rect id="Rectangle_1958" data-name="Rectangle 1958" width="86" height="86" transform="translate(2613.474 1865.474)" fill="none"/>
      <g id="svgexport-20" transform="translate(2623.894 1869.144)">
        <path id="Path_1394" data-name="Path 1394" d="M32.315,37.889a18.332,18.332,0,0,0,13.4-5.55,18.332,18.332,0,0,0,5.55-13.395A18.333,18.333,0,0,0,45.71,5.549,18.335,18.335,0,0,0,32.315,0,18.33,18.33,0,0,0,18.921,5.55a18.332,18.332,0,0,0-5.55,13.394,18.332,18.332,0,0,0,5.55,13.4,18.337,18.337,0,0,0,13.395,5.55ZM22.18,8.809a13.693,13.693,0,0,1,10.135-4.2,13.7,13.7,0,0,1,10.136,4.2,13.7,13.7,0,0,1,4.2,10.135,13.7,13.7,0,0,1-4.2,10.136,13.694,13.694,0,0,1-10.136,4.2,13.7,13.7,0,0,1-10.135-4.2,13.693,13.693,0,0,1-4.2-10.136A13.694,13.694,0,0,1,22.18,8.809ZM65.464,60.483a46.8,46.8,0,0,0-.637-4.97,39.13,39.13,0,0,0-1.222-5,24.677,24.677,0,0,0-2.055-4.66,17.567,17.567,0,0,0-3.1-4.037,13.661,13.661,0,0,0-4.45-2.8,15.382,15.382,0,0,0-5.68-1.028c-.8,0-1.579.329-3.079,1.306q-1.6,1.041-3.208,2.068a18.375,18.375,0,0,1-4.15,1.829,16.116,16.116,0,0,1-10.152,0,18.332,18.332,0,0,1-4.147-1.828c-1.194-.763-2.274-1.459-3.21-2.069-1.5-.976-2.275-1.306-3.078-1.306a15.357,15.357,0,0,0-5.68,1.029,13.646,13.646,0,0,0-4.45,2.8,17.571,17.571,0,0,0-3.1,4.036,24.739,24.739,0,0,0-2.054,4.661,39.224,39.224,0,0,0-1.222,5,46.476,46.476,0,0,0-.637,4.972C.053,61.987,0,63.55,0,65.129a13.061,13.061,0,0,0,3.879,9.881,13.962,13.962,0,0,0,10,3.646H51.748a13.964,13.964,0,0,0,10-3.646,13.056,13.056,0,0,0,3.88-9.882C65.623,63.544,65.569,61.981,65.464,60.483Zm-6.9,11.188a9.4,9.4,0,0,1-6.818,2.376H13.875a9.4,9.4,0,0,1-6.818-2.375A8.53,8.53,0,0,1,4.61,65.129c0-1.474.049-2.929.146-4.326a41.837,41.837,0,0,1,.576-4.476,34.6,34.6,0,0,1,1.075-4.405,20.132,20.132,0,0,1,1.672-3.79,13.019,13.019,0,0,1,2.276-2.983,9.06,9.06,0,0,1,2.96-1.84,10.6,10.6,0,0,1,3.63-.7c.161.086.449.25.915.553.948.618,2.04,1.322,3.247,2.093a22.832,22.832,0,0,0,5.209,2.328,20.721,20.721,0,0,0,12.988,0,22.862,22.862,0,0,0,5.213-2.33c1.236-.79,2.3-1.474,3.245-2.092.466-.3.753-.467.915-.553a10.611,10.611,0,0,1,3.631.7,9.076,9.076,0,0,1,2.96,1.84,12.991,12.991,0,0,1,2.276,2.984,20.058,20.058,0,0,1,1.673,3.788,34.538,34.538,0,0,1,1.075,4.405,42.276,42.276,0,0,1,.576,4.477h0c.1,1.392.147,2.846.148,4.324a8.528,8.528,0,0,1-2.448,6.542Zm0,0" transform="translate(0 0)" fill="#2f2f2f"/>
      </g>
    </g>
  </g>
</svg>
