<svg xmlns="http://www.w3.org/2000/svg" width="114.478" height="36.696" viewBox="0 0 114.478 36.696">
  <g id="Roadster_car" transform="translate(-1445.999 -1422)">
    <g id="Car_icon_" data-name="Car icon " transform="translate(1445.999 1422)">
      <path id="Path_321" data-name="Path 321" d="M269.625,197.132c31.612,0,57.239.495,57.239,1.105s-25.627,1.106-57.239,1.106-57.239-.5-57.239-1.106,25.627-1.105,57.239-1.105Z" transform="translate(-212.386 -162.647)" fill="#b3b3b3" fill-rule="evenodd"/>
      <path id="Path_323" data-name="Path 323" d="M316.661,184.961c.769-.089,1.542-.192,2.281-.319a5.9,5.9,0,0,0,2.6-.859c.929-.862,1.143-2.112,1.161-3.971.014-1.543.372-2.85-.939-3.385-.508-.207-1.05-.417-1.064-.669-.169-2.917-.217-2.624-.535-5.621-.131-1.239-1.162-2.256-2.788-2.763-7.13-2.223-13.138-2.761-20.84-3.08-1.523-.063-1.823,1.131-3.353,1.764-1.559.645-1.867.505-1.852-.379q.019-1.007.036-2.012a.41.41,0,0,0-.39-.433l-1.538-.138a.474.474,0,0,0-.457.434q-.159.877-.319,1.755c-.216,1.19-.427,1.676-1.612,1.818a119.551,119.551,0,0,1-18.071,1.1c-1.6-.078-1.306.154-.926-1.18a6.684,6.684,0,0,0,.276-1.3c.089-1.5-2.66-1.616-4.366-1.505a82.41,82.41,0,0,1,11.742-6.988c.556-.262.881-.282.52-.849l-.359-.564c-.264-.416-.585-.343-1.029-.18-6.7,2.465-12.8,6.091-18.4,9.137-7.953.481-22.657.933-30.714,3.629a7.43,7.43,0,0,0-4.384,4.192c-.872,1.689-1.287,2.082-1.686,3.041-.638.052-.663.245-.864.619a8.1,8.1,0,0,0-.149,2.264c.019.8.077,2,.147,2.778.144,1.625.418,2.537,1.243,3.152a3.674,3.674,0,0,0,1.9.7l2.62.085c1.614-.236,1.882-.022,1.7-2.088-.052-.58-.075-1.172-.075-1.765a11.275,11.275,0,1,1,22.549,0,15.481,15.481,0,0,1-.336,3.449c-.433,1.89-.157,1.55,1.422,1.649h40.341c1.428-.28,2.311-.785,2.107-2.693a22.737,22.737,0,0,1-.107-2.406,11.275,11.275,0,0,1,22.55,0c0,.652.021,1.291.01,1.912-.03,1.773.014,1.9,1.955,1.673ZM237.443,172.7a8.673,8.673,0,1,1-8.673,8.673,8.672,8.672,0,0,1,8.673-8.673Zm65.978,0a8.673,8.673,0,1,1-8.673,8.673,8.672,8.672,0,0,1,8.673-8.673Z" transform="translate(-213.458 -155.504)" fill="#fff" fill-rule="evenodd"/>
    </g>
  </g>
</svg>
