<svg xmlns="http://www.w3.org/2000/svg" width="115.697" height="38.634" viewBox="0 0 115.697 38.634">
  <g id="Sedan_car" transform="translate(-1445.999 -1159)">
    <g id="Sedan_car_icon" data-name="Sedan car icon" transform="translate(1445.999 1159)">
      <path id="Path_309" data-name="Path 309" d="M304.741,72.16a8.651,8.651,0,1,1-8.651,8.651,8.651,8.651,0,0,1,8.651-8.651ZM296.7,56.822l-.578,7.542c1.7-.089,3.332-.168,4.851-.218a1.211,1.211,0,0,0,1.078-.582,12.736,12.736,0,0,0,1.044-2.18c.141-.413.112-.606-.245-1.093-.477-.653-3.652-2.31-6.15-3.469Zm-1.863,7.611.709-8.132a16.321,16.321,0,0,0-1.694-.666,22.379,22.379,0,0,0-5.968-.958L281.27,54.6a1.1,1.1,0,0,0-.924.435c-.532,1.379-.657,3.257-1.35,8.929-.189,1.553-.088,1.132,1.635,1.111,4.242-.051,9.4-.376,14.206-.64Zm23.3,20.206c1.755-.134,3.746-.3,5.316-.569a5.889,5.889,0,0,0,2.6-.857c1.271-1.181,1.125-4.863,1.1-6.75,0-.46-1.169-.461-1.2-.94-.169-2.91-.373-6.132-.691-9.122-.382-3.59-7.742-3.723-12.252-5.15-3.208-1.016-5.85-3.192-9.97-5.014-4.537-2.007-8.5-3.847-13.269-3.847-7.752,0-19.274-.925-26.492,1.369-6.912,2.2-13.209,6.165-19.764,9.26a189.7,189.7,0,0,0-24.779,4.447,6.191,6.191,0,0,0-4.53,3.395,39.907,39.907,0,0,0-1.682,4.223c-.636.052-.66-.11-.862.263a4.305,4.305,0,0,0-.14,1.551,15.273,15.273,0,0,0,.285,4.664,3.821,3.821,0,0,0,1.289,2.313,2.966,2.966,0,0,0,1.693.643l2.943.1c1.758-.324,1.426-.55,1.315-2.785-.017-.335-.025-.674-.025-1.016a11.247,11.247,0,1,1,22.494,0c0,.631-.012,1.252-.055,1.855-.264,3.766-.615,3.117,2.8,3.287l47.187-.051c2.511-.346,2.368-.031,2.106-3.186-.051-.619-.069-1.255-.069-1.9a11.247,11.247,0,1,1,22.493,0c0,.532-.015,1.063-.055,1.587-.2,2.582.521,2.371,2.207,2.241ZM255.65,65.959A9,9,0,0,0,256.056,64c.09-1.5-2.653-1.612-4.355-1.5a50.708,50.708,0,0,1,12.578-6.583,38.95,38.95,0,0,1,8.625-1.242l3.727-.079c.673-.008.762.3.564.834-.664,1.78-.93,5.626-1.329,8.208-.192,1.246-.487,1.541-1.761,1.552-5.03.042-18.517,1.008-18.456.767Zm-25.372,6.2a8.651,8.651,0,1,1-8.651,8.651,8.651,8.651,0,0,1,8.651-8.651Z" transform="translate(-211.475 -52.205)" fill="#fff" fill-rule="evenodd"/>
      <path id="Path_311" data-name="Path 311" d="M269.482,96.289c31.533,0,57.1.493,57.1,1.1s-25.563,1.1-57.1,1.1-57.1-.494-57.1-1.1,25.563-1.1,57.1-1.1Z" transform="translate(-211.634 -59.861)" fill="#b3b3b3" fill-rule="evenodd"/>
    </g>
  </g>
</svg>
