<svg xmlns="http://www.w3.org/2000/svg" width="47" height="47" viewBox="0 0 47 47">
  <g id="Group_2476" data-name="Group 2476" transform="translate(-1415 -737)">
    <rect id="Rectangle_2124" data-name="Rectangle 2124" width="47" height="47" transform="translate(1415 737)" fill="none"/>
    <g id="svgexport-17_9_" data-name="svgexport-17 (9)" transform="translate(1425.129 747.128)">
      <path id="Path_5119" data-name="Path 5119" d="M.373,2.593,2.2,5.8a.457.457,0,0,0,.286.217L4.2,6.44,10.054,12.3l.647-.647L4.752,5.7a.456.456,0,0,0-.212-.12L2.9,5.169,1.341,2.441,2.677,1.1l2.73,1.56.412,1.641a.456.456,0,0,0,.12.213l5.949,5.949.647-.647L6.678,3.963,6.251,2.256a.458.458,0,0,0-.217-.286L2.83.139a.458.458,0,0,0-.549.074L.451,2.043a.458.458,0,0,0-.078.55ZM19.4,9.094,9.331,19.161l-.647-.647L18.751,8.447ZM7.569,19.518a.457.457,0,0,0-.392-.222H4.431a.457.457,0,0,0-.392.222L2.666,21.806a.458.458,0,0,0,0,.471l1.373,2.288a.458.458,0,0,0,.392.222H7.176a.458.458,0,0,0,.392-.222l1.373-2.288a.458.458,0,0,0,0-.471Zm-.651,4.354H4.69l-1.1-1.83,1.1-1.831H6.917l1.1,1.831Zm0,0" transform="translate(-0.312 -0.075)" fill="#2f2f2f" stroke="#2f2f2f" stroke-width="0.5"/>
      <path id="Path_5120" data-name="Path 5120" d="M22.238,10.984a5.472,5.472,0,0,0,5.323-6.818.457.457,0,0,0-.767-.213L23.945,6.8l-2.26-.753-.754-2.259L23.78.937a.458.458,0,0,0-.215-.768,5.474,5.474,0,0,0-6.818,5.323,5.371,5.371,0,0,0,.111,1.072L6.836,16.586a5.4,5.4,0,0,0-1.072-.111,5.491,5.491,0,1,0,5.491,5.491,5.385,5.385,0,0,0-.111-1.072l2.4-2.4,1.049,1.049a.458.458,0,0,0,.647,0l.229-.229a.513.513,0,0,1,.727.725h0l-.229.229a.458.458,0,0,0,0,.647l5.459,5.459a3.693,3.693,0,1,0,5.247-5.2l-.024-.024-5.459-5.459a.458.458,0,0,0-.647,0l-.229.229a.513.513,0,0,1-.727-.725h0l.229-.229a.457.457,0,0,0,0-.647l-1.049-1.049,2.4-2.4a5.384,5.384,0,0,0,1.072.111Zm1.8,15.559a2.781,2.781,0,0,1-.973-.178l3.574-3.574a2.775,2.775,0,0,1-2.6,3.752ZM18.852,14.649a1.428,1.428,0,0,0,2.013,2.011L26,21.8c.056.056.108.115.158.175l-3.913,3.913q-.091-.075-.175-.158l-5.139-5.14a1.428,1.428,0,0,0-2.013-2.011l-.732-.732,3.933-3.927Zm1.848-4.6L10.319,20.426a.458.458,0,0,0-.121.435A4.607,4.607,0,1,1,6.87,17.533a.462.462,0,0,0,.435-.121L17.684,7.033A.457.457,0,0,0,17.8,6.6,4.554,4.554,0,0,1,22.5.924L20.084,3.339a.457.457,0,0,0-.111.468l.915,2.746a.458.458,0,0,0,.29.289l2.746.915a.458.458,0,0,0,.468-.11l2.414-2.414q.008.13.008.26a4.553,4.553,0,0,1-5.682,4.434.458.458,0,0,0-.435.12h0Zm0,0" transform="translate(-0.273 0)" fill="#2f2f2f" stroke="#2f2f2f" stroke-width="0.5"/>
      <path id="Path_5121" data-name="Path 5121" d="M388.114,387.2l-.647.647-4.576-4.576.647-.647Zm0,0" transform="translate(-364.452 -364.186)" fill="#2f2f2f" stroke="#2f2f2f" stroke-width="0.5"/>
    </g>
  </g>
</svg>
