<svg xmlns="http://www.w3.org/2000/svg" width="65.108" height="65.107" viewBox="0 0 65.108 65.107">
  <g id="svgexport-15_3_" data-name="svgexport-15 (3)" transform="translate(35.15 -21.822) rotate(45)">
    <g id="Group_1805" data-name="Group 1805" transform="translate(13.49 17.37)">
      <path id="Path_1566" data-name="Path 1566" d="M107.053,90.491A17.442,17.442,0,1,1,89.611,73.05,17.462,17.462,0,0,1,107.053,90.491Z" transform="translate(-66.401 -67.576)" fill="#ffd600"/>
      <path id="Path_1567" data-name="Path 1567" d="M59.736,40.285a2.712,2.712,0,0,0-.65-1.764,2.724,2.724,0,0,1-.414-2.875,2.719,2.719,0,0,0-.994-3.386,2.719,2.719,0,0,1-1.206-2.641,2.752,2.752,0,0,0,.025-.368,2.719,2.719,0,0,0-1.932-2.6,2.718,2.718,0,0,1-1.9-2.194A2.722,2.722,0,0,0,50,22.146a2.722,2.722,0,0,1-2.443-1.569,2.714,2.714,0,0,0-3.21-1.466,2.717,2.717,0,0,1-2.786-.819,2.72,2.72,0,0,0-3.493-.5,2.716,2.716,0,0,1-2.9,0,2.72,2.72,0,0,0-3.493.5,2.719,2.719,0,0,1-2.786.818,2.719,2.719,0,0,0-3.21,1.466,2.72,2.72,0,0,1-2.442,1.57h0a2.72,2.72,0,0,0-2.666,2.311,2.721,2.721,0,0,1-1.9,2.194,2.72,2.72,0,0,0-1.908,2.968h0a2.719,2.719,0,0,1-1.206,2.641,2.719,2.719,0,0,0-.994,3.386,2.72,2.72,0,0,1-.414,2.874h0a2.72,2.72,0,0,0,0,3.528,2.72,2.72,0,0,1,.414,2.874h0a2.718,2.718,0,0,0,.994,3.385,2.722,2.722,0,0,1,1.206,2.642,2.721,2.721,0,0,0,1.907,2.969h0a2.718,2.718,0,0,1,1.9,2.194,2.718,2.718,0,0,0,2.666,2.31,2.718,2.718,0,0,1,2.443,1.57,2.719,2.719,0,0,0,3.21,1.466,2.719,2.719,0,0,1,2.786.818,2.72,2.72,0,0,0,3.493.5,2.72,2.72,0,0,1,2.9,0,2.72,2.72,0,0,0,3.493-.5,2.719,2.719,0,0,1,2.786-.818,2.719,2.719,0,0,0,3.21-1.466A2.721,2.721,0,0,1,50,58.424a2.718,2.718,0,0,0,2.666-2.31,2.72,2.72,0,0,1,1.9-2.194h0a2.721,2.721,0,0,0,1.907-2.969,2.719,2.719,0,0,1,1.206-2.641h0a2.718,2.718,0,0,0,.994-3.385h0a2.722,2.722,0,0,1,.414-2.874,2.713,2.713,0,0,0,.65-1.765ZM36.7,59.694A19.408,19.408,0,1,1,56.109,40.285,19.43,19.43,0,0,1,36.7,59.694Z" transform="translate(-13.49 -17.37)" fill="#2f2f2f"/>
    </g>
    <g id="Group_1806" data-name="Group 1806" transform="translate(21.942 35.508)">
      <path id="Path_1568" data-name="Path 1568" d="M100.05,210.958l-.481-.093.187-1.43a22.243,22.243,0,0,0,2.74.241q1.417,0,1.417-1.176a.77.77,0,0,0-.374-.708,5.619,5.619,0,0,0-1.256-.481,7,7,0,0,1-1.664-.655,2.329,2.329,0,0,1-.882-.855,2.509,2.509,0,0,1-.274-1.23,2.481,2.481,0,0,1,.815-2.018,3.462,3.462,0,0,1,2.285-.682,10.057,10.057,0,0,1,1.19.074q.614.074,1.8.287l-.147,1.457a25.878,25.878,0,0,0-2.66-.214q-1.457,0-1.457.962a.7.7,0,0,0,.241.548,1.967,1.967,0,0,0,.6.354q.361.14,1.216.408a6.375,6.375,0,0,1,1.43.615,1.928,1.928,0,0,1,.735.8,2.841,2.841,0,0,1,.227,1.223,2.717,2.717,0,0,1-.849,2.152,3.342,3.342,0,0,1-2.292.748A12.621,12.621,0,0,1,100.05,210.958Zm8.34-.174a2.79,2.79,0,0,1-1.2-1.517,7.982,7.982,0,0,1-.367-2.653,8.158,8.158,0,0,1,.367-2.68,2.888,2.888,0,0,1,1.2-1.55,4.983,4.983,0,0,1,4.41,0,2.889,2.889,0,0,1,1.2,1.55,9.909,9.909,0,0,1,.013,5.3,2.826,2.826,0,0,1-1.183,1.53,4.2,4.2,0,0,1-2.232.515A4.277,4.277,0,0,1,108.39,210.785Zm3.335-1.41a1.644,1.644,0,0,0,.575-.962,7.659,7.659,0,0,0,.167-1.8,7.549,7.549,0,0,0-.174-1.811,1.82,1.82,0,0,0-.581-1,2.065,2.065,0,0,0-2.232,0,1.818,1.818,0,0,0-.581,1,7.538,7.538,0,0,0-.174,1.811,8.058,8.058,0,0,0,.147,1.711,1.78,1.78,0,0,0,.555,1,1.752,1.752,0,0,0,1.169.347A1.869,1.869,0,0,0,111.724,209.375Zm9.389.114v1.631h-5.172v-9.088h1.844v7.458Zm6.575-7.023a2.364,2.364,0,0,1,1.156,1.37,8.141,8.141,0,0,1,.327,2.593,9.262,9.262,0,0,1-.321,2.726,2.525,2.525,0,0,1-1.156,1.483,4.835,4.835,0,0,1-2.386.481h-3.06v-9.088h3.061A5.233,5.233,0,0,1,127.689,202.465Zm-1.089,6.7a1.65,1.65,0,0,0,.548-1,10.26,10.26,0,0,0,.127-1.851,7.331,7.331,0,0,0-.134-1.617,1.261,1.261,0,0,0-.548-.809,2.468,2.468,0,0,0-1.283-.261h-1.216v5.881h1.216A2,2,0,0,0,126.6,209.167Z" transform="translate(-99.462 -201.87)" fill="#fff"/>
    </g>
  </g>
</svg>
