<svg xmlns="http://www.w3.org/2000/svg" width="50" height="50" viewBox="0 0 50 50">
  <g id="Group_1860" data-name="Group 1860" transform="translate(0 0)">
    <rect id="Rectangle_1958" data-name="Rectangle 1958" width="50" height="50" transform="translate(0 0)" fill="none"/>
    <g id="svgexport-17_5_" data-name="svgexport-17 (5)" transform="translate(3.005 -0.949)">
      <path id="Path_1576" data-name="Path 1576" d="M43.578,28.761a21.716,21.716,0,0,0-6.3-15.327.658.658,0,0,0-.187-.187,21.747,21.747,0,0,0-30.611,0,.658.658,0,0,0-.187.187,21.769,21.769,0,0,0,.048,30.681,1.09,1.09,0,0,0,1.543,0l2.571-2.5a1.09,1.09,0,0,0-1.547-1.525L7.166,41.836a19.45,19.45,0,0,1-4.96-12H4.664a1.09,1.09,0,1,0,0-2.179H2.206A19.529,19.529,0,0,1,7.179,15.687L8.922,17.43a1.1,1.1,0,1,0,1.534-1.565L8.713,14.123A19.529,19.529,0,0,1,20.7,9.15v2.458a1.09,1.09,0,1,0,2.179,0V9.15a19.529,19.529,0,0,1,11.985,4.986l-1.743,1.743a1.091,1.091,0,1,0,1.543,1.543L36.4,15.678a19.529,19.529,0,0,1,4.964,11.976H38.906a1.09,1.09,0,1,0,0,2.179h2.458a19.446,19.446,0,0,1-4.96,12l-1.743-1.743a1.09,1.09,0,0,0-1.543,1.525L35.65,44.15a1.09,1.09,0,0,0,1.543,0A21.651,21.651,0,0,0,43.578,28.761Z" transform="translate(0 0)"/>
      <path id="Path_1577" data-name="Path 1577" d="M37.7,39.958a4.672,4.672,0,0,0-2.462.7l-5.173-5.173a1.091,1.091,0,0,0-1.543,1.543L33.7,42.2A4.7,4.7,0,1,0,37.7,39.958Zm0,7.234a2.528,2.528,0,1,1,2.528-2.51,2.528,2.528,0,0,1-2.528,2.51Z" transform="translate(-15.917 -15.921)"/>
    </g>
  </g>
</svg>
