<svg xmlns="http://www.w3.org/2000/svg" width="124" height="124" viewBox="0 0 124 124">
  <g id="Group_1657" data-name="Group 1657" transform="translate(0 0.314)">
    <rect id="Rectangle_2014" data-name="Rectangle 2014" width="124" height="124" transform="translate(0 -0.314)" fill="none"/>
    <g id="svgexport-15_3_" data-name="svgexport-15 (3)" transform="translate(10.489 10.489)">
      <path id="Path_1431" data-name="Path 1431" d="M51.512,0a51.511,51.511,0,1,0,51.511,51.511A51.57,51.57,0,0,0,51.512,0Zm0,94.577A43.067,43.067,0,1,1,94.578,51.512,43.115,43.115,0,0,1,51.512,94.578Z" transform="translate(0 -0.001)" fill="#4bb543"/>
      <path id="Path_1432" data-name="Path 1432" d="M116.966,91.546,86.381,122.13,72.4,108.147a4.222,4.222,0,1,0-5.971,5.971L83.4,131.087a4.222,4.222,0,0,0,5.971,0l33.57-33.57a4.222,4.222,0,0,0-5.971-5.972Z" transform="translate(-43.171 -59.805)" fill="#4bb543"/>
    </g>
  </g>
</svg>
