<svg xmlns="http://www.w3.org/2000/svg" width="113.947" height="39.81" viewBox="0 0 113.947 39.81">
  <g id="Suv_car" transform="translate(-1447 -1290)">
    <g id="Suv_car-2" data-name="Suv car" transform="translate(1447 1290)">
      <path id="Path_315" data-name="Path 315" d="M624.883,96.289c31.465,0,56.973.463,56.973,1.035s-25.508,1.035-56.973,1.035-56.974-.464-56.974-1.035,25.508-1.035,56.974-1.035Z" transform="translate(-567.909 -58.549)" fill="#b3b3b3" fill-rule="evenodd"/>
      <path id="Path_317" data-name="Path 317" d="M674.566,79.551a1.932,1.932,0,0,1,.219-.051c1.323-.227,1.911-.078,2.123-1.784.255-2.045.164-5.26.268-6.524.071-.871-.057-1.687-.99-1.881-.522-.109-1.062-.218-1.075-.441a32.8,32.8,0,0,0-1.329-7.81,62.531,62.531,0,0,0-4.508-11.226c-1.185-2.31-.744-2.183-3.76-2.185-10.852,0-22.3-.1-33.313.117-7.365.143-14.551.191-17.617,1.166-3.975,2.2-7.7,7.6-10.494,9.816-7.17.761-15.045,1.3-22.307,3.1-2.562.635-3.4.723-3.887,3.377-.289,1.57-.341,3.289-.531,4.212a3.481,3.481,0,0,1-.427.007c-.38-.008-.468.43-.482.869a51.214,51.214,0,0,0,.083,7.052,2.288,2.288,0,0,0,2.638,2.182h2.63c2.064,0,1.7-.189,1.84-2.163a10.732,10.732,0,0,1,21.4-.02c.161,2.146-.278,2.183,1.918,2.183h42.265c2.5,0,2.016-.142,2.29-2.585a10.732,10.732,0,0,1,21.356.29c.105,1.233-.231,2.295,1.021,2.295ZM594.35,69.617a8.56,8.56,0,1,1-8.56,8.56,8.56,8.56,0,0,1,8.56-8.56Zm67.838,0a8.56,8.56,0,1,1-8.561,8.56,8.56,8.56,0,0,1,8.561-8.56Zm-49.633-9.425a5.567,5.567,0,0,0,.453-1.639c.081-1.356-2.4-1.456-3.935-1.356a30.659,30.659,0,0,1,6.181-6.291c1.394-.467,9.485-.725,12.1-.781l3.368-.071c.609-.008.689.275.51.753-.3,1.673-.84,5.084-1.2,7.417-.174,1.127-.44,1.778-1.591,1.76-4.546.247-15.945.592-15.889.208Zm38.081-1.809a42.961,42.961,0,0,0-1.865-7.021c-.237-.75-.5-1.5-1.362-1.477-4.34.123-8.228.046-12.491.168a.993.993,0,0,0-.834.392c-.481,1.246-.593,2.943-1.22,8.069-.171,1.4-.08,1.594,1.477,1.575,3.409,0,9.878.027,14.556-.1,1.4-.04,1.914.108,1.74-1.6Zm5.949.158c-.733-1.577-1.892-4.313-2.978-6.779-.629-1.427-.652-1.875,1-1.9,3.26-.052,9.469.022,11.849.064a1.7,1.7,0,0,1,.94.521,52.516,52.516,0,0,1,3.145,7.641c.506,1.4.254,1.915-.737,1.9-2.239-.043-7.843.008-11.159,0a2.17,2.17,0,0,1-2.057-1.445Z" transform="translate(-569.809 -47.625)" fill="#fff" fill-rule="evenodd"/>
    </g>
  </g>
</svg>
