<svg xmlns="http://www.w3.org/2000/svg" width="98" height="98" viewBox="0 0 98 98">
  <g id="totalView" transform="translate(-2612.729 -1724.729)">
    <rect id="Rectangle_1958" data-name="Rectangle 1958" width="98" height="98" transform="translate(2612.729 1724.729)" fill="none"/>
    <g id="svgexport-16" transform="translate(2619.104 1746.561)">
      <path id="Path_1390" data-name="Path 1390" d="M84.709,118.345c-.762-1.042-18.908-25.51-42.084-25.51S1.3,117.3.541,118.344a2.813,2.813,0,0,0,0,3.317c.761,1.042,18.908,25.51,42.084,25.51S83.948,122.7,84.709,121.662a2.81,2.81,0,0,0,0-3.317ZM42.625,141.55c-17.072,0-31.858-16.24-36.235-21.549,4.371-5.314,19.126-21.545,36.235-21.545C59.7,98.456,74.481,114.693,78.86,120,74.488,125.318,59.733,141.55,42.625,141.55Z" transform="translate(0 -92.835)" fill="#2f2f2f"/>
      <path id="Path_1391" data-name="Path 1391" d="M171.585,154.725a16.863,16.863,0,1,0,16.863,16.863A16.882,16.882,0,0,0,171.585,154.725Zm0,28.1a11.242,11.242,0,1,1,11.242-11.242A11.254,11.254,0,0,1,171.585,182.83Z" transform="translate(-128.96 -144.42)" fill="#2f2f2f"/>
    </g>
  </g>
</svg>
