<svg xmlns="http://www.w3.org/2000/svg" width="102" height="102" viewBox="0 0 102 102">
  <g id="totalADS" transform="translate(-9.708 -9.708)">
    <g id="Group_1439" data-name="Group 1439" transform="translate(10.13 10.13)">
      <rect id="Rectangle_1958" data-name="Rectangle 1958" width="102" height="102" transform="translate(-0.422 -0.422)" fill="none"/>
      <g id="svgexport-10_5_" data-name="svgexport-10 (5)" transform="translate(6.045 15.001)">
        <path id="Path_1389" data-name="Path 1389" d="M65.281,7.506a8.892,8.892,0,0,0-8.414-.751L24.142,20.78H9.906A8.917,8.917,0,0,0,1,29.686V41.562a8.906,8.906,0,0,0,5.371,8.164l-4.5,20.236a5.942,5.942,0,0,0,5.8,7.226H10.5a5.9,5.9,0,0,0,5.8-4.649l4.9-22.07h2.942L56.858,64.582h.009A8.908,8.908,0,0,0,69.283,56.4V14.94A8.88,8.88,0,0,0,65.281,7.506ZM9.906,44.531a2.972,2.972,0,0,1-2.969-2.969V29.686a2.972,2.972,0,0,1,2.969-2.969H21.782V44.531Zm.585,26.719H7.671l4.617-20.782h2.823ZM63.345,56.4a2.966,2.966,0,0,1-4.13,2.728L27.722,45.543V25.7L59.207,12.209a2.967,2.967,0,0,1,4.139,2.728V56.4ZM75.221,35.624a2.969,2.969,0,0,1,2.969-2.969H87.1a2.969,2.969,0,1,1,0,5.938H78.189A2.969,2.969,0,0,1,75.221,35.624Zm.5-16.165a2.969,2.969,0,0,1,.822-4.118L85.448,9.4a2.969,2.969,0,0,1,3.3,4.94l-8.906,5.938a2.963,2.963,0,0,1-4.118-.822ZM88.744,56.9a2.969,2.969,0,0,1-3.3,4.94l-8.906-5.938a2.969,2.969,0,0,1,3.3-4.94Z" transform="translate(-1 -6.033)" fill="#2f2f2f"/>
      </g>
    </g>
  </g>
</svg>
