<svg xmlns="http://www.w3.org/2000/svg" width="66.448" height="43.168" viewBox="0 0 66.448 43.168">
  <path id="Toyota_icon" d="M665.8,588.168c-1.58-.135-3.48-.352-5.387-.447a32.194,32.194,0,0,1-6.125-1.061c-1.6-.4-3.178-.928-4.751-1.446a29.4,29.4,0,0,1-5.157-2.352,27.186,27.186,0,0,1-4.725-3.245,23.46,23.46,0,0,1-3.527-3.686,16.214,16.214,0,0,1-2.98-6.357,17.563,17.563,0,0,1-.174-4.877,16.051,16.051,0,0,1,1.052-3.974,9.042,9.042,0,0,1,.932-1.8,22.144,22.144,0,0,1,4.165-4.976,29.437,29.437,0,0,1,3.97-2.98,26.881,26.881,0,0,1,4.486-2.294c1.416-.543,2.82-1.129,4.266-1.578a37.676,37.676,0,0,1,6.272-1.429c1.316-.173,2.627-.428,3.948-.5,2.05-.117,4.111-.209,6.161-.135a49.65,49.65,0,0,1,7.9.992,34.742,34.742,0,0,1,5.6,1.548c1.069.407,2.158.768,3.2,1.229.936.413,1.831.922,2.731,1.413.654.357,1.285.756,1.929,1.131a22.44,22.44,0,0,1,4.045,3.107,18.532,18.532,0,0,1,4.513,6.344,14.5,14.5,0,0,1,1.185,5.084,15.085,15.085,0,0,1-1.631,7.369,19.187,19.187,0,0,1-2.821,4.071,25.944,25.944,0,0,1-6.043,4.943,36.2,36.2,0,0,1-5.975,2.874,41.663,41.663,0,0,1-9.264,2.386c-1.566.226-3.153.311-4.731.445C667.953,588.038,667.044,588.085,665.8,588.168Zm1.082-40.084a2.158,2.158,0,0,0-1.541,0,39.892,39.892,0,0,0-8.146.7,24.074,24.074,0,0,0-7.292,2.388,6.923,6.923,0,0,0-2.1,1.619,2.622,2.622,0,0,0-.077,3.736,8.152,8.152,0,0,0,2.793,2.065,24.006,24.006,0,0,0,4.553,1.6c1.031.263,2.09.421,3.109.62a1.044,1.044,0,0,0,.108-.192c.094-.457.189-.914.275-1.373a21.991,21.991,0,0,1,2.936-7.967,13.725,13.725,0,0,1,1.41-1.725,5.764,5.764,0,0,1,2.423-1.475h1.551a15.571,15.571,0,0,1,1.6.831,9.784,9.784,0,0,1,3.2,4.178,27.035,27.035,0,0,1,1.949,6.195c.1.493.21.985.315,1.476a15.072,15.072,0,0,0,1.87-.27c1.529-.419,3.054-.865,4.558-1.365a10.2,10.2,0,0,0,3.288-1.829,3.877,3.877,0,0,0,1.265-1.563c.532-1.413.08-2.449-1.083-3.477a10.384,10.384,0,0,0-3.054-1.822,31.8,31.8,0,0,0-8.687-2.069c-.788-.078-1.574-.2-2.363-.24C668.791,548.075,667.837,548.094,666.884,548.084Zm2.216,37.21.072.155c1.405-.185,2.822-.311,4.213-.571a36.287,36.287,0,0,0,5.34-1.421,28.776,28.776,0,0,0,9.719-5.565,18.769,18.769,0,0,0,4.8-6.463,14.469,14.469,0,0,0-1.468-14.066c-.239-.362-.519-.7-.825-1.1-.074.357-.137.626-.183.9a5.38,5.38,0,0,1-1.35,2.8,15.618,15.618,0,0,1-2.245,1.992,21.071,21.071,0,0,1-5.516,2.7,35.146,35.146,0,0,1-5.414,1.417c-.613.11-1.222.244-1.841.369a4.7,4.7,0,0,0-.055.532,41.623,41.623,0,0,1-.407,6.417,30.621,30.621,0,0,1-1.661,6.709,14.22,14.22,0,0,1-2.31,4.214C669.69,584.646,669.391,584.967,669.1,585.294Zm-27.79-29.17a15.755,15.755,0,0,0-2.8,4.988,14.023,14.023,0,0,0-.672,6.346,15.669,15.669,0,0,0,1.821,5.485,20.274,20.274,0,0,0,6.55,6.886c1,.676,2.061,1.281,3.126,1.858a27.725,27.725,0,0,0,5.71,2.289,32.492,32.492,0,0,0,6.793,1.306c.414.025.824.1,1.263.153-.542-.693-1.075-1.309-1.534-1.975a19.048,19.048,0,0,1-2.636-6.378,39.668,39.668,0,0,1-1.165-9.915,6.286,6.286,0,0,0-.067-.707,1.831,1.831,0,0,0-.269-.1,38.145,38.145,0,0,1-8.752-2.423,16.638,16.638,0,0,1-5.258-3.276A6.1,6.1,0,0,1,641.309,556.124Zm19.872,10.641a4.23,4.23,0,0,0-.047.523c.041.721.066,1.444.143,2.162a20.265,20.265,0,0,0,1.63,6.339,6.927,6.927,0,0,0,1.664,2.311,2.11,2.11,0,0,0,2.705.207,5.683,5.683,0,0,0,1.14-1.115,9.729,9.729,0,0,0,1.431-2.867,28.119,28.119,0,0,0,1.22-6.584c.03-.294,0-.594,0-.984A46.465,46.465,0,0,1,661.181,566.766Zm9.447-5.536a2.074,2.074,0,0,0,.022-.375,20.737,20.737,0,0,0-.924-3.589,8.893,8.893,0,0,0-1.586-2.863,2.606,2.606,0,0,0-2.216-1.128,2.842,2.842,0,0,0-2.057,1.32,14.8,14.8,0,0,0-2.406,6.628A53.082,53.082,0,0,0,670.628,561.23Z" transform="translate(-632.888 -545)" fill="#fff"/>
</svg>
