<svg xmlns="http://www.w3.org/2000/svg" width="47" height="47" viewBox="0 0 47 47">
  <g id="Group_2472" data-name="Group 2472" transform="translate(-1468 -636)">
    <rect id="Rectangle_2128" data-name="Rectangle 2128" width="47" height="47" transform="translate(1468 636)" fill="none"/>
    <g id="svgexport-17_17_" data-name="svgexport-17 (17)" transform="translate(1474.376 643.051)">
      <path id="Path_5134" data-name="Path 5134" d="M18.768,26.684V19.66h12.3a.967.967,0,0,0,.967-.967V10.7a4.284,4.284,0,1,0-1.935,0v7.024H18.768V10.7a4.284,4.284,0,1,0-1.935,0v7.024H5.5V10.7a4.284,4.284,0,1,0-1.935,0V26.684a4.284,4.284,0,1,0,1.935,0V19.66H16.833v7.024a4.284,4.284,0,1,0,1.935,0Zm9.95-20.153A2.349,2.349,0,1,1,31.068,8.88a2.349,2.349,0,0,1-2.349-2.349Zm-13.267,0A2.349,2.349,0,1,1,17.8,8.88a2.349,2.349,0,0,1-2.349-2.349Zm-13.267,0A2.349,2.349,0,1,1,4.534,8.88,2.349,2.349,0,0,1,2.185,6.531Zm4.7,24.323A2.349,2.349,0,1,1,4.534,28.5,2.349,2.349,0,0,1,6.883,30.854ZM17.8,33.2a2.349,2.349,0,1,1,2.349-2.349A2.349,2.349,0,0,1,17.8,33.2ZM31.068,26.57a4.284,4.284,0,1,0,4.284,4.284,4.284,4.284,0,0,0-4.284-4.284Zm0,6.633a2.349,2.349,0,1,1,2.349-2.349A2.349,2.349,0,0,1,31.068,33.2Z" transform="translate(-0.249 -2.243)"/>
    </g>
  </g>
</svg>
