<svg xmlns="http://www.w3.org/2000/svg" width="130.117" height="100" viewBox="0 0 130.117 100">
  <g id="Group_1167" data-name="Group 1167" transform="translate(-1930.883 1770)">
    <rect id="Rectangle_1891" data-name="Rectangle 1891" width="130" height="100" transform="translate(1931 -1770)" fill="none"/>
    <g id="Group_1165" data-name="Group 1165" transform="translate(1090.181 -2640.247)">
      <g id="Truck_icon" data-name="Truck icon" transform="translate(840.819 879.998)">
        <path id="Path_509" data-name="Path 509" d="M1349.5,571.171l-14.722-6.162-23.274-9.585-6.245-2.346-2.4-.816.109,1.278.119,4.092.043,4.931.1,12.2.11,7.176.315,7.824.521,7.4,10.584.965,12.189,1.957,11.941,2.178,10.966,1.913-.022.243-23.162-2.6-23.694-2.269a1.271,1.271,0,0,1-1.215-1.124l-1.315-16.388-.226-19.5.049-8.907c0-.429-.943-4.209.821-4.445a5.721,5.721,0,0,1,2.567.625l24.056,10.279,19.292,9.445Z" transform="translate(-1225.834 -543.347)" fill="#fff" stroke="#fff" stroke-miterlimit="22.926" stroke-width="0.216" fill-rule="evenodd"/>
        <path id="Path_510" data-name="Path 510" d="M1355.534,576.859c-3.123-1.915-39.876-18.534-48.106-20.7.881,7.037-.714,24.539,1.617,47.845,14.8.335,33.067,4.728,46.839,6" transform="translate(-1231.875 -549.035)" fill="none" stroke="#fff" stroke-miterlimit="22.926" stroke-width="0.216" fill-rule="evenodd"/>
        <path id="Path_511" data-name="Path 511" d="M1333.05,790.4c4.46-1.448,9.647-3.331,16.631-1.486l25.7,6.791-.091.452-31.666-4.943Z" transform="translate(-1252.743 -738.015)" fill="#fff" stroke="#fff" stroke-miterlimit="22.926" stroke-width="0.216" fill-rule="evenodd"/>
        <path id="Path_512" data-name="Path 512" d="M1333.05,798.535c14.18-1.776,28.461,2.771,42.287,5.529" transform="translate(-1252.743 -746.153)" fill="none" stroke="#fff" stroke-miterlimit="22.926" stroke-width="0.216" fill-rule="evenodd"/>
        <g id="Group_190" data-name="Group 190" transform="translate(30.584 5.737)">
          <path id="Path_513" data-name="Path 513" d="M1109.685,553.947c-1.473-2.7-8.344-3.028-15.352-2.734l-.038-1.314,15.75-1.211c-.168,1.409-.181,3.854-.357,5.259Zm-17.425-2.63c-2.563.147-5.046.355-7.246.538l-19,.809-.687,12.581-.422-13.338.967-.065,26.357-1.784Z" transform="translate(-1064.901 -548.688)" fill="#fff" fill-rule="evenodd"/>
          <path id="Path_514" data-name="Path 514" d="M1109.685,553.947c-1.473-2.7-8.344-3.028-15.352-2.734l-.038-1.314,15.75-1.211c-.168,1.409-.181,3.854-.357,5.259Zm-17.425-2.63c-2.563.147-5.046.355-7.246.538l-19,.809-.687,12.581-.422-13.338.967-.065,26.357-1.784Z" transform="translate(-1064.901 -548.688)" fill="none" stroke="#fff" stroke-miterlimit="22.926" stroke-width="0.216" fill-rule="evenodd"/>
        </g>
        <g id="Group_191" data-name="Group 191" transform="translate(77.969 61.201)">
          <path id="Path_515" data-name="Path 515" d="M1324.66,859.84c-.109.7-.5,2.346-1.463,2.376v-.853c.109-.018.267-.286.285-.323a14.184,14.184,0,0,0-.285-11.7v-1.309a.8.8,0,0,1,.074.062,3.987,3.987,0,0,1,1.022,2.041,23.621,23.621,0,0,1,.724,5.306v.533a27.059,27.059,0,0,1-.357,3.865Zm-1.463,2.376a.973.973,0,0,1-.335-.05,2.223,2.223,0,0,1-1.114-1.31,17.228,17.228,0,0,1-1.181-5.769v-1.305a16.819,16.819,0,0,1,.742-4.435c.213-.67,1.029-1.965,1.887-1.31v1.308c-.057-.105-.114-.209-.168-.312s-.266-.411-.4-.243a3.364,3.364,0,0,0-.6,1.642,28.928,28.928,0,0,0,.35,9.289c.067.335.335,1.486.8,1.642a.055.055,0,0,0,.03,0Z" transform="translate(-1320.548 -847.855)" fill="#fff" fill-rule="evenodd"/>
          <path id="Path_516" data-name="Path 516" d="M1324.6,859.839c-.123.772-.592,2.718-1.8,2.326a2.223,2.223,0,0,1-1.114-1.31,17.726,17.726,0,0,1-.439-11.509c.219-.693,1.075-2.041,1.96-1.248a3.992,3.992,0,0,1,1.022,2.041,22.537,22.537,0,0,1,.367,9.7Zm-1.637-10.81c-.055-.1-.266-.411-.4-.243a3.366,3.366,0,0,0-.6,1.642,28.911,28.911,0,0,0,.35,9.289c.067.335.335,1.486.8,1.642.107.035.295-.282.313-.322a14.1,14.1,0,0,0-.444-12.006Z" transform="translate(-1320.5 -847.855)" fill="none" stroke="#fff" stroke-miterlimit="22.926" stroke-width="0.216" fill-rule="evenodd"/>
        </g>
        <path id="Path_517" data-name="Path 517" d="M1327.4,856.968c.141,3.721-.511,6.769-1.458,6.806s-1.828-2.954-1.969-6.675.511-6.769,1.458-6.806,1.828,2.954,1.969,6.675" transform="translate(-1245.344 -788.641)" fill="none" stroke="#fff" stroke-miterlimit="22.926" stroke-width="0.216" fill-rule="evenodd"/>
        <g id="Group_192" data-name="Group 192" transform="translate(76.695 59.076)">
          <path id="Path_518" data-name="Path 518" d="M1319.372,850.853c-.147.952-.878,2.666-2.052,2.825v-1.014a.416.416,0,0,0,.405-.085,3.076,3.076,0,0,0,.99-1.925c.895-4.09,1.977-8.433-1.005-12.938a.885.885,0,0,0-.39-.293V836.5a1.493,1.493,0,0,1,.721.4,4.74,4.74,0,0,1,1.172,2.16A28.309,28.309,0,0,1,1319.372,850.853Zm-2.052,2.825a1.374,1.374,0,0,1-.5-.025,2.646,2.646,0,0,1-1.546-1.493,16.138,16.138,0,0,1-1.411-6.551v-.98c.018-.9.087-1.789.191-2.681a8.052,8.052,0,0,1,2.138-5.239,1.33,1.33,0,0,1,1.127-.219v.925a.838.838,0,0,0-.854.045c-1.278,1.134-2.3,6.2-.593,3l-.521,4.462a13.4,13.4,0,0,0,1.113,6.546c.115.285.44,1.056.856,1.191Z" transform="translate(-1313.81 -836.446)" fill="#fff" fill-rule="evenodd"/>
          <path id="Path_519" data-name="Path 519" d="M1319.358,850.847c-.168,1.081-1.086,3.143-2.552,2.8a2.646,2.646,0,0,1-1.546-1.493,18.8,18.8,0,0,1-1.22-10.205,8.052,8.052,0,0,1,2.138-5.239,1.427,1.427,0,0,1,1.843.184,4.738,4.738,0,0,1,1.172,2.16,28.311,28.311,0,0,1,.167,11.794Zm-1.662-13.139a.975.975,0,0,0-1.245-.248c-1.278,1.134-2.3,6.2-.593,3l-.521,4.462a13.39,13.39,0,0,0,1.113,6.546c.151.372.66,1.575,1.262,1.106a3.08,3.08,0,0,0,.99-1.925c.908-4.091,1.981-8.434-1-12.945Z" transform="translate(-1313.806 -836.441)" fill="none" stroke="#fff" stroke-miterlimit="22.926" stroke-width="0.216" fill-rule="evenodd"/>
        </g>
        <path id="Path_520" data-name="Path 520" d="M1271.04,895.4a9.058,9.058,0,0,0,1.642,4.966,3.88,3.88,0,0,0,2.06,1.208c3.076.285,1.109-2.408,1.908-3.069.2-.167.906.521,1.191.767,1.121.972,1.295.957,1.94-.25,1.794,3.638,3.731,1.064,4.031.436l.094.023c-.114.747-.037,1.774-.655,2.312a3.709,3.709,0,0,1-1.974.7,9.432,9.432,0,0,1-3.006-.06l-.628-.511a4.86,4.86,0,0,1-4.271.253c-1-.384-1.153-1.134-1.654-2.046a5.6,5.6,0,0,1-.679-4.73Z" transform="translate(-1202.031 -825.378)" fill="#fff" stroke="#fff" stroke-miterlimit="22.926" stroke-width="0.216" fill-rule="evenodd"/>
        <path id="Path_521" data-name="Path 521" d="M1296.788,893.9a3.04,3.04,0,0,1-1.8.213c-.814-.281-2.473-7.409-1.275-7.037l.732.228C1294.828,889.191,1295.18,892.587,1296.788,893.9Z" transform="translate(-1220.36 -818.592)" fill="#fff" stroke="#fff" stroke-miterlimit="22.926" stroke-width="0.216" fill-rule="evenodd"/>
        <g id="Group_193" data-name="Group 193" transform="translate(31.85 10.057)">
          <path id="Path_522" data-name="Path 522" d="M1072.113,586.21l-.4-.4.215-7.345a7.215,7.215,0,0,1,5.606-5.257l20.464-1.119a1.193,1.193,0,0,0-.037.635l-11.442.64c-3.183.283-6.94.31-9.55.851-5.048,1.508-4.681,7.855-4.859,12Zm35.106-14.22c1.947.132,2.538.965,3.795,2.9,1.749,2.681,1.853,7.9,1.962,10.86l1.172,32.481c.055,1.508-2.089,2.359-3.305,2.319l-8.263-.273-.017-.132,6.465-.335c1.635-.129,3.719-.154,3.542-1.992-.146-1.508-.208-3.574-.243-6.008-.144-9.912,1.136-27.143-1.925-35.458-1.005-2.749-2.562-3.76-4.569-3.808l-5.836.07a1.183,1.183,0,0,0-.057-.521Z" transform="translate(-1071.709 -571.99)" fill="#fff" fill-rule="evenodd"/>
          <path id="Path_523" data-name="Path 523" d="M1072.113,586.21l-.4-.4.215-7.345a7.215,7.215,0,0,1,5.606-5.257l20.464-1.119a1.193,1.193,0,0,0-.037.635l-11.442.64c-3.183.283-6.94.31-9.55.851-5.048,1.508-4.681,7.855-4.859,12Zm35.106-14.22c1.947.132,2.538.965,3.795,2.9,1.749,2.681,1.853,7.9,1.962,10.86l1.172,32.481c.055,1.508-2.089,2.359-3.305,2.319l-8.263-.273-.017-.132,6.465-.335c1.635-.129,3.719-.154,3.542-1.992-.146-1.508-.208-3.574-.243-6.008-.144-9.912,1.136-27.143-1.925-35.458-1.005-2.749-2.562-3.76-4.569-3.808l-5.836.07a1.183,1.183,0,0,0-.057-.521Z" transform="translate(-1071.709 -571.99)" fill="none" stroke="#fff" stroke-miterlimit="22.926" stroke-width="0.216" fill-rule="evenodd"/>
        </g>
        <path id="Path_524" data-name="Path 524" d="M905.6,854.971l21.552-1.355,21.858.015-.91.67-43.2,1.722Z" transform="translate(-903.972 -791.347)" fill="#fff" stroke="#fff" stroke-miterlimit="22.926" stroke-width="0.216" fill-rule="evenodd"/>
        <path id="Path_525" data-name="Path 525" d="M900.536,858.867l.42,3.55.151,2,4.189.838,5.675,1.022,5.413-.219,4.7-.278,9.163-.018,10.834-1.737a6.041,6.041,0,0,0,1.843-.755c1.047-.721.243-5.392-1.155-6.055.758,0,2.141-.062,2.9-.065-1.613.608-1.143,3.533-.888,6.132.02.308-.446.612-.659.744a18.19,18.19,0,0,1-5.911,1.929l-7.007,1.1-13.771.362-5.616.029-10.232-2.443c-.1-.033-.157-.2-.157-.3Z" transform="translate(-900.333 -794.231)" fill="#fff" stroke="#fff" stroke-miterlimit="22.926" stroke-width="0.216" fill-rule="evenodd"/>
        <path id="Path_526" data-name="Path 526" d="M1014.585,530.764c-1.005.476-3.338,1.2-3.805,2.332a14.218,14.218,0,0,0-.729,3.425c-.565,4.452.389,10.292.67,13.236l.335,3.547-.35,13.771-.682-.335-1.005-29.718c-.062-1.831.736-4.636,2.5-5.579a13.674,13.674,0,0,1,3.069-.679Z" transform="translate(-988.782 -528.351)" fill="#fff" stroke="#fff" stroke-miterlimit="22.926" stroke-width="0.216" fill-rule="evenodd"/>
        <path id="Path_527" data-name="Path 527" d="M1020.9,531.407c1.587,3.342-2.781,3.537-2.8,4.524v.461l.451,21.278-1.463,1.411-.7,2.607.769-25.29a2.03,2.03,0,0,1,.749-1.6C1018.654,534.267,1021.268,534.5,1020.9,531.407Z" transform="translate(-994.79 -528.875)" fill="#fff" stroke="#fff" stroke-miterlimit="22.926" stroke-width="0.216" fill-rule="evenodd"/>
        <path id="Path_528" data-name="Path 528" d="M1374.03,875.132c4.926-.285,10.556,1.245,15.559.63l3.6-.555.013.1-8.21,2.563c-1.779.554-3.748-.477-5.455-1.005Z" transform="translate(-1286.127 -808.845)" fill="#fff" stroke="#fff" stroke-miterlimit="22.926" stroke-width="0.216" fill-rule="evenodd"/>
        <path id="Path_529" data-name="Path 529" d="M1079.973,743.431l1.005,20.965-1.843.055-1.005-20.816Z" transform="translate(-1045.099 -701.591)" fill="#fff" stroke="#fff" stroke-miterlimit="22.926" stroke-width="0.216" fill-rule="evenodd"/>
        <path id="Path_530" data-name="Path 530" d="M1083.07,743.98c.762,6.869.8,13.952,1.005,20.89" transform="translate(-1049.114 -702.038)" fill="none" stroke="#fff" stroke-miterlimit="22.926" stroke-width="0.216" fill-rule="evenodd"/>
        <path id="Path_531" data-name="Path 531" d="M978.607,730.732c-1.366-.581.139,1.508-1.341,1.252-4.152-2.865-15.8-1.992-19.549-1.173-1.7.543-1.6,1.558-1.766,3.827l-.167,13.189-.218,4.747h-.139l-1.173-15.036a15.167,15.167,0,0,1,.623-6.258c.451-.994,1.928-1.34,2.786-1.508a49.01,49.01,0,0,1,13.29-.575C972.047,729.279,977.849,730.023,978.607,730.732Z" transform="translate(-944.153 -689.832)" fill="#fff" stroke="#fff" stroke-miterlimit="22.926" stroke-width="0.216" fill-rule="evenodd"/>
        <path id="Path_532" data-name="Path 532" d="M986.107,754.436c-4.574.307-13.615.27-17.338,2.026-.741.349-.645,4.891-.734,5.854l.459,6.05c.074.727.044,2.094.793,2.582l.109.055.119.042.089.02.04.009,1.458-.045,2.346-.017,3.016.167,9.922-.263c.447-.075,1.261-.221,1.459-.741a.429.429,0,0,0,.042-.186l-1.406-15.315h-.017l.545,15.141-.054.027-.179.065-5.608.568-6.544.2-1.163.01-2.374.209-1.441.167h-.04l-.09-.013-.124-.032-.117-.047c-.811-.437-.9-1.826-1.037-2.575l-.878-6.032c-.112-1.784-.657-5.681,1.161-6.811C972.593,753.024,981.381,754.485,986.107,754.436Z" transform="translate(-954.721 -710.249)" fill="#fff" stroke="#fff" stroke-miterlimit="22.926" stroke-width="0.216" fill-rule="evenodd"/>
        <path id="Path_533" data-name="Path 533" d="M1197.414,853a26.323,26.323,0,0,1,6.807.1,2.2,2.2,0,0,1,1.535,1.689,10.082,10.082,0,0,1,.05,2.557l-.761,2.2a3.635,3.635,0,0,1-2.646,1.351l-4.637.838a1.062,1.062,0,0,1-.752-.137l-.027.017a.7.7,0,0,0,.407.26,8.633,8.633,0,0,0,2.989.167c2.664-.258,6-1.113,5.427-4.691a11.652,11.652,0,0,0-.581-2.377,1.675,1.675,0,0,0-1.221-1.057l-1.222-.069-3.887-.583Z" transform="translate(-1141.916 -790.698)" fill="#fff" stroke="#fff" stroke-miterlimit="22.926" stroke-width="0.216" fill-rule="evenodd"/>
        <path id="Path_534" data-name="Path 534" d="M1197.246,853.6c1.758-.22,3.854.439,5.578.4,2.178-.1,2.743.75,3,2.791.234,1.87-.062,4.1-2.1,4.869-.5.178-6.172,1.292-6.668.548" transform="translate(-1141.969 -791.296)" fill="none" stroke="#fff" stroke-miterlimit="22.926" stroke-width="0.216" fill-rule="evenodd"/>
        <path id="Path_535" data-name="Path 535" d="M1207.669,851.952l8.979-.881c2.044-.266,5.06-.67,5.993-2.883l.152-.437.1-.486.062-1.049.022-.369-.168-1.24-.41-1.072a5.5,5.5,0,0,0-3.56-2.64,22.311,22.311,0,0,0-6.446-.285l-4.771.858v.023l9.87-.01a6.244,6.244,0,0,1,4.566,2.262l.521.938.335,1.173.034.364.1,1.061-.03.519-.094.489a5.074,5.074,0,0,1-3.785,3.184C1215.393,852.451,1211.506,852.005,1207.669,851.952Z" transform="translate(-1150.574 -780.665)" fill="#fff" stroke="#fff" stroke-miterlimit="22.926" stroke-width="0.216" fill-rule="evenodd"/>
        <path id="Path_536" data-name="Path 536" d="M1207.678,853.476c4.082-.511,14.912.895,15.305-4.681.53-8.185-9.852-6.481-15.351-5.792" transform="translate(-1150.579 -782.183)" fill="none" stroke="#fff" stroke-miterlimit="22.926" stroke-width="0.216" fill-rule="evenodd"/>
        <path id="Path_537" data-name="Path 537" d="M1017.522,684.673l-.67-4.979c-.052-1.111.369-2.582,1.666-2.738l.636-.091,12.407-1.005,9.3-.1,2.746.1c.3.094.353.751.335,1.005l-.617,6.2a.936.936,0,0,1-.37.608c-3.448,2.523-13.116,1.895-17.414,2.072v.01l13.362.585c1.705-.1,4.336-.323,5.581-1.8a1.488,1.488,0,0,0,.313-.826l-.089-7.027c-.047-.335-.152-1.027-.543-1.183l-.146-.025-3.15.287-9.238.838-12.437.962-.544.044a1.305,1.305,0,0,0-1.161,1.109,4.514,4.514,0,0,0-.2,1.037Z" transform="translate(-995.18 -646.227)" fill="#fff" stroke="#fff" stroke-miterlimit="22.926" stroke-width="0.216" fill-rule="evenodd"/>
        <path id="Path_538" data-name="Path 538" d="M1085.154,686.53l.151,2.1-.017,2.639-.452,2.034-.084.01a18.992,18.992,0,0,1-.146-4.691Z" transform="translate(-1050.284 -655.239)" fill="#fff" stroke="#fff" stroke-miterlimit="22.926" stroke-width="0.216" fill-rule="evenodd"/>
        <path id="Path_539" data-name="Path 539" d="M1086.341,686.53a11.947,11.947,0,0,1-.2,2.1c-.014.808-.055,1.843-.014,2.651a18.825,18.825,0,0,0-.149,2.034" transform="translate(-1051.48 -655.239)" fill="none" stroke="#fff" stroke-miterlimit="22.926" stroke-width="0.216" fill-rule="evenodd"/>
        <path id="Path_540" data-name="Path 540" d="M917.7,902.748a9.61,9.61,0,0,0,.9,3.988l.067.112a5.374,5.374,0,0,0,2.036,2.118,1,1,0,0,0,1.052-.184c.6-.5.918-1.99,1.375-2.609l1.33.184a6.423,6.423,0,0,1-1.23,3.329,4.4,4.4,0,0,1-3.926,1.227,3.5,3.5,0,0,1-3.043-1.1c-2.585-2.079-2.537-5.125-3.205-8.146.032.122,1.163.181,1.151.3a8.428,8.428,0,0,0,1.508,5.811c.762.854,2.151.774,1.96-.189a16.294,16.294,0,0,1-.255-4.847Z" transform="translate(-910.617 -830.488)" fill="#fff" stroke="#fff" stroke-miterlimit="22.926" stroke-width="0.216" fill-rule="evenodd"/>
        <path id="Path_541" data-name="Path 541" d="M1209.583,673.467c1.129-.2,3.095-.96,3.946.167,1.657,2.2,3.435,25.846.322,26.737-1.1.315-2.43.838-3.455.253-2.681-1.523-2.639-5.579-2.681-8.193l-.024-9.507c.421,2.064-.322,1.27.452,2.178l.938,11.993c.122,1.558,1.263,1.987,3.041,1.818,2.217-.117,1.362-1.456,1.763-4.333.848-6.1-.692-18.182-.784-19.565C1212.984,673.1,1210.923,673.428,1209.583,673.467Z" transform="translate(-1150.64 -644.243)" fill="#fff" stroke="#fff" stroke-miterlimit="22.926" stroke-width="0.216" fill-rule="evenodd"/>
        <path id="Path_542" data-name="Path 542" d="M1220.322,556.124c1.6-1.451.018-9.654-.469-14.471-.358-3.538-1.231-7.169.149-10.388,1.024-2.379,1.536-1.727,3.813-2.01.069.551-1.292-.315-2.346,1.766-1.855,3.17-1.173,6.7-.928,10.185l1.534,14.985Z" transform="translate(-1160.042 -527.123)" fill="#fff" stroke="#fff" stroke-miterlimit="22.926" stroke-width="0.216" fill-rule="evenodd"/>
        <path id="Path_543" data-name="Path 543" d="M1211.345,546.887l-1.258.134a3.753,3.753,0,0,0,.4-2.011L1208.7,521.7c-.335-4.281,3.671-4.319,5.623-3.562a2.485,2.485,0,0,1,.879,1.766l-.781.112c.777-.2-.025-1.391-.571-1.416-5.544-.167-4.078,2.848-3.865,6.7l.739,13.471Z" transform="translate(-1151.441 -517.764)" fill="#fff" stroke="#fff" stroke-miterlimit="22.926" stroke-width="0.216" fill-rule="evenodd"/>
        <path id="Path_544" data-name="Path 544" d="M1019.692,664.4a1.691,1.691,0,0,1,.519-1.355,9.481,9.481,0,0,1,5.75-1.781l8.242-.022,10.927-.67a8.619,8.619,0,0,1,4.076.479,1.986,1.986,0,0,1,.394,1.427l-1.843-.022c-.146-.655-.1-1.235-.548-1.184l-11.619,1.352-4.946-.116c-3.036-.124-6.564-.658-9.515.513a3.049,3.049,0,0,0-1.437,1.379Z" transform="translate(-997.484 -634.071)" fill="#fff" stroke="#fff" stroke-miterlimit="22.926" stroke-width="0.216" fill-rule="evenodd"/>
        <path id="Path_545" data-name="Path 545" d="M1019.69,666.228c.628-3.77,11.311-2.4,14.511-2.4,2.285,0,15.31-2.228,14.8-.168" transform="translate(-997.48 -635.895)" fill="none" stroke="#fff" stroke-miterlimit="22.926" stroke-width="0.216" fill-rule="evenodd"/>
        <g id="Group_194" data-name="Group 194" transform="translate(34.794 24.115)">
          <path id="Path_546" data-name="Path 546" d="M1090.385,648.609a1.863,1.863,0,0,1,.141.582v.345c-.069.856-.641,1.649-1.409,1.632v-1.146a.794.794,0,0,0,.72-.764c.107-.916-.306-1.288-.72-1.246v-.167A1.412,1.412,0,0,1,1090.385,648.609Zm-1.268,2.56a1.164,1.164,0,0,1-.308-.049,1.716,1.716,0,0,1-1.09-1.592v-.291a1.866,1.866,0,0,1,.292-.9,1.235,1.235,0,0,1,1.106-.489v.167c-.449.045-.895.581-.656,1.436a.683.683,0,0,0,.656.575Z" transform="translate(-1087.69 -647.843)" fill="#fff" fill-rule="evenodd"/>
          <path id="Path_547" data-name="Path 547" d="M1090.362,648.6c.5,1.2-.362,2.868-1.577,2.513a1.917,1.917,0,0,1-.8-2.783,1.465,1.465,0,0,1,2.373.271Zm-1.925.838c.245.886,1.275.689,1.377-.189.229-1.913-1.831-1.449-1.379.189Z" transform="translate(-1087.678 -647.839)" fill="none" stroke="#fff" stroke-miterlimit="22.926" stroke-width="0.216" fill-rule="evenodd"/>
        </g>
        <g id="Group_195" data-name="Group 195" transform="translate(39.156 23.583)">
          <path id="Path_548" data-name="Path 548" d="M1114.166,645.866a2.1,2.1,0,0,1,.156.641v.385c-.077.945-.712,1.821-1.56,1.8v-1.268a.878.878,0,0,0,.8-.838c.119-1.015-.335-1.426-.8-1.379v-.181a1.563,1.563,0,0,1,1.4.836Zm-1.4,2.832a1.316,1.316,0,0,1-.335-.054,1.9,1.9,0,0,1-1.2-1.758v-.335a2.061,2.061,0,0,1,.323-.993,1.367,1.367,0,0,1,1.223-.541v.181c-.5.05-.99.643-.727,1.588a.758.758,0,0,0,.727.637Z" transform="translate(-1111.194 -645.01)" fill="#fff" fill-rule="evenodd"/>
          <path id="Path_549" data-name="Path 549" d="M1114.146,645.857c.565,1.327-.4,3.173-1.744,2.778a2.121,2.121,0,0,1-.881-3.078,1.62,1.62,0,0,1,2.625.3Zm-2.131.928c.271.98,1.411.762,1.525-.21.255-2.119-2.024-1.6-1.521.21Z" transform="translate(-1111.178 -645.001)" fill="none" stroke="#fff" stroke-miterlimit="22.926" stroke-width="0.216" fill-rule="evenodd"/>
        </g>
        <g id="Group_196" data-name="Group 196" transform="translate(30.424 24.233)">
          <path id="Path_550" data-name="Path 550" d="M1066.6,649.217a1.79,1.79,0,0,1,.134.551v.325c-.065.811-.608,1.561-1.34,1.546v-1.086a.751.751,0,0,0,.682-.724c.1-.868-.292-1.22-.682-1.173V648.5A1.341,1.341,0,0,1,1066.6,649.217Zm-1.2,2.423a1.12,1.12,0,0,1-.292-.047,1.625,1.625,0,0,1-1.032-1.508v-.271a1.763,1.763,0,0,1,.276-.856,1.173,1.173,0,0,1,1.048-.462v.154c-.426.044-.848.55-.623,1.359a.648.648,0,0,0,.623.544Z" transform="translate(-1064.059 -648.49)" fill="#fff" fill-rule="evenodd"/>
          <path id="Path_551" data-name="Path 551" d="M1066.584,649.212c.482,1.134-.335,2.716-1.493,2.377a1.815,1.815,0,0,1-.754-2.634,1.387,1.387,0,0,1,2.247.256Zm-1.823.794c.233.838,1.206.652,1.305-.179.2-1.814-1.744-1.374-1.309.184Z" transform="translate(-1064.044 -648.485)" fill="none" stroke="#fff" stroke-miterlimit="22.926" stroke-width="0.216" fill-rule="evenodd"/>
        </g>
        <g id="Group_197" data-name="Group 197" transform="translate(26.541 24.43)">
          <path id="Path_552" data-name="Path 552" d="M1045.523,650.23a1.7,1.7,0,0,1,.129.529v.308c-.062.776-.582,1.495-1.276,1.481V651.51a.718.718,0,0,0,.651-.692c.1-.838-.278-1.173-.651-1.129v-.147A1.279,1.279,0,0,1,1045.523,650.23Zm-1.148,2.319a1.051,1.051,0,0,1-.28-.044,1.554,1.554,0,0,1-.987-1.444V650.8a1.677,1.677,0,0,1,.265-.819,1.121,1.121,0,0,1,1.005-.442v.147c-.407.042-.811.526-.6,1.3a.621.621,0,0,0,.6.521Z" transform="translate(-1043.098 -649.536)" fill="#fff" fill-rule="evenodd"/>
          <path id="Path_553" data-name="Path 553" d="M1045.509,650.223c.463,1.086-.335,2.6-1.427,2.274a1.735,1.735,0,0,1-.722-2.513,1.327,1.327,0,0,1,2.15.246Zm-1.744.759c.223.8,1.154.623,1.248-.167.194-1.739-1.666-1.317-1.263.164Z" transform="translate(-1043.081 -649.529)" fill="none" stroke="#fff" stroke-miterlimit="22.926" stroke-width="0.216" fill-rule="evenodd"/>
        </g>
        <g id="Group_198" data-name="Group 198" transform="translate(43.657 23.276)">
          <path id="Path_554" data-name="Path 554" d="M1138.5,644.183a2.149,2.149,0,0,1,.167.655v.4c-.079.967-.727,1.863-1.6,1.843v-1.3a.9.9,0,0,0,.814-.866c.122-1.039-.349-1.459-.814-1.411v-.184a1.6,1.6,0,0,1,1.428.865Zm-1.436,2.9a1.338,1.338,0,0,1-.349-.055,1.941,1.941,0,0,1-1.232-1.8v-.335a2.1,2.1,0,0,1,.335-1.017,1.4,1.4,0,0,1,1.251-.555v.184c-.5.052-1,.658-.745,1.625a.774.774,0,0,0,.746.652Z" transform="translate(-1135.459 -643.315)" fill="#fff" fill-rule="evenodd"/>
          <path id="Path_555" data-name="Path 555" d="M1138.474,644.175c.578,1.357-.411,3.247-1.784,2.848a2.178,2.178,0,0,1-.9-3.15,1.658,1.658,0,0,1,2.68.307Zm-2.178.948c.278,1.005,1.443.781,1.56-.214.25-2.168-2.079-1.642-1.56.216Z" transform="translate(-1135.439 -643.307)" fill="none" stroke="#fff" stroke-miterlimit="22.926" stroke-width="0.216" fill-rule="evenodd"/>
        </g>
        <path id="Path_556" data-name="Path 556" d="M915.251,806.361c.03.271.117,2.031.147,2.3-1.034-2.741-6.646-1.6-8.684-.88-.444.156.017,1.407.05,1.783-.065,1.216,4.949,1.893,6.308,2.3a2.562,2.562,0,0,0,2.55-.622l.057,2.381a21.481,21.481,0,0,0-6.742-2.178,12.112,12.112,0,0,1-2.575-.072c-.8-.219-.875-1.2-.849-1.82.032-.8-.082-2.5,1.035-2.848a10.57,10.57,0,0,1,2.816-.407Z" transform="translate(-904.472 -752.806)" fill="#fff" stroke="#fff" stroke-miterlimit="22.926" stroke-width="0.216" fill-rule="evenodd"/>
        <path id="Path_557" data-name="Path 557" d="M930.354,811.083l-.029,1.263-.345.918c.536.167-.058,1.29,0,1.907h-.043a5.894,5.894,0,0,1-.588-1.858,3.961,3.961,0,0,1,1.005-2.23Z" transform="translate(-923.889 -756.7)" fill="#fff" stroke="#fff" stroke-miterlimit="22.926" stroke-width="0.216" fill-rule="evenodd"/>
        <path id="Path_558" data-name="Path 558" d="M932.628,814.788c-.114.458-.285.913-.4,1.371l-.057.167v.972" transform="translate(-926.19 -759.718)" fill="none" stroke="#fff" stroke-miterlimit="22.926" stroke-width="0.216" fill-rule="evenodd"/>
        <path id="Path_559" data-name="Path 559" d="M901.992,833.277l-.591,3.413-.72,2.424-.09.607-.052.025a2.9,2.9,0,0,1-.437-2.376,8.592,8.592,0,0,1,.96-2.83Z" transform="translate(-900.012 -774.779)" fill="#fff" stroke="#fff" stroke-miterlimit="22.926" stroke-width="0.216" fill-rule="evenodd"/>
        <path id="Path_560" data-name="Path 560" d="M903.655,833.278c-.571,1.37-2.058,5.142-1.427,6.455" transform="translate(-901.673 -774.78)" fill="none" stroke="#fff" stroke-miterlimit="22.926" stroke-width="0.216" fill-rule="evenodd"/>
        <path id="Path_561" data-name="Path 561" d="M1090.47,800.181l6.28-.838c.948-.167,2.152-.722,3.106-.229.838.436,1.047,1.786,1.2,2.552.065.335.573,1.741-.052,2.2a2,2,0,0,1-1.02.246l-4.73.084c-.322.017-.643.35-.875.534a4.148,4.148,0,0,1-2.158,1.128l-1.121-.042v-.1a5.12,5.12,0,0,0,1.952-.633c.662-.464,1.2-1.508,2.071-1.64,1.967-.167,5.015-.013,4.757-1.856l-.345-1.231c-.087-.358-.387-.239-.727-.208-2.255.087-7.389-.384-8.22,2.049Z" transform="translate(-1055.138 -746.788)" fill="#fff" stroke="#fff" stroke-miterlimit="22.926" stroke-width="0.216" fill-rule="evenodd"/>
        <path id="Path_562" data-name="Path 562" d="M1109.68,805.727c.258.948-.767,2.513-.131,3.311l-.111.018c-.238-.209-.518-.392-.607-.7C1108.675,807.823,1108.926,805.643,1109.68,805.727Z" transform="translate(-1070.069 -752.334)" fill="#fff" stroke="#fff" stroke-miterlimit="22.926" stroke-width="0.216" fill-rule="evenodd"/>
        <g id="Group_199" data-name="Group 199" transform="translate(108.465 61.496)">
          <path id="Path_563" data-name="Path 563" d="M1494.91,860.151a3.729,3.729,0,0,1-.681,1.813,1.239,1.239,0,0,1-.167.168,1.909,1.909,0,0,1-.766.362v-1.508c.359.067.749-.218.92-.792.558-1.873.741-6.41-.327-8.243a.4.4,0,0,0-.593-.2v-.67a.6.6,0,0,1,.463.168,2.947,2.947,0,0,1,.754,1.508,17.541,17.541,0,0,1,.5,3.927,10.029,10.029,0,0,0-1.1-6.327.67.67,0,0,0-.615-.295v-.536a1.107,1.107,0,0,1,.63.316,3.5,3.5,0,0,1,.864,1.594,20.889,20.889,0,0,1,.119,8.719ZM1493.3,862.5a3.981,3.981,0,0,1-.69.112,4.6,4.6,0,0,1-1.8-.167l-.335-.137-.459.1a4.189,4.189,0,0,1-3-.018,2.338,2.338,0,0,1-1.371-1.3,4.131,4.131,0,0,1-.5-3.488,6.681,6.681,0,0,0,1.211,3.662,2.863,2.863,0,0,0,1.518.89c1.52.141,1.371-.7,1.283-1.423a6.083,6.083,0,0,1-.791-2.394,5.152,5.152,0,0,1,0-1.759h.459a15.4,15.4,0,0,0,1.233,4.274,3.674,3.674,0,0,0,.372.5c.726.628,1.16.464,1.292-.617.374-.759-.958-4.842-.67-7.236a5.661,5.661,0,0,1,1.52-3.778.963.963,0,0,1,.732-.181v.536a1.279,1.279,0,0,0-.76.226c-.888.787-1.55,4.189-.582,2.62.055-.219.288-.523.357-.737.123-.387.516-1.054.985-1.1v.67a2.538,2.538,0,0,0-.92,1.349,22.076,22.076,0,0,0,.231,6.965c.114.573.392.869.689.923Z" transform="translate(-1484.961 -849.52)" fill="#fff" fill-rule="evenodd"/>
          <path id="Path_564" data-name="Path 564" d="M1494.911,860.151a3.728,3.728,0,0,1-.68,1.813,1.239,1.239,0,0,1-.167.167,2.694,2.694,0,0,1-1.456.474,4.61,4.61,0,0,1-1.8-.167l-.335-.137-.459.1a4.19,4.19,0,0,1-3-.018,2.333,2.333,0,0,1-1.37-1.3,4.127,4.127,0,0,1-.5-3.488,6.685,6.685,0,0,0,1.211,3.662,2.862,2.862,0,0,0,1.518.891c1.52.141,1.371-.7,1.283-1.422a6.089,6.089,0,0,1-.791-2.394,5.142,5.142,0,0,1,0-1.759h.459a15.414,15.414,0,0,0,1.233,4.274,3.658,3.658,0,0,0,.372.5c.726.628,1.16.464,1.292-.617.374-.759-.958-4.842-.67-7.236a5.663,5.663,0,0,1,1.52-3.778,1.053,1.053,0,0,1,1.362.136,3.494,3.494,0,0,1,.865,1.594,20.886,20.886,0,0,1,.119,8.7Zm-2.954-7.223c.055-.219.288-.523.357-.737.167-.5.794-1.508,1.446-.921a2.946,2.946,0,0,1,.754,1.508,17.515,17.515,0,0,1,.5,3.927,10.034,10.034,0,0,0-1.1-6.327c-.256-.469-1.129-.288-1.375-.068-.888.787-1.55,4.189-.582,2.622Zm1.935-.968c-.524-.9-1.465.754-1.508,1.148a22.067,22.067,0,0,0,.231,6.965c.253,1.263,1.3,1.181,1.608.131.553-1.873.737-6.41-.335-8.243Z" transform="translate(-1484.962 -849.52)" fill="none" stroke="#fff" stroke-miterlimit="22.926" stroke-width="0.216" fill-rule="evenodd"/>
        </g>
        <path id="Path_565" data-name="Path 565" d="M1409.289,883.687c-.075.481-.367,1.689-1.117,1.446a1.383,1.383,0,0,1-.692-.814,11.023,11.023,0,0,1-.692-5.047,2.154,2.154,0,0,0,.734.167,17.949,17.949,0,0,0,.345,4.173c.045.225.375,1.473.69.821a8.7,8.7,0,0,0,.527-5.206.642.642,0,0,0,.289.012,13.992,13.992,0,0,1-.084,4.447Z" transform="translate(-1312.783 -812.211)" fill="#fff" stroke="#fff" stroke-miterlimit="22.926" stroke-width="0.216" fill-rule="evenodd"/>
        <path id="Path_566" data-name="Path 566" d="M1406.03,882.79c-.238,1.542-1.752,2.513-2.548.813a11.182,11.182,0,0,1-.822-5.7c.323.037.67.1.993.157l-.122,1.049a8.325,8.325,0,0,0,.692,4.07c.556,1.372,1.195.427,1.4-.5a15.629,15.629,0,0,0,.561-4.663.631.631,0,0,0,.143.042A20.313,20.313,0,0,1,1406.03,882.79Z" transform="translate(-1309.402 -811.128)" fill="#fff" stroke="#fff" stroke-miterlimit="22.926" stroke-width="0.216" fill-rule="evenodd"/>
        <path id="Path_567" data-name="Path 567" d="M1375.579,875.8c.219,1.2.293,5.223,1.116,6.211a2.409,2.409,0,0,0,1.28.751c1.913.176.689-1.5,1.187-1.909.122-.1.794,1.089.971,1.242.7.6.93.364.975-.92,1.116,2.262,2.319.67,2.513.27l.059.015a1.939,1.939,0,0,1-.478,1.295,2.271,2.271,0,0,1-1.228.4,3.88,3.88,0,0,1-1.508-.144l-.288-.115-.387.08a2.837,2.837,0,0,1-2.572.111c-.62-.24-.8-.658-1.111-1.225a13.942,13.942,0,0,1-.529-6.062Z" transform="translate(-1287.296 -809.421)" fill="#fff" stroke="#fff" stroke-miterlimit="22.926" stroke-width="0.216" fill-rule="evenodd"/>
        <path id="Path_568" data-name="Path 568" d="M1392.809,890.372a.556.556,0,0,1-.692-.206,4.65,4.65,0,0,1-1.079-2.57,4.331,4.331,0,0,1,0-1.483l.188-.427.053.022.8,3.331A2.4,2.4,0,0,0,1392.809,890.372Z" transform="translate(-1299.934 -817.472)" fill="#fff" stroke="#fff" stroke-miterlimit="22.926" stroke-width="0.216" fill-rule="evenodd"/>
        <path id="Path_569" data-name="Path 569" d="M1393.771,890.421c-1.005.126-1.853-3.931-1.553-4.676" transform="translate(-1300.9 -817.52)" fill="none" stroke="#fff" stroke-miterlimit="22.926" stroke-width="0.216" fill-rule="evenodd"/>
        <path id="Path_570" data-name="Path 570" d="M1543.056,865.121c.1,2.744-.377,4.991-1.075,5.026s-1.341-2.178-1.453-4.922.377-4.993,1.076-5.026,1.341,2.178,1.452,4.922" transform="translate(-1421.752 -796.709)" fill="none" stroke="#fff" stroke-miterlimit="22.926" stroke-width="0.216" fill-rule="evenodd"/>
        <g id="Group_200" data-name="Group 200" transform="translate(117.974 61.561)">
          <path id="Path_571" data-name="Path 571" d="M1539.747,860.478c-.122.8-.8,2.317-1.881,2.066a1.546,1.546,0,0,1-.9-.685v-2.991c.277,1.2.906,3.4,1.568,2.884a2.266,2.266,0,0,0,.73-1.421c.661-3.016,1.458-6.219-.74-9.542-.576-.871-1.173.01-1.558.928v-1.228a2.6,2.6,0,0,1,.439-.437c1.081-.838,2.041.9,2.225,1.729a20.882,20.882,0,0,1,.119,8.7Zm-2.783-5.929.2-1.731c-.076.139-.142.256-.2.355Zm0,7.31a5.671,5.671,0,0,1-.6-1.283c.533-.449.352-1.843.453-2.411.013.09.063.355.144.7v2.991Zm0-10.142a8.718,8.718,0,0,0-.374,1.087c-.167-.32-.129-.7-.308-1.017a4.417,4.417,0,0,1,.682-1.3v1.228Zm0,1.454v1.377l-.154,1.318a.7.7,0,0,0-.022-.08l-.025-.077v.012c0-.549,0-1.059.015-1.61.122-.147.039-.489-.012-.662a2.448,2.448,0,0,0,.2-.278Z" transform="translate(-1536.282 -849.824)" fill="#fff" fill-rule="evenodd"/>
          <path id="Path_572" data-name="Path 572" d="M1539.747,860.48c-.122.8-.8,2.317-1.881,2.066-.838-.2-1.236-1.24-1.5-1.969.533-.449.352-1.843.452-2.411.057.4.856,4.254,1.712,3.587a2.263,2.263,0,0,0,.731-1.421c.66-3.016,1.458-6.219-.741-9.542-.838-1.255-1.7,1.127-1.932,2.01-.167-.32-.129-.7-.308-1.017a3.688,3.688,0,0,1,1.121-1.736c1.081-.838,2.041.9,2.225,1.729a20.882,20.882,0,0,1,.119,8.7Zm-2.96-4.691-.025-.077v.012c0-.55,0-1.059.015-1.61.122-.148.039-.489-.011-.662a3.973,3.973,0,0,0,.4-.633l-.357,3.051a.493.493,0,0,0-.007-.081Z" transform="translate(-1536.282 -849.826)" fill="none" stroke="#fff" stroke-miterlimit="22.926" stroke-width="0.216" fill-rule="evenodd"/>
        </g>
        <g id="Group_201" data-name="Group 201" transform="translate(118.331 62.923)">
          <path id="Path_573" data-name="Path 573" d="M1541.183,866c-.085.541-.529,1.959-1.332,1.86v-.687c.348.168.7-.072.838-.615.449-1.843.5-6.87-.449-8.5-.114-.2-.246-.263-.382-.245v-.642a.669.669,0,0,1,.308.168,2.946,2.946,0,0,1,.754,1.508,17.359,17.359,0,0,1,.534,3.949v.318A19.74,19.74,0,0,1,1541.183,866Zm-1.332,1.86a.713.713,0,0,1-.136-.03c-.4-.131-.536-.729-.67-1.081a12.72,12.72,0,0,1-.872-4.267v-.94a12.35,12.35,0,0,1,.548-3.282c.136-.429.6-1.2,1.137-1.089v.642c-.443.062-.923,1.019-.958,1.305a19.481,19.481,0,0,0,.26,6.823,1.768,1.768,0,0,0,.7,1.231Z" transform="translate(-1538.164 -857.163)" fill="#fff" fill-rule="evenodd"/>
          <path id="Path_574" data-name="Path 574" d="M1541.147,866c-.089.57-.58,2.119-1.468,1.83-.4-.131-.536-.729-.67-1.081a13.066,13.066,0,0,1-.323-8.488c.167-.5.794-1.508,1.446-.921a2.948,2.948,0,0,1,.754,1.508,16.627,16.627,0,0,1,.27,7.156Zm-.948-7.942c-.486-.838-1.3.689-1.341,1.06a19.482,19.482,0,0,0,.259,6.823c.372,1.615,1.295,1.58,1.531.618.449-1.841.5-6.866-.456-8.5Z" transform="translate(-1538.129 -857.164)" fill="none" stroke="#fff" stroke-miterlimit="22.926" stroke-width="0.216" fill-rule="evenodd"/>
        </g>
        <path id="Path_575" data-name="Path 575" d="M1079.651,735.618c.414-.422,9.59.432,14.136,1.126v.182c-5.256-.32-13.218-1.826-12.531,3.589C1081.293,739.9,1079.584,736.23,1079.651,735.618Z" transform="translate(-1046.321 -695.133)" fill="#fff" stroke="#fff" stroke-miterlimit="22.926" stroke-width="0.216" fill-rule="evenodd"/>
        <path id="Path_576" data-name="Path 576" d="M1169.383,670.878l-1.287,10.916a23.934,23.934,0,0,0,.486,5.769l.794,6.224h-.115l-1.6-5.973a23.261,23.261,0,0,1-.885-6.256l.771-10.68Z" transform="translate(-1117.299 -642.488)" fill="#fff" stroke="#fff" stroke-miterlimit="22.926" stroke-width="0.216" fill-rule="evenodd"/>
        <path id="Path_577" data-name="Path 577" d="M1170.892,670.878a61.256,61.256,0,0,1-1.029,10.8c-.685,3.828,1.885,8.17,1.885,12.112" transform="translate(-1119.726 -642.488)" fill="none" stroke="#fff" stroke-miterlimit="22.926" stroke-width="0.216" fill-rule="evenodd"/>
        <g id="Group_202" data-name="Group 202" transform="translate(47.747 58.619)">
          <path id="Path_578" data-name="Path 578" d="M1162.8,849.429c-.142.9-.65,3.033-1.89,3.071v-1.1c.141-.025.344-.37.367-.419a18.333,18.333,0,0,0-.367-15.116v-1.689c.032.025.063.05.1.079a5.168,5.168,0,0,1,1.322,2.635,30.6,30.6,0,0,1,.935,6.813v.774a34.929,34.929,0,0,1-.462,4.955Zm-1.89,3.071a1.274,1.274,0,0,1-.432-.065,2.872,2.872,0,0,1-1.439-1.694,22.267,22.267,0,0,1-1.526-7.441v-1.709a21.63,21.63,0,0,1,.96-5.723c.275-.871,1.329-2.54,2.438-1.692v1.689c-.073-.136-.147-.27-.225-.4s-.343-.531-.521-.313a4.352,4.352,0,0,0-.778,2.123,37.378,37.378,0,0,0,.454,12c.087.432.429,1.92,1.03,2.123a.085.085,0,0,0,.038,0Z" transform="translate(-1157.509 -833.942)" fill="#fff" fill-rule="evenodd"/>
          <path id="Path_579" data-name="Path 579" d="M1162.738,849.429c-.157,1.005-.764,3.518-2.322,3.006a2.872,2.872,0,0,1-1.44-1.694,22.912,22.912,0,0,1-.566-14.873c.283-.895,1.391-2.637,2.535-1.613a5.165,5.165,0,0,1,1.322,2.635,29.135,29.135,0,0,1,.472,12.539Zm-2.114-13.968c-.072-.124-.344-.531-.521-.313a4.354,4.354,0,0,0-.778,2.123,37.392,37.392,0,0,0,.454,12c.087.432.429,1.92,1.031,2.123.139.047.381-.363.405-.415a18.223,18.223,0,0,0-.588-15.52Z" transform="translate(-1157.435 -833.94)" fill="none" stroke="#fff" stroke-miterlimit="22.926" stroke-width="0.216" fill-rule="evenodd"/>
        </g>
        <path id="Path_580" data-name="Path 580" d="M1166.345,845.717c.183,4.81-.66,8.748-1.883,8.795s-2.363-3.817-2.545-8.626.662-8.748,1.885-8.794,2.363,3.817,2.545,8.627" transform="translate(-1113.322 -777.885)" fill="none" stroke="#fff" stroke-miterlimit="22.926" stroke-width="0.216" fill-rule="evenodd"/>
        <g id="Group_203" data-name="Group 203" transform="translate(41.709 55.884)">
          <path id="Path_581" data-name="Path 581" d="M1136.468,837.812a6.384,6.384,0,0,1-.67,1.933,2.666,2.666,0,0,1-.814,1.55,3.392,3.392,0,0,1-1.173.642v-1.784a.538.538,0,0,0,.524-.111,3.969,3.969,0,0,0,1.28-2.488c1.158-5.286,2.555-10.891-1.3-16.719a1.141,1.141,0,0,0-.5-.379v-1.195a1.929,1.929,0,0,1,.93.521,6.133,6.133,0,0,1,1.508,2.79,36.594,36.594,0,0,1,.217,15.24Zm-2.652,4.125a12.3,12.3,0,0,1-5.442.02,4.979,4.979,0,0,1-2.167-3.45,11.743,11.743,0,0,1-1.293-4.639,8.609,8.609,0,0,0,1.34-.042c.68,2.848.838,4.356,2.942,6.233,1.017.737,1.34.315,1.439-1.833a25.513,25.513,0,0,1-1.04-11.914c.25-2.124.873-5.311,2.763-6.771a1.717,1.717,0,0,1,1.456-.283v1.195a1.084,1.084,0,0,0-1.1.059c-1.652,1.466-2.974,8-.767,3.875-.595,5.1-1.248,9.252.764,14.225.149.369.57,1.362,1.106,1.54Z" transform="translate(-1124.914 -819.203)" fill="#fff" fill-rule="evenodd"/>
          <path id="Path_582" data-name="Path 582" d="M1136.468,837.807a6.385,6.385,0,0,1-.67,1.933,2.664,2.664,0,0,1-.814,1.55c-1.508,1.324-4.586,1.005-6.61.67a4.98,4.98,0,0,1-2.167-3.45,11.746,11.746,0,0,1-1.293-4.639,8.657,8.657,0,0,0,1.341-.042c.68,2.848.838,4.356,2.942,6.232,1.017.737,1.341.315,1.439-1.833a25.513,25.513,0,0,1-1.04-11.914c.25-2.124.873-5.311,2.763-6.77a1.843,1.843,0,0,1,2.385.239,6.126,6.126,0,0,1,1.508,2.79,36.587,36.587,0,0,1,.208,15.247Zm-2.146-16.977a1.26,1.26,0,0,0-1.608-.322c-1.652,1.466-2.974,8-.767,3.875-.595,5.1-1.248,9.252.764,14.225.194.482.854,2.034,1.63,1.429a3.971,3.971,0,0,0,1.28-2.488c1.166-5.29,2.556-10.9-1.3-16.719Z" transform="translate(-1124.914 -819.196)" fill="none" stroke="#fff" stroke-miterlimit="22.926" stroke-width="0.216" fill-rule="evenodd"/>
        </g>
        <path id="Path_583" data-name="Path 583" d="M1352.824,859.09c.137,3.626-.5,6.593-1.421,6.628s-1.781-2.877-1.918-6.5.5-6.593,1.421-6.628,1.781,2.877,1.918,6.5" transform="translate(-1266.129 -790.511)" fill="none" stroke="#fff" stroke-miterlimit="22.926" stroke-width="0.216" fill-rule="evenodd"/>
        <path id="Path_584" data-name="Path 584" d="M1346.707,852.959c-.167,1.052-1.055,3.061-2.485,2.728-1.117-.261-2.148-1.952-2.493-2.915.188-1.223.779-4.664.911-5.417.076.528,1.332,7.937,2.461,7.055a2.467,2.467,0,0,0,.965-1.647c.871-3.984,1.925-8.21-.979-12.6-1.676-2.54-1.843,5.036-2.488,5.764-.144.167-.378-3.465-.756-4.128a6.436,6.436,0,0,1,1.766-2.609c1.427-1.1,2.7,1.191,2.939,2.284A27.572,27.572,0,0,1,1346.707,852.959Z" transform="translate(-1259.816 -779.358)" fill="#fff" stroke="#fff" stroke-miterlimit="22.926" stroke-width="0.216" fill-rule="evenodd"/>
        <g id="Group_204" data-name="Group 204" transform="translate(82.763 61.335)">
          <path id="Path_585" data-name="Path 585" d="M1350.356,860.258c-.107.679-.489,2.285-1.424,2.314v-.838c.105-.018.26-.278.276-.315a13.815,13.815,0,0,0-.276-11.393v-1.273l.072.06a3.89,3.89,0,0,1,1,1.987,23.028,23.028,0,0,1,.7,5.169v.516a26.168,26.168,0,0,1-.347,3.773Zm-1.424,2.314a.958.958,0,0,1-.325-.05,2.165,2.165,0,0,1-1.084-1.277,16.789,16.789,0,0,1-1.151-5.62v-1.27a16.348,16.348,0,0,1,.724-4.319c.208-.655,1.005-1.913,1.843-1.277v1.273c-.053-.1-.111-.2-.167-.3s-.26-.4-.394-.236a3.28,3.28,0,0,0-.587,1.6,28.178,28.178,0,0,0,.335,9.047c.065.325.323,1.448.778,1.6a.066.066,0,0,0,.029,0Z" transform="translate(-1346.367 -848.585)" fill="#fff" fill-rule="evenodd"/>
          <path id="Path_586" data-name="Path 586" d="M1350.311,860.257c-.119.752-.576,2.647-1.749,2.265a2.162,2.162,0,0,1-1.084-1.277,17.263,17.263,0,0,1-.427-11.209c.213-.67,1.048-1.987,1.91-1.216a3.892,3.892,0,0,1,1,1.987,21.948,21.948,0,0,1,.357,9.451Zm-1.594-10.527c-.053-.094-.26-.4-.394-.236a3.271,3.271,0,0,0-.584,1.6,28.171,28.171,0,0,0,.335,9.047c.065.325.323,1.448.777,1.6.1.035.286-.273.3-.313a13.738,13.738,0,0,0-.437-11.7Z" transform="translate(-1346.315 -848.583)" fill="none" stroke="#fff" stroke-miterlimit="22.926" stroke-width="0.216" fill-rule="evenodd"/>
        </g>
        <path id="Path_587" data-name="Path 587" d="M1204.306,909.532c-.454,1.565-.786,3.569-2.345,4.474a1.236,1.236,0,0,1-1.093.074v-.116a2.763,2.763,0,0,0,1.044-1.34,13.6,13.6,0,0,0,.554-3.264Z" transform="translate(-1145.082 -836.762)" fill="#fff" stroke="#fff" stroke-miterlimit="22.926" stroke-width="0.216" fill-rule="evenodd"/>
        <path id="Path_588" data-name="Path 588" d="M1203.383,909.812c-.114,1.258-.8,4.572-2.513,4.572" transform="translate(-1145.079 -837.125)" fill="none" stroke="#fff" stroke-miterlimit="22.926" stroke-width="0.216" fill-rule="evenodd"/>
        <path id="Path_589" data-name="Path 589" d="M1111.879,917.974a2.427,2.427,0,0,1,1.376,1.843c-.1.778-1.014,1.046-1.215,1.044a3.234,3.234,0,0,1-3.656-2.994C1109.55,917.859,1110.723,917.974,1111.879,917.974Z" transform="translate(-1069.743 -843.681)" fill="#fff" stroke="#fff" stroke-miterlimit="22.926" stroke-width="0.216" fill-rule="evenodd"/>
        <path id="Path_590" data-name="Path 590" d="M955.115,909.371l2.671-.042,9.948.226a19.664,19.664,0,0,0-9.575,3.128l-3.487-.63Z" transform="translate(-944.52 -836.732)" fill="#fff" stroke="#fff" stroke-miterlimit="22.926" stroke-width="0.216" fill-rule="evenodd"/>
        <path id="Path_591" data-name="Path 591" d="M1057.83,892.867c3.733,1.074,11.137-1.573,14.161-2.448l.483,4.812a111.276,111.276,0,0,1-14.644-1.173Z" transform="translate(-1028.562 -821.327)" fill="#fff" stroke="#fff" stroke-miterlimit="22.926" stroke-width="0.216" fill-rule="evenodd"/>
        <path id="Path_592" data-name="Path 592" d="M1554.916,678.565a68.69,68.69,0,0,0-.865,25.38h-.1a38.84,38.84,0,0,1,.965-25.38Z" transform="translate(-1431.331 -648.75)" fill="#fff" stroke="#fff" stroke-miterlimit="22.926" stroke-width="0.216" fill-rule="evenodd"/>
        <path id="Path_593" data-name="Path 593" d="M968.531,683.632l-6.507,1.779c-2.2.716-2.178.38-2.451,2.6,0,.491.422,3.507,1.017,3.56,1.855.075,1.528-.374,1.5-1.97l.167-3.428.273-.6.335,4.949c.045.67.168,1.312-.471,1.714a3.95,3.95,0,0,1-2.237.288c-.491-.032-1.379-1.7-1.526-2.178a6.917,6.917,0,0,1,.392-4.834.733.733,0,0,1,.447-.327l9.1-1.987Z" transform="translate(-947.526 -652.528)" fill="#fff" stroke="#fff" stroke-miterlimit="22.926" stroke-width="0.216" fill-rule="evenodd"/>
        <path id="Path_594" data-name="Path 594" d="M970.737,685.652a24.435,24.435,0,0,0-3.314.685,24.174,24.174,0,0,0-5.37,1.485,7.477,7.477,0,0,0-.287,4.341c.057.114.515.685.571.8.514,1.029-.457,1.086,1.427,1.086,1.942,0,1.257-1.086,1.257-2.456,0-1.086-.114-2.346-.114-3.428" transform="translate(-950.131 -654.52)" fill="none" stroke="#fff" stroke-miterlimit="22.926" stroke-width="0.216" fill-rule="evenodd"/>
        <path id="Path_595" data-name="Path 595" d="M1179.29,678.565l5.026.692c1.676.167,3.532-.08,4.993.972a1.548,1.548,0,0,1,.586.8l.245,5.026c.2,4.137-.793,3.782-4.281,4.338-1.195.191-1.96-2.335-1.945-3.47l.043-3.5a1.985,1.985,0,0,0-.687-1.881l-2.744-1.791.032-.086a7.206,7.206,0,0,1,3.78,2.212c.638.921.3,2.458.352,3.476a4.216,4.216,0,0,0,.53,2.446.839.839,0,0,0,.534.3l.276.018c4.266-.461,2.884-.6,2.973-5.558l-.037-1.246a.669.669,0,0,0-.246-.352,6.7,6.7,0,0,0-3.053-.928l-3.968-.637Z" transform="translate(-1127.498 -648.75)" fill="#fff" stroke="#fff" stroke-miterlimit="22.926" stroke-width="0.216" fill-rule="evenodd"/>
        <path id="Path_596" data-name="Path 596" d="M1287.31,841.558l3.519-.219a1.124,1.124,0,0,0,.752-.9l.059-.824.694-4.762a4.661,4.661,0,0,1,2.862-3.126,11.969,11.969,0,0,1,4.88-.037,4.691,4.691,0,0,1,3.519,2.391,14.1,14.1,0,0,1,1.163,5.3l-.1.017c-.67-2.334-1.126-5.986-4.043-6.608l-.7-.131-1.729-.069-2.213.184-.446.1-.4.167-.374.216c-2.115,1.6-2.034,4.557-2.379,6.908a1.932,1.932,0,0,1-1.377,1.768A10.685,10.685,0,0,1,1287.31,841.558Z" transform="translate(-1215.485 -773.284)" fill="#fff" stroke="#fff" stroke-miterlimit="22.926" stroke-width="0.216" fill-rule="evenodd"/>
        <path id="Path_597" data-name="Path 597" d="M1287.31,844.213c2.485.085,4.716.937,4.716-1.949,0-2.629.8-7.084,3.885-7.427,6.742-.685,7.828,1.143,8.8,7.2" transform="translate(-1215.484 -775.939)" fill="none" stroke="#fff" stroke-miterlimit="22.926" stroke-width="0.216" fill-rule="evenodd"/>
        <path id="Path_598" data-name="Path 598" d="M1283.354,833.518c-3.2.251-6.429,1.041-9.56.354l-2.53-.895.07-.178,5.61.241Z" transform="translate(-1202.418 -774.392)" fill="#fff" stroke="#fff" stroke-miterlimit="22.926" stroke-width="0.216" fill-rule="evenodd"/>
        <path id="Path_599" data-name="Path 599" d="M1283.51,833.906c-3.885,0-9.2.515-12.055-.628" transform="translate(-1202.572 -774.78)" fill="none" stroke="#fff" stroke-miterlimit="22.926" stroke-width="0.216" fill-rule="evenodd"/>
        <path id="Path_600" data-name="Path 600" d="M1475.59,852.884v-.448l5.837.431c2.455.116.715-3.812,1.9-6.129a2.079,2.079,0,0,1,2.039-1.384v.087a3.1,3.1,0,0,0-1.709,2.474,13.954,13.954,0,0,0-.3,3.827c.042.67.151,1.65-.717,1.853a10.173,10.173,0,0,1-2.766-.318Z" transform="translate(-1368.867 -784.598)" fill="#fff" stroke="#fff" stroke-miterlimit="22.926" stroke-width="0.216" fill-rule="evenodd"/>
        <path id="Path_601" data-name="Path 601" d="M1473.807,849.205a11.731,11.731,0,0,1-.229-4.674,8.085,8.085,0,0,1,1.724-3,3.978,3.978,0,0,1,1.113-.719l.043.089a12.9,12.9,0,0,0-1.728,3.969l-.467,2.753Z" transform="translate(-1367.082 -780.921)" fill="#fff" stroke="#fff" stroke-miterlimit="22.926" stroke-width="0.216" fill-rule="evenodd"/>
        <path id="Path_602" data-name="Path 602" d="M1475.6,849.4a30.031,30.031,0,0,0,.114-3.257c0-1.258,1.37-4.524,2.512-5.087" transform="translate(-1368.868 -781.115)" fill="none" stroke="#fff" stroke-miterlimit="22.926" stroke-width="0.216" fill-rule="evenodd"/>
        <path id="Path_603" data-name="Path 603" d="M1547.44,846.3a2.976,2.976,0,0,1,2.078,1.551,4.751,4.751,0,0,1,.451,2.373l-.211,1.565h-.063a7.563,7.563,0,0,0-1.341-4.74Z" transform="translate(-1427.393 -785.383)" fill="#fff" stroke="#fff" stroke-miterlimit="22.926" stroke-width="0.216" fill-rule="evenodd"/>
        <path id="Path_604" data-name="Path 604" d="M1547.44,846.3a3.786,3.786,0,0,1,2.179,2.4,11.139,11.139,0,0,1,.114,3.086" transform="translate(-1427.393 -785.383)" fill="none" stroke="#fff" stroke-miterlimit="22.926" stroke-width="0.216" fill-rule="evenodd"/>
        <path id="Path_605" data-name="Path 605" d="M1338.374,916.209c-2.651,0-4.2.989-4.5-1.406.472.568,1.441-1.944,1.7-1.6s2.744,2.49,2.744,2.49Z" transform="translate(-1253.425 -839.862)" fill="#fff" stroke="#fff" stroke-miterlimit="22.926" stroke-width="0.216" fill-rule="evenodd"/>
        <path id="Path_606" data-name="Path 606" d="M1148.81,813.876l4.437-.137a9.494,9.494,0,0,1,2.959.67,4.931,4.931,0,0,1,2.487,4.524l.026,1.97a9.276,9.276,0,0,1,.146,2.644.071.071,0,0,1-.057.072v-.061c-.1.017-.094-.082-.139-.213l-.623-2.326c-.382-1.91-.253-4.567-2.315-5.591A25.027,25.027,0,0,0,1148.81,813.876Z" transform="translate(-1102.661 -758.864)" fill="#fff" stroke="#fff" stroke-miterlimit="22.926" stroke-width="0.216" fill-rule="evenodd"/>
        <path id="Path_607" data-name="Path 607" d="M1148.81,814.48c2,0,6.913.167,8.227,1.828a6.959,6.959,0,0,1,1.257,4.514c0,.515.571,3.371.514,3.371" transform="translate(-1102.661 -759.467)" fill="none" stroke="#fff" stroke-miterlimit="22.926" stroke-width="0.216" fill-rule="evenodd"/>
        <path id="Path_608" data-name="Path 608" d="M1134.94,857.576l1.508-1.082-.061.034-.03.023-.012.008h0l.012-.057.019-.1.2-3.822.109-1.566-.323.044-.466.062-.31-.013-.025-.072c.451-.335,1.644-1.206,1.843-.246a13.579,13.579,0,0,1-.025,5.06,2.393,2.393,0,0,1-.437,1.2C1136.515,857.47,1135.476,857.47,1134.94,857.576Z" transform="translate(-1091.367 -788.68)" fill="#fff" stroke="#fff" stroke-miterlimit="22.926" stroke-width="0.216" fill-rule="evenodd"/>
        <path id="Path_609" data-name="Path 609" d="M1134.94,858.962a10.5,10.5,0,0,1,1.657-.742c.514-.228.571-6.114.4-6.171a6.676,6.676,0,0,0-1.429.4" transform="translate(-1091.367 -790.066)" fill="none" stroke="#fff" stroke-miterlimit="22.926" stroke-width="0.216" fill-rule="evenodd"/>
      </g>
    </g>
  </g>
</svg>
