<svg xmlns="http://www.w3.org/2000/svg" width="130" height="100" viewBox="0 0 130 100">
  <g id="truckSliderIcon" transform="translate(-1931 1770)">
    <rect id="Rectangle_1891" data-name="Rectangle 1891" width="130" height="100" transform="translate(1931 -1770)" fill="none"/>
    <g id="Group_1165" data-name="Group 1165" transform="translate(1099.18 -2631.998)">
      <g id="Truck_icon" data-name="Truck icon" transform="translate(840.82 879.998)">
        <path id="Path_509" data-name="Path 509" d="M1344.343,566.879l-13.188-4.959-20.849-7.714-5.594-1.888-2.15-.657.1,1.029.107,3.293.038,3.968.09,9.819.1,5.775.282,6.3.467,5.956,9.481.777,10.919,1.575,10.7,1.753,9.823,1.54-.02.2-20.748-2.092-21.224-1.826a1.1,1.1,0,0,1-1.088-.9l-1.178-13.189-.2-15.693.044-7.168c0-.345-.845-3.387.735-3.577a5.6,5.6,0,0,1,2.3.5l21.549,8.272,17.281,7.6Z" transform="translate(-1233.567 -544.487)" fill="#ffd600" stroke="#ffd600" stroke-miterlimit="22.926" stroke-width="0.216" fill-rule="evenodd"/>
        <path id="Path_510" data-name="Path 510" d="M1350.516,572.818c-2.8-1.541-35.72-14.916-43.092-16.659.789,5.663-.64,19.749,1.448,38.505,13.258.27,29.621,3.805,41.957,4.829" transform="translate(-1239.75 -550.426)" fill="none" stroke="#ffd600" stroke-miterlimit="22.926" stroke-width="0.216" fill-rule="evenodd"/>
        <path id="Path_511" data-name="Path 511" d="M1333.05,789.96c4-1.165,8.642-2.681,14.9-1.2l23.021,5.465-.081.364-28.366-3.978Z" transform="translate(-1261.114 -747.801)" fill="#ffd600" stroke="#ffd600" stroke-miterlimit="22.926" stroke-width="0.216" fill-rule="evenodd"/>
        <path id="Path_512" data-name="Path 512" d="M1333.05,798.457c12.7-1.429,25.495,2.23,37.88,4.45" transform="translate(-1261.114 -756.3)" fill="none" stroke="#ffd600" stroke-miterlimit="22.926" stroke-width="0.216" fill-rule="evenodd"/>
        <g id="Group_190" data-name="Group 190" transform="translate(27.403 4.617)">
          <path id="Path_513" data-name="Path 513" d="M1105.023,552.92c-1.319-2.173-7.474-2.437-13.752-2.2l-.034-1.057,14.109-.975c-.151,1.134-.162,3.1-.32,4.232Zm-15.609-2.117c-2.3.118-4.52.286-6.491.433l-17.02.651-.615,10.125-.378-10.734.866-.052,23.61-1.436Z" transform="translate(-1064.91 -548.688)" fill="#ffd600" fill-rule="evenodd"/>
          <path id="Path_514" data-name="Path 514" d="M1105.023,552.92c-1.319-2.173-7.474-2.437-13.752-2.2l-.034-1.057,14.109-.975c-.151,1.134-.162,3.1-.32,4.232Zm-15.609-2.117c-2.3.118-4.52.286-6.491.433l-17.02.651-.615,10.125-.378-10.734.866-.052,23.61-1.436Z" transform="translate(-1064.91 -548.688)" fill="none" stroke="#ffd600" stroke-miterlimit="22.926" stroke-width="0.216" fill-rule="evenodd"/>
        </g>
        <g id="Group_191" data-name="Group 191" transform="translate(69.835 49.255)">
          <path id="Path_515" data-name="Path 515" d="M1324.233,857.5c-.1.563-.448,1.888-1.311,1.912v-.687c.1-.015.239-.23.255-.26a10.367,10.367,0,0,0-.255-9.416V848a.672.672,0,0,1,.066.05,3.1,3.1,0,0,1,.916,1.643,17.2,17.2,0,0,1,.648,4.27v.429a19.627,19.627,0,0,1-.32,3.11Zm-1.311,1.912a.964.964,0,0,1-.3-.04,1.856,1.856,0,0,1-1-1.054,12.657,12.657,0,0,1-1.058-4.643v-1.05a12.293,12.293,0,0,1,.665-3.569c.191-.539.922-1.582,1.69-1.054v1.053c-.051-.084-.1-.168-.151-.251s-.238-.331-.358-.2a2.543,2.543,0,0,0-.538,1.322,20.96,20.96,0,0,0,.314,7.476c.06.27.3,1.2.717,1.321a.056.056,0,0,0,.027,0Z" transform="translate(-1320.543 -847.856)" fill="#ffd600" fill-rule="evenodd"/>
          <path id="Path_516" data-name="Path 516" d="M1324.172,857.5c-.11.621-.53,2.188-1.612,1.872a1.856,1.856,0,0,1-1-1.054,12.906,12.906,0,0,1-.393-9.262c.2-.558.963-1.643,1.756-1a3.106,3.106,0,0,1,.915,1.643,16.349,16.349,0,0,1,.329,7.807Zm-1.466-8.7c-.049-.08-.238-.331-.358-.2a2.544,2.544,0,0,0-.537,1.322,20.948,20.948,0,0,0,.314,7.476c.06.27.3,1.2.717,1.322.1.028.264-.227.28-.259a10.316,10.316,0,0,0-.4-9.662Z" transform="translate(-1320.493 -847.856)" fill="none" stroke="#ffd600" stroke-miterlimit="22.926" stroke-width="0.216" fill-rule="evenodd"/>
        </g>
        <path id="Path_517" data-name="Path 517" d="M1327.041,855.665c.126,2.995-.458,5.448-1.306,5.477s-1.638-2.377-1.764-5.372.458-5.448,1.306-5.477,1.637,2.377,1.764,5.372" transform="translate(-1253.538 -800.676)" fill="none" stroke="#ffd600" stroke-miterlimit="22.926" stroke-width="0.216" fill-rule="evenodd"/>
        <g id="Group_192" data-name="Group 192" transform="translate(68.702 47.545)">
          <path id="Path_518" data-name="Path 518" d="M1318.8,848.041c-.132.766-.787,2.146-1.838,2.274V849.5a.4.4,0,0,0,.363-.068,2.4,2.4,0,0,0,.887-1.549c.8-3.292,1.771-6.787-.9-10.412a.789.789,0,0,0-.349-.236v-.743a1.385,1.385,0,0,1,.646.322,3.716,3.716,0,0,1,1.05,1.738A20.522,20.522,0,0,1,1318.8,848.041Zm-1.838,2.274a1.366,1.366,0,0,1-.448-.02,2.275,2.275,0,0,1-1.385-1.2,11.881,11.881,0,0,1-1.264-5.272v-.789a20.216,20.216,0,0,1,.171-2.158,6.153,6.153,0,0,1,1.915-4.216,1.3,1.3,0,0,1,1.01-.176v.744a.823.823,0,0,0-.765.036c-1.145.913-2.06,4.99-.531,2.414l-.467,3.591a9.821,9.821,0,0,0,1,5.268c.1.229.394.85.767.958Z" transform="translate(-1313.817 -836.447)" fill="#ffd600" fill-rule="evenodd"/>
          <path id="Path_519" data-name="Path 519" d="M1318.781,848.038c-.151.87-.973,2.529-2.286,2.253a2.275,2.275,0,0,1-1.385-1.2,13.722,13.722,0,0,1-1.093-8.213,6.153,6.153,0,0,1,1.915-4.216,1.387,1.387,0,0,1,1.651.148,3.716,3.716,0,0,1,1.05,1.738,20.526,20.526,0,0,1,.15,9.492Zm-1.489-10.574a.941.941,0,0,0-1.115-.2c-1.145.913-2.06,4.99-.531,2.414l-.467,3.591a9.814,9.814,0,0,0,1,5.268c.135.3.591,1.268,1.13.89a2.4,2.4,0,0,0,.887-1.549c.813-3.292,1.775-6.788-.9-10.418Z" transform="translate(-1313.808 -836.445)" fill="none" stroke="#ffd600" stroke-miterlimit="22.926" stroke-width="0.216" fill-rule="evenodd"/>
        </g>
        <path id="Path_520" data-name="Path 520" d="M1271.014,895.4a6.808,6.808,0,0,0,1.471,4,3.575,3.575,0,0,0,1.845.972c2.755.229.994-1.938,1.709-2.47.179-.134.812.419,1.067.617,1,.782,1.16.77,1.738-.2,1.607,2.928,3.342.856,3.611.351l.084.018c-.1.6-.033,1.428-.587,1.861a3.567,3.567,0,0,1-1.768.563,9.393,9.393,0,0,1-2.693-.048l-.563-.411a4.794,4.794,0,0,1-3.826.2c-.9-.309-1.033-.913-1.481-1.647a4.123,4.123,0,0,1-.608-3.807Z" transform="translate(-1209.198 -839.047)" fill="#ffd600" stroke="#ffd600" stroke-miterlimit="22.926" stroke-width="0.216" fill-rule="evenodd"/>
        <path id="Path_521" data-name="Path 521" d="M1296.426,892.565a3.006,3.006,0,0,1-1.613.171c-.729-.226-2.215-5.963-1.142-5.663l.656.184C1294.67,888.775,1294.984,891.508,1296.426,892.565Z" transform="translate(-1227.963 -831.958)" fill="#ffd600" stroke="#ffd600" stroke-miterlimit="22.926" stroke-width="0.216" fill-rule="evenodd"/>
        <g id="Group_193" data-name="Group 193" transform="translate(28.53 8.094)">
          <path id="Path_522" data-name="Path 522" d="M1072.068,583.434l-.358-.322.193-5.911a6.226,6.226,0,0,1,5.022-4.231l18.331-.9a.867.867,0,0,0-.033.511l-10.25.515c-2.851.228-6.217.249-8.555.685-4.522,1.214-4.193,6.322-4.353,9.658Zm31.447-11.444c1.744.106,2.273.777,3.4,2.334,1.567,2.158,1.66,6.358,1.758,8.74l1.05,26.141c.049,1.214-1.871,1.9-2.961,1.866l-7.4-.22-.015-.106,5.791-.27c1.465-.1,3.331-.124,3.173-1.6-.131-1.214-.186-2.876-.218-4.835-.129-7.977,1.018-21.845-1.724-28.536-.9-2.212-2.295-3.026-4.093-3.065l-5.228.056a.861.861,0,0,0-.051-.419Z" transform="translate(-1071.71 -571.99)" fill="#ffd600" fill-rule="evenodd"/>
          <path id="Path_523" data-name="Path 523" d="M1072.068,583.434l-.358-.322.193-5.911a6.226,6.226,0,0,1,5.022-4.231l18.331-.9a.867.867,0,0,0-.033.511l-10.25.515c-2.851.228-6.217.249-8.555.685-4.522,1.214-4.193,6.322-4.353,9.658Zm31.447-11.444c1.744.106,2.273.777,3.4,2.334,1.567,2.158,1.66,6.358,1.758,8.74l1.05,26.141c.049,1.214-1.871,1.9-2.961,1.866l-7.4-.22-.015-.106,5.791-.27c1.465-.1,3.331-.124,3.173-1.6-.131-1.214-.186-2.876-.218-4.835-.129-7.977,1.018-21.845-1.724-28.536-.9-2.212-2.295-3.026-4.093-3.065l-5.228.056a.861.861,0,0,0-.051-.419Z" transform="translate(-1071.71 -571.99)" fill="none" stroke="#ffd600" stroke-miterlimit="22.926" stroke-width="0.216" fill-rule="evenodd"/>
        </g>
        <path id="Path_524" data-name="Path 524" d="M905.527,854.707l19.306-1.091,19.58.012-.815.539-38.7,1.386Z" transform="translate(-904.07 -803.502)" fill="#ffd600" stroke="#ffd600" stroke-miterlimit="22.926" stroke-width="0.216" fill-rule="evenodd"/>
        <path id="Path_525" data-name="Path 525" d="M900.525,858.532l.376,2.857.135,1.61,3.752.674,5.084.823,4.849-.176,4.21-.224,8.208-.014,9.7-1.4a5.769,5.769,0,0,0,1.651-.608c.938-.58.218-4.339-1.035-4.873.679,0,1.918-.05,2.6-.052-1.445.489-1.024,2.843-.8,4.935.018.248-.4.493-.59.6a17.614,17.614,0,0,1-5.295,1.552l-6.277.885-12.336.291-5.031.023-9.166-1.966c-.09-.027-.141-.161-.141-.241Z" transform="translate(-900.344 -806.513)" fill="#ffd600" stroke="#ffd600" stroke-miterlimit="22.926" stroke-width="0.216" fill-rule="evenodd"/>
        <path id="Path_526" data-name="Path 526" d="M1014.01,530.764c-.9.383-2.99.966-3.408,1.877a10.45,10.45,0,0,0-.653,2.756c-.506,3.583.349,8.283.6,10.652l.3,2.855-.314,11.083-.611-.27-.9-23.917c-.056-1.474.659-3.731,2.239-4.49a13.446,13.446,0,0,1,2.749-.546Z" transform="translate(-990.893 -528.822)" fill="#ffd600" stroke="#ffd600" stroke-miterlimit="22.926" stroke-width="0.216" fill-rule="evenodd"/>
        <path id="Path_527" data-name="Path 527" d="M1020.43,531.407c1.422,2.69-2.491,2.847-2.508,3.641v.371l.4,17.124-1.31,1.136-.627,2.1.689-20.353a1.574,1.574,0,0,1,.671-1.288C1018.414,533.709,1020.761,533.9,1020.43,531.407Z" transform="translate(-997.042 -529.369)" fill="#ffd600" stroke="#ffd600" stroke-miterlimit="22.926" stroke-width="0.216" fill-rule="evenodd"/>
        <path id="Path_528" data-name="Path 528" d="M1374.03,875.125c4.413-.229,9.456,1,13.938.507l3.225-.447.012.08-7.354,2.063c-1.594.446-3.357-.384-4.886-.809Z" transform="translate(-1295.289 -821.778)" fill="#ffd600" stroke="#ffd600" stroke-miterlimit="22.926" stroke-width="0.216" fill-rule="evenodd"/>
        <path id="Path_529" data-name="Path 529" d="M1079.778,743.431l.9,16.873-1.651.044-.9-16.753Z" transform="translate(-1048.542 -709.758)" fill="#ffd600" stroke="#ffd600" stroke-miterlimit="22.926" stroke-width="0.216" fill-rule="evenodd"/>
        <path id="Path_530" data-name="Path 530" d="M1083.07,743.98c.682,5.528.717,11.229.9,16.812" transform="translate(-1052.654 -710.225)" fill="none" stroke="#ffd600" stroke-miterlimit="22.926" stroke-width="0.216" fill-rule="evenodd"/>
        <path id="Path_531" data-name="Path 531" d="M976.059,730.391c-1.224-.468.124,1.214-1.2,1.008-3.719-2.306-14.153-1.6-17.512-.944-1.523.437-1.433,1.254-1.582,3.08l-.15,10.615-.2,3.82H955.3l-1.051-12.1a11.034,11.034,0,0,1,.558-5.036c.4-.8,1.727-1.078,2.5-1.214a48.79,48.79,0,0,1,11.9-.463C970.183,729.222,975.38,729.821,976.059,730.391Z" transform="translate(-945.197 -697.475)" fill="#ffd600" stroke="#ffd600" stroke-miterlimit="22.926" stroke-width="0.216" fill-rule="evenodd"/>
        <path id="Path_532" data-name="Path 532" d="M984.136,754.363c-4.1.247-12.2.217-15.531,1.63-.664.281-.578,3.936-.657,4.711l.411,4.869c.066.585.039,1.685.71,2.078l.1.044.107.034.08.016.036.007,1.306-.036,2.1-.014,2.7.134,8.888-.212c.4-.06,1.13-.178,1.307-.6a.316.316,0,0,0,.038-.15l-1.26-12.325h-.015l.488,12.185-.048.022-.16.052-5.023.457-5.862.161-1.042.008-2.127.168-1.291.134h-.036l-.081-.01-.111-.026-.1-.038c-.727-.352-.806-1.47-.929-2.072l-.786-4.854c-.1-1.436-.589-4.572,1.04-5.481C972.031,753.226,979.9,754.4,984.136,754.363Z" transform="translate(-956.022 -718.801)" fill="#ffd600" stroke="#ffd600" stroke-miterlimit="22.926" stroke-width="0.216" fill-rule="evenodd"/>
        <path id="Path_533" data-name="Path 533" d="M1197.365,852.966a26.224,26.224,0,0,1,6.1.08,1.855,1.855,0,0,1,1.375,1.359,7.3,7.3,0,0,1,.045,2.058l-.682,1.771a3.389,3.389,0,0,1-2.37,1.087l-4.154.674a1.043,1.043,0,0,1-.674-.11l-.024.014a.637.637,0,0,0,.365.209,8.593,8.593,0,0,0,2.678.134c2.386-.208,5.375-.9,4.861-3.775a8.609,8.609,0,0,0-.52-1.913,1.463,1.463,0,0,0-1.094-.851l-1.095-.056-3.482-.469Z" transform="translate(-1147.656 -802.826)" fill="#ffd600" stroke="#ffd600" stroke-miterlimit="22.926" stroke-width="0.216" fill-rule="evenodd"/>
        <path id="Path_534" data-name="Path 534" d="M1197.23,853.591c1.575-.177,3.452.353,5,.322,1.951-.08,2.457.6,2.687,2.246.21,1.5-.056,3.3-1.881,3.919-.448.143-5.529,1.04-5.973.441" transform="translate(-1147.712 -803.449)" fill="none" stroke="#ffd600" stroke-miterlimit="22.926" stroke-width="0.216" fill-rule="evenodd"/>
        <path id="Path_535" data-name="Path 535" d="M1207.665,849.716l8.043-.709c1.831-.214,4.533-.539,5.368-2.32l.136-.352.09-.391.056-.844.02-.3-.15-1-.367-.863a4.914,4.914,0,0,0-3.189-2.125,22.208,22.208,0,0,0-5.774-.229l-4.274.69v.018l8.841-.008a5.84,5.84,0,0,1,4.09,1.82l.467.755.3.944.031.293.09.854-.027.418-.084.394a4.449,4.449,0,0,1-3.391,2.563C1214.581,850.117,1211.1,849.758,1207.665,849.716Z" transform="translate(-1156.521 -792.344)" fill="#ffd600" stroke="#ffd600" stroke-miterlimit="22.926" stroke-width="0.216" fill-rule="evenodd"/>
        <path id="Path_536" data-name="Path 536" d="M1207.675,851.309c3.657-.411,13.358.72,13.71-3.767.475-6.587-8.825-5.216-13.751-4.661" transform="translate(-1156.526 -793.932)" fill="none" stroke="#ffd600" stroke-miterlimit="22.926" stroke-width="0.216" fill-rule="evenodd"/>
        <path id="Path_537" data-name="Path 537" d="M1017.45,682.878l-.6-4.007a1.917,1.917,0,0,1,1.492-2.2l.57-.073,11.114-.809,8.331-.08,2.46.08c.269.076.316.6.3.809l-.553,4.99a.745.745,0,0,1-.331.489c-3.089,2.03-11.749,1.525-15.6,1.668v.008l11.969.471c1.527-.081,3.884-.26,5-1.449a1.129,1.129,0,0,0,.28-.665l-.08-5.655c-.042-.27-.136-.826-.486-.952l-.131-.02-2.822.231-8.275.674-11.141.774-.487.035a1.122,1.122,0,0,0-1.04.893,3.307,3.307,0,0,0-.179.835Z" transform="translate(-997.439 -651.937)" fill="#ffd600" stroke="#ffd600" stroke-miterlimit="22.926" stroke-width="0.216" fill-rule="evenodd"/>
        <path id="Path_538" data-name="Path 538" d="M1085.084,686.53l.135,1.69-.015,2.124-.4,1.637-.075.008a13.752,13.752,0,0,1-.131-3.775Z" transform="translate(-1053.853 -661.347)" fill="#ffd600" stroke="#ffd600" stroke-miterlimit="22.926" stroke-width="0.216" fill-rule="evenodd"/>
        <path id="Path_539" data-name="Path 539" d="M1086.3,686.53a8.678,8.678,0,0,1-.179,1.69c-.012.65-.049,1.483-.012,2.133a13.7,13.7,0,0,0-.133,1.637" transform="translate(-1055.077 -661.347)" fill="none" stroke="#ffd600" stroke-miterlimit="22.926" stroke-width="0.216" fill-rule="evenodd"/>
        <path id="Path_540" data-name="Path 540" d="M917.216,902.537a7.086,7.086,0,0,0,.806,3.209l.06.09a4.572,4.572,0,0,0,1.824,1.7.974.974,0,0,0,.942-.148c.537-.4.822-1.6,1.232-2.1l1.191.148a4.862,4.862,0,0,1-1.1,2.679,4.233,4.233,0,0,1-3.517.987,3.343,3.343,0,0,1-2.726-.885c-2.316-1.673-2.273-4.125-2.871-6.556.029.1,1.042.146,1.031.241a6.273,6.273,0,0,0,1.351,4.677c.683.687,1.927.623,1.756-.152a11.807,11.807,0,0,1-.228-3.9Z" transform="translate(-910.872 -844.383)" fill="#ffd600" stroke="#ffd600" stroke-miterlimit="22.926" stroke-width="0.216" fill-rule="evenodd"/>
        <path id="Path_541" data-name="Path 541" d="M1209.383,673.382c1.011-.161,2.772-.773,3.535.134,1.484,1.771,3.077,20.8.288,21.518-.985.254-2.177.674-3.095.2-2.4-1.226-2.364-4.49-2.4-6.594l-.022-7.651c.377,1.661-.288,1.022.405,1.753l.84,9.652c.109,1.254,1.131,1.6,2.724,1.463,1.986-.094,1.22-1.172,1.579-3.487.76-4.909-.62-14.633-.7-15.746C1212.428,673.086,1210.583,673.35,1209.383,673.382Z" transform="translate(-1156.587 -649.863)" fill="#ffd600" stroke="#ffd600" stroke-miterlimit="22.926" stroke-width="0.216" fill-rule="evenodd"/>
        <path id="Path_542" data-name="Path 542" d="M1220.208,550.879c1.433-1.168.016-7.77-.42-11.646-.321-2.847-1.1-5.77.134-8.36.917-1.915,1.376-1.39,3.416-1.618.062.443-1.157-.253-2.1,1.421-1.662,2.551-1.051,5.392-.831,8.2l1.374,12.06Z" transform="translate(-1166.214 -527.539)" fill="#ffd600" stroke="#ffd600" stroke-miterlimit="22.926" stroke-width="0.216" fill-rule="evenodd"/>
        <path id="Path_543" data-name="Path 543" d="M1211.063,541.2l-1.127.108a2.761,2.761,0,0,0,.358-1.618l-1.6-18.76c-.3-3.445,3.289-3.476,5.037-2.867a1.936,1.936,0,0,1,.788,1.421l-.7.09c.7-.161-.022-1.12-.511-1.14-4.966-.134-3.653,2.292-3.462,5.392l.662,10.841Z" transform="translate(-1157.408 -517.764)" fill="#ffd600" stroke="#ffd600" stroke-miterlimit="22.926" stroke-width="0.216" fill-rule="evenodd"/>
        <path id="Path_544" data-name="Path 544" d="M1019.69,663.64a1.289,1.289,0,0,1,.465-1.09,9.174,9.174,0,0,1,5.151-1.433l7.383-.018,9.788-.539a8.536,8.536,0,0,1,3.651.385,1.483,1.483,0,0,1,.353,1.148l-1.651-.018c-.131-.527-.089-.994-.491-.953l-10.408,1.088-4.431-.093c-2.72-.1-5.88-.53-8.523.413a2.627,2.627,0,0,0-1.287,1.11Z" transform="translate(-999.799 -639.231)" fill="#ffd600" stroke="#ffd600" stroke-miterlimit="22.926" stroke-width="0.216" fill-rule="evenodd"/>
        <path id="Path_545" data-name="Path 545" d="M1019.69,665.556c.563-3.034,10.132-1.932,13-1.932,2.047,0,13.714-1.793,13.258-.135" transform="translate(-999.796 -641.144)" fill="none" stroke="#ffd600" stroke-miterlimit="22.926" stroke-width="0.216" fill-rule="evenodd"/>
        <g id="Group_194" data-name="Group 194" transform="translate(31.162 19.407)">
          <path id="Path_546" data-name="Path 546" d="M1090.112,648.459a1.377,1.377,0,0,1,.126.468v.278a1.354,1.354,0,0,1-1.262,1.313V649.6a.673.673,0,0,0,.645-.615c.1-.737-.274-1.037-.645-1v-.134A1.29,1.29,0,0,1,1090.112,648.459Zm-1.136,2.06a1.146,1.146,0,0,1-.276-.039,1.392,1.392,0,0,1-.976-1.281v-.234a1.4,1.4,0,0,1,.261-.724,1.163,1.163,0,0,1,.991-.393v.134c-.4.036-.8.468-.588,1.156a.594.594,0,0,0,.588.463Z" transform="translate(-1087.689 -647.842)" fill="#ffd600" fill-rule="evenodd"/>
          <path id="Path_547" data-name="Path 547" d="M1090.08,648.452c.448.966-.324,2.308-1.413,2.022a1.6,1.6,0,0,1-.927-.973,1.412,1.412,0,0,1,.21-1.267,1.4,1.4,0,0,1,1.126-.384,1.324,1.324,0,0,1,1,.6Zm-1.724.674a.628.628,0,0,0,1.233-.152c.205-1.54-1.64-1.166-1.235.152Z" transform="translate(-1087.673 -647.839)" fill="none" stroke="#ffd600" stroke-miterlimit="22.926" stroke-width="0.216" fill-rule="evenodd"/>
        </g>
        <g id="Group_195" data-name="Group 195" transform="translate(35.078 18.98)">
          <path id="Path_548" data-name="Path 548" d="M1113.864,645.7a1.553,1.553,0,0,1,.14.516v.31a1.5,1.5,0,0,1-1.4,1.449v-1.021a.745.745,0,0,0,.717-.674c.107-.817-.3-1.148-.717-1.11v-.146a1.43,1.43,0,0,1,1.254.673Zm-1.254,2.279a1.3,1.3,0,0,1-.3-.043,1.541,1.541,0,0,1-1.075-1.415v-.27a1.545,1.545,0,0,1,.289-.8,1.287,1.287,0,0,1,1.1-.435v.146c-.448.04-.887.517-.651,1.278a.659.659,0,0,0,.651.513Z" transform="translate(-1111.202 -645.011)" fill="#ffd600" fill-rule="evenodd"/>
          <path id="Path_549" data-name="Path 549" d="M1113.841,645.693c.506,1.068-.358,2.554-1.562,2.236a1.772,1.772,0,0,1-1.023-1.077,1.561,1.561,0,0,1,.234-1.4,1.543,1.543,0,0,1,1.245-.425,1.465,1.465,0,0,1,1.106.666Zm-1.909.747a.7.7,0,0,0,1.366-.169c.228-1.705-1.813-1.288-1.363.169Z" transform="translate(-1111.182 -645.005)" fill="none" stroke="#ffd600" stroke-miterlimit="22.926" stroke-width="0.216" fill-rule="evenodd"/>
        </g>
        <g id="Group_196" data-name="Group 196" transform="translate(27.248 19.503)">
          <path id="Path_550" data-name="Path 550" d="M1066.337,649.075a1.321,1.321,0,0,1,.12.443v.262a1.284,1.284,0,0,1-1.2,1.244v-.874a.636.636,0,0,0,.611-.583c.09-.7-.261-.982-.611-.944V648.5A1.227,1.227,0,0,1,1066.337,649.075Zm-1.075,1.95a1.109,1.109,0,0,1-.262-.038,1.319,1.319,0,0,1-.925-1.214v-.218a1.323,1.323,0,0,1,.247-.689,1.1,1.1,0,0,1,.939-.372v.124c-.382.035-.76.443-.558,1.094a.564.564,0,0,0,.558.438Z" transform="translate(-1064.057 -648.491)" fill="#ffd600" fill-rule="evenodd"/>
          <path id="Path_551" data-name="Path 551" d="M1066.315,649.072c.432.913-.3,2.186-1.337,1.913a1.516,1.516,0,0,1-.875-.922,1.336,1.336,0,0,1,.2-1.2,1.321,1.321,0,0,1,1.065-.364,1.254,1.254,0,0,1,.947.57Zm-1.633.639a.6.6,0,0,0,1.169-.144c.179-1.46-1.562-1.106-1.172.148Z" transform="translate(-1064.04 -648.487)" fill="none" stroke="#ffd600" stroke-miterlimit="22.926" stroke-width="0.216" fill-rule="evenodd"/>
        </g>
        <g id="Group_197" data-name="Group 197" transform="translate(23.776 19.659)">
          <path id="Path_552" data-name="Path 552" d="M1045.268,650.094a1.261,1.261,0,0,1,.116.426v.248a1.23,1.23,0,0,1-1.143,1.192v-.835a.609.609,0,0,0,.583-.557c.089-.674-.249-.944-.583-.909v-.118a1.169,1.169,0,0,1,1.028.554Zm-1.028,1.866a1.045,1.045,0,0,1-.251-.035,1.261,1.261,0,0,1-.884-1.162v-.21a1.259,1.259,0,0,1,.238-.659,1.056,1.056,0,0,1,.9-.356v.118a.737.737,0,0,0-.537,1.046.541.541,0,0,0,.537.419Z" transform="translate(-1043.101 -649.534)" fill="#ffd600" fill-rule="evenodd"/>
          <path id="Path_553" data-name="Path 553" d="M1045.257,650.09c.415.874-.3,2.092-1.278,1.83a1.45,1.45,0,0,1-.835-.879,1.277,1.277,0,0,1,.188-1.143,1.264,1.264,0,0,1,1.02-.348,1.2,1.2,0,0,1,.906.546Zm-1.562.611a.57.57,0,0,0,1.118-.134c.174-1.4-1.492-1.06-1.131.132Z" transform="translate(-1043.083 -649.53)" fill="none" stroke="#ffd600" stroke-miterlimit="22.926" stroke-width="0.216" fill-rule="evenodd"/>
        </g>
        <g id="Group_198" data-name="Group 198" transform="translate(39.105 18.732)">
          <path id="Path_554" data-name="Path 554" d="M1138.186,644.014a1.59,1.59,0,0,1,.15.527v.322a1.532,1.532,0,0,1-1.433,1.483V645.3a.762.762,0,0,0,.729-.7c.109-.836-.313-1.174-.729-1.136v-.148a1.461,1.461,0,0,1,1.279.7Zm-1.286,2.334a1.326,1.326,0,0,1-.313-.044,1.575,1.575,0,0,1-1.1-1.449v-.27a1.577,1.577,0,0,1,.3-.818,1.318,1.318,0,0,1,1.121-.447v.148c-.448.042-.9.53-.667,1.308a.673.673,0,0,0,.668.525Z" transform="translate(-1135.461 -643.315)" fill="#ffd600" fill-rule="evenodd"/>
          <path id="Path_555" data-name="Path 555" d="M1138.154,644.009c.518,1.092-.368,2.613-1.6,2.292a1.818,1.818,0,0,1-1.043-1.1,1.6,1.6,0,0,1,.237-1.432,1.58,1.58,0,0,1,1.271-.431,1.5,1.5,0,0,1,1.13.678Zm-1.951.763a.712.712,0,0,0,1.4-.172c.224-1.745-1.862-1.321-1.4.174Z" transform="translate(-1135.438 -643.311)" fill="none" stroke="#ffd600" stroke-miterlimit="22.926" stroke-width="0.216" fill-rule="evenodd"/>
        </g>
        <path id="Path_556" data-name="Path 556" d="M914.236,806.349c.027.218.1,1.635.132,1.851-.926-2.206-5.953-1.288-7.779-.708-.4.126.015,1.132.045,1.435-.058.979,4.433,1.523,5.651,1.851a2.481,2.481,0,0,0,2.284-.5l.051,1.916a20.814,20.814,0,0,0-6.039-1.753,12.062,12.062,0,0,1-2.307-.058c-.717-.176-.784-.966-.76-1.465.029-.644-.073-2.012.927-2.292a10.473,10.473,0,0,1,2.523-.328Z" transform="translate(-904.581 -763.248)" fill="#ffd600" stroke="#ffd600" stroke-miterlimit="22.926" stroke-width="0.216" fill-rule="evenodd"/>
        <path id="Path_557" data-name="Path 557" d="M930.249,811.083l-.026,1.016-.309.739c.48.134-.052,1.038,0,1.535h-.039a4.407,4.407,0,0,1-.527-1.5,3.049,3.049,0,0,1,.9-1.795Z" transform="translate(-924.459 -767.316)" fill="#ffd600" stroke="#ffd600" stroke-miterlimit="22.926" stroke-width="0.216" fill-rule="evenodd"/>
        <path id="Path_558" data-name="Path 558" d="M932.58,814.788c-.1.369-.255.735-.358,1.1l-.051.134v.782" transform="translate(-926.815 -770.468)" fill="none" stroke="#ffd600" stroke-miterlimit="22.926" stroke-width="0.216" fill-rule="evenodd"/>
        <path id="Path_559" data-name="Path 559" d="M901.786,833.277l-.529,2.747-.645,1.951-.081.489-.047.02a2.143,2.143,0,0,1-.391-1.912,6.451,6.451,0,0,1,.86-2.278Z" transform="translate(-900.013 -786.198)" fill="#ffd600" stroke="#ffd600" stroke-miterlimit="22.926" stroke-width="0.216" fill-rule="evenodd"/>
        <path id="Path_560" data-name="Path 560" d="M903.49,833.278c-.511,1.1-1.844,4.138-1.278,5.195" transform="translate(-901.716 -786.199)" fill="none" stroke="#ffd600" stroke-miterlimit="22.926" stroke-width="0.216" fill-rule="evenodd"/>
        <path id="Path_561" data-name="Path 561" d="M1090.47,799.934l5.625-.674c.849-.134,1.928-.581,2.782-.184.751.351.938,1.437,1.075,2.054.058.27.513,1.4-.047,1.771a1.956,1.956,0,0,1-.914.2l-4.237.068a1.731,1.731,0,0,0-.784.43,3.871,3.871,0,0,1-1.933.908l-1-.034v-.08a4.957,4.957,0,0,0,1.749-.509c.593-.373,1.075-1.214,1.855-1.32,1.762-.134,4.492-.01,4.261-1.494l-.309-.991c-.078-.288-.347-.192-.651-.167-2.02.07-6.619-.309-7.363,1.649Z" transform="translate(-1058.822 -756.963)" fill="#ffd600" stroke="#ffd600" stroke-miterlimit="22.926" stroke-width="0.216" fill-rule="evenodd"/>
        <path id="Path_562" data-name="Path 562" d="M1109.587,805.727c.231.763-.687,2.022-.117,2.665l-.1.014c-.213-.168-.464-.315-.544-.563C1108.691,807.413,1108.915,805.659,1109.587,805.727Z" transform="translate(-1074.106 -762.756)" fill="#ffd600" stroke="#ffd600" stroke-miterlimit="22.926" stroke-width="0.216" fill-rule="evenodd"/>
        <g id="Group_199" data-name="Group 199" transform="translate(97.158 49.496)">
          <path id="Path_563" data-name="Path 563" d="M1493.873,858.077a2.825,2.825,0,0,1-.61,1.459,1.061,1.061,0,0,1-.15.135,1.8,1.8,0,0,1-.686.291v-1.214a.8.8,0,0,0,.824-.637c.5-1.507.664-5.159-.293-6.634a.343.343,0,0,0-.222-.2.394.394,0,0,0-.309.035v-.539a.574.574,0,0,1,.415.135,2.291,2.291,0,0,1,.675,1.214,12.764,12.764,0,0,1,.448,3.16,7.37,7.37,0,0,0-.985-5.092.627.627,0,0,0-.551-.237v-.431a1.037,1.037,0,0,1,.564.254,2.743,2.743,0,0,1,.774,1.283,15.146,15.146,0,0,1,.107,7.017Zm-1.442,1.89a3.934,3.934,0,0,1-.618.09,4.566,4.566,0,0,1-1.613-.134l-.3-.11-.411.081a4.15,4.15,0,0,1-2.687-.015,2.016,2.016,0,0,1-1.228-1.046,3.042,3.042,0,0,1-.448-2.807,5.021,5.021,0,0,0,1.085,2.947,2.638,2.638,0,0,0,1.36.716c1.362.113,1.228-.563,1.149-1.145a4.563,4.563,0,0,1-.709-1.927,3.733,3.733,0,0,1,0-1.416h.411a11.454,11.454,0,0,0,1.1,3.44,3.005,3.005,0,0,0,.333.4c.65.505,1.039.373,1.157-.5.335-.611-.858-3.9-.6-5.823a4.323,4.323,0,0,1,1.362-3.041.937.937,0,0,1,.656-.146v.431a1.241,1.241,0,0,0-.681.182c-.8.633-1.389,3.371-.521,2.109.049-.176.258-.421.32-.593.11-.311.462-.848.882-.885v.539a2.05,2.05,0,0,0-.824,1.086,15.993,15.993,0,0,0,.207,5.605c.1.461.351.7.617.743Z" transform="translate(-1484.96 -849.526)" fill="#ffd600" fill-rule="evenodd"/>
          <path id="Path_564" data-name="Path 564" d="M1493.873,858.077a2.823,2.823,0,0,1-.609,1.459,1.063,1.063,0,0,1-.15.134,2.6,2.6,0,0,1-1.3.382,4.577,4.577,0,0,1-1.612-.134l-.3-.11-.411.08a4.151,4.151,0,0,1-2.687-.014,2.012,2.012,0,0,1-1.227-1.046,3.039,3.039,0,0,1-.448-2.807,5.024,5.024,0,0,0,1.085,2.947,2.639,2.639,0,0,0,1.36.717c1.362.114,1.228-.563,1.149-1.144a4.567,4.567,0,0,1-.709-1.927,3.729,3.729,0,0,1,0-1.416h.411a11.464,11.464,0,0,0,1.1,3.44,2.977,2.977,0,0,0,.333.4c.65.505,1.039.373,1.157-.5.335-.611-.858-3.9-.6-5.823a4.323,4.323,0,0,1,1.362-3.041,1.023,1.023,0,0,1,1.22.109,2.741,2.741,0,0,1,.775,1.283,15.143,15.143,0,0,1,.106,7Zm-2.646-5.813c.049-.176.258-.421.32-.593.15-.4.711-1.214,1.3-.741a2.29,2.29,0,0,1,.675,1.214,12.741,12.741,0,0,1,.448,3.16,7.374,7.374,0,0,0-.985-5.092c-.229-.377-1.011-.232-1.232-.055-.8.633-1.388,3.371-.521,2.11Zm1.733-.779c-.469-.724-1.312.607-1.351.924a15.987,15.987,0,0,0,.207,5.605c.227,1.016,1.165.951,1.44.105.5-1.507.66-5.159-.3-6.634Z" transform="translate(-1484.96 -849.526)" fill="none" stroke="#ffd600" stroke-miterlimit="22.926" stroke-width="0.216" fill-rule="evenodd"/>
        </g>
        <path id="Path_565" data-name="Path 565" d="M1409.024,882.816c-.067.387-.329,1.359-1,1.164a1.154,1.154,0,0,1-.62-.655,8.048,8.048,0,0,1-.62-4.062,2.113,2.113,0,0,0,.657.134,13.016,13.016,0,0,0,.309,3.358c.04.181.336,1.185.618.661a6.348,6.348,0,0,0,.472-4.19.637.637,0,0,0,.259.01,10.137,10.137,0,0,1-.075,3.579Z" transform="translate(-1322.576 -825.293)" fill="#ffd600" stroke="#ffd600" stroke-miterlimit="22.926" stroke-width="0.216" fill-rule="evenodd"/>
        <path id="Path_566" data-name="Path 566" d="M1405.671,881.836c-.213,1.241-1.57,2.022-2.282.654a8.175,8.175,0,0,1-.736-4.587c.289.03.6.08.889.126l-.109.844a6.1,6.1,0,0,0,.62,3.275c.5,1.1,1.07.344,1.254-.4a11.383,11.383,0,0,0,.5-3.753.613.613,0,0,0,.128.034A14.715,14.715,0,0,1,1405.671,881.836Z" transform="translate(-1319.115 -824.163)" fill="#ffd600" stroke="#ffd600" stroke-miterlimit="22.926" stroke-width="0.216" fill-rule="evenodd"/>
        <path id="Path_567" data-name="Path 567" d="M1375.567,875.8c.2.966.262,4.2,1,5a2.22,2.22,0,0,0,1.147.6c1.714.142.617-1.207,1.063-1.536.109-.08.711.876.87,1,.627.483.833.293.873-.74,1,1.82,2.077.539,2.251.217l.053.012a1.471,1.471,0,0,1-.428,1.042,2.194,2.194,0,0,1-1.1.322,3.85,3.85,0,0,1-1.351-.116l-.258-.093-.347.064a2.8,2.8,0,0,1-2.3.089c-.555-.193-.717-.53-1-.986a10.138,10.138,0,0,1-.474-4.879Z" transform="translate(-1296.485 -822.379)" fill="#ffd600" stroke="#ffd600" stroke-miterlimit="22.926" stroke-width="0.216" fill-rule="evenodd"/>
        <path id="Path_568" data-name="Path 568" d="M1392.619,889.457a.53.53,0,0,1-.62-.166,3.557,3.557,0,0,1-.967-2.068,3.133,3.133,0,0,1,0-1.193l.168-.344.047.018.717,2.681a1.886,1.886,0,0,0,.654,1.073Z" transform="translate(-1309.424 -830.788)" fill="#ffd600" stroke="#ffd600" stroke-miterlimit="22.926" stroke-width="0.216" fill-rule="evenodd"/>
        <path id="Path_569" data-name="Path 569" d="M1393.6,889.508c-.9.1-1.66-3.164-1.391-3.763" transform="translate(-1310.412 -830.838)" fill="none" stroke="#ffd600" stroke-miterlimit="22.926" stroke-width="0.216" fill-rule="evenodd"/>
        <path id="Path_570" data-name="Path 570" d="M1542.795,864.16c.09,2.208-.338,4.017-.963,4.045s-1.2-1.753-1.3-3.961.338-4.018.964-4.045,1.2,1.753,1.3,3.961" transform="translate(-1434.131 -809.103)" fill="none" stroke="#ffd600" stroke-miterlimit="22.926" stroke-width="0.216" fill-rule="evenodd"/>
        <g id="Group_200" data-name="Group 200" transform="translate(105.678 49.542)">
          <path id="Path_571" data-name="Path 571" d="M1539.389,858.4c-.109.644-.717,1.865-1.685,1.663a1.377,1.377,0,0,1-.806-.551V857.1c.248.966.812,2.736,1.4,2.321a1.77,1.77,0,0,0,.654-1.144c.592-2.427,1.306-5.005-.663-7.679-.516-.7-1.051.008-1.4.747v-.988a2.218,2.218,0,0,1,.393-.352c.968-.674,1.828.724,1.993,1.392a15.138,15.138,0,0,1,.107,7Zm-2.493-4.772.179-1.393c-.068.112-.127.206-.179.286Zm0,5.883a4.359,4.359,0,0,1-.538-1.033c.478-.361.316-1.483.406-1.94.012.072.056.286.129.563v2.407Zm0-8.162a6.565,6.565,0,0,0-.335.875c-.15-.258-.116-.563-.276-.819a3.447,3.447,0,0,1,.611-1.046v.988Zm0,1.17v1.108l-.138,1.061a.505.505,0,0,0-.02-.064l-.022-.062v.01c0-.442,0-.852.013-1.3.109-.118.035-.394-.011-.533a1.99,1.99,0,0,0,.179-.224Z" transform="translate(-1536.283 -849.823)" fill="#ffd600" fill-rule="evenodd"/>
          <path id="Path_572" data-name="Path 572" d="M1539.389,858.4c-.109.644-.717,1.865-1.685,1.663-.75-.161-1.107-1-1.344-1.585.477-.361.315-1.483.4-1.94.051.322.767,3.424,1.534,2.887a1.766,1.766,0,0,0,.655-1.144c.591-2.427,1.306-5.005-.664-7.679-.751-1.01-1.523.907-1.731,1.618-.149-.258-.115-.563-.276-.818a2.957,2.957,0,0,1,1-1.4c.969-.674,1.828.724,1.993,1.392a15.142,15.142,0,0,1,.106,7Zm-2.652-3.775-.022-.062v.01c0-.443,0-.852.013-1.3.109-.119.035-.394-.01-.533a3.161,3.161,0,0,0,.358-.509l-.32,2.455a.344.344,0,0,0-.006-.065Z" transform="translate(-1536.283 -849.824)" fill="none" stroke="#ffd600" stroke-miterlimit="22.926" stroke-width="0.216" fill-rule="evenodd"/>
        </g>
        <g id="Group_201" data-name="Group 201" transform="translate(106 50.638)">
          <path id="Path_573" data-name="Path 573" d="M1540.866,864.274c-.076.435-.474,1.577-1.193,1.5v-.553c.312.135.627-.058.751-.495.4-1.483.448-5.529-.4-6.841a.347.347,0,0,0-.342-.2v-.517a.62.62,0,0,1,.276.135,2.291,2.291,0,0,1,.675,1.214,12.646,12.646,0,0,1,.479,3.178v.256A14.3,14.3,0,0,1,1540.866,864.274Zm-1.193,1.5a.708.708,0,0,1-.122-.024c-.358-.105-.48-.587-.6-.87a9.345,9.345,0,0,1-.781-3.434v-.757a9.03,9.03,0,0,1,.491-2.641c.122-.345.537-.966,1.019-.876v.517c-.4.05-.827.82-.858,1.05a14.112,14.112,0,0,0,.233,5.491,1.4,1.4,0,0,0,.627.991Z" transform="translate(-1538.167 -857.16)" fill="#ffd600" fill-rule="evenodd"/>
          <path id="Path_574" data-name="Path 574" d="M1540.835,864.275c-.08.459-.52,1.705-1.315,1.473-.358-.105-.48-.587-.6-.87a9.513,9.513,0,0,1-.289-6.831c.15-.4.711-1.214,1.3-.741a2.293,2.293,0,0,1,.675,1.214,12.062,12.062,0,0,1,.242,5.759Zm-.849-6.392c-.435-.674-1.165.554-1.2.853a14.121,14.121,0,0,0,.232,5.491c.333,1.3,1.16,1.272,1.371.5.4-1.482.448-5.526-.409-6.841Z" transform="translate(-1538.132 -857.161)" fill="none" stroke="#ffd600" stroke-miterlimit="22.926" stroke-width="0.216" fill-rule="evenodd"/>
        </g>
        <path id="Path_575" data-name="Path 575" d="M1079.65,735.6c.371-.34,8.59.348,12.663.906v.146c-4.708-.258-11.84-1.47-11.225,2.888C1081.119,739.042,1079.587,736.089,1079.65,735.6Z" transform="translate(-1049.796 -703.014)" fill="#ffd600" stroke="#ffd600" stroke-miterlimit="22.926" stroke-width="0.216" fill-rule="evenodd"/>
        <path id="Path_576" data-name="Path 576" d="M1169.108,670.878l-1.153,8.785a17.369,17.369,0,0,0,.435,4.643l.711,5.009h-.1l-1.433-4.807a16.951,16.951,0,0,1-.793-5.035l.691-8.6Z" transform="translate(-1122.456 -648.03)" fill="#ffd600" stroke="#ffd600" stroke-miterlimit="22.926" stroke-width="0.216" fill-rule="evenodd"/>
        <path id="Path_577" data-name="Path 577" d="M1170.771,670.878a44.454,44.454,0,0,1-.922,8.692c-.614,3.081,1.689,6.575,1.689,9.748" transform="translate(-1124.94 -648.03)" fill="none" stroke="#ffd600" stroke-miterlimit="22.926" stroke-width="0.216" fill-rule="evenodd"/>
        <g id="Group_202" data-name="Group 202" transform="translate(42.771 47.177)">
          <path id="Path_578" data-name="Path 578" d="M1162.249,846.406c-.127.724-.582,2.441-1.693,2.472v-.885c.126-.02.308-.3.329-.337a13.4,13.4,0,0,0-.329-12.165V834.13l.09.064a4.02,4.02,0,0,1,1.184,2.121,22.294,22.294,0,0,1,.838,5.483v.623a25.356,25.356,0,0,1-.414,3.988Zm-1.693,2.472a1.259,1.259,0,0,1-.387-.052,2.4,2.4,0,0,1-1.289-1.363,16.36,16.36,0,0,1-1.367-5.988V840.1a15.811,15.811,0,0,1,.86-4.606c.247-.7,1.191-2.044,2.184-1.362v1.359c-.065-.109-.132-.217-.2-.322s-.307-.427-.467-.252a3.291,3.291,0,0,0-.7,1.708,27.082,27.082,0,0,0,.407,9.658c.078.348.384,1.545.922,1.709a.085.085,0,0,0,.034,0Z" transform="translate(-1157.511 -833.943)" fill="#ffd600" fill-rule="evenodd"/>
          <path id="Path_579" data-name="Path 579" d="M1162.187,846.406c-.141.809-.684,2.831-2.08,2.419a2.4,2.4,0,0,1-1.29-1.363,16.682,16.682,0,0,1-.507-11.97c.253-.72,1.246-2.122,2.271-1.3a4.017,4.017,0,0,1,1.184,2.121,21.137,21.137,0,0,1,.423,10.091Zm-1.894-11.241c-.065-.1-.308-.427-.467-.252a3.293,3.293,0,0,0-.7,1.709,27.093,27.093,0,0,0,.407,9.658c.078.348.384,1.545.924,1.708.125.038.341-.292.363-.334a13.332,13.332,0,0,0-.527-12.49Z" transform="translate(-1157.437 -833.941)" fill="none" stroke="#ffd600" stroke-miterlimit="22.926" stroke-width="0.216" fill-rule="evenodd"/>
        </g>
        <path id="Path_580" data-name="Path 580" d="M1165.876,844.033c.164,3.871-.591,7.04-1.687,7.078s-2.117-3.072-2.28-6.942.593-7.04,1.688-7.077,2.117,3.072,2.28,6.943" transform="translate(-1118.385 -789.443)" fill="none" stroke="#ffd600" stroke-miterlimit="22.926" stroke-width="0.216" fill-rule="evenodd"/>
        <g id="Group_203" data-name="Group 203" transform="translate(37.363 44.975)">
          <path id="Path_581" data-name="Path 581" d="M1135.266,834.179a4.8,4.8,0,0,1-.6,1.556,2.085,2.085,0,0,1-.729,1.247,3.152,3.152,0,0,1-1.051.517v-1.436a.524.524,0,0,0,.47-.089,3.1,3.1,0,0,0,1.146-2c1.037-4.254,2.289-8.765-1.165-13.455a1.018,1.018,0,0,0-.448-.3v-.962a1.788,1.788,0,0,1,.833.419,4.808,4.808,0,0,1,1.351,2.245,26.532,26.532,0,0,1,.194,12.265Zm-2.376,3.32a12.236,12.236,0,0,1-4.875.016,3.985,3.985,0,0,1-1.941-2.776,8.73,8.73,0,0,1-1.158-3.733,8.583,8.583,0,0,0,1.2-.034c.609,2.292.751,3.506,2.635,5.016.911.593,1.2.253,1.289-1.475a18.557,18.557,0,0,1-.932-9.588c.224-1.709.782-4.274,2.475-5.449a1.679,1.679,0,0,1,1.3-.228v.962a1.065,1.065,0,0,0-.985.047c-1.48,1.18-2.664,6.438-.687,3.119-.533,4.1-1.118,7.446.684,11.448.134.3.511,1.1.991,1.239Z" transform="translate(-1124.916 -819.203)" fill="#ffd600" fill-rule="evenodd"/>
          <path id="Path_582" data-name="Path 582" d="M1135.266,834.177a4.806,4.806,0,0,1-.6,1.556,2.084,2.084,0,0,1-.729,1.247c-1.351,1.066-4.108.809-5.921.539a3.986,3.986,0,0,1-1.941-2.777,8.733,8.733,0,0,1-1.158-3.733,8.624,8.624,0,0,0,1.2-.034c.609,2.292.751,3.506,2.635,5.016.911.593,1.2.253,1.289-1.475a18.557,18.557,0,0,1-.932-9.588c.224-1.709.782-4.274,2.475-5.448a1.791,1.791,0,0,1,2.136.192,4.8,4.8,0,0,1,1.351,2.245,26.525,26.525,0,0,1,.186,12.271Zm-1.922-13.663a1.215,1.215,0,0,0-1.44-.259c-1.48,1.18-2.664,6.438-.687,3.119-.533,4.1-1.118,7.446.684,11.448.174.388.765,1.637,1.46,1.15a3.1,3.1,0,0,0,1.147-2c1.044-4.257,2.29-8.772-1.165-13.455Z" transform="translate(-1124.916 -819.199)" fill="none" stroke="#ffd600" stroke-miterlimit="22.926" stroke-width="0.216" fill-rule="evenodd"/>
        </g>
        <path id="Path_583" data-name="Path 583" d="M1352.47,857.821c.123,2.918-.448,5.306-1.273,5.334s-1.6-2.315-1.718-5.231.448-5.306,1.273-5.334,1.6,2.315,1.718,5.231" transform="translate(-1274.815 -802.629)" fill="none" stroke="#ffd600" stroke-miterlimit="22.926" stroke-width="0.216" fill-rule="evenodd"/>
        <path id="Path_584" data-name="Path 584" d="M1346.191,850.214c-.15.847-.945,2.463-2.226,2.2-1-.21-1.924-1.571-2.233-2.346.168-.984.7-3.754.816-4.36.068.425,1.193,6.388,2.2,5.678a1.957,1.957,0,0,0,.864-1.326c.78-3.206,1.724-6.607-.877-10.14-1.5-2.044-1.651,4.053-2.229,4.639-.129.134-.339-2.789-.677-3.322a5.192,5.192,0,0,1,1.582-2.1c1.278-.885,2.419.958,2.633,1.838A19.993,19.993,0,0,1,1346.191,850.214Z" transform="translate(-1268.355 -790.981)" fill="#ffd600" stroke="#ffd600" stroke-miterlimit="22.926" stroke-width="0.216" fill-rule="evenodd"/>
        <g id="Group_204" data-name="Group 204" transform="translate(74.136 49.362)">
          <path id="Path_585" data-name="Path 585" d="M1349.945,857.979c-.1.546-.438,1.839-1.276,1.862v-.674c.094-.014.233-.224.247-.253a10.1,10.1,0,0,0-.247-9.169V848.72l.064.048a3.026,3.026,0,0,1,.9,1.6,16.777,16.777,0,0,1,.627,4.16v.415a18.971,18.971,0,0,1-.311,3.037Zm-1.276,1.862a.945.945,0,0,1-.291-.04,1.807,1.807,0,0,1-.971-1.028,12.334,12.334,0,0,1-1.031-4.523v-1.022a11.947,11.947,0,0,1,.648-3.476c.187-.527.9-1.54,1.651-1.028v1.025c-.047-.081-.1-.161-.15-.241s-.233-.322-.353-.19a2.48,2.48,0,0,0-.526,1.288,20.414,20.414,0,0,0,.3,7.281c.058.262.289,1.165.7,1.288a.067.067,0,0,0,.026,0Z" transform="translate(-1346.368 -848.585)" fill="#ffd600" fill-rule="evenodd"/>
          <path id="Path_586" data-name="Path 586" d="M1349.894,857.979c-.107.605-.516,2.13-1.567,1.823a1.8,1.8,0,0,1-.971-1.028,12.569,12.569,0,0,1-.383-9.021c.191-.539.939-1.6,1.711-.979a3.028,3.028,0,0,1,.9,1.6,15.923,15.923,0,0,1,.32,7.606Zm-1.428-8.472c-.047-.076-.233-.322-.353-.19a2.471,2.471,0,0,0-.523,1.288,20.411,20.411,0,0,0,.3,7.281c.058.262.289,1.165.7,1.288.09.028.256-.22.269-.252a10.051,10.051,0,0,0-.391-9.416Z" transform="translate(-1346.315 -848.583)" fill="none" stroke="#ffd600" stroke-miterlimit="22.926" stroke-width="0.216" fill-rule="evenodd"/>
        </g>
        <path id="Path_587" data-name="Path 587" d="M1203.952,909.5c-.407,1.26-.7,2.872-2.1,3.6a1.218,1.218,0,0,1-.979.06v-.093a2.275,2.275,0,0,0,.935-1.078,9.944,9.944,0,0,0,.5-2.627Z" transform="translate(-1150.898 -850.934)" fill="#ffd600" stroke="#ffd600" stroke-miterlimit="22.926" stroke-width="0.216" fill-rule="evenodd"/>
        <path id="Path_588" data-name="Path 588" d="M1203.118,909.812c-.1,1.012-.717,3.68-2.251,3.68" transform="translate(-1150.895 -851.314)" fill="none" stroke="#ffd600" stroke-miterlimit="22.926" stroke-width="0.216" fill-rule="evenodd"/>
        <path id="Path_589" data-name="Path 589" d="M1111.516,917.953a1.99,1.99,0,0,1,1.233,1.483c-.09.626-.908.842-1.088.84a3.133,3.133,0,0,1-2.22-.566,2.528,2.528,0,0,1-1.055-1.843C1109.429,917.86,1110.477,917.953,1111.516,917.953Z" transform="translate(-1073.772 -858.163)" fill="#ffd600" stroke="#ffd600" stroke-miterlimit="22.926" stroke-width="0.216" fill-rule="evenodd"/>
        <path id="Path_590" data-name="Path 590" d="M955.069,909.363l2.393-.034,8.911.182a19.01,19.01,0,0,0-8.577,2.517l-3.124-.507Z" transform="translate(-945.579 -850.903)" fill="#ffd600" stroke="#ffd600" stroke-miterlimit="22.926" stroke-width="0.216" fill-rule="evenodd"/>
        <path id="Path_591" data-name="Path 591" d="M1057.83,892.389c3.344.864,9.976-1.266,12.685-1.97l.433,3.873a110.729,110.729,0,0,1-13.118-.944Z" transform="translate(-1031.614 -834.814)" fill="#ffd600" stroke="#ffd600" stroke-miterlimit="22.926" stroke-width="0.216" fill-rule="evenodd"/>
        <path id="Path_592" data-name="Path 592" d="M1554.645,678.565a49.789,49.789,0,0,0-.775,20.426h-.09a28.283,28.283,0,0,1,.864-20.426Z" transform="translate(-1443.937 -654.57)" fill="#ffd600" stroke="#ffd600" stroke-miterlimit="22.926" stroke-width="0.216" fill-rule="evenodd"/>
        <path id="Path_593" data-name="Path 593" d="M967.472,683.547l-5.829,1.432c-1.971.576-1.951.306-2.2,2.093,0,.4.378,2.822.911,2.865,1.662.06,1.369-.3,1.344-1.585l.15-2.759.245-.483.3,3.983c.04.539.151,1.056-.422,1.379a3.905,3.905,0,0,1-2,.232c-.44-.026-1.235-1.368-1.367-1.753a5.051,5.051,0,0,1,.351-3.89.656.656,0,0,1,.4-.263l8.152-1.6Z" transform="translate(-948.657 -658.515)" fill="#ffd600" stroke="#ffd600" stroke-miterlimit="22.926" stroke-width="0.216" fill-rule="evenodd"/>
        <path id="Path_594" data-name="Path 594" d="M969.782,685.652a24.066,24.066,0,0,0-2.969.551,23.6,23.6,0,0,0-4.81,1.2,5.444,5.444,0,0,0-.257,3.494c.051.092.461.551.511.644.46.828-.409.874,1.278.874,1.74,0,1.126-.874,1.126-1.977,0-.874-.1-1.888-.1-2.759" transform="translate(-951.324 -660.597)" fill="none" stroke="#ffd600" stroke-miterlimit="22.926" stroke-width="0.216" fill-rule="evenodd"/>
        <path id="Path_595" data-name="Path 595" d="M1179.29,678.565l4.5.557c1.5.134,3.164-.064,4.473.782a1.263,1.263,0,0,1,.525.644l.219,4.045c.179,3.329-.71,3.044-3.835,3.491-1.07.154-1.756-1.879-1.742-2.793l.038-2.817a1.513,1.513,0,0,0-.615-1.514l-2.458-1.441.029-.069a6.644,6.644,0,0,1,3.386,1.78c.571.741.269,1.978.315,2.8A3.113,3.113,0,0,0,1184.6,686a.776.776,0,0,0,.479.241l.247.015c3.821-.371,2.583-.483,2.663-4.473l-.033-1a.542.542,0,0,0-.22-.283,6.5,6.5,0,0,0-2.735-.747l-3.554-.513Z" transform="translate(-1132.897 -654.57)" fill="#ffd600" stroke="#ffd600" stroke-miterlimit="22.926" stroke-width="0.216" fill-rule="evenodd"/>
        <path id="Path_596" data-name="Path 596" d="M1287.31,839.586l3.152-.176a.937.937,0,0,0,.674-.724l.053-.663.622-3.832a3.936,3.936,0,0,1,2.564-2.516,11.908,11.908,0,0,1,4.371-.03,4.235,4.235,0,0,1,3.152,1.924,10.384,10.384,0,0,1,1.042,4.265l-.09.014c-.6-1.878-1.009-4.818-3.622-5.318l-.627-.105-1.549-.056-1.982.148-.4.08-.358.134-.335.174c-1.895,1.288-1.822,3.667-2.131,5.56a1.6,1.6,0,0,1-1.233,1.423,10.608,10.608,0,0,1-3.3-.3Z" transform="translate(-1222.972 -784.64)" fill="#ffd600" stroke="#ffd600" stroke-miterlimit="22.926" stroke-width="0.216" fill-rule="evenodd"/>
        <path id="Path_597" data-name="Path 597" d="M1287.31,842.356c2.226.068,4.224.754,4.224-1.568,0-2.116.717-5.7,3.48-5.977,6.039-.551,7.012.92,7.883,5.795" transform="translate(-1222.971 -787.41)" fill="none" stroke="#ffd600" stroke-miterlimit="22.926" stroke-width="0.216" fill-rule="evenodd"/>
        <path id="Path_598" data-name="Path 598" d="M1282.09,833.378c-2.866.2-5.759.838-8.564.285l-2.266-.72.063-.143,5.025.194Z" transform="translate(-1209.594 -785.793)" fill="#ffd600" stroke="#ffd600" stroke-miterlimit="22.926" stroke-width="0.216" fill-rule="evenodd"/>
        <path id="Path_599" data-name="Path 599" d="M1282.254,833.783c-3.48,0-8.241.414-10.8-.505" transform="translate(-1209.752 -786.199)" fill="none" stroke="#ffd600" stroke-miterlimit="22.926" stroke-width="0.216" fill-rule="evenodd"/>
        <path id="Path_600" data-name="Path 600" d="M1475.59,851.414v-.361l5.229.347c2.2.093.64-3.068,1.7-4.933a1.87,1.87,0,0,1,1.826-1.114v.07a2.515,2.515,0,0,0-1.531,1.991,10.125,10.125,0,0,0-.269,3.08c.038.539.135,1.328-.642,1.491a10.1,10.1,0,0,1-2.478-.256Z" transform="translate(-1379.991 -796.458)" fill="#ffd600" stroke="#ffd600" stroke-miterlimit="22.926" stroke-width="0.216" fill-rule="evenodd"/>
        <path id="Path_601" data-name="Path 601" d="M1473.772,847.567a8.51,8.51,0,0,1-.205-3.762,6.378,6.378,0,0,1,1.544-2.414,3.63,3.63,0,0,1,1-.579l.039.072a9.878,9.878,0,0,0-1.548,3.194l-.418,2.216Z" transform="translate(-1378.168 -792.612)" fill="#ffd600" stroke="#ffd600" stroke-miterlimit="22.926" stroke-width="0.216" fill-rule="evenodd"/>
        <path id="Path_602" data-name="Path 602" d="M1475.6,847.771a21.708,21.708,0,0,0,.1-2.621c0-1.012,1.227-3.641,2.25-4.094" transform="translate(-1379.993 -792.816)" fill="none" stroke="#ffd600" stroke-miterlimit="22.926" stroke-width="0.216" fill-rule="evenodd"/>
        <path id="Path_603" data-name="Path 603" d="M1547.44,846.3a2.655,2.655,0,0,1,1.861,1.248,3.491,3.491,0,0,1,.4,1.91l-.189,1.26h-.056a5.645,5.645,0,0,0-1.2-3.815Z" transform="translate(-1439.906 -797.274)" fill="#ffd600" stroke="#ffd600" stroke-miterlimit="22.926" stroke-width="0.216" fill-rule="evenodd"/>
        <path id="Path_604" data-name="Path 604" d="M1547.44,846.3a3.193,3.193,0,0,1,1.952,1.931,8.063,8.063,0,0,1,.1,2.484" transform="translate(-1439.906 -797.274)" fill="none" stroke="#ffd600" stroke-miterlimit="22.926" stroke-width="0.216" fill-rule="evenodd"/>
        <path id="Path_605" data-name="Path 605" d="M1337.9,915.616c-2.375,0-3.762.8-4.031-1.132.423.457,1.291-1.565,1.523-1.288s2.458,2,2.458,2Z" transform="translate(-1261.81 -854.172)" fill="#ffd600" stroke="#ffd600" stroke-miterlimit="22.926" stroke-width="0.216" fill-rule="evenodd"/>
        <path id="Path_606" data-name="Path 606" d="M1148.81,813.849l3.975-.11a9.32,9.32,0,0,1,2.651.539,3.9,3.9,0,0,1,2.228,3.641l.023,1.585a6.725,6.725,0,0,1,.131,2.128.059.059,0,0,1-.051.058v-.049c-.09.014-.084-.066-.125-.171l-.558-1.872c-.342-1.537-.227-3.676-2.074-4.5A24.593,24.593,0,0,0,1148.81,813.849Z" transform="translate(-1107.472 -769.576)" fill="#ffd600" stroke="#ffd600" stroke-miterlimit="22.926" stroke-width="0.216" fill-rule="evenodd"/>
        <path id="Path_607" data-name="Path 607" d="M1148.81,814.48c1.792,0,6.193.134,7.37,1.471a5.192,5.192,0,0,1,1.126,3.633c0,.414.512,2.713.461,2.713" transform="translate(-1107.472 -770.206)" fill="none" stroke="#ffd600" stroke-miterlimit="22.926" stroke-width="0.216" fill-rule="evenodd"/>
        <path id="Path_608" data-name="Path 608" d="M1134.94,856.166l1.351-.871-.055.027-.027.019-.011.006h0l.011-.046.017-.08.179-3.076.1-1.26-.289.035-.417.05-.278-.01-.022-.058c.4-.27,1.473-.971,1.651-.2a9.837,9.837,0,0,1-.022,4.072,1.808,1.808,0,0,1-.392.966C1136.355,856.08,1135.424,856.08,1134.94,856.166Z" transform="translate(-1095.909 -800.719)" fill="#ffd600" stroke="#ffd600" stroke-miterlimit="22.926" stroke-width="0.216" fill-rule="evenodd"/>
        <path id="Path_609" data-name="Path 609" d="M1134.94,857.613a9.957,9.957,0,0,1,1.484-.6c.46-.184.512-4.921.358-4.966a6.513,6.513,0,0,0-1.28.322" transform="translate(-1095.909 -802.165)" fill="none" stroke="#ffd600" stroke-miterlimit="22.926" stroke-width="0.216" fill-rule="evenodd"/>
      </g>
    </g>
  </g>
</svg>
