<svg id="uploadPhoto" xmlns="http://www.w3.org/2000/svg" width="213.213" height="188.8" viewBox="0 0 213.213 188.8">
  <circle id="Ellipse_61" data-name="Ellipse 61" cx="14.648" cy="14.648" r="14.648" transform="translate(65.714 46.59)" fill="#c2c2c2"/>
  <path id="Path_1562" data-name="Path 1562" d="M200.6,139.151a45.109,45.109,0,0,0-25.228-12V52.686a29.29,29.29,0,0,0-8.341-20.345A28.427,28.427,0,0,0,146.686,24h-118A29.29,29.29,0,0,0,8.341,32.341,28.427,28.427,0,0,0,0,52.686V174.145a29.29,29.29,0,0,0,8.341,20.345,28.427,28.427,0,0,0,20.345,8.341H142.82A43.043,43.043,0,0,0,200.6,139.152ZM10.783,52.686a17.029,17.029,0,0,1,5.29-12.41,17.852,17.852,0,0,1,12.614-5.29h118a18.062,18.062,0,0,1,17.9,17.9v63.476l-30.11-30.11a5.463,5.463,0,0,0-7.731,0L81.379,131.827,50.659,100.9a5.463,5.463,0,0,0-7.731,0L10.783,133.455Zm17.7,139.769v-.407a17.852,17.852,0,0,1-12.614-5.29,18.567,18.567,0,0,1-5.086-12.614V148.917L46.793,112.7l30.721,30.721a5.658,5.658,0,0,0,7.731,0l45.369-45.572,29.7,29.907-1.831.61a18.894,18.894,0,0,0-2.645.814c-.814.2-1.628.61-2.441.814a6.091,6.091,0,0,0-1.628.814,18.907,18.907,0,0,0-2.034,1.017l-3.052,1.831c-.61.407-1.017.61-1.628,1.017-.407.2-.61.407-1.017.61a24.546,24.546,0,0,0-4.883,4.272,43.039,43.039,0,0,0-12.614,30.517,44.727,44.727,0,0,0,1.017,8.952c.2.814.407,1.424.61,2.238.61,2.034,1.221,4.069,2.034,6.1v.2a37.32,37.32,0,0,0,2.645,4.883Zm164.182,0a32.184,32.184,0,0,1-44.962.407c-.814-.814-1.628-1.831-2.441-2.645-.61-.61-1.221-1.424-1.831-2.034a19.32,19.32,0,0,1-2.034-3.459c-.407-.814-.814-1.424-1.221-2.238a17.185,17.185,0,0,1-1.017-3.459c-.2-.814-.61-1.831-.814-2.645a33.673,33.673,0,0,1-.61-6.51,32.656,32.656,0,0,1,9.359-22.786,31.454,31.454,0,0,1,22.786-9.359,32.656,32.656,0,0,1,22.786,9.359,31.8,31.8,0,0,1,9.359,22.786,32.539,32.539,0,0,1-9.359,22.583Z" transform="translate(0 -24)" fill="#c2c2c2"/>
  <path id="Path_1563" data-name="Path 1563" d="M320.471,266.028a7.1,7.1,0,0,0-1.831-1.221,5.94,5.94,0,0,0-1.831-.407H316.4a5.94,5.94,0,0,0-1.831.407,4.8,4.8,0,0,0-1.831,1.221l-12.614,12.614a5.467,5.467,0,1,0,7.731,7.731l3.255-3.255V305.5a5.493,5.493,0,0,0,10.986,0V283.117l3.255,3.255a5.467,5.467,0,0,0,7.731-7.731Z" transform="translate(-146.726 -142.128)" fill="#c2c2c2"/>
</svg>
