<svg xmlns="http://www.w3.org/2000/svg" width="51" height="51" viewBox="0 0 51 51">
  <g id="user_icon" transform="translate(0)">
    <rect id="Rectangle_1958" data-name="Rectangle 1958" width="51" height="51" transform="translate(0)" fill="none"/>
    <g id="svgexport-20" transform="translate(9.759 5.725)">
      <path id="Path_1394" data-name="Path 1394" d="M16.248,19.051a9.217,9.217,0,0,0,6.735-2.791,9.217,9.217,0,0,0,2.79-6.735A9.218,9.218,0,0,0,22.983,2.79,9.219,9.219,0,0,0,16.248,0,9.216,9.216,0,0,0,9.513,2.79,9.217,9.217,0,0,0,6.722,9.525,9.217,9.217,0,0,0,9.513,16.26a9.22,9.22,0,0,0,6.735,2.79Zm-5.1-14.621a6.885,6.885,0,0,1,5.1-2.112,6.886,6.886,0,0,1,5.1,2.112,6.886,6.886,0,0,1,2.112,5.1,6.886,6.886,0,0,1-2.112,5.1,6.885,6.885,0,0,1-5.1,2.112,6.887,6.887,0,0,1-5.1-2.112,6.885,6.885,0,0,1-2.112-5.1A6.885,6.885,0,0,1,11.152,4.429ZM32.915,30.411a23.53,23.53,0,0,0-.32-2.5A19.674,19.674,0,0,0,31.98,25.4a12.408,12.408,0,0,0-1.033-2.343,8.832,8.832,0,0,0-1.557-2.03,6.869,6.869,0,0,0-2.237-1.406A7.734,7.734,0,0,0,24.3,19.1a2.9,2.9,0,0,0-1.548.657q-.8.524-1.613,1.04a9.239,9.239,0,0,1-2.087.919,8.1,8.1,0,0,1-5.1,0,9.217,9.217,0,0,1-2.085-.919c-.6-.384-1.143-.733-1.614-1.04A2.9,2.9,0,0,0,8.7,19.1a7.721,7.721,0,0,0-2.856.518A6.861,6.861,0,0,0,3.6,21.027a8.835,8.835,0,0,0-1.557,2.029A12.439,12.439,0,0,0,1.014,25.4,19.722,19.722,0,0,0,.4,27.912a23.368,23.368,0,0,0-.32,2.5C.026,31.167,0,31.953,0,32.747a6.567,6.567,0,0,0,1.95,4.968,7.02,7.02,0,0,0,5.026,1.833H26.019a7.021,7.021,0,0,0,5.026-1.833A6.565,6.565,0,0,0,33,32.747c0-.8-.027-1.583-.08-2.336Zm-3.469,5.625a4.727,4.727,0,0,1-3.428,1.195H6.976a4.728,4.728,0,0,1-3.428-1.194,4.289,4.289,0,0,1-1.231-3.29c0-.741.024-1.473.073-2.175a21.036,21.036,0,0,1,.29-2.251,17.4,17.4,0,0,1,.54-2.215A10.122,10.122,0,0,1,4.062,24.2a6.546,6.546,0,0,1,1.144-1.5,4.555,4.555,0,0,1,1.488-.925,5.332,5.332,0,0,1,1.825-.352c.081.043.226.126.46.278.476.311,1.026.665,1.633,1.052a11.48,11.48,0,0,0,2.619,1.17,10.419,10.419,0,0,0,6.53,0,11.5,11.5,0,0,0,2.621-1.171c.621-.4,1.155-.741,1.631-1.052.234-.152.379-.235.46-.278a5.335,5.335,0,0,1,1.826.352,4.563,4.563,0,0,1,1.488.925,6.531,6.531,0,0,1,1.144,1.5,10.085,10.085,0,0,1,.841,1.9,17.366,17.366,0,0,1,.541,2.215,21.256,21.256,0,0,1,.29,2.251h0c.049.7.074,1.431.074,2.174a4.288,4.288,0,0,1-1.231,3.289Zm0,0" transform="translate(0 0)" fill="#ffd600"/>
    </g>
  </g>
</svg>
