<svg xmlns="http://www.w3.org/2000/svg" width="44" height="44" viewBox="0 0 44 44">
  <g id="Group_1172" data-name="Group 1172" transform="translate(-957 -24)">
    <circle id="Ellipse_13" data-name="Ellipse 13" cx="22" cy="22" r="22" transform="translate(957 24)" fill="#2f2f2f"/>
    <path id="Icon_awesome-user-alt" data-name="Icon awesome-user-alt" d="M13,14.625A7.313,7.313,0,1,0,5.688,7.313,7.314,7.314,0,0,0,13,14.625Zm6.5,1.625H16.7a8.84,8.84,0,0,1-7.4,0H6.5A6.5,6.5,0,0,0,0,22.75v.813A2.438,2.438,0,0,0,2.438,26H23.563A2.438,2.438,0,0,0,26,23.563V22.75A6.5,6.5,0,0,0,19.5,16.25Z" transform="translate(966 32)" fill="#ffd600"/>
  </g>
</svg>
